<svg xmlns="http://www.w3.org/2000/svg" height="141.4" width="140" viewBox="0 0 140 141.4" id="Layer_1"><style id="style6319">.st0{display:none}.st1{display:inline}.st1,.st2{fill:#fff}</style><g transform="translate(12)" id="XMLID_603_"><g id="XMLID_672_"><g id="XMLID_676_"><path d="M58.8 74.5c-13 0-23.5-10.6-23.5-23.5s10.6-23.5 23.5-23.5S82.3 38 82.3 51 71.7 74.5 58.8 74.5zm0-43.1C48 31.4 39.2 40.2 39.2 51S48 70.5 58.8 70.5 78.3 61.7 78.3 51s-8.8-19.6-19.5-19.6z" class="st2" id="XMLID_1159_" fill="#fff"/></g><g id="XMLID_675_"><path d="M58.8 102.3c-13 0-23.5-10.6-23.5-23.5s10.6-23.5 23.5-23.5 23.5 10.6 23.5 23.5-10.6 23.5-23.5 23.5zm0-43.1C48 59.2 39.2 68 39.2 78.8S48 98.3 58.8 98.3s19.5-8.8 19.5-19.5-8.8-19.6-19.5-19.6z" class="st2" id="XMLID_1156_" fill="#fff"/></g><g id="XMLID_674_"><path d="M44.9 88.4c-13 0-23.5-10.6-23.5-23.5S32 41.4 44.9 41.4 68.4 52 68.4 64.9 57.8 88.4 44.9 88.4zm0-43.1c-10.8 0-19.5 8.8-19.5 19.5s8.8 19.5 19.5 19.5 19.5-8.8 19.5-19.5-8.8-19.5-19.5-19.5z" class="st2" id="XMLID_1153_" fill="#fff"/></g><g id="XMLID_673_"><path d="M72.7 88.4c-13 0-23.5-10.6-23.5-23.5s10.6-23.5 23.5-23.5c13 0 23.5 10.6 23.5 23.5S85.7 88.4 72.7 88.4zm0-43.1c-10.8 0-19.5 8.8-19.5 19.5S62 84.3 72.7 84.3c10.8 0 19.5-8.8 19.5-19.5s-8.8-19.5-19.5-19.5z" class="st2" id="XMLID_1150_" fill="#fff"/></g></g><g id="XMLID_671_"><path d="M58.8 112.5c-26.3 0-47.7-21.4-47.7-47.7 0-26.3 21.4-47.7 47.7-47.7 26.3 0 47.7 21.4 47.7 47.7 0 26.3-21.4 47.7-47.7 47.7zm0-93.3c-25.2 0-45.7 20.5-45.7 45.7 0 25.2 20.5 45.7 45.7 45.7 25.2 0 45.7-20.5 45.7-45.7 0-25.2-20.5-45.7-45.7-45.7z" class="st2" id="XMLID_1147_" fill="#fff"/></g><g id="XMLID_669_"><path class="st2" transform="rotate(-45.001 58.827 121.757)" id="XMLID_670_" fill="#fff" d="M54 116.9h9.6v9.6H54z"/></g><g id="XMLID_668_"><path d="M58.8 141.4l-4.6-4.6 4.6-4.6 4.6 4.6-4.6 4.6zm-1.7-4.6l1.7 1.7 1.7-1.7-1.7-1.7-1.7 1.7z" class="st2" id="XMLID_1144_" fill="#fff"/></g><g id="XMLID_667_"><path d="M110 116.6c-.1 0-.3 0-.4-.1l-.7-.7c-.2-.2-.2-.5 0-.7.2-.2.5-.2.7 0l.7.7c.2.2.2.5 0 .7 0 .1-.2.1-.3.1zm-2.8-2.8c-.1 0-.3 0-.4-.1l-2.1-2.1c-.2-.2-.2-.5 0-.7.2-.2.5-.2.7 0l2.1 2.1c.2.2.2.5 0 .7 0 .1-.2.1-.3.1zm-4.2-4.2c-.1 0-.3 0-.4-.1l-2.1-2.1c-.2-.2-.2-.5 0-.7.2-.2.5-.2.7 0l2.1 2.1c.2.2.2.5 0 .7-.1 0-.2.1-.3.1zm-4.3-4.3c-.1 0-.3 0-.4-.1l-2.1-2.1c-.2-.2-.2-.5 0-.7.2-.2.5-.2.7 0l2.1 2.1c.2.2.2.5 0 .7 0 .1-.1.1-.3.1zm-4.2-4.2c-.1 0-.3 0-.4-.1L92 98.8c-.2-.2-.2-.5 0-.7.2-.2.5-.2.7 0l2.1 2.1c.2.2.2.5 0 .7-.1.1-.2.2-.3.2zm-4.3-4.2c-.1 0-.3 0-.4-.1l-2.1-2.1c-.2-.2-.2-.5 0-.7.2-.2.5-.2.7 0l2.1 2.1c.2.2.2.5 0 .7 0 0-.1.1-.3.1zM86 92.6c-.1 0-.3 0-.4-.1l-2.1-2.1c-.2-.2-.2-.5 0-.7.2-.2.5-.2.7 0l2.1 2.1c.2.2.2.5 0 .7 0 .1-.2.1-.3.1zm-4.2-4.2c-.1 0-.3 0-.4-.1l-2.1-2.1c-.2-.2-.2-.5 0-.7.2-.2.5-.2.7 0l2.1 2.1c.2.2.2.5 0 .7-.1 0-.2.1-.3.1zm-4.3-4.3c-.1 0-.3 0-.4-.1L75 81.9c-.2-.2-.2-.5 0-.7.2-.2.5-.2.7 0l2.1 2.1c.2.2.2.5 0 .7 0 .1-.2.1-.3.1zm-4.2-4.2c-.1 0-.3 0-.4-.1l-2.1-2.1c-.2-.2-.2-.5 0-.7.2-.2.5-.2.7 0l2.1 2.1c.2.2.2.5 0 .7-.1 0-.2.1-.3.1zM69 75.6c-.1 0-.3 0-.4-.1l-2.1-2.1c-.2-.2-.2-.5 0-.7.2-.2.5-.2.7 0l2.1 2.1c.2.2.2.5 0 .7 0 .1-.1.1-.3.1zm-4.2-4.2c-.1 0-.3 0-.4-.1l-2.1-2.1c-.2-.2-.2-.5 0-.7.2-.2.5-.2.7 0l2.1 2.1c.2.2.2.5 0 .7-.1 0-.2.1-.3.1zm-4.3-4.2c-.1 0-.3 0-.4-.1L58 65c-.2-.2-.2-.5 0-.7.2-.2.5-.2.7 0l2.1 2.1c.2.2.2.5 0 .7 0 0-.1.1-.3.1zm-4.2-4.3c-.1 0-.3 0-.4-.1l-2.1-2.1c-.2-.2-.2-.5 0-.7.2-.2.5-.2.7 0l2.1 2.1c.2.2.2.5 0 .7 0 .1-.2.1-.3.1zm-4.2-4.2c-.1 0-.3 0-.4-.1l-2.1-2.1c-.2-.2-.2-.5 0-.7.2-.2.5-.2.7 0l2.1 2.1c.2.2.2.5 0 .7-.1 0-.2.1-.3.1zm-4.3-4.3c-.1 0-.3 0-.4-.1l-2.1-2.1c-.2-.2-.2-.5 0-.7.2-.2.5-.2.7 0l2.1 2.1c.2.2.2.5 0 .7 0 .1-.2.1-.3.1zm-4.2-4.2c-.1 0-.3 0-.4-.1L41.1 48c-.2-.2-.2-.5 0-.7.2-.2.5-.2.7 0l2.1 2.1c.2.2.2.5 0 .7-.1 0-.2.1-.3.1zm-4.3-4.3c-.1 0-.3 0-.4-.1l-2.1-2.1c-.2-.2-.2-.5 0-.7.2-.2.5-.2.7 0l2.1 2.1c.2.2.2.5 0 .7 0 .1-.1.1-.3.1zm-4.2-4.2c-.1 0-.3 0-.4-.1l-2.1-2.1c-.2-.2-.2-.5 0-.7.2-.2.5-.2.7 0l2.1 2.1c.2.2.2.5 0 .7-.1 0-.2.1-.3.1zm-4.3-4.2c-.1 0-.3 0-.4-.1l-2.1-2.1c-.2-.2-.2-.5 0-.7.2-.2.5-.2.7 0l2.1 2.1c.2.2.2.5 0 .7 0 0-.1.1-.3.1zm-4.2-4.3c-.1 0-.3 0-.4-.1L24.1 31c-.2-.2-.2-.5 0-.7.2-.2.5-.2.7 0l2.1 2.1c.2.2.2.5 0 .7 0 .1-.2.1-.3.1zM22.4 29c-.1 0-.3 0-.4-.1l-2.1-2.1c-.2-.2-.2-.5 0-.7.2-.2.5-.2.7 0l2.1 2.1c.2.2.2.5 0 .7-.1 0-.2.1-.3.1zm-4.3-4.3c-.1 0-.3 0-.4-.1l-2.1-2.1c-.2-.2-.2-.5 0-.7.2-.2.5-.2.7 0l2.1 2.1c.2.2.2.5 0 .7 0 .1-.2.1-.3.1zm-4.2-4.2c-.1 0-.3 0-.4-.1l-2.1-2.1c-.2-.2-.2-.5 0-.7.2-.2.5-.2.7 0l2.1 2.1c.2.2.2.5 0 .7-.1 0-.2.1-.3.1zm-4.3-4.3c-.1 0-.3 0-.4-.1l-2-2.1c-.2-.2-.2-.5 0-.7.2-.2.5-.2.7 0l2.1 2.1c.2.2.2.5 0 .7-.1.1-.2.1-.4.1z" class="st2" id="XMLID_1118_" fill="#fff"/></g><g id="XMLID_606_"><g id="XMLID_613_"><path d="M59.6 122.6c-.1 0-.3 0-.4-.1-.2-.2-.2-.5 0-.7l2.1-2.1c.2-.2.5-.2.7 0 .2.2.2.5 0 .7l-2.1 2.1c-.1.1-.2.1-.3.1zm-2.2-.5c-.1 0-.3 0-.4-.1l-2.1-2.1c-.2-.2-.2-.5 0-.7.2-.2.5-.2.7 0l2.1 2.1c.2.2.2.5 0 .7 0 0-.1.1-.3.1zm6.4-3.7c-.1 0-.3 0-.4-.1-.2-.2-.2-.5 0-.7l2.1-2.1c.2-.2.5-.2.7 0 .2.2.2.5 0 .7l-2.1 2.1c0 .1-.2.1-.3.1zm-10.6-.5c-.1 0-.3 0-.4-.1l-2.1-2.1c-.2-.2-.2-.5 0-.7.2-.2.5-.2.7 0l2.1 2.1c.2.2.2.5 0 .7-.1 0-.2.1-.3.1zm14.8-3.7c-.1 0-.3 0-.4-.1-.2-.2-.2-.5 0-.7l2.1-2.1c.2-.2.5-.2.7 0 .2.2.2.5 0 .7l-2.1 2.1s-.1.1-.3.1zm-19.1-.6c-.1 0-.3 0-.4-.1l-2.1-2.1c-.2-.2-.2-.5 0-.7.2-.2.5-.2.7 0l2.1 2.1c.2.2.2.5 0 .7 0 .1-.1.1-.3.1zm23.4-3.7c-.1 0-.3 0-.4-.1-.2-.2-.2-.5 0-.7L74 107c.2-.2.5-.2.7 0 .2.2.2.5 0 .7l-2.1 2.1c-.1.1-.2.1-.3.1zm-27.6-.5c-.1 0-.3 0-.4-.1l-2.1-2.1c-.2-.2-.2-.5 0-.7.2-.2.5-.2.7 0l2.1 2.1c.2.2.2.5 0 .7 0 0-.2.1-.3.1zm31.8-3.7c-.1 0-.3 0-.4-.1-.2-.2-.2-.5 0-.7l2.1-2.1c.2-.2.5-.2.7 0 .2.2.2.5 0 .7l-2.1 2.1s-.1.1-.3.1zm-36-.6c-.1 0-.3 0-.4-.1l-2.1-2.1c-.2-.2-.2-.5 0-.7.2-.2.5-.2.7 0l2.1 2.1c.2.2.2.5 0 .7-.1.1-.2.1-.3.1zm40.3-3.7c-.1 0-.3 0-.4-.1-.2-.2-.2-.5 0-.7l2.1-2.1c.2-.2.5-.2.7 0 .2.2.2.5 0 .7l-2.1 2.1c-.1.1-.2.1-.3.1zm-44.6-.5c-.1 0-.3 0-.4-.1l-2.1-2.1c-.2-.2-.2-.5 0-.7.2-.2.5-.2.7 0l2.1 2.1c.2.2.2.5 0 .7 0 0-.2.1-.3.1zM85 97.2c-.1 0-.3 0-.4-.1-.2-.2-.2-.5 0-.7l2.1-2.1c.2-.2.5-.2.7 0 .2.2.2.5 0 .7l-2 2c-.1.1-.3.2-.4.2zm-53-.6c-.1 0-.3 0-.4-.1l-2.1-2.1c-.2-.2-.2-.5 0-.7.2-.2.5-.2.7 0l2.1 2.1c.2.2.2.5 0 .7-.1.1-.2.1-.3.1zm57.3-3.7c-.1 0-.3 0-.4-.1-.2-.2-.2-.5 0-.7L91 90c.2-.2.5-.2.7 0 .2.2.2.5 0 .7l-2.1 2.1c-.1.1-.2.1-.3.1zm-61.6-.5c-.1 0-.3 0-.4-.1l-2.1-2.1c-.2-.2-.2-.5 0-.7.2-.2.5-.2.7 0l2.1 2.1c.2.2.2.5 0 .7 0 0-.1.1-.3.1zm65.8-3.7c-.1 0-.3 0-.4-.1-.2-.2-.2-.5 0-.7l2.1-2.1c.2-.2.5-.2.7 0 .2.2.2.5 0 .7l-2.1 2.1c-.1.1-.2.1-.3.1zm-70-.5c-.1 0-.3 0-.4-.1L21 85.9c-.2-.2-.2-.5 0-.7.2-.2.5-.2.7 0l2.1 2.1c.2.2.2.5 0 .7-.1.1-.2.2-.3.2zm74.2-3.7c-.1 0-.3 0-.4-.1-.2-.2-.2-.5 0-.7l2.1-2.1c.2-.2.5-.2.7 0 .2.2.2.5 0 .7L98 84.4s-.1.1-.3.1zm-78.5-.6c-.1 0-.3 0-.4-.1l-2.1-2.1c-.2-.2-.2-.5 0-.7.2-.2.5-.2.7 0l2.1 2.1c.2.2.2.5 0 .7 0 .1-.1.1-.3.1zm82.8-3.7c-.1 0-.3 0-.4-.1-.2-.2-.2-.5 0-.7l2.1-2.1c.2-.2.5-.2.7 0 .2.2.2.5 0 .7l-2.1 2.1c-.1.1-.2.1-.3.1zm-87-.5c-.1 0-.3 0-.4-.1l-2.1-2.1c-.2-.2-.2-.5 0-.7.2-.2.5-.2.7 0l2.1 2.1c.2.2.2.5 0 .7 0 0-.2.1-.3.1zm91.2-3.7c-.1 0-.3 0-.4-.1-.2-.2-.2-.5 0-.7L108 73c.2-.2.5-.2.7 0 .2.2.2.5 0 .7l-2.1 2.1c-.1.1-.3.2-.4.2zm-95.4-.6c-.1 0-.3 0-.4-.1l-2.1-2.1c-.2-.2-.2-.5 0-.7.2-.2.5-.2.7 0l2.1 2.1c.2.2.2.5 0 .7-.1.1-.2.1-.3.1zm99.7-3.7c-.1 0-.3 0-.4-.1-.2-.2-.2-.5 0-.7l2.1-2.1c.2-.2.5-.2.7 0 .2.2.2.5 0 .7l-2.1 2.1c-.1.1-.2.1-.3.1zm-104-.5c-.1 0-.3 0-.4-.1L4 68.9c-.2-.2-.2-.5 0-.7.2-.2.5-.2.7 0l2.1 2.1c.2.2.2.5 0 .7 0 .1-.2.2-.3.2zm108.2-3.7c-.1 0-.3 0-.4-.1-.2-.2-.2-.5 0-.7l2.1-2.1c.2-.2.5-.2.7 0 .2.2.2.5 0 .7l-2.1 2.1s-.2.1-.3.1zM2.3 66.9c-.1 0-.3 0-.4-.1L0 64.9l.9-.9c.2-.2.5-.2.7 0 .2.2.2.5 0 .7l-.2.2 1.2 1.2c.2.2.2.5 0 .7-.1.1-.2.1-.3.1zm113.5-2.5c-.1 0-.3 0-.4-.1l-2.1-2.1c-.2-.2-.2-.5 0-.7.2-.2.5-.2.7 0l2.1 2.1c.2.2.2.5 0 .7 0 0-.2.1-.3.1zM3.4 62.7c-.1 0-.3 0-.4-.1-.2-.2-.2-.5 0-.7l2.1-2.1c.2-.2.5-.2.7 0 .2.2.2.5 0 .7l-2.1 2.1c-.1.1-.2.1-.3.1zm108.2-2.6c-.1 0-.3 0-.4-.1l-2.1-2.1c-.2-.2-.2-.5 0-.7.2-.2.5-.2.7 0l2.1 2.1c.2.2.2.5 0 .7-.1.1-.2.1-.3.1zm-104-1.6c-.1 0-.3 0-.4-.1-.2-.2-.2-.5 0-.7l2.1-2.1c.2-.2.5-.2.7 0 .2.2.2.5 0 .7l-2 2c-.1.1-.2.2-.4.2zm99.7-2.6c-.1 0-.3 0-.4-.1l-2.1-2.1c-.2-.2-.2-.5 0-.7.2-.2.5-.2.7 0l2.1 2.1c.2.2.2.5 0 .7 0 0-.1.1-.3.1zm-95.4-1.7c-.1 0-.3 0-.4-.1-.2-.2-.2-.5 0-.7l2.1-2.1c.2-.2.5-.2.7 0 .2.2.2.5 0 .7l-2.1 2.1c-.1.1-.2.1-.3.1zm91.2-2.6c-.1 0-.3 0-.4-.1l-2.1-2.1c-.2-.2-.2-.5 0-.7.2-.2.5-.2.7 0l2.1 2.1c.2.2.2.5 0 .7-.1.1-.2.1-.3.1zm-87-1.6c-.1 0-.3 0-.4-.1-.2-.2-.2-.5 0-.7l2.1-2.1c.2-.2.5-.2.7 0 .2.2.2.5 0 .7l-2.1 2.1s-.2.1-.3.1zm82.7-2.6c-.1 0-.3 0-.4-.1l-2.1-2.1c-.2-.2-.2-.5 0-.7.2-.2.5-.2.7 0l2.1 2.1c.2.2.2.5 0 .7 0 0-.1.1-.3.1zm-78.4-1.7c-.1 0-.3 0-.4-.1-.2-.2-.2-.5 0-.7l2.1-2.1c.2-.2.5-.2.7 0 .2.2.2.5 0 .7l-2.1 2.1c-.1.1-.2.1-.3.1zm74.2-2.6c-.1 0-.3 0-.4-.1l-2.1-2.1c-.2-.2-.2-.5 0-.7.2-.2.5-.2.7 0l2.1 2.1c.2.2.2.5 0 .7 0 .1-.2.1-.3.1zm-70-1.6c-.1 0-.3 0-.4-.1-.2-.2-.2-.5 0-.7l2.1-2.1c.2-.2.5-.2.7 0 .2.2.2.5 0 .7l-2.1 2.1c-.1 0-.2.1-.3.1zm65.8-2.6c-.1 0-.3 0-.4-.1l-2.1-2.1c-.2-.2-.2-.5 0-.7.2-.2.5-.2.7 0l2.1 2.1c.2.2.2.5 0 .7-.1 0-.2.1-.3.1zm-61.6-1.7c-.1 0-.3 0-.4-.1-.2-.2-.2-.5 0-.7l2.1-2.1c.2-.2.5-.2.7 0 .2.2.2.5 0 .7l-2.1 2.1c0 .1-.1.1-.3.1zm57.3-2.5c-.1 0-.3 0-.4-.1l-2.1-2.1c-.2-.2-.2-.5 0-.7.2-.2.5-.2.7 0l2.1 2.1c.2.2.2.5 0 .7 0 0-.2.1-.3.1zm-53-1.7c-.1 0-.3 0-.4-.1-.2-.2-.2-.5 0-.7l2.1-2.1c.2-.2.5-.2.7 0 .2.2.2.5 0 .7l-2.1 2.1c-.1.1-.2.1-.3.1zm48.8-2.6c-.1 0-.3 0-.4-.1l-2.1-2.1c-.2-.2-.2-.5 0-.7.2-.2.5-.2.7 0l2.1 2.1c.2.2.2.5 0 .7-.1.1-.2.1-.3.1zm-44.6-1.6c-.1 0-.3 0-.4-.1-.2-.2-.2-.5 0-.7l2.1-2.1c.2-.2.5-.2.7 0 .2.2.2.5 0 .7l-2.1 2.1s-.2.1-.3.1zm40.3-2.6c-.1 0-.3 0-.4-.1L75.1 24c-.2-.2-.2-.5 0-.7.2-.2.5-.2.7 0l2.1 2.1c.2.2.2.5 0 .7 0 0-.1.1-.3.1zm-36-1.7c-.1 0-.3 0-.4-.1-.2-.2-.2-.5 0-.7l2.1-2.1c.2-.2.5-.2.7 0 .2.2.2.5 0 .7l-2.1 2.1c-.1.1-.2.1-.3.1zm31.8-2.6c-.1 0-.3 0-.4-.1l-2.1-2.1c-.2-.2-.2-.5 0-.7.2-.2.5-.2.7 0l2.1 2.1c.2.2.2.5 0 .7-.1.1-.2.1-.3.1zm-27.6-1.6c-.1 0-.3 0-.4-.1-.2-.2-.2-.5 0-.7l2.1-2.1c.2-.2.5-.2.7 0 .2.2.2.5 0 .7l-2.1 2.1s-.2.1-.3.1zm23.3-2.6c-.1 0-.3 0-.4-.1l-2.1-2.1c-.2-.2-.2-.5 0-.7.2-.2.5-.2.7 0l2.1 2.1c.2.2.2.5 0 .7 0 0-.1.1-.3.1zM50 16c-.1 0-.3 0-.4-.1-.2-.2-.2-.5 0-.7l2.1-2.1c.2-.2.5-.2.7 0 .2.2.2.5 0 .7l-2.1 2.1c0 .1-.1.1-.3.1zm14.9-2.6c-.1 0-.3 0-.4-.1l-2.1-2.1c-.2-.2-.2-.5 0-.7.2-.2.5-.2.7 0l2.1 2.1c.2.2.2.5 0 .7 0 .1-.2.1-.3.1zm-10.6-1.6c-.1 0-.3 0-.4-.1-.2-.2-.2-.5 0-.7L56 8.9c.2-.2.5-.2.7 0 .2.2.2.5 0 .7l-2.1 2.1c-.1 0-.2.1-.3.1zm6.4-2.6c-.1 0-.3 0-.4-.1l-1.6-1.6c-.2.1-.4.1-.6-.1-.2-.2-.2-.5 0-.7l.6-.6L61 8.3c.2.2.2.5 0 .7-.1.2-.2.2-.3.2z" class="st2" id="XMLID_614_" fill="#fff"/></g><g id="XMLID_610_"><g id="XMLID_611_"><path class="st2" id="XMLID_612_" fill="#fff" d="M8.9 62.9v-2.3l-4.3 4.3 4.3 4.3v-2.3l-2-2z"/></g></g><g id="XMLID_607_"><g id="XMLID_608_"><path class="st2" id="XMLID_609_" fill="#fff" d="M107.6 62.9v-2.3l4.3 4.3-4.3 4.3v-2.3l2-2z"/></g></g></g><g id="XMLID_604_"><path class="st2" transform="rotate(-45.001 58.768 6.812)" id="XMLID_605_" fill="#fff" d="M54 2h9.6v9.6H54z"/></g></g></svg>