<svg xmlns="http://www.w3.org/2000/svg" id="svg5052" viewBox="0 0 177.66458 27.63787" height="29.48" width="189.509"><g transform="translate(-316.882 -461.4)" id="layer1"><g transform="matrix(1.25 0 0 -1.25 324.568 468.609)" id="g876"><path id="path878" d="M0 0h-6.149v5.623h19.05V0H6.754v-16.316H0V0z" fill="#ff2b06"/></g><g transform="matrix(1.25 0 0 -1.25 342.007 461.58)" id="g880"><path id="path882" d="M0 0h18.493v-5.623H6.759v-2.734h11.734v-5.226H6.759v-2.734h11.737v-5.622H0V0z" fill="#ff2b06"/></g><g transform="matrix(1.25 0 0 -1.25 374.993 481.975)" id="g884"><path id="path886" d="M0 0h2.643C6.855 0 7.47 3.412 7.47 5.473c0 1.38-.432 5.22-5.318 5.22H0V0zm-6.758 16.317H4.334c7.313 0 9.896-5.409 9.896-10.937 0-6.732-3.565-11.003-11.217-11.003h-9.771v21.94z" fill="#ff2b06"/></g><g transform="matrix(1.25 0 0 -1.25 405.948 478.436)" id="g888"><path id="path890" d="M0 0l-2.063 3.42L-4.073 0h-4.952l4.701 6.914-4.526 6.613h4.954l1.833-3.268 1.887 3.268h4.954L.252 6.914 4.953 0H0z" fill="#ff2b06"/></g><g transform="matrix(1.25 0 0 -1.25 437.236 485.122)" id="g892"><path id="path894" d="M0 0a7.098 7.098 0 0 0-1.403-1.419 8.151 8.151 0 0 0-1.67-.975 8.588 8.588 0 0 0-1.833-.561 10.12 10.12 0 0 0-1.862-.178c-1.579 0-2.985.296-4.228.887A9.734 9.734 0 0 0-14.159.118a10.305 10.305 0 0 0-1.98 3.4 11.828 11.828 0 0 0-.68 3.991c0 1.537.211 3 .635 4.39.424 1.389 1.054 2.606 1.893 3.65a9.218 9.218 0 0 0 3.132 2.498c1.251.621 2.715.93 4.391.93 1.142 0 2.221-.131 3.237-.398a8.171 8.171 0 0 0 2.718-1.257 7.465 7.465 0 0 0 2.012-2.171c.54-.878.909-1.937 1.106-3.179H-.503c-.137.788-.394 1.479-.768 2.07a4.883 4.883 0 0 1-1.389 1.449 6.18 6.18 0 0 1-1.877.842 8.604 8.604 0 0 1-2.231.28c-1.282 0-2.38-.255-3.296-.767a6.626 6.626 0 0 1-2.246-2.026 8.836 8.836 0 0 1-1.287-2.867 13.238 13.238 0 0 1-.414-3.296c0-1.104.157-2.164.473-3.178a8.268 8.268 0 0 1 1.39-2.69A6.785 6.785 0 0 1-9.887-.073c.897-.464 1.936-.695 3.119-.695 1.084 0 2.054.177 2.911.532a6.276 6.276 0 0 1 2.174 1.463A5.898 5.898 0 0 1-.369 3.415c.286.837.409 1.74.369 2.704h-6.739v2.365h9.253V-2.63H.739L0 0z" fill="#fff"/></g><g transform="matrix(1.25 0 0 -1.25 466.612 478.877)" id="g896"><path id="path898" d="M0 0c0-2.68-.724-4.704-2.172-6.074-1.449-1.37-3.493-2.055-6.134-2.055-1.36 0-2.577.159-3.651.473-1.073.316-1.979.808-2.72 1.479-.738.669-1.305 1.517-1.698 2.542-.396 1.024-.592 2.237-.592 3.635v13.48h2.808V0c0-1.872.508-3.301 1.522-4.287 1.014-.984 2.459-1.477 4.331-1.477 1.794 0 3.158.493 4.094 1.477.936.986 1.405 2.415 1.405 4.287v13.48H0V0z" fill="#fff"/></g><g transform="matrix(1.25 0 0 -1.25 490.78 469.97)" id="g900"><path id="path902" d="M0 0c-.158.748-.415 1.404-.768 1.966A5.056 5.056 0 0 1-2.087 3.37a5.717 5.717 0 0 1-1.757.843 7.496 7.496 0 0 1-2.07.279c-1.26 0-2.337-.235-3.235-.709a6.357 6.357 0 0 1-2.218-1.906 8.22 8.22 0 0 1-1.287-2.735 12.337 12.337 0 0 1-.411-3.191c0-1.203.138-2.342.411-3.416.275-1.073.706-2.01 1.287-2.808a6.295 6.295 0 0 1 2.234-1.906c.905-.473 1.989-.71 3.251-.71.925 0 1.746.152 2.468.458a5.617 5.617 0 0 1 1.862 1.272c.521.541.93 1.186 1.224 1.935.298.748.474 1.557.535 2.424h2.807c-.275-2.641-1.197-4.71-2.765-6.206-1.563-1.499-3.691-2.248-6.369-2.248-1.635 0-3.064.286-4.286.858-1.223.571-2.238 1.349-3.044 2.335-.808.985-1.414 2.148-1.819 3.488-.403 1.34-.604 2.779-.604 4.317 0 1.536.216 2.98.648 4.329.434 1.35 1.069 2.528 1.907 3.533.836 1.004 1.876 1.797 3.119 2.38 1.241.58 2.681.87 4.317.87a10.86 10.86 0 0 0 3.131-.441A8.432 8.432 0 0 0-.12 5.113 7.287 7.287 0 0 0 1.803 2.97c.511-.857.848-1.847 1.005-2.97H0z" fill="#fff"/></g></g></svg>