<svg xmlns="http://www.w3.org/2000/svg" id="svg9860" viewBox="0 0 180 181.19204" height="181.192" width="180"><g transform="translate(-166.93 426.805)" id="layer1"><g transform="matrix(1.25 0 0 -1.25 245.782 -276.287)" id="g7820"><path id="path7822" d="M0 0l9.712-16.613L19.424 0H0zm9.712-24.539L-6.971 4h33.367L9.712-24.539z" fill="#fff"/></g><g transform="matrix(1.25 0 0 -1.25 211.377 -387.244)" id="g7824"><path id="path7826" d="M0 0l37.236-70.434L74.474 0H0zm37.236-78.993L-6.639 4h87.751L37.236-78.993z" fill="#fff"/></g><g transform="matrix(1.25 0 0 -1.25 206.031 -375.777)" id="g7828"><path id="path7830" d="M0 0l41.513-78.523L83.026 0H0zm41.513-82.802L-3.32 2h89.667L41.513-82.802z" fill="#fff"/></g><g transform="matrix(1.25 0 0 -1.25 297.938 -345.498)" id="g7832"><path id="path7834" d="M0 0c-1.52.548-3.114.866-4.738.944l.049.999A17.234 17.234 0 0 0 .34.94L0 0zm-12.288-.499l-.414.91A17.166 17.166 0 0 0-7.771 1.82l.128-.992a16.197 16.197 0 0 1-4.645-1.327M6.411-4.245a16.373 16.373 0 0 1-3.776 3.017l.502.866a17.378 17.378 0 0 0 4.007-3.202l-.733-.681zm-24.743-1.003l-.785.619a17.351 17.351 0 0 0 3.734 3.514l.57-.822a16.364 16.364 0 0 1-3.519-3.311m28.501-5.702a16.234 16.234 0 0 1-1.978 4.409l.842.54a17.189 17.189 0 0 0 2.099-4.68l-.963-.269zm-31.702-1.285l-.983.188a17.193 17.193 0 0 0 1.711 4.836l.883-.471a16.065 16.065 0 0 1-1.611-4.553m-.601-7.961a17.265 17.265 0 0 0-.693 4.863l.001.219 1-.014-.001-.205a16.3 16.3 0 0 1 .652-4.582l-.959-.281zm33.144-.209l-.957.293a16.281 16.281 0 0 1 .642 6.306l.996.092a17.314 17.314 0 0 0-.681-6.691m-29.066-6.857a17.3 17.3 0 0 0-2.949 4.195l.895.447a16.243 16.243 0 0 1 2.779-3.952l-.725-.69zm24.897-.158l-.715.699a16.333 16.333 0 0 1 2.83 3.918l.889-.459a17.287 17.287 0 0 0-3.004-4.158m-18.037-4.26a17.193 17.193 0 0 0-4.542 2.383l.592.807a16.17 16.17 0 0 1 4.278-2.245l-.328-.945zm11.125-.07l-.317.949a16.234 16.234 0 0 1 4.307 2.19l.58-.814a17.226 17.226 0 0 0-4.57-2.325m-5.46-.879c-.897 0-1.795.068-2.672.205l.154.988a16.508 16.508 0 0 1 4.832-.03l.141-.991a17.612 17.612 0 0 0-2.455-.172" fill="#fff"/></g><g transform="matrix(1.25 0 0 -1.25 211.377 -288.276)" id="g7836"><path id="path7838" d="M0 0h74.474L37.236 70.434 0 0zm81.112-4H-6.639l43.875 82.993L81.112-4z" fill="#fff"/></g><g transform="matrix(1.25 0 0 -1.25 206.031 -299.742)" id="g7840"><path id="path7842" d="M0 0h83.026L41.513 78.523 0 0zm86.347-2H-3.32l44.833 84.803L86.347-2z" fill="#fff"/></g><g transform="matrix(1.25 0 0 -1.25 255.001 -360.05)" id="g7844"><path id="path7846" d="M0 0a.5.5 0 0 0-.442.734l2.337 4.42a.5.5 0 1 0 .884-.467L.442.266A.5.5 0 0 0 0 0m5.651-1.85a.501.501 0 0 0-.442.267l-2.337 4.42a.5.5 0 0 0 .885.468l2.337-4.421a.5.5 0 0 0-.443-.734m-9.39-5.222a.5.5 0 0 0-.443.734l2.337 4.42a.5.5 0 0 0 .885-.468l-2.337-4.42a.5.5 0 0 0-.442-.266m13.13-1.85a.502.502 0 0 0-.443.266L6.611-4.235a.5.5 0 1 0 .885.467l2.337-4.42a.5.5 0 0 0-.442-.734m-16.869-5.223a.5.5 0 0 0-.442.733l2.336 4.421a.5.5 0 0 0 .885-.467l-2.336-4.42a.501.501 0 0 0-.443-.267m20.608-1.849a.5.5 0 0 0-.442.266l-2.337 4.42a.5.5 0 0 0 .884.468l2.337-4.42a.5.5 0 0 0-.442-.734m-24.347-5.223a.5.5 0 0 0-.442.734l2.337 4.42a.5.5 0 0 0 .884-.468l-2.336-4.42a.5.5 0 0 0-.443-.266m28.086-1.85a.5.5 0 0 0-.442.266L14.09-18.38a.5.5 0 1 0 .885.467l2.337-4.42a.502.502 0 0 0-.443-.734m-31.825-5.223a.498.498 0 0 0-.442.734l2.336 4.42a.5.5 0 0 0 .885-.468l-2.337-4.419a.5.5 0 0 0-.442-.267m35.564-1.849a.502.502 0 0 0-.442.266l-2.337 4.42a.5.5 0 0 0 .885.468l2.337-4.42a.5.5 0 0 0-.443-.734m-39.303-5.223a.5.5 0 0 0-.443.734l2.337 4.42a.5.5 0 0 0 .885-.468l-2.337-4.42a.5.5 0 0 0-.442-.266m43.042-1.849a.5.5 0 0 0-.443.266l-2.337 4.42a.5.5 0 0 0 .885.467l2.337-4.42a.5.5 0 0 0-.442-.733m-46.782-5.224a.5.5 0 0 0-.442.734l2.337 4.421a.501.501 0 0 0 .885-.468l-2.337-4.42a.501.501 0 0 0-.443-.267m50.521-1.849a.498.498 0 0 0-.442.266l-2.337 4.42a.5.5 0 0 0 .884.468l2.337-4.42a.5.5 0 0 0-.442-.734m-54.259-5.223a.5.5 0 0 0-.442.734l2.337 4.42a.501.501 0 0 0 .884-.468l-2.336-4.42a.5.5 0 0 0-.443-.266m57.998-1.849a.499.499 0 0 0-.442.266l-2.337 4.42a.5.5 0 0 0 .885.468l2.337-4.421a.5.5 0 0 0-.443-.733m-61.737-5.224a.499.499 0 0 0-.442.734l2.336 4.421a.5.5 0 0 0 .885-.468l-2.337-4.42a.5.5 0 0 0-.442-.267m65.476-1.849a.502.502 0 0 0-.442.266l-2.337 4.42a.5.5 0 0 0 .885.468l2.337-4.42a.5.5 0 0 0-.443-.734m-69.215-5.223a.5.5 0 0 0-.443.734l2.337 4.42a.5.5 0 0 0 .885-.468l-2.337-4.42a.502.502 0 0 0-.442-.266m72.955-1.849a.5.5 0 0 0-.443.266l-2.337 4.42a.502.502 0 0 0 .885.468l2.337-4.421a.5.5 0 0 0-.442-.733m-76.695-5.224a.5.5 0 0 0-.442.734l2.337 4.421a.502.502 0 0 0 .885-.468l-2.337-4.42a.501.501 0 0 0-.443-.267m80.434-1.849a.5.5 0 0 0-.442.266l-2.337 4.421a.5.5 0 0 0 .884.468l2.337-4.421a.5.5 0 0 0-.442-.734m-83.251-4.668h-.628a.501.501 0 0 0-.442.734l2.044 3.865a.499.499 0 1 0 .884-.467l-1.674-3.167a.5.5 0 0 0-.184-.965m8 0h-5a.5.5 0 1 0 0 1h5a.5.5 0 0 0 0-1m8 0h-5a.5.5 0 1 0 0 1h5a.5.5 0 0 0 0-1m8 0h-5a.5.5 0 1 0 0 1h5a.5.5 0 0 0 0-1m8 0h-5a.5.5 0 1 0 0 1h5a.5.5 0 0 0 0-1m8 0h-5a.5.5 0 1 0 0 1h5a.5.5 0 0 0 0-1m8 0h-5a.5.5 0 1 0 0 1h5a.5.5 0 0 0 0-1m8 0h-5a.5.5 0 1 0 0 1h5a.5.5 0 0 0 0-1m8 0h-5a.5.5 0 1 0 0 1h5a.5.5 0 0 0 0-1m8 0h-5a.5.5 0 1 0 0 1h5a.5.5 0 0 0 0-1m8 0h-5a.5.5 0 1 0 0 1h5a.5.5 0 0 0 0-1m5.719 0h-2.719a.5.5 0 1 0 0 1h1.889l-.679 1.283a.5.5 0 0 0 .885.467l1.066-2.016a.501.501 0 0 0-.442-.734" fill="#fff"/></g><g transform="matrix(1.25 0 0 -1.25 231.867 -346.529)" id="g7848"><path id="path7850" d="M0 0c-1.52.549-3.113.866-4.738.944l.049.999A17.221 17.221 0 0 0 .34.94L0 0zm-12.288-.499l-.414.911A17.196 17.196 0 0 0-7.771 1.82l.128-.992a16.175 16.175 0 0 1-4.645-1.327M6.41-4.246a16.335 16.335 0 0 1-3.775 3.018l.502.865a17.362 17.362 0 0 0 4.006-3.202l-.733-.681zm-24.743-1.002l-.785.621a17.415 17.415 0 0 0 3.735 3.512l.57-.821a16.419 16.419 0 0 1-3.52-3.312m28.5-5.703A16.21 16.21 0 0 1 8.19-6.542l.842.54a17.172 17.172 0 0 0 2.098-4.681l-.963-.268zm-31.702-1.282l-.983.188a17.193 17.193 0 0 0 1.711 4.836l.883-.471a16.126 16.126 0 0 1-1.611-4.553m-.601-7.961a17.355 17.355 0 0 0-.693 4.861l.001.221 1-.014-.001-.207c.001-1.56.221-3.101.652-4.581l-.959-.28zm33.143-.211l-.957.293a16.291 16.291 0 0 1 .642 6.304l.996.092a17.318 17.318 0 0 0-.681-6.689m-29.066-6.855a17.28 17.28 0 0 0-2.949 4.195l.895.447a16.248 16.248 0 0 1 2.779-3.953l-.725-.689zm24.897-.159l-.715.699a16.308 16.308 0 0 1 2.83 3.917l.889-.459a17.282 17.282 0 0 0-3.004-4.157m-18.037-4.26a17.193 17.193 0 0 0-4.542 2.383l.592.807a16.17 16.17 0 0 1 4.278-2.245l-.328-.945zm11.123-.071l-.315.949a16.175 16.175 0 0 1 4.307 2.19l.58-.815A17.205 17.205 0 0 0-.076-31.75m-5.457-.878c-.895 0-1.794.069-2.673.205l.154.988a16.543 16.543 0 0 1 4.832-.03l.141-.991a17.609 17.609 0 0 0-2.454-.172" fill="#fff"/></g><g transform="matrix(1.25 0 0 -1.25 305.293 -292.65)" id="g7852"><path id="path7854" d="M0 0a.5.5 0 0 0-.187.964 6.947 6.947 0 0 0 2.092.48.518.518 0 0 0 .534-.464.499.499 0 0 0-.463-.533A5.915 5.915 0 0 1 .187.036.497.497 0 0 0 0 0m5.766-.482c-.09 0-.18.023-.261.073a5.907 5.907 0 0 1-1.696.704.5.5 0 0 0 .234.972A6.913 6.913 0 0 0 6.026.444a.5.5 0 0 0-.26-.926m-8.801-2.024a.5.5 0 0 0-.42.771A7.01 7.01 0 0 0-2.032-.132a.5.5 0 1 0 .638-.77 6.015 6.015 0 0 1-1.221-1.375.5.5 0 0 0-.42-.229m11.378-.95a.5.5 0 0 0-.46.303 5.917 5.917 0 0 1-.976 1.556.501.501 0 0 0 .756.656 6.954 6.954 0 0 0 1.14-1.818.501.501 0 0 0-.46-.697M-4.053-6.307a.5.5 0 0 0-.499.476 7.001 7.001 0 0 0 .228 2.133.5.5 0 1 0 .967-.258 5.981 5.981 0 0 1-.197-1.827.5.5 0 0 0-.474-.524h-.025M8.558-7.968a.501.501 0 0 0-.477.653 5.924 5.924 0 0 1 .256 2.381.5.5 0 0 0 .45.545c.26.025.52-.173.546-.449a6.65 6.65 0 0 0 .03-.664c0-.721-.11-1.434-.329-2.118a.5.5 0 0 0-.476-.348M-2.678-9.994a.496.496 0 0 0-.392.191 6.95 6.95 0 0 0-1.053 1.869.5.5 0 0 0 .937.351 5.954 5.954 0 0 1 .901-1.602.5.5 0 0 0-.393-.809m8.952-1.179a.5.5 0 0 0-.299.9c.493.37.924.813 1.283 1.315a.5.5 0 0 0 .814-.581 6.987 6.987 0 0 0-1.498-1.534.494.494 0 0 0-.3-.1M.581-12.201a.495.495 0 0 0-.141.02 6.92 6.92 0 0 0-1.941.916.5.5 0 0 0 .563.827 5.887 5.887 0 0 1 1.66-.783.501.501 0 0 0-.141-.98m1.974-.259a.5.5 0 0 0-.012 1 5.925 5.925 0 0 1 1.808.324.5.5 0 0 0 .328-.945 6.95 6.95 0 0 0-2.113-.379h-.011z" fill="#fff"/></g><g transform="matrix(1.25 0 0 -1.25 307.651 -385.277)" id="g7856"><path id="path7858" d="M0 0a.5.5 0 0 0-.187.964 6.947 6.947 0 0 0 2.092.48.499.499 0 1 0 .071-.997A5.915 5.915 0 0 1 .187.036.497.497 0 0 0 0 0m5.765-.482c-.09 0-.18.024-.261.073a5.918 5.918 0 0 1-1.696.704.5.5 0 0 0 .234.972A6.923 6.923 0 0 0 6.025.445a.5.5 0 0 0-.26-.927m-8.799-2.024a.5.5 0 0 0-.42.771A7.032 7.032 0 0 0-2.031-.132a.499.499 0 1 0 .638-.77 6.057 6.057 0 0 1-1.221-1.375.497.497 0 0 0-.42-.229m11.377-.95a.501.501 0 0 0-.46.304 5.95 5.95 0 0 1-.976 1.556.5.5 0 0 0 .756.655 6.937 6.937 0 0 0 1.14-1.818.5.5 0 0 0-.46-.697M-4.052-6.308a.5.5 0 0 0-.499.476 7.069 7.069 0 0 0 .226 2.133.5.5 0 0 0 .967-.257 5.992 5.992 0 0 1-.195-1.828.498.498 0 0 0-.475-.523l-.024-.001m12.61-1.66a.501.501 0 0 0-.477.653 5.924 5.924 0 0 1 .255 2.382.5.5 0 0 0 .45.545c.26.026.52-.174.546-.449a6.94 6.94 0 0 0-.298-2.783.5.5 0 0 0-.476-.348M-2.678-9.995a.499.499 0 0 0-.392.191 6.956 6.956 0 0 0-1.053 1.87.5.5 0 0 0 .937.351 5.975 5.975 0 0 1 .901-1.603.5.5 0 0 0-.393-.809m8.952-1.178a.499.499 0 0 0-.299.9 6.04 6.04 0 0 1 1.283 1.315.5.5 0 1 0 .814-.581 7.03 7.03 0 0 0-1.498-1.534.5.5 0 0 0-.3-.1M.581-12.202a.533.533 0 0 0-.141.02 6.947 6.947 0 0 0-1.941.916.501.501 0 0 0 .563.828 5.89 5.89 0 0 1 1.66-.784.5.5 0 0 0-.141-.98m1.975-.258a.5.5 0 0 0-.012 1 5.93 5.93 0 0 1 1.808.324.5.5 0 0 0 .328-.945 6.95 6.95 0 0 0-2.113-.379h-.011z" fill="#fff"/></g><g transform="matrix(1.25 0 0 -1.25 200.63 -385.277)" id="g7860"><path id="path7862" d="M0 0a.5.5 0 0 0-.186.964 6.954 6.954 0 0 0 2.092.48.499.499 0 1 0 .071-.997A5.948 5.948 0 0 1 .186.036.488.488 0 0 0 0 0m5.766-.482c-.09 0-.18.023-.261.073a5.907 5.907 0 0 1-1.696.704.5.5 0 0 0 .234.972A6.913 6.913 0 0 0 6.026.444a.5.5 0 0 0-.26-.926m-8.801-2.024a.5.5 0 0 0-.42.771A7.032 7.032 0 0 0-2.032-.132a.499.499 0 1 0 .638-.77 6.057 6.057 0 0 1-1.221-1.375.497.497 0 0 0-.42-.229m11.378-.95a.5.5 0 0 0-.46.303 5.917 5.917 0 0 1-.976 1.556.501.501 0 0 0 .756.656 6.954 6.954 0 0 0 1.14-1.818.501.501 0 0 0-.46-.697M-4.052-6.308a.5.5 0 0 0-.499.476 7.016 7.016 0 0 0 .227 2.134.5.5 0 0 0 .967-.258 5.987 5.987 0 0 1-.196-1.828.498.498 0 0 0-.475-.523l-.024-.001m12.61-1.66a.501.501 0 0 0-.477.653 5.924 5.924 0 0 1 .256 2.381.501.501 0 0 0 .45.546c.259.017.52-.174.546-.45.021-.219.031-.44.03-.664 0-.721-.11-1.434-.329-2.118a.5.5 0 0 0-.476-.348M-2.678-9.995a.499.499 0 0 0-.392.191 6.956 6.956 0 0 0-1.053 1.87.5.5 0 0 0 .937.351 5.975 5.975 0 0 1 .901-1.603.5.5 0 0 0-.393-.809m8.952-1.178a.499.499 0 0 0-.299.9 6.04 6.04 0 0 1 1.283 1.315.5.5 0 1 0 .814-.581 7.03 7.03 0 0 0-1.498-1.534.5.5 0 0 0-.3-.1M.582-12.202a.533.533 0 0 0-.141.02 6.947 6.947 0 0 0-1.941.916.501.501 0 0 0 .563.828 5.89 5.89 0 0 1 1.66-.784.5.5 0 0 0-.141-.98m1.974-.258a.5.5 0 0 0-.012 1 5.93 5.93 0 0 1 1.808.324.5.5 0 0 0 .328-.945 6.95 6.95 0 0 0-2.113-.379h-.011z" fill="#fff"/></g><g transform="matrix(1.25 0 0 -1.25 203.902 -292.652)" id="g7864"><path id="path7866" d="M0 0a.5.5 0 0 0-.186.964 6.954 6.954 0 0 0 2.092.48A.518.518 0 0 0 2.44.98a.499.499 0 0 0-.463-.533A5.948 5.948 0 0 1 .186.036.488.488 0 0 0 0 0m5.765-.483c-.09 0-.18.023-.261.073a5.922 5.922 0 0 1-1.695.703.501.501 0 0 0-.37.604.498.498 0 0 0 .604.368A6.9 6.9 0 0 0 6.025.443a.5.5 0 0 0-.26-.926m-8.799-2.024a.5.5 0 0 0-.42.771A7.037 7.037 0 0 0-2.031-.132a.5.5 0 1 0 .638-.771 6.015 6.015 0 0 1-1.221-1.375.5.5 0 0 0-.42-.229m11.378-.95a.5.5 0 0 0-.46.303 5.933 5.933 0 0 1-.976 1.556.5.5 0 0 0 .756.655 6.958 6.958 0 0 0 1.14-1.817.501.501 0 0 0-.46-.697M-4.053-6.308a.5.5 0 0 0-.499.476 7.001 7.001 0 0 0 .228 2.133.5.5 0 1 0 .967-.258 5.981 5.981 0 0 1-.197-1.827.5.5 0 0 0-.474-.524h-.025M8.558-7.969a.501.501 0 0 0-.477.653 5.924 5.924 0 0 1 .255 2.383.501.501 0 0 0 .452.544.506.506 0 0 0 .544-.452 6.944 6.944 0 0 0-.298-2.78.5.5 0 0 0-.476-.348M-2.679-9.995a.499.499 0 0 0-.392.191 6.971 6.971 0 0 0-1.053 1.87.5.5 0 0 0 .937.351 5.975 5.975 0 0 1 .901-1.603.5.5 0 0 0-.393-.809m8.953-1.179a.499.499 0 0 0-.299.9c.493.371.924.813 1.283 1.316a.5.5 0 0 0 .814-.582 7.03 7.03 0 0 0-1.498-1.534.5.5 0 0 0-.3-.1M.581-12.202a.495.495 0 0 0-.141.02 6.947 6.947 0 0 0-1.941.916.5.5 0 0 0 .563.827 5.887 5.887 0 0 1 1.66-.783.501.501 0 0 0-.141-.98m1.974-.258a.499.499 0 0 0-.012 1 5.925 5.925 0 0 1 1.808.324.5.5 0 0 0 .328-.946 6.95 6.95 0 0 0-2.113-.378h-.011z" fill="#fff"/></g><g transform="matrix(1.25 0 0 -1.25 257.922 -405.874)" id="g7868"><path id="path7870" d="M0 0c-10.678 0-19.365-8.688-19.365-19.366 0-10.678 8.687-19.365 19.365-19.365 10.679 0 19.366 8.687 19.366 19.365C19.366-8.688 10.679 0 0 0m0-39.731c-11.229 0-20.365 9.136-20.365 20.365C-20.365-8.136-11.229 1 0 1s20.366-9.136 20.366-20.366c0-11.229-9.137-20.365-20.366-20.365" fill="#fff"/></g><g transform="matrix(1.25 0 0 -1.25 242.512 -397.973)" id="g7872"><path id="path7874" d="M0 0h24.653L12.326 21.085 0 0zm26.396-1H-1.742l14.068 24.066L26.396-1z" fill="#fff"/></g></g></svg>