<svg id="Layer_1" xmlns="http://www.w3.org/2000/svg" viewBox="0 0 141.7 142.5"><style>.st0{display:none}.st1{display:inline}.st1,.st2{fill:#fff}</style><g id="XMLID_1167_" class="st0"><g id="XMLID_2_"><path id="XMLID_761_" class="st1" d="M67.4 141.3c-.1 0-.2 0-.2-.2v-2.6c0-.1.1-.2.2-.2h5.3c.1 0 .2 0 .2.2v2.6c0 .1 0 .2-.2.2h-5.3z"/><path id="XMLID_763_" class="st1" d="M-6.9 172.6c-.8-.3-1.4-.7-1.9-1.1-.1-.1-.1-.2 0-.3l1.3-1.5c.1-.1.2-.1.3 0 1 .8 2 1.2 3 1.2 1.2 0 1.9-.5 1.9-1.4 0-.7-.5-1.1-1.8-1.3l-.6-.1c-2.4-.3-3.6-1.5-3.6-3.4 0-1.1.4-1.9 1.1-2.5.7-.6 1.7-1 3-1 1.6 0 2.9.4 3.9 1.2.1.1.1.2 0 .3l-1 1.5c-.1.1-.2.1-.2.1-.9-.6-1.8-.9-2.7-.9-1 0-1.5.5-1.5 1.2s.5 1.1 1.8 1.3l.6.1c2.4.3 3.6 1.5 3.6 3.5 0 2.2-1.6 3.6-4.5 3.6-1 0-1.9-.2-2.7-.5z"/><path id="XMLID_765_" class="st1" d="M1.8 172.9c-.1 0-.2-.1-.2-.2v-11.1c0-.1 0-.2.2-.2h4.4c1.2 0 2.2.3 2.9 1 .7.7 1.1 1.6 1.1 2.7s-.4 2-1.1 2.7c-.7.7-1.7 1-2.9 1h-2c-.1 0-.1 0-.1.1v3.8c0 .1 0 .2-.2.2H1.8zm4.3-6.3c1 0 1.7-.6 1.7-1.5s-.6-1.5-1.7-1.5H4.2c-.1 0-.1 0-.1.1v2.9c0 .1 0 .1.1.1h1.9z"/><path id="XMLID_768_" class="st1" d="M11.8 161.6c0-.1 0-.2.2-.2h7.3c.1 0 .2.1.2.2v1.8c0 .1-.1.2-.2.2h-4.9c-.1 0-.1 0-.1.1v2.3c0 .1 0 .1.1.1h4.1c.1 0 .2 0 .2.2v1.8c0 .1-.1.2-.2.2h-4.1c-.1 0-.1 0-.1.1v2.4c0 .1 0 .1.1.1h4.9c.1 0 .2 0 .2.2v1.8c0 .1-.1.2-.2.2H12c-.1 0-.2-.1-.2-.2v-11.3z"/><path id="XMLID_770_" class="st1" d="M24.5 161.6c0-.1.1-.2.2-.2h2.1c.1 0 .2.1.2.2l3.9 11.1c0 .1 0 .2-.1.2h-2.2c-.1 0-.2-.1-.2-.2l-.7-2h-4l-.6 2c0 .1-.1.2-.2.2h-2.2c-.1 0-.2-.1-.1-.2l3.9-11.1zm-.1 7H27l-1.3-4h-.1l-1.2 4z"/><path id="XMLID_773_" class="st1" d="M32.2 161.6c0-.1 0-.2.2-.2h2.1c.1 0 .2.1.2.2v4.9l3.8-5c.1-.1.2-.2.3-.2h2.4c.1 0 .2.1.1.2l-3.5 4.3 3.8 6.7c.1.1.1.2-.1.2H39c-.1 0-.2-.1-.3-.2l-2.6-4.8-1.5 1.9v2.9c0 .1 0 .2-.2.2h-2.1c-.1 0-.2-.1-.2-.2v-10.9z"/><path id="XMLID_775_" class="st1" d="M43 161.6c0-.1 0-.2.2-.2h7.3c.1 0 .2.1.2.2v1.8c0 .1-.1.2-.2.2h-4.9c-.1 0-.1 0-.1.1v2.3c0 .1 0 .1.1.1h4.1c.1 0 .2 0 .2.2v1.8c0 .1 0 .2-.2.2h-4.1c-.1 0-.1 0-.1.1v2.4c0 .1 0 .1.1.1h4.9c.1 0 .2 0 .2.2v1.8c0 .1-.1.2-.2.2h-7.3c-.1 0-.2-.1-.2-.2v-11.3z"/><path id="XMLID_777_" class="st1" d="M58.9 172.9c-.1 0-.2-.1-.3-.2l-2-4.2h-1.5c-.1 0-.1 0-.1.1v4.1c0 .1 0 .2-.2.2h-2.1c-.1 0-.2-.1-.2-.2v-11.1c0-.1 0-.2.2-.2h4.6c1.2 0 2.1.3 2.8 1 .7.7 1.1 1.5 1.1 2.6 0 1.5-.8 2.6-2 3.2l2.3 4.5c.1.1 0 .2-.1.2h-2.5zm-1.8-6.5c.9 0 1.5-.6 1.5-1.4 0-.9-.6-1.4-1.5-1.4h-2c-.1 0-.1 0-.1.1v2.6c0 .1 0 .1.1.1h2z"/><path id="XMLID_780_" class="st1" d="M62.9 164.8v-3.2c0-.1.1-.2.2-.2h1.7c.1 0 .2.1.2.2v1.8c0 .2 0 .3-.2.4l-1.4 1.1c-.1.1-.2.1-.3.1-.2 0-.2-.1-.2-.2z"/><path id="XMLID_782_" class="st1" d="M68.4 172.6c-.8-.3-1.4-.7-1.9-1.1-.1-.1-.1-.2 0-.3l1.3-1.5c.1-.1.2-.1.3 0 1 .8 2 1.2 3 1.2 1.2 0 1.9-.5 1.9-1.4 0-.7-.5-1.1-1.8-1.3l-.6-.1c-2.4-.3-3.6-1.5-3.6-3.4 0-1.1.4-1.9 1.1-2.5.7-.6 1.7-1 3-1 1.6 0 2.9.4 3.9 1.2.1.1.1.2 0 .3l-1 1.5c-.1.1-.2.1-.2.1-.9-.6-1.8-.9-2.7-.9-1 0-1.5.5-1.5 1.2s.5 1.1 1.8 1.3l.6.1c2.4.3 3.6 1.5 3.6 3.5 0 2.2-1.6 3.6-4.5 3.6-1.1 0-1.9-.2-2.7-.5z"/><path id="XMLID_784_" class="st1" d="M82 171.9c-.8-.8-1.2-1.8-1.2-3.2v-7.1c0-.1.1-.2.2-.2h2.1c.1 0 .2.1.2.2v7.1c0 1.3.8 2.1 1.9 2.1 1.2 0 1.9-.8 1.9-2.1v-7.1c0-.1.1-.2.2-.2h2.1c.1 0 .2.1.2.2v7.1c0 1.4-.4 2.5-1.2 3.2-.8.8-1.8 1.1-3.2 1.1-1.3.1-2.4-.3-3.2-1.1z"/><path id="XMLID_786_" class="st1" d="M91.9 172.9c-.1 0-.2-.1-.2-.2v-11.1c0-.1 0-.2.2-.2h4.4c1.2 0 2.2.3 2.9 1 .7.7 1.1 1.6 1.1 2.7s-.4 2-1.1 2.7c-.7.7-1.7 1-2.9 1h-2c-.1 0-.1 0-.1.1v3.8c0 .1 0 .2-.2.2h-2.1zm4.3-6.3c1 0 1.7-.6 1.7-1.5s-.6-1.5-1.7-1.5h-1.9c-.1 0-.1 0-.1.1v2.9c0 .1 0 .1.1.1h1.9z"/><path id="XMLID_789_" class="st1" d="M101.9 161.6c0-.1 0-.2.2-.2h4.3c2.1 0 3.4.9 4 2.6.2.6.3 1.7.3 3.1s-.1 2.5-.3 3.1c-.6 1.7-1.9 2.6-4 2.6h-4.3c-.1 0-.2-.1-.2-.2v-11zm2.5 9c0 .1 0 .1.1.1h1.3c1.2 0 1.9-.4 2.1-1.3.1-.4.2-1.1.2-2.3s-.1-1.9-.2-2.3c-.3-.8-1-1.3-2.1-1.3h-1.3c-.1 0-.1 0-.1.1v7z"/><path id="XMLID_792_" class="st1" d="M115.2 161.6c0-.1.1-.2.2-.2h2.1c.1 0 .2.1.2.2l3.9 11.1c0 .1 0 .2-.1.2h-2.2c-.1 0-.2-.1-.2-.2l-.7-2h-4l-.6 2c0 .1-.1.2-.2.2h-2.2c-.1 0-.2-.1-.1-.2l3.9-11.1zm-.1 7h2.6l-1.3-4h-.1l-1.2 4z"/><path id="XMLID_795_" class="st1" d="M124.4 172.9c-.1 0-.2-.1-.2-.2v-9c0-.1 0-.1-.1-.1h-2.9c-.1 0-.2-.1-.2-.2v-1.9c0-.1 0-.2.2-.2h8.5c.1 0 .2.1.2.2v1.9c0 .1-.1.2-.2.2h-2.9c-.1 0-.1 0-.1.1v9c0 .1-.1.2-.2.2h-2.1z"/><path id="XMLID_797_" class="st1" d="M131.2 161.6c0-.1 0-.2.2-.2h7.3c.1 0 .2.1.2.2v1.8c0 .1-.1.2-.2.2h-4.9c-.1 0-.1 0-.1.1v2.3c0 .1 0 .1.1.1h4.1c.1 0 .2 0 .2.2v1.8c0 .1 0 .2-.2.2h-4.1c-.1 0-.1 0-.1.1v2.4c0 .1 0 .1.1.1h4.9c.1 0 .2 0 .2.2v1.8c0 .1-.1.2-.2.2h-7.3c-.1 0-.2-.1-.2-.2v-11.3z"/><path id="XMLID_799_" class="st1" d="M142.2 172.6c-.8-.3-1.4-.7-1.9-1.1-.1-.1-.1-.2 0-.3l1.3-1.5c.1-.1.2-.1.3 0 1 .8 2 1.2 3 1.2 1.2 0 1.9-.5 1.9-1.4 0-.7-.5-1.1-1.8-1.3l-.6-.1c-2.4-.3-3.6-1.5-3.6-3.4 0-1.1.4-1.9 1.1-2.5.7-.6 1.7-1 3-1 1.6 0 2.9.4 3.9 1.2.1.1.1.2 0 .3l-1 1.5c-.1.1-.2.1-.2.1-.9-.6-1.8-.9-2.7-.9-1 0-1.5.5-1.5 1.2s.5 1.1 1.8 1.3l.6.1c2.4.3 3.6 1.5 3.6 3.5 0 2.2-1.6 3.6-4.5 3.6-1.1 0-1.9-.2-2.7-.5z"/></g></g><g id="XMLID_1165_"><g id="XMLID_106_" class="st0"><path id="XMLID_341_" class="st1" d="M68.4 140.4c-.1 0-.2 0-.2-.2v-2.6c0-.1.1-.2.2-.2h5.3c.1 0 .2 0 .2.2v2.6c0 .1 0 .2-.2.2h-5.3z"/><path id="XMLID_339_" class="st1" d="M16.5 172c-.1 0-.2-.1-.2-.2v-9c0-.1 0-.1-.1-.1h-2.9c-.1 0-.2-.1-.2-.2v-1.9c0-.1 0-.2.2-.2h8.5c.1 0 .2.1.2.2v1.9c0 .1-.1.2-.2.2h-2.9c-.1 0-.1 0-.1.1v9c0 .1-.1.2-.2.2h-2.1z"/><path id="XMLID_233_" class="st1" d="M23.4 160.8c0-.1 0-.2.2-.2h7.3c.1 0 .2.1.2.2v1.8c0 .1-.1.2-.2.2H26c-.1 0-.1 0-.1.1v2.3c0 .1 0 .1.1.1h4c.1 0 .2 0 .2.2v1.8c0 .1-.1.2-.2.2h-4.1c-.1 0-.1 0-.1.1v2.4c0 .1 0 .1.1.1h4.9c.1 0 .2 0 .2.2v1.8c0 .1-.1.2-.2.2h-7.3c-.1 0-.2-.1-.2-.2v-11.3z"/><path id="XMLID_230_" class="st1" d="M36 160.8c0-.1.1-.2.2-.2h2.1c.1 0 .2.1.2.2l3.9 11.1c0 .1 0 .2-.1.2h-2.2c-.1 0-.2-.1-.2-.2l-.7-2h-4l-.6 2c0 .1-.1.2-.2.2h-2.2c-.1 0-.2-.1-.1-.2l3.9-11.1zm-.1 6.9h2.6l-1.3-4h-.1l-1.2 4z"/><path id="XMLID_178_" class="st1" d="M43.7 160.8c0-.1 0-.2.2-.2h2c.1 0 .2.1.3.2l2.9 6.5h.1l2.8-6.5c.1-.1.1-.2.3-.2h2c.1 0 .2.1.2.2v11.1c0 .1-.1.2-.2.2h-1.9c-.1 0-.2-.1-.2-.2v-6.4H52l-2.1 4.8c-.1.2-.2.2-.3.2h-1.2c-.2 0-.3-.1-.3-.2l-2.1-4.8h-.1v6.4c0 .1 0 .2-.2.2h-1.9c-.1 0-.2-.1-.2-.2v-11.1z"/><path id="XMLID_176_" class="st1" d="M61.7 171.1c-.8-.8-1.2-1.8-1.2-3.2v-7.1c0-.1.1-.2.2-.2h2.1c.1 0 .2.1.2.2v7.1c0 1.3.8 2.1 1.9 2.1 1.2 0 1.9-.8 1.9-2.1v-7.1c0-.1.1-.2.2-.2h2.1c.1 0 .2.1.2.2v7.1c0 1.4-.4 2.5-1.2 3.2-.8.8-1.8 1.1-3.2 1.1-1.4 0-2.4-.4-3.2-1.1z"/><path id="XMLID_173_" class="st1" d="M71.5 172c-.1 0-.2-.1-.2-.2v-11.1c0-.1 0-.2.2-.2H76c1.2 0 2.2.3 2.9 1 .7.7 1.1 1.6 1.1 2.7s-.4 2-1.1 2.7c-.7.7-1.7 1-2.9 1h-2c-.1 0-.1 0-.1.1v3.8c0 .1 0 .2-.2.2h-2.2zm4.3-6.2c1 0 1.7-.6 1.7-1.5s-.6-1.5-1.7-1.5h-1.9c-.1 0-.1 0-.1.1v2.9c0 .1 0 .1.1.1h1.9z"/><path id="XMLID_116_" class="st1" d="M81.5 160.8c0-.1 0-.2.2-.2H86c2.1 0 3.4.9 4 2.6.2.6.3 1.7.3 3.1s-.1 2.5-.3 3.1c-.6 1.7-1.9 2.6-4 2.6h-4.3c-.1 0-.2-.1-.2-.2v-11zm2.5 8.9c0 .1 0 .1.1.1h1.3c1.2 0 1.9-.4 2.1-1.3.1-.4.2-1.1.2-2.3s-.1-1.9-.2-2.3c-.3-.8-1-1.3-2.1-1.3h-1.3c-.1 0-.1 0-.1.1v7z"/><path id="XMLID_113_" class="st1" d="M94.8 160.8c0-.1.1-.2.2-.2h2.1c.1 0 .2.1.2.2l3.9 11.1c0 .1 0 .2-.1.2H99c-.1 0-.2-.1-.2-.2l-.7-2h-4l-.6 2c0 .1-.1.2-.2.2H91c-.1 0-.2-.1-.1-.2l3.9-11.1zm0 6.9h2.6l-1.3-4H96l-1.2 4z"/><path id="XMLID_111_" class="st1" d="M104 172c-.1 0-.2-.1-.2-.2v-9c0-.1 0-.1-.1-.1h-2.9c-.1 0-.2-.1-.2-.2v-1.9c0-.1 0-.2.2-.2h8.5c.1 0 .2.1.2.2v1.9c0 .1-.1.2-.2.2h-2.9c-.1 0-.1 0-.1.1v9c0 .1-.1.2-.2.2H104z"/><path id="XMLID_109_" class="st1" d="M110.8 160.8c0-.1 0-.2.2-.2h7.3c.1 0 .2.1.2.2v1.8c0 .1-.1.2-.2.2h-4.9c-.1 0-.1 0-.1.1v2.3c0 .1 0 .1.1.1h4.1c.1 0 .2 0 .2.2v1.8c0 .1-.1.2-.2.2h-4.1c-.1 0-.1 0-.1.1v2.4c0 .1 0 .1.1.1h4.9c.1 0 .2 0 .2.2v1.8c0 .1-.1.2-.2.2H111c-.1 0-.2-.1-.2-.2v-11.3z"/><path id="XMLID_107_" class="st1" d="M121.8 171.8c-.8-.3-1.4-.7-1.9-1.1-.1-.1-.1-.2 0-.3l1.3-1.5c.1-.1.2-.1.3 0 1 .8 2 1.2 3 1.2 1.2 0 1.9-.5 1.9-1.4 0-.7-.5-1.1-1.8-1.3l-.6-.1c-2.4-.3-3.6-1.5-3.6-3.4 0-1.1.4-1.9 1.1-2.5.7-.6 1.7-1 3-1 1.6 0 2.9.4 3.9 1.2.1.1.1.2 0 .3l-1 1.5c-.1.1-.2.1-.2.1-.9-.6-1.8-.9-2.7-.9-1 0-1.5.5-1.5 1.2s.5 1.1 1.8 1.3l.6.1c2.4.3 3.6 1.5 3.6 3.5 0 2.2-1.6 3.6-4.5 3.6-1.1-.1-1.9-.2-2.7-.5z"/></g></g><g id="XMLID_603_"><g id="XMLID_721_"><g id="XMLID_726_"><path id="XMLID_727_" class="st2" d="M50 115.7L25.2 72.5h49.6L50 115.7zM32.1 76.5L50 107.7l17.9-31.2H32.1z"/></g><g id="XMLID_722_"><path id="XMLID_723_" class="st2" d="M89.4 115.7L64.6 72.5h49.6l-24.8 43.2zM71.5 76.5l17.9 31.2 17.9-31.2H71.5z"/></g></g><g id="XMLID_717_"><path id="XMLID_718_" class="st2" d="M69.7 142.5l-14.1-31.8h28.1l-14 31.8zm-11-29.8l11 24.8 11-24.8h-22z"/></g><g id="XMLID_713_"><path id="XMLID_714_" class="st2" d="M91.1 95.7H48.3l21.4-38.6 21.4 38.6zm-39.4-2h36l-18-32.5-18 32.5z"/></g><g id="XMLID_709_"><path id="XMLID_710_" class="st2" d="M69.7 96.6L39 66l30.6-30.6L100.3 66 69.7 96.6zM44.7 66l25 25 25-25-25-25-25 25z"/></g><g id="XMLID_672_"><path id="XMLID_673_" class="st2" d="M103.9 69.5h-.3c-.3 0-.5-.2-.5-.5 0-.1 0-.2.1-.3l-.9-1.8c-.1-.2 0-.5.2-.7.2-.1.5 0 .7.2l1.2 2.3c.1.2.1.3 0 .5-.2.2-.3.3-.5.3zm-3.4 0h-3c-.3 0-.5-.2-.5-.5s.2-.5.5-.5h3c.3 0 .5.2.5.5s-.2.5-.5.5zm-6 0h-3c-.3 0-.5-.2-.5-.5s.2-.5.5-.5h3c.3 0 .5.2.5.5s-.2.5-.5.5zm-6 0h-3c-.3 0-.5-.2-.5-.5s.2-.5.5-.5h3c.3 0 .5.2.5.5s-.2.5-.5.5zm-6 0h-3c-.3 0-.5-.2-.5-.5s.2-.5.5-.5h3c.3 0 .5.2.5.5s-.2.5-.5.5zm-6 0h-3c-.3 0-.5-.2-.5-.5s.2-.5.5-.5h3c.3 0 .5.2.5.5s-.2.5-.5.5zm-6 0h-3c-.3 0-.5-.2-.5-.5s.2-.5.5-.5h3c.3 0 .5.2.5.5s-.2.5-.5.5zm-6 0h-3c-.3 0-.5-.2-.5-.5s.2-.5.5-.5h3c.3 0 .5.2.5.5s-.2.5-.5.5zm-6 0h-3c-.3 0-.5-.2-.5-.5s.2-.5.5-.5h3c.3 0 .5.2.5.5s-.2.5-.5.5zm-6 0h-3c-.3 0-.5-.2-.5-.5s.2-.5.5-.5h3c.3 0 .5.2.5.5s-.2.5-.5.5zm-6 0h-3c-.3 0-.5-.2-.5-.5s.2-.5.5-.5h3c.3 0 .5.2.5.5s-.2.5-.5.5zm-6 0h-3c-.3 0-.5-.2-.5-.5s.2-.5.5-.5h3c.3 0 .5.2.5.5s-.2.5-.5.5zm-2.1-1.7c-.1 0-.2 0-.2-.1-.2-.1-.3-.4-.2-.7l1.4-2.7c.1-.2.4-.3.7-.2.2.1.3.4.2.7l-1.4 2.7c-.1.2-.3.3-.5.3zm62.9-3.3c-.2 0-.4-.1-.4-.3l-1.4-2.7c-.1-.2 0-.5.2-.7.2-.1.5 0 .7.2l1.4 2.7c.1.2 0 .5-.2.7-.2.1-.3.1-.3.1zm-60.1-2c-.1 0-.2 0-.2-.1-.2-.1-.3-.4-.2-.7l1.4-2.7c.1-.2.4-.3.7-.2.2.1.3.4.2.7l-1.4 2.7c-.1.2-.3.3-.5.3zm57.3-3.3c-.2 0-.4-.1-.4-.3l-1.4-2.7c-.1-.2 0-.5.2-.7.2-.1.5 0 .7.2l1.4 2.7c.1.2 0 .5-.2.7-.2.1-.3.1-.3.1zm-54.5-2c-.1 0-.2 0-.2-.1-.2-.1-.3-.4-.2-.7l1.4-2.7c.1-.2.4-.3.7-.2.2.1.3.4.2.7l-1.4 2.7c-.1.2-.3.3-.5.3zm51.7-3.3c-.2 0-.4-.1-.4-.3L93.8 51c-.1-.2 0-.5.2-.7.2-.1.5 0 .7.2l1.4 2.7c.1.2 0 .5-.2.7h-.2zm-48.9-2c-.1 0-.2 0-.2-.1-.2-.1-.3-.4-.2-.7l1.4-2.7c.1-.2.4-.3.7-.2.2.1.3.4.2.7l-1.4 2.7c-.1.2-.3.3-.5.3zm46.1-3.3c-.2 0-.4-.1-.4-.3L91 45.7c-.1-.2 0-.5.2-.7.2-.1.5 0 .7.2l1.4 2.7c.1.2 0 .5-.2.7h-.2zm-43.3-2c-.1 0-.2 0-.2-.1-.2-.1-.3-.4-.2-.7l1.4-2.7c.1-.2.4-.3.7-.2.2.1.3.4.2.7L50 46.3c0 .2-.2.3-.4.3zm40.5-3.3c-.2 0-.4-.1-.4-.3l-1.4-2.7c-.1-.2 0-.5.2-.7.2-.1.5 0 .7.2l1.4 2.7c.1.2 0 .5-.2.7-.2 0-.2.1-.3.1zm-37.7-2c-.1 0-.2 0-.2-.1-.2-.1-.3-.4-.2-.7l1.4-2.7c.1-.2.4-.3.7-.2.2.1.3.4.2.7L52.8 41c0 .2-.2.3-.4.3zM87.3 38c-.2 0-.4-.1-.4-.3L85.5 35c-.1-.2 0-.5.2-.7.2-.1.5 0 .7.2l1.4 2.7c.1.2 0 .5-.2.7-.1 0-.2.1-.3.1zm-32.1-2c-.1 0-.2 0-.2-.1-.2-.1-.3-.4-.2-.7l1.4-2.7c.1-.2.4-.3.7-.2.2.1.3.4.2.7l-1.4 2.7c-.2.2-.3.3-.5.3zm29.3-3.4c-.2 0-.4-.1-.4-.3l-1.4-2.7c-.1-.2 0-.5.2-.7.2-.1.5 0 .7.2l1.4 2.7c.1.2 0 .5-.2.7-.1.1-.2.1-.3.1zm-26.5-2c-.1 0-.2 0-.2-.1-.2-.1-.3-.4-.2-.7l1.4-2.7c.1-.2.4-.3.7-.2.2.1.3.4.2.7l-1.4 2.7c-.2.2-.3.3-.5.3zm23.7-3.3c-.2 0-.4-.1-.4-.3l-1.4-2.7c-.1-.2 0-.5.2-.7.2-.1.5 0 .7.2l1.4 2.7c.1.2 0 .5-.2.7-.1.1-.2.1-.3.1zm-20.9-2c-.1 0-.2 0-.2-.1-.2-.1-.3-.4-.2-.7l1.4-2.7c.1-.2.4-.3.7-.2.2.1.3.4.2.7L61.3 25c-.2.2-.3.3-.5.3zM78.9 22c-.2 0-.4-.1-.4-.3L77.1 19c-.1-.2 0-.5.2-.7.2-.1.5 0 .7.2l1.4 2.7c.1.2 0 .5-.2.7-.1.1-.2.1-.3.1zm-15.3-2c-.1 0-.2 0-.2-.1-.2-.1-.3-.4-.2-.7l1.4-2.7c.1-.2.4-.3.7-.2.2.1.3.4.2.7L64 19.8c-.1.1-.3.2-.4.2zm12.5-3.3c-.2 0-.4-.1-.4-.3l-1.4-2.7c-.1-.2 0-.5.2-.7.2-.1.5 0 .7.2l1.4 2.7c.1.2 0 .5-.2.7-.1.1-.2.1-.3.1zm-9.7-2c-.1 0-.2 0-.2-.1-.2-.1-.3-.4-.2-.7l1.4-2.7c.1-.2.4-.3.7-.2.2.1.3.4.2.7l-1.4 2.7c-.2.2-.4.3-.5.3zm6.9-3.3c-.2 0-.4-.1-.4-.3l-1.4-2.7c-.1-.2 0-.5.2-.7.2-.1.5 0 .7.2l1.4 2.7c.1.2 0 .5-.2.7-.1.1-.2.1-.3.1zm-4.2-2c-.1 0-.2 0-.2-.1-.2-.1-.3-.4-.2-.7L70.1 6c.1-.2.4-.3.7-.2.2.1.3.4.2.7l-1.4 2.7c-.1.1-.3.2-.5.2z"/></g><g id="XMLID_668_"><path id="XMLID_669_" class="st2" d="M69.7 51.4c-11.8 0-21.5-9.6-21.5-21.5S57.8 8.5 69.7 8.5 91.2 18.1 91.2 30s-9.7 21.4-21.5 21.4zm0-40.9C59 10.5 50.2 19.2 50.2 30s8.7 19.5 19.5 19.5S89.2 40.8 89.2 30s-8.8-19.5-19.5-19.5z"/></g><g id="XMLID_646_"><path id="XMLID_647_" class="st2" d="M103.9 88.5c-.9 0-1.9-.1-2.8-.2-.3 0-.5-.3-.4-.6 0-.3.3-.5.6-.4.9.1 1.8.2 2.7.2h.3c.3 0 .5.2.5.5s-.2.5-.5.5h-.4zm3.2-.2c-.2 0-.5-.2-.5-.4 0-.3.1-.5.4-.6 1-.2 1.9-.4 2.8-.7.3-.1.5.1.6.3.1.3-.1.5-.3.6-.9.3-1.9.6-3 .8.1 0 .1 0 0 0zm-8.9-.6h-.1c-1-.3-1.9-.7-2.9-1.1-.2-.1-.4-.4-.2-.7.1-.2.4-.4.7-.2.9.4 1.8.8 2.7 1.1.3.1.4.4.3.6-.1.1-.3.3-.5.3zm14.6-1.3c-.2 0-.4-.1-.4-.3-.1-.2 0-.5.2-.7.9-.4 1.7-1 2.5-1.5.2-.2.5-.1.7.1.2.2.1.5-.1.7-.8.6-1.7 1.2-2.6 1.6-.2 0-.2.1-.3.1zm-19.9-1.3c-.1 0-.2 0-.3-.1-.8-.6-1.6-1.2-2.4-2-.2-.2-.2-.5 0-.7.2-.2.5-.2.7 0 .7.7 1.5 1.3 2.3 1.9.2.2.3.5.1.7-.1.1-.3.2-.4.2zm24.7-2.3c-.1 0-.3 0-.4-.1-.2-.2-.2-.5 0-.7.7-.7 1.3-1.4 1.9-2.2.2-.2.5-.3.7-.1.2.2.3.5.1.7-.6.8-1.3 1.6-2 2.3 0 .1-.2.1-.3.1zm-29-1.9c-.2 0-.3-.1-.4-.2-.6-.8-1.2-1.7-1.7-2.6-.1-.2 0-.5.2-.7.2-.1.5 0 .7.2.5.9 1 1.7 1.6 2.5.2.2.1.5-.1.7-.1.1-.2.1-.3.1zm32.5-2.9c-.1 0-.2 0-.2-.1-.2-.1-.3-.4-.2-.7.4-.9.8-1.8 1.1-2.7.1-.3.4-.4.6-.3.3.1.4.4.3.6-.3 1-.7 1.9-1.2 2.8-.1.2-.2.4-.4.4zm-35.4-2.3c-.2 0-.4-.1-.5-.3-.3-1-.6-2-.8-3 0-.3.1-.5.4-.6.3 0 .5.1.6.4.2 1 .4 1.9.7 2.8.1.3 0 .5-.3.6 0 .1 0 .1-.1.1zm37.2-3.4c-.4 0-.5-.3-.5-.6.1-1 .2-1.9.2-2.9v-1c0-.3.2-.5.5-.5s.5.2.5.5v1.1c0 1-.1 2.1-.2 3.1 0 .1-.2.3-.5.3zm-38.3-2.5c-.3 0-.5-.2-.5-.5v-.5c0-.9.1-1.7.2-2.5 0-.3.3-.5.6-.4.3 0 .5.3.4.6-.1.8-.2 1.6-.2 2.4v.5c0 .2-.2.4-.5.4.1 0 0 0 0 0zm38.1-4.5c-.2 0-.4-.2-.5-.4-.2-1-.5-1.9-.8-2.8-.1-.3 0-.5.3-.6.3-.1.5 0 .6.3.4 1 .7 1.9.9 2.9.1.3-.1.5-.4.6h-.1zm-37.3-1.4h-.1c-.3-.1-.4-.4-.3-.6.3-1 .7-2 1.1-2.9.1-.3.4-.4.7-.2.3.1.4.4.2.7-.4.9-.8 1.8-1 2.7-.2.1-.4.3-.6.3zm35.2-4.2c-.2 0-.3-.1-.4-.3-.5-.8-1-1.6-1.6-2.4-.2-.2-.1-.5.1-.7.2-.2.5-.1.7.1.6.8 1.2 1.7 1.7 2.5.1.2.1.5-.2.7-.1.1-.2.1-.3.1zM88 58.5c-.1 0-.2 0-.3-.1-.2-.2-.3-.5-.1-.7.6-.8 1.2-1.7 1.9-2.4.2-.2.5-.2.7 0s.2.5 0 .7c-.7.7-1.3 1.5-1.8 2.3-.1.1-.3.2-.4.2zm28.9-3.5c-.1 0-.2 0-.3-.1-.7-.7-1.5-1.3-2.3-1.8-.2-.2-.3-.5-.1-.7.2-.2.5-.3.7-.1.9.6 1.7 1.2 2.4 1.9.2.2.2.5 0 .7-.2.1-.3.1-.4.1zM92 54.1c-.1 0-.3-.1-.4-.2-.2-.2-.1-.5.1-.7.8-.6 1.7-1.2 2.6-1.7.2-.1.5 0 .7.2.1.2 0 .5-.2.7-.8.5-1.7 1-2.4 1.6-.1.1-.3.1-.4.1zm19.9-2.4h-.2c-.9-.4-1.8-.7-2.7-1-.3-.1-.4-.3-.3-.6.1-.3.3-.4.6-.3 1 .3 2 .6 2.9 1.1.3.1.4.4.2.7-.2 0-.3.1-.5.1zm-14.6-.5c-.2 0-.4-.1-.5-.3-.1-.3 0-.5.3-.6 1-.4 2-.6 3-.8.3-.1.5.1.6.4s-.1.5-.4.6c-1 .2-1.9.5-2.8.8-.1-.1-.2-.1-.2-.1zm8.8-1.1c-1-.1-2-.2-3-.1-.3 0-.5-.2-.5-.5s.2-.5.5-.5c1 0 2.1 0 3.1.1.3 0 .5.3.4.6 0 .3-.2.4-.5.4z"/></g><g id="XMLID_624_"><path id="XMLID_625_" class="st2" d="M37.5 88.8c-.9 0-1.9-.1-2.8-.2-.3 0-.5-.3-.4-.6 0-.3.3-.5.6-.4.9.1 1.8.2 2.7.2h.3c.3 0 .5.2.5.5s-.2.5-.5.5h-.4zm3.3-.3c-.2 0-.5-.2-.5-.4 0-.3.1-.5.4-.6 1-.2 1.9-.4 2.8-.7.3-.1.5.1.6.3.1.3-.1.5-.3.6-.9.4-1.9.6-3 .8zm-8.9-.6h-.1c-1-.3-1.9-.7-2.9-1.1-.2-.1-.4-.4-.2-.7.1-.2.4-.3.7-.2.9.4 1.8.8 2.7 1.1.3.1.4.4.3.6-.1.2-.3.3-.5.3zm14.5-1.3c-.2 0-.4-.1-.4-.3-.1-.2 0-.5.2-.7.9-.4 1.7-1 2.5-1.5.2-.2.5-.1.7.1.2.2.1.5-.1.7-.8.6-1.7 1.2-2.6 1.6-.1.1-.2.1-.3.1zm-19.9-1.3c-.1 0-.2 0-.3-.1-.8-.6-1.6-1.2-2.4-2-.2-.2-.2-.5 0-.7.2-.2.5-.2.7 0 .7.7 1.5 1.3 2.3 1.9.2.2.3.5.1.7-.1.1-.2.2-.4.2zM51.2 83c-.1 0-.3 0-.4-.1-.2-.2-.2-.5 0-.7.7-.7 1.3-1.4 1.9-2.2.2-.2.5-.3.7-.1.2.2.3.5.1.7-.6.8-1.3 1.6-2 2.3 0 .1-.1.1-.3.1zm-29-1.8c-.2 0-.3-.1-.4-.2-.6-.8-1.2-1.7-1.7-2.6-.1-.2 0-.5.2-.7.2-.1.5 0 .7.2.5.9 1 1.7 1.6 2.5.2.2.1.5-.1.7-.1 0-.2.1-.3.1zm32.5-3c-.1 0-.2 0-.2-.1-.2-.1-.3-.4-.2-.7.4-.9.8-1.8 1.1-2.7.1-.3.4-.4.6-.3.3.1.4.4.3.6-.3 1-.7 1.9-1.2 2.8 0 .3-.2.4-.4.4zm-35.3-2.3c-.2 0-.4-.1-.5-.3-.3-1-.6-2-.8-3 0-.3.1-.5.4-.6.3-.1.5.1.6.4.2 1 .4 1.9.7 2.8.1.3 0 .5-.3.6 0 .1-.1.1-.1.1zm37.2-3.4c-.1 0-.1 0 0 0-.4 0-.5-.3-.5-.6.1-1 .2-1.9.2-2.9v-1c0-.3.2-.5.5-.5s.5.2.5.5v1.1c0 1-.1 2.1-.2 3.1-.1.1-.3.3-.5.3zM18.3 70c-.3 0-.5-.2-.5-.5V69c0-.9.1-1.7.2-2.5 0-.3.3-.5.6-.4.3 0 .5.3.4.6-.1.8-.2 1.6-.2 2.4v.5c0 .2-.2.4-.5.4zm38.1-4.5c-.2 0-.4-.2-.5-.4-.2-1-.5-1.9-.8-2.8-.1-.3 0-.5.3-.6.3-.1.5 0 .6.3.4 1 .7 1.9.9 2.9.1.3-.1.5-.4.6h-.1zm-37.3-1.4H19c-.3-.1-.4-.4-.3-.6.3-1 .7-2 1.1-2.9.1-.3.4-.4.7-.2.3.1.4.4.2.7-.4.9-.8 1.8-1 2.7-.2.2-.4.3-.6.3zm35.2-4.2c-.2 0-.3-.1-.4-.3-.5-.8-1-1.6-1.6-2.4-.2-.2-.1-.5.1-.7.2-.2.5-.1.7.1.6.8 1.2 1.7 1.7 2.5.1.2.1.5-.2.7-.2.1-.3.1-.3.1zm-32.7-1.2c-.1 0-.2 0-.3-.1-.2-.2-.3-.5-.1-.7.6-.8 1.2-1.7 1.9-2.4.2-.2.5-.2.7 0 .2.2.2.5 0 .7-.7.7-1.3 1.5-1.8 2.3-.1.1-.2.2-.4.2zm28.9-3.4c-.1 0-.2 0-.3-.1-.7-.7-1.5-1.3-2.3-1.8-.2-.2-.3-.5-.1-.7.2-.2.5-.3.7-.1.9.6 1.7 1.2 2.4 1.9.2.2.2.5 0 .7-.1 0-.3.1-.4.1zm-24.8-1c-.1 0-.3-.1-.4-.2-.2-.2-.1-.5.1-.7.8-.6 1.7-1.2 2.6-1.7.2-.1.5 0 .7.2.1.2 0 .5-.2.7-.8.5-1.7 1-2.4 1.6-.2.1-.3.1-.4.1zM45.5 52h-.2c-.9-.4-1.8-.7-2.7-1-.3-.1-.4-.3-.3-.6.1-.3.3-.4.6-.3 1 .3 2 .6 2.9 1.1.3.1.4.4.2.7-.1 0-.3.1-.5.1zm-14.6-.6c-.2 0-.4-.1-.5-.3-.1-.3 0-.5.3-.6 1-.4 2-.6 3-.8.3-.1.5.1.6.4.1.3-.1.5-.4.6-1 .2-1.9.5-2.8.8-.1-.1-.1-.1-.2-.1zm8.9-1c-.1 0-.1 0 0 0-1-.1-2-.1-3-.1-.3 0-.5-.2-.5-.5s.2-.5.5-.5c1 0 2.1 0 3.1.1.3 0 .5.3.4.6-.1.2-.3.4-.5.4z"/></g><g id="XMLID_620_"><path id="XMLID_621_" class="st2" d="M52.2 69.5c-11.6 0-21-9.4-21-21s9.4-21 21-21 21 9.4 21 21-9.5 21-21 21zm0-41c-11 0-20 9-20 20s9 20 20 20 20-9 20-20-9-20-20-20z"/></g><g id="XMLID_616_"><path id="XMLID_617_" class="st2" d="M82.2 69.5c-11.6 0-21-9.4-21-21s9.4-21 21-21 21 9.4 21 21-9.4 21-21 21zm0-41c-11 0-20 9-20 20s9 20 20 20 20-9 20-20-9-20-20-20z"/></g><g id="XMLID_614_"><circle id="XMLID_615_" class="st2" cx="70.7" cy="5.9" r="5.9"/></g><g id="XMLID_612_"><path id="XMLID_613_" class="st2" d="M84.7 126.4l-15-26.6-14 26.5L45 107.1l3.5-1.9 7.1 12.7 14-26.5 14.9 26.5 7.5-14.7 3.5 1.8z"/></g><g id="XMLID_608_"><path id="XMLID_609_" class="st2" d="M126.3 75.6l.5-2c.4-1.6.7-3.2.7-4.8s-.2-3.2-.7-4.8l-.5-2 15.3 6.8-15.3 6.8zm3-10.1c.2 1.1.3 2.2.3 3.3s-.1 2.2-.3 3.3l7.5-3.3-7.5-3.3z"/></g><g id="XMLID_604_"><path id="XMLID_605_" class="st2" d="M15.3 75.8L0 69l15.3-6.8-.5 2c-.4 1.6-.7 3.2-.7 4.8s.2 3.2.7 4.8l.5 2zM4.9 69l7.5 3.3c-.2-1.1-.3-2.2-.3-3.3s.1-2.2.3-3.3L4.9 69z"/></g></g></svg>