<svg xmlns="http://www.w3.org/2000/svg" width="184" height="185.309" viewBox="0 0 184 185.3094" id="svg9176"><g id="layer1" transform="translate(.818 -433.993)"><g id="g7552" transform="matrix(1.25 0 0 -1.25 148.012 466.475)"><path d="M0 0l-.06.003c-.961.113-1.946.147-2.911.102a.497.497 0 0 0-.522.477c-.014.276.2.51.475.522 1.022.047 2.061.012 3.076-.107A.5.5 0 0 0 0 0m-8.829-1.16a.499.499 0 0 0-.186.964c.952.382 1.943.685 2.945.902a.496.496 0 0 0 .593-.383.498.498 0 0 0-.382-.594 17.525 17.525 0 0 1-2.785-.854.498.498 0 0 0-.185-.035m14.558-.52a.496.496 0 0 0-.218.05c-.871.424-1.785.778-2.717 1.051a.5.5 0 0 0 .281.96A18.526 18.526 0 0 0 5.948-.73a.501.501 0 0 0-.219-.95m-19.652-2.591a.499.499 0 0 0-.327.877 18.612 18.612 0 0 0 2.484 1.818c.235.141.543.07.688-.166a.502.502 0 0 0-.166-.688 17.688 17.688 0 0 1-2.352-1.719.494.494 0 0 0-.327-.122m24.516-.875a.498.498 0 0 0-.354.146 17.774 17.774 0 0 1-2.223 1.882.5.5 0 1 0 .58.814 18.61 18.61 0 0 0 2.35-1.988.5.5 0 0 0-.353-.854m-28.321-3.729a.5.5 0 0 0-.432.75 18.544 18.544 0 0 0 1.757 2.529.5.5 0 0 0 .771-.637c-.62-.75-1.18-1.555-1.663-2.392a.501.501 0 0 0-.433-.25m31.788-1.132a.501.501 0 0 0-.45.28 17.477 17.477 0 0 1-1.489 2.503.501.501 0 0 0 .815.581 18.682 18.682 0 0 0 1.573-2.645.5.5 0 0 0-.449-.719m-33.872-4.463a.501.501 0 0 0-.493.595 18.61 18.61 0 0 0 .831 2.964.501.501 0 0 0 .938-.349 17.225 17.225 0 0 1-.786-2.804.501.501 0 0 0-.49-.406m35.55-1.265a.5.5 0 0 0-.495.442c-.114.963-.31 1.923-.583 2.852a.5.5 0 1 0 .959.281c.288-.982.496-1.996.616-3.016a.498.498 0 0 0-.497-.559m-35.694-4.703a.5.5 0 0 0-.494.429 18.794 18.794 0 0 0-.186 2.634l.005.438a.5.5 0 0 0 .5.489h.011a.5.5 0 0 0 .489-.51l-.005-.417c0-.835.06-1.674.176-2.493a.5.5 0 0 0-.496-.57m35.576-.422a.501.501 0 0 0-.494.582c.159.951.239 1.927.239 2.903a.5.5 0 0 0 1 0 18.66 18.66 0 0 0-.253-3.068.5.5 0 0 0-.492-.417m-33.759-5.266a.5.5 0 0 0-.444.271 18.31 18.31 0 0 0-1.179 2.844.501.501 0 0 0 .953.304c.293-.922.668-1.827 1.115-2.689a.5.5 0 0 0-.445-.73m31.805-.377a.499.499 0 0 0-.438.74c.465.851.863 1.747 1.179 2.663a.5.5 0 1 0 .946-.327 18.284 18.284 0 0 0-1.249-2.816.497.497 0 0 0-.438-.26m-28.224-4.4a.496.496 0 0 0-.344.138 18.614 18.614 0 0 0-2.045 2.302.501.501 0 0 0 .801.6 17.612 17.612 0 0 1 1.933-2.178.5.5 0 0 0-.345-.862m24.53-.293a.499.499 0 0 0-.337.869 17.8 17.8 0 0 1 1.986 2.133.5.5 0 1 0 .785-.619 18.774 18.774 0 0 0-2.097-2.253.5.5 0 0 0-.337-.13m-19.586-3.058a.492.492 0 0 0-.208.046c-.932.426-1.835.934-2.684 1.51a.5.5 0 0 0 .561.827 17.438 17.438 0 0 1 2.539-1.428.501.501 0 0 0-.208-.955m14.567-.172a.5.5 0 0 0-.197.959c.89.382 1.755.842 2.57 1.367a.5.5 0 0 0 .541-.841 18.46 18.46 0 0 0-2.717-1.445.486.486 0 0 0-.197-.04m-8.798-1.369a18.389 18.389 0 0 0-3.078.545.5.5 0 1 0 .258.966c.933-.25 1.897-.422 2.866-.514a.499.499 0 0 0-.046-.997m2.994-.036a.5.5 0 0 0-.034.998c.969.069 1.937.219 2.878.446a.5.5 0 1 0 .235-.971c-.995-.241-2.018-.4-3.042-.472l-.037-.001" id="path7554" fill="#fff"/></g><g id="g7556" transform="matrix(1.25 0 0 -1.25 127.281 459.077)"><path d="M0 0a.5.5 0 0 0-.075.994c.999.155 2.019.259 3.032.31A.485.485 0 0 0 3.481.83a.5.5 0 0 0-.473-.525A28.722 28.722 0 0 1 .077.006.5.5 0 0 0 0 0m8.964-.006A.512.512 0 0 0 8.886 0c-.962.15-1.948.252-2.93.303a.501.501 0 0 0-.474.526c.015.275.25.483.525.473A29.337 29.337 0 0 0 9.04.988a.5.5 0 0 0-.076-.994m-14.753-1.52a.5.5 0 0 0-.177.968c.948.359 1.925.672 2.904.93a.5.5 0 0 0 .254-.967 28.128 28.128 0 0 1-2.804-.899.498.498 0 0 0-.177-.032m20.54-.013a.505.505 0 0 0-.178.033c-.919.349-1.862.652-2.804.902a.5.5 0 0 0 .255.966 29.375 29.375 0 0 0 2.905-.933.501.501 0 0 0-.178-.968m-25.889-2.678a.499.499 0 0 0-.269.921 29.45 29.45 0 0 0 2.649 1.51.5.5 0 1 0 .449-.893 28.596 28.596 0 0 1-2.559-1.459.501.501 0 0 0-.27-.079m31.235-.021a.5.5 0 0 0-.271.08 28.522 28.522 0 0 1-2.557 1.462.5.5 0 0 0 .451.893 29.664 29.664 0 0 0 2.647-1.514.5.5 0 0 0-.27-.921m-35.916-3.713a.5.5 0 0 0-.351.857 29.519 29.519 0 0 0 2.284 2.022.5.5 0 0 0 .623-.782 28.335 28.335 0 0 1-2.206-1.954.498.498 0 0 0-.35-.143m40.593-.027a.495.495 0 0 0-.35.144 28.956 28.956 0 0 1-2.204 1.957.5.5 0 0 0 .625.781 29.964 29.964 0 0 0 2.28-2.026.5.5 0 0 0-.351-.856m-44.412-4.586a.5.5 0 0 0-.416.777 29.51 29.51 0 0 0 1.822 2.447.499.499 0 1 0 .769-.638 28.715 28.715 0 0 1-1.759-2.363.498.498 0 0 0-.416-.223m48.224-.031a.498.498 0 0 0-.416.223 28.85 28.85 0 0 1-1.757 2.366.5.5 0 0 0 .772.636 29.694 29.694 0 0 0 1.817-2.448.5.5 0 0 0-.416-.777m-51.013-5.268a.5.5 0 0 0-.464.685c.377.943.808 1.874 1.28 2.77a.499.499 0 1 0 .884-.466 28.288 28.288 0 0 1-1.236-2.675.499.499 0 0 0-.464-.314m53.795-.034a.501.501 0 0 0-.465.315c-.36.906-.774 1.806-1.23 2.676a.5.5 0 0 0 .885.465c.473-.901.902-1.833 1.275-2.771a.5.5 0 0 0-.465-.685m-55.427-5.727a.499.499 0 0 0-.493.586c.173.998.401 1.999.676 2.973a.5.5 0 1 0 .963-.272 28.412 28.412 0 0 1-.654-2.872.5.5 0 0 0-.492-.415m57.052-.035a.5.5 0 0 0-.492.415 28.395 28.395 0 0 1-.65 2.872.501.501 0 0 0 .962.272c.275-.975.501-1.976.674-2.974a.5.5 0 0 0-.494-.585m-57.464-5.938a.5.5 0 0 0-.5.483 30.507 30.507 0 0 0 .053 3.048.511.511 0 0 0 .533.465.5.5 0 0 0 .465-.533 29.127 29.127 0 0 1-.051-2.947.5.5 0 0 0-.483-.516h-.017m57.735-2.006l-.052.002a.5.5 0 0 0-.446.549 29.455 29.455 0 0 1 .084 4.883.499.499 0 0 0 .465.532.517.517 0 0 0 .533-.465 29.896 29.896 0 0 0-.088-5.052.5.5 0 0 0-.496-.449m-56.918-3.925a.5.5 0 0 0-.486.381 29.266 29.266 0 0 0-.571 2.995.5.5 0 1 0 .99.136c.133-.967.319-1.941.552-2.893a.5.5 0 0 0-.485-.619m55.69-1.936a.498.498 0 0 0-.475.652c.297.929.55 1.888.752 2.849a.499.499 0 1 0 .978-.205 29.254 29.254 0 0 0-.779-2.949.5.5 0 0 0-.476-.347m-53.667-3.7a.5.5 0 0 0-.45.283 29.309 29.309 0 0 0-1.18 2.813.5.5 0 0 0 .942.338c.329-.917.712-1.831 1.138-2.716a.5.5 0 0 0-.45-.718m51.254-1.78a.501.501 0 0 0-.435.748 27.92 27.92 0 0 1 1.327 2.631.5.5 0 1 0 .916-.404 29.52 29.52 0 0 0-1.373-2.723.501.501 0 0 0-.435-.252m-48.109-3.314a.5.5 0 0 0-.397.195 29.364 29.364 0 0 0-1.733 2.509.5.5 0 0 0 .851.524 28.299 28.299 0 0 1 1.675-2.423.5.5 0 0 0-.396-.805m44.618-1.553a.5.5 0 0 0-.374.832c.651.735 1.27 1.51 1.839 2.303a.5.5 0 1 0 .812-.583 29.645 29.645 0 0 0-1.903-2.383.5.5 0 0 0-.374-.169m-40.497-2.791a.495.495 0 0 0-.325.121 29.109 29.109 0 0 0-2.211 2.102.5.5 0 1 0 .726.687 28.47 28.47 0 0 1 2.135-2.03.5.5 0 0 0-.325-.88m36.084-1.256a.5.5 0 0 0-.299.901 28.812 28.812 0 0 1 2.271 1.877.5.5 0 0 0 .676-.737 30.19 30.19 0 0 0-2.349-1.943.504.504 0 0 0-.299-.098M-9.44-54.009a.499.499 0 0 0-.241.061 29.598 29.598 0 0 0-2.594 1.604.499.499 0 1 0 .568.822A28.38 28.38 0 0 1-9.2-53.071a.5.5 0 0 0-.24-.938m26.01-.906a.501.501 0 0 0-.209.954c.89.41 1.767.871 2.607 1.37a.5.5 0 0 0 .511-.859 29.392 29.392 0 0 0-2.7-1.419.496.496 0 0 0-.209-.046m-20.488-1.413a.507.507 0 0 0-.144.021c-.972.293-1.938.641-2.872 1.034a.499.499 0 1 0 .389.921c.9-.378 1.833-.714 2.772-.998a.5.5 0 0 0-.145-.978m14.819-.514a.5.5 0 0 0-.11.988c.953.216 1.907.486 2.834.801a.5.5 0 1 0 .322-.947 29.607 29.607 0 0 0-2.935-.83.524.524 0 0 0-.111-.012m-8.938-.612l-.044.002c-1.014.087-2.03.227-3.021.417a.502.502 0 0 0 .19.983c.956-.184 1.937-.32 2.917-.404a.5.5 0 0 0-.042-.998m2.996-.102a.5.5 0 0 0-.009 1c.98.016 1.969.084 2.939.2a.499.499 0 1 0 .119-.993 29.977 29.977 0 0 0-3.04-.207h-.009z" id="path7558" fill="#fff"/></g><g id="g7560" transform="matrix(1.25 0 0 -1.25 34.845 466.475)"><path d="M0 0a.5.5 0 0 0-.058.997c1.015.119 2.056.154 3.076.107a.5.5 0 0 0-.047-.999C2.005.15 1.02.116.06.003A.603.603 0 0 0 0 0m8.829-1.16a.498.498 0 0 0-.185.035c-.901.361-1.838.648-2.785.854a.498.498 0 0 0-.382.594c.058.269.32.443.593.383a18.374 18.374 0 0 0 2.945-.902.5.5 0 0 0-.186-.964m-14.558-.52a.5.5 0 0 0-.219.95c.922.448 1.888.822 2.873 1.111a.5.5 0 1 0 .281-.96A17.403 17.403 0 0 1-5.511-1.63a.496.496 0 0 0-.218-.05m19.652-2.591a.494.494 0 0 0-.327.122 17.688 17.688 0 0 1-2.352 1.719.501.501 0 0 0 .522.854 18.612 18.612 0 0 0 2.484-1.818.5.5 0 0 0-.327-.877m-24.516-.875a.5.5 0 0 0-.353.854 18.61 18.61 0 0 0 2.35 1.988.5.5 0 0 0 .58-.814A17.774 17.774 0 0 1-10.239-5a.498.498 0 0 0-.354-.146m28.321-3.729c-.172 0-.34.09-.433.25a17.478 17.478 0 0 1-1.663 2.392.5.5 0 1 0 .771.637 18.544 18.544 0 0 0 1.757-2.529.5.5 0 0 0-.432-.75m-31.788-1.132a.5.5 0 0 0-.449.719c.449.922.98 1.812 1.573 2.645a.501.501 0 0 0 .815-.581 17.477 17.477 0 0 1-1.489-2.503.501.501 0 0 0-.45-.28m33.872-4.463a.501.501 0 0 0-.49.406 17.225 17.225 0 0 1-.786 2.804.5.5 0 1 0 .938.349 18.61 18.61 0 0 0 .831-2.964.502.502 0 0 0-.493-.595m-35.55-1.265a.498.498 0 0 0-.497.559c.12 1.02.328 2.034.616 3.016a.5.5 0 1 0 .959-.281 17.403 17.403 0 0 1-.583-2.852.5.5 0 0 0-.495-.442m35.694-4.703a.5.5 0 0 0-.496.57c.116.819.176 1.658.176 2.493l-.005.417a.5.5 0 0 0 .489.51h.011a.5.5 0 0 0 .5-.489l.005-.438c0-.882-.063-1.768-.186-2.634a.5.5 0 0 0-.494-.429m-35.576-.422a.5.5 0 0 0-.492.417 18.66 18.66 0 0 0-.253 3.068.5.5 0 1 0 1 0c0-.976.08-1.952.239-2.903a.501.501 0 0 0-.494-.582m33.759-5.266a.5.5 0 0 0-.445.73c.447.862.822 1.767 1.115 2.689a.5.5 0 1 0 .953-.304 18.31 18.31 0 0 0-1.179-2.844.5.5 0 0 0-.444-.271m-31.805-.377a.497.497 0 0 0-.438.26c-.494.9-.914 1.847-1.249 2.816a.5.5 0 0 0 .946.327c.316-.916.714-1.812 1.179-2.663a.499.499 0 0 0-.438-.74m28.224-4.4a.498.498 0 0 0-.345.862 17.612 17.612 0 0 1 1.933 2.178.501.501 0 0 0 .801-.6 18.614 18.614 0 0 0-2.045-2.302.496.496 0 0 0-.344-.138m-24.53-.293a.5.5 0 0 0-.337.13 18.774 18.774 0 0 0-2.097 2.253.5.5 0 1 0 .785.619 17.8 17.8 0 0 1 1.986-2.133.5.5 0 0 0-.337-.869m19.586-3.058a.5.5 0 0 0-.208.955c.882.403 1.736.883 2.539 1.428a.5.5 0 1 0 .561-.827 18.473 18.473 0 0 0-2.684-1.51.492.492 0 0 0-.208-.046m-14.567-.172a.486.486 0 0 0-.197.04 18.46 18.46 0 0 0-2.717 1.445.499.499 0 1 0 .541.841c.815-.525 1.68-.985 2.57-1.367a.5.5 0 0 0-.197-.959m8.798-1.369a.5.5 0 0 0-.046.997c.969.092 1.933.264 2.866.514a.5.5 0 1 0 .258-.966 18.389 18.389 0 0 0-3.03-.543c-.016-.002-.033-.002-.048-.002m-2.994-.036l-.037.001a18.457 18.457 0 0 0-3.042.472.5.5 0 0 0 .235.971 17.654 17.654 0 0 1 2.878-.446.5.5 0 0 0-.034-.998" id="path7562" fill="#fff"/></g><g id="g7564" transform="matrix(1.25 0 0 -1.25 55.575 459.077)"><path d="M0 0a.5.5 0 0 0-.077.006c-.966.149-1.952.25-2.931.299a.5.5 0 0 0-.473.525.478.478 0 0 0 .524.474A29.541 29.541 0 0 0 .075.994.5.5 0 0 0 0 0m-8.964-.006a.5.5 0 0 0-.076.994c.995.156 2.016.262 3.033.314a.484.484 0 0 0 .525-.473.501.501 0 0 0-.474-.526A28.788 28.788 0 0 1-8.886 0a.512.512 0 0 0-.078-.006M5.789-1.525a.498.498 0 0 0-.177.032 28.3 28.3 0 0 1-2.804.898.5.5 0 1 0 .254.967 29.274 29.274 0 0 0 2.904-.93.5.5 0 0 0-.177-.967m-20.54-.015a.502.502 0 0 0-.178.968c.95.361 1.927.675 2.905.934a.5.5 0 1 0 .255-.967 28.58 28.58 0 0 1-2.804-.902.509.509 0 0 0-.178-.033m25.888-2.677a.501.501 0 0 0-.27.079 28.596 28.596 0 0 1-2.559 1.459.5.5 0 1 0 .449.893 29.45 29.45 0 0 0 2.649-1.51.499.499 0 0 0-.269-.921m-31.234-.021a.5.5 0 0 0-.27.921 29.664 29.664 0 0 0 2.647 1.514.5.5 0 1 0 .451-.893 28.522 28.522 0 0 1-2.557-1.462.5.5 0 0 0-.271-.08M15.818-7.95a.498.498 0 0 0-.35.143 28.335 28.335 0 0 1-2.206 1.954.5.5 0 1 0 .623.782 29.73 29.73 0 0 0 2.284-2.022.5.5 0 0 0-.351-.857m-40.591-.029a.5.5 0 0 0-.351.856 29.618 29.618 0 0 0 2.279 2.026.501.501 0 0 0 .625-.781 28.61 28.61 0 0 1-2.203-1.957.495.495 0 0 0-.35-.144m44.41-4.584a.498.498 0 0 0-.416.223 28.715 28.715 0 0 1-1.759 2.363.5.5 0 1 0 .769.638 29.51 29.51 0 0 0 1.822-2.447.5.5 0 0 0-.416-.777m-48.224-.033a.5.5 0 0 0-.416.777 29.694 29.694 0 0 0 1.817 2.448.501.501 0 0 0 .772-.636 28.85 28.85 0 0 1-1.757-2.366.498.498 0 0 0-.416-.223m51.014-5.266a.499.499 0 0 0-.464.314c-.364.91-.78 1.81-1.236 2.674a.5.5 0 1 0 .884.467c.472-.896.903-1.827 1.28-2.77a.5.5 0 0 0-.464-.685m-53.794-.036a.5.5 0 0 0-.465.685c.373.938.802 1.87 1.275 2.771a.5.5 0 0 0 .885-.465c-.456-.87-.87-1.77-1.23-2.676a.501.501 0 0 0-.465-.315m55.426-5.725a.5.5 0 0 0-.492.415c-.168.964-.387 1.93-.654 2.871a.5.5 0 1 0 .963.273 29.61 29.61 0 0 0 .676-2.974.5.5 0 0 0-.493-.585m-57.05-.037a.5.5 0 0 0-.494.584c.171.996.397 1.997.672 2.975a.501.501 0 0 0 .963-.272 27.952 27.952 0 0 1-.649-2.872.5.5 0 0 0-.492-.415m57.462-5.937l-.017.001a.5.5 0 0 0-.483.516 29.134 29.134 0 0 1-.051 2.947.5.5 0 0 0 .465.532.507.507 0 0 0 .533-.465 30.462 30.462 0 0 0 .053-3.047.502.502 0 0 0-.5-.484m-57.734-2.006a.5.5 0 0 0-.496.449 30.01 30.01 0 0 0-.089 5.051c.019.276.282.477.533.465a.499.499 0 0 0 .465-.532 29.46 29.46 0 0 1 .085-4.882.5.5 0 0 0-.446-.549l-.052-.002m56.918-3.924a.5.5 0 0 0-.485.619c.233.952.419 1.926.552 2.893a.5.5 0 0 0 .99-.136 29.266 29.266 0 0 0-.571-2.995.5.5 0 0 0-.486-.381m-55.69-1.937a.5.5 0 0 0-.476.347 29.254 29.254 0 0 0-.779 2.949.499.499 0 0 0 .387.592.496.496 0 0 0 .591-.387c.202-.961.455-1.92.752-2.849a.498.498 0 0 0-.475-.652m53.667-3.699a.5.5 0 0 0-.45.718c.426.885.809 1.799 1.138 2.716a.5.5 0 0 0 .942-.338 29.309 29.309 0 0 0-1.18-2.813.5.5 0 0 0-.45-.283m-51.254-1.781a.501.501 0 0 0-.435.252 29.52 29.52 0 0 0-1.373 2.723.5.5 0 0 0 .916.404 27.92 27.92 0 0 1 1.327-2.631.501.501 0 0 0-.435-.748m48.11-3.314a.5.5 0 0 0-.396.805 28.314 28.314 0 0 1 1.675 2.424.5.5 0 0 0 .851-.525 29.364 29.364 0 0 0-1.733-2.509.5.5 0 0 0-.397-.195m-44.619-1.553a.5.5 0 0 0-.374.169 29.867 29.867 0 0 0-1.903 2.383.5.5 0 1 0 .812.583 28.894 28.894 0 0 1 1.839-2.303.5.5 0 0 0-.374-.832m40.496-2.79a.499.499 0 0 0-.325.88 28.27 28.27 0 0 1 2.135 2.03.5.5 0 1 0 .726-.688 29.51 29.51 0 0 0-2.211-2.102.494.494 0 0 0-.325-.12m-36.083-1.257a.504.504 0 0 0-.299.098 30.19 30.19 0 0 0-2.349 1.943.5.5 0 0 0 .676.737c.72-.66 1.484-1.292 2.271-1.877a.5.5 0 0 0-.299-.901m31.159-2.151a.5.5 0 0 0-.24.938c.86.471 1.702.992 2.507 1.549a.5.5 0 0 0 .568-.822 29.598 29.598 0 0 0-2.594-1.604.499.499 0 0 0-.241-.061m-26.01-.906a.496.496 0 0 0-.209.046c-.921.424-1.829.902-2.7 1.419a.5.5 0 1 0 .51.859c.841-.499 1.718-.96 2.608-1.37a.501.501 0 0 0-.209-.954m20.488-1.413a.5.5 0 0 0-.145.979c.939.283 1.872.619 2.772.998a.5.5 0 0 0 .389-.922c-.934-.393-1.9-.74-2.872-1.033a.475.475 0 0 0-.144-.022m-14.819-.514a.524.524 0 0 0-.111.012c-.988.225-1.975.504-2.935.83a.5.5 0 1 0 .322.947 28.269 28.269 0 0 1 2.834-.801.501.501 0 0 0-.11-.988m8.938-.612a.5.5 0 0 0-.042.998c.98.084 1.961.22 2.917.404a.502.502 0 0 0 .19-.983c-.991-.19-2.007-.33-3.021-.417l-.044-.002m-2.996-.102h-.009a29.977 29.977 0 0 0-3.04.207.499.499 0 1 0 .119.993c.97-.116 1.959-.184 2.939-.2a.5.5 0 0 0-.009-1" id="path7566" fill="#fff"/></g><g id="g7568" transform="matrix(1.25 0 0 -1.25 40.123 490.694)"><path d="M0 0l40.919-76.433L81.838 0H0zm40.919-84.909L-6.678 4h95.194L40.919-84.909z" id="path7570" fill="#fff"/></g><g id="g7572" transform="matrix(1.25 0 0 -1.25 73.109 477.053)"><path d="M0 0h29.061L14.53 26.201 0 0zm35.854-4H-6.793L14.53 34.448 35.854-4z" id="path7574" fill="#fff"/></g><g id="g7576" transform="matrix(1.25 0 0 -1.25 73.109 576.243)"><path d="M0 0l14.53-26.201L29.061 0H0zm14.53-34.448L-6.793 4h42.647L14.53-34.448z" id="path7578" fill="#fff"/></g><g id="g7580" transform="matrix(1.25 0 0 -1.25 21.737 554.687)"><path d="M0 0h29.06L14.529 26.201 0 0zm35.853-4H-6.793l21.322 38.449L35.853-4z" id="path7582" fill="#fff"/></g><g id="g7584" transform="matrix(1.25 0 0 -1.25 124.673 554.687)"><path d="M0 0h29.061L14.53 26.201 0 0zm35.854-4H-6.793L14.53 34.448 35.854-4z" id="path7586" fill="#fff"/></g><g id="g7588" transform="matrix(1.25 0 0 -1.25 35.337 565.703)"><path d="M0 0h89.643L44.478 85.07 0 0zm91.307-1H-1.65l.381.731 45.741 87.485.444-.839L91.307-1z" id="path7590" fill="#fff"/></g><g id="g7592" transform="matrix(1.25 0 0 -1.25 91.272 515.425)"><path d="M0 0c-4.572 0-8.292-3.72-8.292-8.292 0-4.572 3.72-8.291 8.292-8.291 4.572 0 8.292 3.719 8.292 8.291C8.292-3.72 4.572 0 0 0m0-18.583c-5.675 0-10.292 4.617-10.292 10.291C-10.292-2.617-5.675 2 0 2S10.292-2.617 10.292-8.292c0-5.674-4.617-10.291-10.292-10.291" id="path7594" fill="#fff"/></g><g id="g7596" transform="matrix(1.25 0 0 -1.25 37.368 490.937)"><path d="M0 0a.496.496 0 0 0-.282.087l-2.476 1.695a.5.5 0 1 0 .565.825L.282.913A.5.5 0 0 0 0 0m4.951-3.389a.498.498 0 0 0-.282.087L2.193-1.607a.5.5 0 1 0 .565.825l2.475-1.695a.497.497 0 0 0 .13-.694.496.496 0 0 0-.412-.218m4.951-3.389a.492.492 0 0 0-.282.088L7.145-4.996a.5.5 0 1 0 .564.825l2.476-1.694a.5.5 0 0 0-.283-.913m4.952-3.389a.499.499 0 0 0-.283.087l-2.475 1.695a.5.5 0 1 0 .564.825l2.476-1.694a.5.5 0 0 0-.282-.913m4.952-3.389a.5.5 0 0 0-.283.088l-2.475 1.694a.5.5 0 1 0 .564.825l2.476-1.694a.5.5 0 0 0-.282-.913m4.951-3.389a.49.49 0 0 0-.282.088l-2.476 1.694a.5.5 0 0 0 .564.826l2.476-1.695a.5.5 0 0 0-.282-.913m4.951-3.388a.496.496 0 0 0-.282.087l-2.476 1.694a.501.501 0 0 0 .565.825l2.475-1.694a.5.5 0 0 0-.282-.912m4.951-3.39a.5.5 0 0 0-.282.088l-2.476 1.695a.499.499 0 1 0 .565.825l2.475-1.695a.498.498 0 0 0 .13-.695.499.499 0 0 0-.412-.218m4.951-3.388a.498.498 0 0 0-.282.087l-2.475 1.694a.5.5 0 1 0 .564.826l2.476-1.695a.5.5 0 0 0-.283-.912m4.952-3.389a.499.499 0 0 0-.283.087l-2.475 1.695a.5.5 0 1 0 .564.825l2.476-1.694a.501.501 0 0 0-.282-.913m4.951-3.389a.499.499 0 0 0-.283.087l-2.475 1.695a.499.499 0 1 0 .564.825l2.476-1.695a.5.5 0 0 0-.282-.912m4.951-3.389a.49.49 0 0 0-.282.088l-2.476 1.694a.5.5 0 0 0 .565.825l2.475-1.694a.5.5 0 0 0-.282-.913m4.952-3.389a.496.496 0 0 0-.282.087l-2.476 1.695a.5.5 0 0 0 .565.825l2.475-1.694a.5.5 0 0 0-.282-.913m4.951-3.389a.5.5 0 0 0-.282.088l-2.476 1.694a.5.5 0 1 0 .565.825l2.475-1.694a.5.5 0 0 0-.282-.913m4.951-3.389a.492.492 0 0 0-.282.088l-2.475 1.694a.5.5 0 1 0 .564.825l2.476-1.694a.5.5 0 0 0-.283-.913m4.952-3.388a.499.499 0 0 0-.283.087l-2.475 1.694a.5.5 0 1 0 .564.825l2.476-1.694a.5.5 0 0 0-.282-.912m4.951-3.39a.5.5 0 0 0-.283.088l-2.475 1.694a.5.5 0 1 0 .564.825l2.476-1.694a.5.5 0 0 0-.282-.913m4.951-3.388a.496.496 0 0 0-.282.087l-2.476 1.694a.501.501 0 0 0 .565.826l2.475-1.695a.5.5 0 0 0-.282-.912m4.678-3.202a.499.499 0 0 0-.283.087l-2.202 1.507a.5.5 0 0 0 .565.825l2.202-1.506a.502.502 0 0 0-.282-.913" id="path7598" fill="#fff"/></g><g id="g7600" transform="matrix(1.25 0 0 -1.25 143.618 490.973)"><path d="M0 0a.498.498 0 0 0-.287.909l2.456 1.723a.499.499 0 1 0 .574-.818L.287.091A.491.491 0 0 0 0 0m-4.911-3.447a.498.498 0 0 0-.287.909l2.456 1.724a.5.5 0 0 0 .574-.819l-2.456-1.723a.5.5 0 0 0-.287-.091m-4.911-3.447a.5.5 0 0 0-.287.91l2.456 1.723a.5.5 0 0 0 .574-.818l-2.456-1.724a.5.5 0 0 0-.287-.091m-4.911-3.446a.5.5 0 0 0-.288.909l2.457 1.723a.499.499 0 1 0 .574-.818l-2.456-1.724a.5.5 0 0 0-.287-.09m-4.912-3.447a.502.502 0 0 0-.287.91l2.455 1.723a.502.502 0 0 0 .575-.819l-2.455-1.723a.501.501 0 0 0-.288-.091m-4.911-3.446a.5.5 0 0 0-.287.909l2.455 1.723a.5.5 0 0 0 .575-.818l-2.456-1.724a.495.495 0 0 0-.287-.09m-4.911-3.447a.499.499 0 0 0-.287.909l2.455 1.724a.5.5 0 0 0 .574-.819l-2.455-1.723a.491.491 0 0 0-.287-.091m-4.912-3.447a.499.499 0 0 0-.287.909l2.456 1.724a.5.5 0 1 0 .574-.818l-2.456-1.724a.491.491 0 0 0-.287-.091m-4.911-3.446a.498.498 0 0 0-.287.909l2.456 1.723a.498.498 0 0 0 .696-.122.498.498 0 0 0-.122-.696l-2.456-1.723a.491.491 0 0 0-.287-.091m-4.911-3.447a.498.498 0 0 0-.409.213.497.497 0 0 0 .122.696l2.456 1.723a.499.499 0 1 0 .574-.818l-2.456-1.723a.493.493 0 0 0-.287-.091m-4.911-3.447a.496.496 0 0 0-.409.213.497.497 0 0 0 .122.696l2.456 1.724a.499.499 0 1 0 .574-.818l-2.456-1.724a.493.493 0 0 0-.287-.091m-4.911-3.446a.5.5 0 0 0-.288.909l2.456 1.723a.499.499 0 1 0 .574-.818l-2.455-1.723a.493.493 0 0 0-.287-.091m-4.912-3.447a.499.499 0 0 0-.287.909l2.455 1.723a.5.5 0 1 0 .575-.818l-2.455-1.723a.494.494 0 0 0-.288-.091m-4.911-3.447a.502.502 0 0 0-.287.91l2.455 1.723a.5.5 0 1 0 .574-.819l-2.455-1.723a.498.498 0 0 0-.287-.091m-4.912-3.446a.5.5 0 0 0-.287.909l2.456 1.723a.499.499 0 1 0 .574-.818l-2.456-1.724a.497.497 0 0 0-.287-.09m-4.911-3.447a.502.502 0 0 0-.287.909l2.456 1.724a.5.5 0 0 0 .574-.819l-2.456-1.723a.498.498 0 0 0-.287-.091m-4.911-3.446a.5.5 0 0 0-.287.909l2.456 1.723a.5.5 0 1 0 .574-.819l-2.456-1.723a.497.497 0 0 0-.287-.09m-4.911-3.447a.498.498 0 0 0-.409.213.497.497 0 0 0 .122.696l2.456 1.724a.5.5 0 0 0 .574-.819l-2.456-1.723a.493.493 0 0 0-.287-.091m-3.122-2.191a.499.499 0 0 0-.287.909l.666.468a.5.5 0 0 0 .574-.819l-.666-.467a.493.493 0 0 0-.287-.091" id="path7602" fill="#fff"/></g><g id="g7604" transform="matrix(1.25 0 0 -1.25 98.222 526.022)"><path d="M0 0a5.561 5.561 0 1 0-11.123 0A5.561 5.561 0 0 0 0 0" id="path7606" fill="#fff"/></g><g id="g7608" transform="matrix(1.25 0 0 -1.25 90.932 462.4)"><path d="M0 0a.5.5 0 0 0-.5.5l-.002 3a.5.5 0 0 0 1 0L.5.5A.5.5 0 0 0 0 0m.004-6a.5.5 0 0 0-.5.5l-.002 3a.5.5 0 0 0 1 0l.002-3a.5.5 0 0 0-.5-.5m.004-6a.5.5 0 0 0-.5.5l-.002 3a.5.5 0 1 0 1 0l.002-3a.5.5 0 0 0-.5-.5m.004-6a.5.5 0 0 0-.5.5l-.002 3a.5.5 0 1 0 1 0l.002-3a.5.5 0 0 0-.5-.5m.005-6a.5.5 0 0 0-.5.5l-.003 3a.5.5 0 1 0 1 0l.003-3a.5.5 0 0 0-.5-.5m.004-6a.5.5 0 0 0-.5.5l-.002 3a.5.5 0 1 0 1 0l.002-3a.5.5 0 0 0-.5-.5m.003-6a.5.5 0 0 0-.5.5l-.002 3a.5.5 0 0 0 1 0l.002-3a.5.5 0 0 0-.5-.5m.004-6a.5.5 0 0 0-.5.5l-.002 3a.5.5 0 0 0 1 0l.002-3a.5.5 0 0 0-.5-.5m.004-6a.5.5 0 0 0-.5.5l-.002 3a.5.5 0 0 0 1 0l.002-3a.5.5 0 0 0-.5-.5m.004-6a.5.5 0 0 0-.5.5l-.002 3a.5.5 0 0 0 1 0l.002-3a.5.5 0 0 0-.5-.5m.004-6a.5.5 0 0 0-.5.5l-.002 3a.5.5 0 0 0 1 0l.002-3a.5.5 0 0 0-.5-.5m.004-6a.5.5 0 0 0-.5.5l-.002 3a.5.5 0 0 0 1 0l.002-3a.5.5 0 0 0-.5-.5m.005-6a.5.5 0 0 0-.5.5l-.003 3a.5.5 0 0 0 .499.5h.001a.5.5 0 0 0 .5-.5l.003-3A.5.5 0 0 0 .05-72H.049zm.004-6a.5.5 0 0 0-.5.5l-.002 3a.5.5 0 1 0 1 0l.002-3a.5.5 0 0 0-.5-.5m.004-6a.5.5 0 0 0-.5.5l-.002 3a.5.5 0 1 0 1 0l.002-3a.5.5 0 0 0-.5-.5m.004-6a.5.5 0 0 0-.5.5l-.002 3a.5.5 0 1 0 1 0l.002-3a.5.5 0 0 0-.5-.5m.003-6a.5.5 0 0 0-.5.5l-.001 3a.5.5 0 1 0 .999 0l.002-3a.5.5 0 0 0-.5-.5m.004-6a.5.5 0 0 0-.5.5l-.002 3a.5.5 0 0 0 1 0l.002-3a.5.5 0 0 0-.5-.5" id="path7610" fill="#fff"/></g><g id="g7612" transform="matrix(1.25 0 0 -1.25 145.554 479.08)"><path d="M0 0c-4.021 0-7.291-3.271-7.291-7.292A7.298 7.298 0 0 1 0-14.583c4.021 0 7.292 3.27 7.292 7.291C7.292-3.271 4.021 0 0 0m0-18.583c-6.226 0-11.291 5.065-11.291 11.291C-11.291-1.065-6.226 4 0 4 6.227 4 11.292-1.065 11.292-7.292c0-6.226-5.065-11.291-11.292-11.291" id="path7614" fill="#fff"/></g><g id="g7616" transform="matrix(1.25 0 0 -1.25 35.351 479.08)"><path d="M0 0c-4.021 0-7.292-3.271-7.292-7.292S-4.021-14.583 0-14.583a7.298 7.298 0 0 1 7.291 7.291C7.291-3.271 4.021 0 0 0m0-18.583c-6.227 0-11.292 5.065-11.292 11.291C-11.292-1.065-6.227 4 0 4 6.226 4 11.291-1.065 11.291-7.292c0-6.226-5.065-11.291-11.291-11.291" id="path7618" fill="#fff"/></g></g></svg>