<svg id="Layer_1" xmlns="http://www.w3.org/2000/svg" viewBox="0 0 140.6 143.6"><style>.st0{display:none}.st1{display:inline}.st1,.st2{fill:#fff}</style><g id="XMLID_1167_" class="st0"><g id="XMLID_2_"><path id="XMLID_761_" class="st1" d="M68.2 142.4c-.1 0-.2 0-.2-.2v-2.6c0-.1.1-.2.2-.2h5.3c.1 0 .2 0 .2.2v2.6c0 .1 0 .2-.2.2h-5.3z"/><path id="XMLID_763_" class="st1" d="M-6.1 173.7c-.8-.3-1.4-.7-1.9-1.1-.1-.1-.1-.2 0-.3l1.3-1.5c.1-.1.2-.1.3 0 1 .8 2 1.2 3 1.2 1.2 0 1.9-.5 1.9-1.4 0-.7-.5-1.1-1.8-1.3l-.6-.1c-2.4-.3-3.6-1.5-3.6-3.4 0-1.1.4-1.9 1.1-2.5.7-.6 1.7-1 3-1 1.6 0 2.9.4 3.9 1.2.1.1.1.2 0 .3l-1 1.5c-.1.1-.2.1-.2.1-.9-.6-1.8-.9-2.7-.9-1 0-1.5.5-1.5 1.2s.5 1.1 1.8 1.3l.6.1c2.4.3 3.6 1.5 3.6 3.5 0 2.2-1.6 3.6-4.5 3.6-1.1 0-1.9-.2-2.7-.5z"/><path id="XMLID_765_" class="st1" d="M2.6 174c-.1 0-.2-.1-.2-.2v-11.1c0-.1 0-.2.2-.2H7c1.2 0 2.2.3 2.9 1 .7.7 1.1 1.6 1.1 2.7s-.4 2-1.1 2.7c-.7.7-1.7 1-2.9 1H5c-.1 0-.1 0-.1.1v3.8c0 .1 0 .2-.2.2H2.6zm4.3-6.2c1 0 1.7-.6 1.7-1.5s-.6-1.5-1.7-1.5H5c-.1 0-.1 0-.1.1v2.9c0 .1 0 .1.1.1h1.9z"/><path id="XMLID_768_" class="st1" d="M12.6 162.7c0-.1 0-.2.2-.2h7.3c.1 0 .2.1.2.2v1.8c0 .1-.1.2-.2.2h-4.9c-.1 0-.1 0-.1.1v2.3c0 .1 0 .1.1.1h4.1c.1 0 .2 0 .2.2v1.8c0 .1-.1.2-.2.2h-4.1c-.1 0-.1 0-.1.1v2.4c0 .1 0 .1.1.1h4.9c.1 0 .2 0 .2.2v1.8c0 .1-.1.2-.2.2h-7.3c-.1 0-.2-.1-.2-.2v-11.3z"/><path id="XMLID_770_" class="st1" d="M25.2 162.7c0-.1.1-.2.2-.2h2.1c.1 0 .2.1.2.2l3.9 11.1c0 .1 0 .2-.1.2h-2.2c-.1 0-.2-.1-.2-.2l-.7-2h-4l-.6 2c0 .1-.1.2-.2.2h-2.2c-.1 0-.2-.1-.1-.2l3.9-11.1zm0 7h2.6l-1.3-4h-.1l-1.2 4z"/><path id="XMLID_773_" class="st1" d="M32.9 162.7c0-.1 0-.2.2-.2h2.1c.1 0 .2.1.2.2v4.9l3.8-5c.1-.1.2-.2.3-.2h2.4c.1 0 .2.1.1.2l-3.5 4.3 3.8 6.7c.1.1.1.2-.1.2h-2.5c-.1 0-.2-.1-.3-.2l-2.6-4.8-1.5 1.9v2.9c0 .1 0 .2-.2.2H33c-.1 0-.2-.1-.2-.2v-10.9z"/><path id="XMLID_775_" class="st1" d="M43.8 162.7c0-.1 0-.2.2-.2h7.3c.1 0 .2.1.2.2v1.8c0 .1-.1.2-.2.2h-4.9c-.1 0-.1 0-.1.1v2.3c0 .1 0 .1.1.1h4.1c.1 0 .2 0 .2.2v1.8c0 .1 0 .2-.2.2h-4.1c-.1 0-.1 0-.1.1v2.4c0 .1 0 .1.1.1h4.9c.1 0 .2 0 .2.2v1.8c0 .1-.1.2-.2.2H44c-.1 0-.2-.1-.2-.2v-11.3z"/><path id="XMLID_777_" class="st1" d="M59.6 174c-.1 0-.2-.1-.3-.2l-2-4.2h-1.5c-.1 0-.1 0-.1.1v4.1c0 .1 0 .2-.2.2h-2.1c-.1 0-.2-.1-.2-.2v-11.1c0-.1 0-.2.2-.2H58c1.2 0 2.1.3 2.8 1 .7.7 1.1 1.5 1.1 2.6 0 1.5-.8 2.6-2 3.2l2.3 4.5c.1.1 0 .2-.1.2h-2.5zm-1.7-6.5c.9 0 1.5-.6 1.5-1.4 0-.9-.6-1.4-1.5-1.4h-2c-.1 0-.1 0-.1.1v2.6c0 .1 0 .1.1.1h2z"/><path id="XMLID_780_" class="st1" d="M63.6 165.9v-3.2c0-.1.1-.2.2-.2h1.7c.1 0 .2.1.2.2v1.8c0 .2 0 .3-.2.4l-1.4 1.1c-.1.1-.2.1-.3.1-.1 0-.2-.1-.2-.2z"/><path id="XMLID_782_" class="st1" d="M69.1 173.7c-.8-.3-1.4-.7-1.9-1.1-.1-.1-.1-.2 0-.3l1.3-1.5c.1-.1.2-.1.3 0 1 .8 2 1.2 3 1.2 1.2 0 1.9-.5 1.9-1.4 0-.7-.5-1.1-1.8-1.3l-.6-.1c-2.4-.3-3.6-1.5-3.6-3.4 0-1.1.4-1.9 1.1-2.5.7-.6 1.7-1 3-1 1.6 0 2.9.4 3.9 1.2.1.1.1.2 0 .3l-1 1.5c-.1.1-.2.1-.2.1-.9-.6-1.8-.9-2.7-.9-1 0-1.5.5-1.5 1.2s.5 1.1 1.8 1.3l.6.1c2.4.3 3.6 1.5 3.6 3.5 0 2.2-1.6 3.6-4.5 3.6-1 0-1.9-.2-2.7-.5z"/><path id="XMLID_784_" class="st1" d="M82.8 173c-.8-.8-1.2-1.8-1.2-3.2v-7.1c0-.1.1-.2.2-.2h2.1c.1 0 .2.1.2.2v7.1c0 1.3.8 2.1 1.9 2.1 1.2 0 1.9-.8 1.9-2.1v-7.1c0-.1.1-.2.2-.2h2.1c.1 0 .2.1.2.2v7.1c0 1.4-.4 2.5-1.2 3.2-.8.8-1.8 1.1-3.2 1.1-1.3.1-2.4-.3-3.2-1.1z"/><path id="XMLID_786_" class="st1" d="M92.7 174c-.1 0-.2-.1-.2-.2v-11.1c0-.1 0-.2.2-.2h4.4c1.2 0 2.2.3 2.9 1 .7.7 1.1 1.6 1.1 2.7s-.4 2-1.1 2.7c-.7.7-1.7 1-2.9 1h-2c-.1 0-.1 0-.1.1v3.8c0 .1 0 .2-.2.2h-2.1zm4.3-6.2c1 0 1.7-.6 1.7-1.5s-.6-1.5-1.7-1.5h-1.9c-.1 0-.1 0-.1.1v2.9c0 .1 0 .1.1.1H97z"/><path id="XMLID_789_" class="st1" d="M102.7 162.7c0-.1 0-.2.2-.2h4.3c2.1 0 3.4.9 4 2.6.2.6.3 1.7.3 3.1s-.1 2.5-.3 3.1c-.6 1.7-1.9 2.6-4 2.6h-4.3c-.1 0-.2-.1-.2-.2v-11zm2.4 9c0 .1 0 .1.1.1h1.3c1.2 0 1.9-.4 2.1-1.3.1-.4.2-1.1.2-2.3s-.1-1.9-.2-2.3c-.3-.8-1-1.3-2.1-1.3h-1.3c-.1 0-.1 0-.1.1v7z"/><path id="XMLID_792_" class="st1" d="M116 162.7c0-.1.1-.2.2-.2h2.1c.1 0 .2.1.2.2l3.9 11.1c0 .1 0 .2-.1.2h-2.2c-.1 0-.2-.1-.2-.2l-.7-2h-4l-.6 2c0 .1-.1.2-.2.2h-2.2c-.1 0-.2-.1-.1-.2l3.9-11.1zm-.1 7h2.6l-1.3-4h-.1l-1.2 4z"/><path id="XMLID_795_" class="st1" d="M125.1 174c-.1 0-.2-.1-.2-.2v-9c0-.1 0-.1-.1-.1H122c-.1 0-.2-.1-.2-.2v-1.9c0-.1 0-.2.2-.2h8.5c.1 0 .2.1.2.2v1.9c0 .1-.1.2-.2.2h-2.9c-.1 0-.1 0-.1.1v9c0 .1-.1.2-.2.2h-2.2z"/><path id="XMLID_797_" class="st1" d="M132 162.7c0-.1 0-.2.2-.2h7.3c.1 0 .2.1.2.2v1.8c0 .1-.1.2-.2.2h-4.9c-.1 0-.1 0-.1.1v2.3c0 .1 0 .1.1.1h4.1c.1 0 .2 0 .2.2v1.8c0 .1 0 .2-.2.2h-4.1c-.1 0-.1 0-.1.1v2.4c0 .1 0 .1.1.1h4.9c.1 0 .2 0 .2.2v1.8c0 .1-.1.2-.2.2h-7.3c-.1 0-.2-.1-.2-.2v-11.3z"/><path id="XMLID_799_" class="st1" d="M142.9 173.7c-.8-.3-1.4-.7-1.9-1.1-.1-.1-.1-.2 0-.3l1.3-1.5c.1-.1.2-.1.3 0 1 .8 2 1.2 3 1.2 1.2 0 1.9-.5 1.9-1.4 0-.7-.5-1.1-1.8-1.3l-.6-.1c-2.4-.3-3.6-1.5-3.6-3.4 0-1.1.4-1.9 1.1-2.5.7-.6 1.7-1 3-1 1.6 0 2.9.4 3.9 1.2.1.1.1.2 0 .3l-1 1.5c-.1.1-.2.1-.2.1-.9-.6-1.8-.9-2.7-.9-1 0-1.5.5-1.5 1.2s.5 1.1 1.8 1.3l.6.1c2.4.3 3.6 1.5 3.6 3.5 0 2.2-1.6 3.6-4.5 3.6-1 0-1.9-.2-2.7-.5z"/></g></g><g id="XMLID_1165_"><g id="XMLID_106_" class="st0"><path id="XMLID_341_" class="st1" d="M69.2 141.5c-.1 0-.2 0-.2-.2v-2.6c0-.1.1-.2.2-.2h5.3c.1 0 .2 0 .2.2v2.6c0 .1 0 .2-.2.2h-5.3z"/><path id="XMLID_339_" class="st1" d="M17.3 173.1c-.1 0-.2-.1-.2-.2v-9c0-.1 0-.1-.1-.1h-2.9c-.1 0-.2-.1-.2-.2v-1.9c0-.1 0-.2.2-.2h8.5c.1 0 .2.1.2.2v1.9c0 .1-.1.2-.2.2h-2.9c-.1 0-.1 0-.1.1v9c0 .1-.1.2-.2.2h-2.1z"/><path id="XMLID_233_" class="st1" d="M24.1 161.9c0-.1 0-.2.2-.2h7.3c.1 0 .2.1.2.2v1.8c0 .1-.1.2-.2.2h-4.9c-.1 0-.1 0-.1.1v2.3c0 .1 0 .1.1.1h4.1c.1 0 .2 0 .2.2v1.8c0 .1-.1.2-.2.2h-4.1c-.1 0-.1 0-.1.1v2.4c0 .1 0 .1.1.1h4.9c.1 0 .2 0 .2.2v1.8c0 .1-.1.2-.2.2h-7.3c-.1 0-.2-.1-.2-.2v-11.3z"/><path id="XMLID_230_" class="st1" d="M36.8 161.9c0-.1.1-.2.2-.2h2.1c.1 0 .2.1.2.2l3.9 11.1c0 .1 0 .2-.1.2h-2.2c-.1 0-.2-.1-.2-.2l-.7-2h-4l-.6 2c0 .1-.1.2-.2.2H33c-.1 0-.2-.1-.1-.2l3.9-11.1zm-.1 7h2.6l-1.3-4-1.3 4z"/><path id="XMLID_178_" class="st1" d="M44.5 161.9c0-.1 0-.2.2-.2h2c.1 0 .2.1.3.2l2.9 6.5h.1l2.8-6.5c.1-.1.1-.2.3-.2h2c.1 0 .2.1.2.2V173c0 .1-.1.2-.2.2H53c-.1 0-.2-.1-.2-.2v-6.4h-.1l-2.1 4.8c-.1.2-.2.2-.3.2h-1.2c-.2 0-.3-.1-.3-.2l-2.1-4.8h-.1v6.4c0 .1 0 .2-.2.2h-1.9c-.1 0-.2-.1-.2-.2v-11.1z"/><path id="XMLID_176_" class="st1" d="M62.4 172.2c-.8-.8-1.2-1.8-1.2-3.2v-7.1c0-.1.1-.2.2-.2h2.1c.1 0 .2.1.2.2v7.1c0 1.3.8 2.1 1.9 2.1s1.9-.8 1.9-2.1v-7.1c0-.1.1-.2.2-.2h2.1c.1 0 .2.1.2.2v7.1c0 1.4-.4 2.5-1.2 3.2-.8.8-1.8 1.1-3.2 1.1-1.3 0-2.4-.4-3.2-1.1z"/><path id="XMLID_173_" class="st1" d="M72.3 173.1c-.1 0-.2-.1-.2-.2v-11.1c0-.1 0-.2.2-.2h4.4c1.2 0 2.2.3 2.9 1 .7.7 1.1 1.6 1.1 2.7s-.4 2-1.1 2.7c-.7.7-1.7 1-2.9 1h-2c-.1 0-.1 0-.1.1v3.8c0 .1 0 .2-.2.2h-2.1zm4.3-6.2c1 0 1.7-.6 1.7-1.5s-.6-1.5-1.7-1.5h-1.9c-.1 0-.1 0-.1.1v2.9c0 .1 0 .1.1.1h1.9z"/><path id="XMLID_116_" class="st1" d="M82.3 161.9c0-.1 0-.2.2-.2h4.3c2.1 0 3.4.9 4 2.6.2.6.3 1.7.3 3.1s-.1 2.5-.3 3.1c-.6 1.7-1.9 2.6-4 2.6h-4.3c-.1 0-.2-.1-.2-.2v-11zm2.5 8.9c0 .1 0 .1.1.1h1.3c1.2 0 1.9-.4 2.1-1.3.1-.4.2-1.1.2-2.3s-.1-1.9-.2-2.3c-.3-.8-1-1.3-2.1-1.3h-1.3c-.1 0-.1 0-.1.1v7z"/><path id="XMLID_113_" class="st1" d="M95.6 161.9c0-.1.1-.2.2-.2h2.1c.1 0 .2.1.2.2L102 173c0 .1 0 .2-.1.2h-2.2c-.1 0-.2-.1-.2-.2l-.7-2h-4l-.6 2c0 .1-.1.2-.2.2h-2.2c-.1 0-.2-.1-.1-.2l3.9-11.1zm-.1 7h2.6l-1.3-4h-.1l-1.2 4z"/><path id="XMLID_111_" class="st1" d="M104.7 173.1c-.1 0-.2-.1-.2-.2v-9c0-.1 0-.1-.1-.1h-2.9c-.1 0-.2-.1-.2-.2v-1.9c0-.1 0-.2.2-.2h8.5c.1 0 .2.1.2.2v1.9c0 .1-.1.2-.2.2h-2.9c-.1 0-.1 0-.1.1v9c0 .1-.1.2-.2.2h-2.1z"/><path id="XMLID_109_" class="st1" d="M111.6 161.9c0-.1 0-.2.2-.2h7.3c.1 0 .2.1.2.2v1.8c0 .1-.1.2-.2.2h-4.9c-.1 0-.1 0-.1.1v2.3c0 .1 0 .1.1.1h4.1c.1 0 .2 0 .2.2v1.8c0 .1-.1.2-.2.2h-4.1c-.1 0-.1 0-.1.1v2.4c0 .1 0 .1.1.1h4.9c.1 0 .2 0 .2.2v1.8c0 .1-.1.2-.2.2h-7.3c-.1 0-.2-.1-.2-.2v-11.3z"/><path id="XMLID_107_" class="st1" d="M122.6 172.9c-.8-.3-1.4-.7-1.9-1.1-.1-.1-.1-.2 0-.3l1.3-1.5c.1-.1.2-.1.3 0 1 .8 2 1.2 3 1.2 1.2 0 1.9-.5 1.9-1.4 0-.7-.5-1.1-1.8-1.3l-.6-.1c-2.4-.3-3.6-1.5-3.6-3.4 0-1.1.4-1.9 1.1-2.5.7-.6 1.7-1 3-1 1.6 0 2.9.4 3.9 1.2.1.1.1.2 0 .3l-1 1.5c-.1.1-.2.1-.2.1-.9-.6-1.8-.9-2.7-.9-1 0-1.5.5-1.5 1.2s.5 1.1 1.8 1.3l.6.1c2.4.3 3.6 1.5 3.6 3.5 0 2.2-1.6 3.6-4.5 3.6-1.1-.1-1.9-.2-2.7-.5z"/></g></g><g id="XMLID_603_"><g id="XMLID_1061_"><g id="XMLID_1062_"><path id="XMLID_1063_" class="st2" d="M24.7 115.4l-20-36.2h40.1l-20.1 36.2zM9.8 82.2l15 27 15-27h-30z"/></g></g><g id="XMLID_1031_"><g id="XMLID_1059_"><path id="XMLID_1060_" class="st2" d="M6.8 105.5H5.3c-.2 0-.3-.1-.4-.2-.1-.2-.1-.3 0-.5l.7-1.3c.1-.2.4-.3.7-.2.2.1.3.4.2.7l-.3.6h.7c.3 0 .5.2.5.5s-.3.4-.6.4z"/></g><g id="XMLID_1052_"><path id="XMLID_1053_" class="st2" d="M39.4 105.5h-3.3c-.3 0-.5-.2-.5-.5s.2-.5.5-.5h3.3c.3 0 .5.2.5.5s-.2.5-.5.5zm-6.5 0h-3.3c-.3 0-.5-.2-.5-.5s.2-.5.5-.5h3.3c.3 0 .5.2.5.5s-.2.5-.5.5zm-6.5 0h-3.3c-.3 0-.5-.2-.5-.5s.2-.5.5-.5h3.3c.3 0 .5.2.5.5s-.2.5-.5.5zm-6.5 0h-3.3c-.3 0-.5-.2-.5-.5s.2-.5.5-.5h3.3c.3 0 .5.2.5.5s-.3.5-.5.5zm-6.6 0H10c-.3 0-.5-.2-.5-.5s.2-.5.5-.5h3.3c.3 0 .5.2.5.5s-.2.5-.5.5z"/></g><g id="XMLID_1050_"><path id="XMLID_1051_" class="st2" d="M44.2 105.5h-1.5c-.3 0-.5-.2-.5-.5s.2-.5.5-.5h.7l-.4-.5c-.1-.2 0-.5.2-.7.2-.1.5 0 .7.2l.7 1.3c.1.2.1.3 0 .5s-.3.2-.4.2z"/></g><g id="XMLID_1042_"><path id="XMLID_1043_" class="st2" d="M42 101.7c-.2 0-.3-.1-.4-.3L40.2 99c-.1-.2 0-.5.2-.7.2-.1.5 0 .7.2l1.4 2.5c.1.2 0 .5-.2.7H42zm-2.7-4.9c-.2 0-.3-.1-.4-.3L37.5 94c-.1-.2 0-.5.2-.7.2-.1.5 0 .7.2l1.4 2.5c.1.2 0 .5-.2.7-.1 0-.2.1-.3.1zm-2.8-5c-.2 0-.3-.1-.4-.3L34.7 89c-.1-.2 0-.5.2-.7.2-.1.5 0 .7.2L37 91c.1.2 0 .5-.2.7-.1.1-.2.1-.3.1zm-2.7-5c-.2 0-.3-.1-.4-.3L32 84c-.1-.2 0-.5.2-.7.2-.1.5 0 .7.2l1.4 2.5c.1.2 0 .5-.2.7-.2.1-.3.1-.3.1zm-2.8-5c-.2 0-.3-.1-.4-.3L29.2 79c-.1-.2 0-.5.2-.7.2-.1.5 0 .7.2l1.4 2.5c.1.2 0 .5-.2.7-.1.1-.2.1-.3.1zm-2.8-5c-.2 0-.3-.1-.4-.3L26.4 74c-.1-.2 0-.5.2-.7.2-.1.5 0 .7.2l1.4 2.5c.1.2 0 .5-.2.7-.1.1-.2.1-.3.1z"/></g><g id="XMLID_1040_"><path id="XMLID_1041_" class="st2" d="M25.5 71.9c-.2 0-.3-.1-.4-.3l-.3-.5-.3.5c-.1.2-.4.3-.7.2-.2-.1-.3-.4-.2-.7l.7-1.3c.2-.3.7-.3.9 0l.7 1.3c.1.2 0 .5-.2.7-.1 0-.1.1-.2.1z"/></g><g id="XMLID_1032_"><path id="XMLID_1033_" class="st2" d="M7.4 101.7c-.1 0-.2 0-.2-.1-.2-.1-.3-.4-.2-.6l1.4-2.5c.1-.2.4-.3.7-.2.2.1.3.4.2.7l-1.4 2.5c-.1.2-.3.2-.5.2zm2.8-4.9c-.1 0-.2 0-.2-.1-.2-.1-.3-.4-.2-.7l1.4-2.5c.1-.2.4-.3.7-.2.2.1.3.4.2.7l-1.4 2.5c-.1.2-.3.3-.5.3zm2.8-5c-.1 0-.2 0-.2-.1-.2-.1-.3-.4-.2-.7l1.4-2.5c.1-.2.4-.3.7-.2.2.1.3.4.2.7l-1.4 2.5c-.2.2-.4.3-.5.3zm2.7-5c-.1 0-.2 0-.2-.1-.2-.1-.3-.4-.2-.7l1.4-2.5c.1-.2.4-.3.7-.2.2.1.3.4.2.7l-1.4 2.5c-.1.2-.3.3-.5.3zm2.8-5c-.1 0-.2 0-.2-.1-.2-.1-.3-.4-.2-.7l1.4-2.5c.1-.2.4-.3.7-.2.2.1.3.4.2.7L19 81.5c-.2.2-.3.3-.5.3zm2.8-5c-.1 0-.2 0-.2-.1-.2-.1-.3-.4-.2-.7l1.4-2.5c.1-.2.4-.3.7-.2.2.1.3.4.2.7l-1.4 2.5c-.2.2-.4.3-.5.3z"/></g></g><g id="XMLID_1027_"><path id="XMLID_1028_" class="st2" d="M115.7 116.2L95.6 80h40.1l-20 36.2zm-15-33.2l15 27 15-27h-30z"/></g><g id="XMLID_716_"><g id="XMLID_1025_"><path id="XMLID_1026_" class="st2" d="M97.8 106.4h-1.5c-.2 0-.3-.1-.4-.2-.1-.2-.1-.3 0-.5l.7-1.3c.1-.2.4-.3.7-.2.2.1.3.4.2.7l-.3.6h.7c.3 0 .5.2.5.5s-.3.4-.6.4z"/></g><g id="XMLID_1018_"><path id="XMLID_1019_" class="st2" d="M130.3 106.4H127c-.3 0-.5-.2-.5-.5s.2-.5.5-.5h3.3c.3 0 .5.2.5.5s-.2.5-.5.5zm-6.5 0h-3.3c-.3 0-.5-.2-.5-.5s.2-.5.5-.5h3.3c.3 0 .5.2.5.5s-.2.5-.5.5zm-6.5 0H114c-.3 0-.5-.2-.5-.5s.2-.5.5-.5h3.3c.3 0 .5.2.5.5s-.2.5-.5.5zm-6.5 0h-3.3c-.3 0-.5-.2-.5-.5s.2-.5.5-.5h3.3c.3 0 .5.2.5.5s-.2.5-.5.5zm-6.5 0H101c-.3 0-.5-.2-.5-.5s.2-.5.5-.5h3.3c.3 0 .5.2.5.5s-.2.5-.5.5z"/></g><g id="XMLID_1016_"><path id="XMLID_1017_" class="st2" d="M135.1 106.4h-1.5c-.3 0-.5-.2-.5-.5s.2-.5.5-.5h.7l-.3-.6c-.1-.2 0-.5.2-.7.2-.1.5 0 .7.2l.7 1.3c.1.2.1.3 0 .5-.2.2-.3.3-.5.3z"/></g><g id="XMLID_727_"><path id="XMLID_728_" class="st2" d="M133 102.6c-.2 0-.3-.1-.4-.3l-1.4-2.5c-.1-.2 0-.5.2-.7.2-.1.5 0 .7.2l1.4 2.5c.1.2 0 .5-.2.7-.1 0-.2.1-.3.1zm-2.8-5c-.2 0-.3-.1-.4-.3l-1.4-2.5c-.1-.2 0-.5.2-.7.2-.1.5 0 .7.2l1.4 2.5c.1.2 0 .5-.2.7-.1.1-.2.1-.3.1zm-2.7-5c-.2 0-.3-.1-.4-.3l-1.4-2.5c-.1-.2 0-.5.2-.7.2-.1.5 0 .7.2l1.4 2.5c.1.2 0 .5-.2.7-.2.1-.2.1-.3.1zm-2.8-5c-.2 0-.3-.1-.4-.3l-1.4-2.5c-.1-.2 0-.5.2-.7.2-.1.5 0 .7.2l1.4 2.5c.1.2 0 .5-.2.7-.1.1-.2.1-.3.1zm-2.8-5c-.2 0-.3-.1-.4-.3l-1.4-2.5c-.1-.2 0-.5.2-.7.2-.1.5 0 .7.2l1.4 2.5c.1.2 0 .5-.2.7-.1.1-.2.1-.3.1zm-2.7-4.9c-.2 0-.3-.1-.4-.3l-1.4-2.5c-.1-.2 0-.5.2-.7.2-.1.5 0 .7.2l1.4 2.5c.1.2 0 .5-.2.7-.2 0-.2.1-.3.1z"/></g><g id="XMLID_725_"><path id="XMLID_726_" class="st2" d="M116.4 72.7c-.2 0-.3-.1-.4-.3l-.3-.5-.3.5c-.1.2-.4.3-.7.2-.2-.1-.3-.4-.2-.7l.7-1.3c.1-.2.3-.3.4-.3.2 0 .3.1.4.3l.7 1.3c.1.2 0 .5-.2.7.1.1 0 .1-.1.1z"/></g><g id="XMLID_717_"><path id="XMLID_718_" class="st2" d="M98.4 102.6c-.1 0-.2 0-.2-.1-.2-.1-.3-.4-.2-.7l1.4-2.5c.1-.2.4-.3.7-.2.2.1.3.4.2.7l-1.4 2.5c-.2.2-.3.3-.5.3zm2.8-5c-.1 0-.2 0-.2-.1-.2-.1-.3-.4-.2-.7l1.4-2.5c.1-.2.4-.3.7-.2.2.1.3.4.2.7l-1.4 2.5c-.2.2-.4.3-.5.3zm2.7-5c-.1 0-.2 0-.2-.1-.2-.1-.3-.4-.2-.7l1.4-2.5c.1-.2.4-.3.7-.2.2.1.3.4.2.7l-1.4 2.5c-.1.2-.3.3-.5.3zm2.8-5c-.1 0-.2 0-.2-.1-.2-.1-.3-.4-.2-.7l1.4-2.5c.1-.2.4-.3.7-.2.2.1.3.4.2.7l-1.4 2.5c-.2.2-.3.3-.5.3zm2.7-5c-.1 0-.2 0-.2-.1-.2-.1-.3-.4-.2-.7l1.4-2.5c.1-.2.4-.3.7-.2.2.1.3.4.2.7l-1.4 2.5c-.1.2-.3.3-.5.3zm2.8-4.9c-.1 0-.2 0-.2-.1-.2-.1-.3-.4-.2-.7l1.4-2.5c.1-.2.4-.3.7-.2.2.1.3.4.2.7l-1.4 2.5c-.2.2-.3.3-.5.3z"/></g></g><g id="XMLID_712_"><path id="XMLID_713_" class="st2" d="M69 113.6L18 19.2h102.1L69 113.6zM24.7 23.2l44.3 82 44.3-82H24.7z"/></g><g id="XMLID_708_"><path id="XMLID_709_" class="st2" d="M119.7 91.4H20.9L70.3 0l49.4 91.4zm-95.4-2h92l-46-85.2-46 85.2z"/></g><g id="XMLID_704_"><path id="XMLID_705_" class="st2" d="M109.6 85.9H31c-.2 0-.3-.1-.4-.2-.1-.2-.1-.3 0-.5l39.3-72.7c.2-.3.7-.3.9 0l39.3 72.7c.1.2.1.3 0 .5-.1.1-.3.2-.5.2zm-77.8-1h76.9L70.3 13.7 31.8 84.9z"/></g><g id="XMLID_700_"><path id="XMLID_701_" class="st2" d="M70.2 68.4L39.6 12.5h60.2L70.2 68.4zM43 14.5l27.2 49.7 26.3-49.7H43z"/></g><g id="XMLID_696_"><path id="XMLID_923_" class="st2" d="M70.3 77.3c-.2 0-.4-.1-.4-.3l-1-1.8c-.1-.2 0-.5.2-.7.2-.1.5 0 .7.2l.5 1c.1-.2.4-.3.7-.2.2.1.3.4.2.7l-.5.8c-.1.2-.3.3-.4.3zm1.8-3.5c-.1 0-.2 0-.2-.1-.2-.1-.3-.4-.2-.7l1.4-2.7c.1-.2.4-.3.7-.2.2.1.3.4.2.7l-1.4 2.7c-.1.2-.3.3-.5.3zm-4.3-.9c-.2 0-.3-.1-.4-.3L66 70c-.1-.2 0-.5.2-.7.2-.1.5 0 .7.2l1.4 2.6c.1.2 0 .5-.2.7-.1.1-.2.1-.3.1zm7.1-4.4c-.1 0-.2 0-.2-.1-.2-.1-.3-.4-.2-.7l1.4-2.7c.1-.2.4-.3.7-.2.2.1.3.4.2.7l-1.4 2.7c-.1.2-.3.3-.5.3zm-9.9-.9c-.2 0-.3-.1-.4-.3l-1.4-2.6c-.1-.2 0-.5.2-.7.2-.1.5 0 .7.2l1.4 2.6c.1.2 0 .5-.2.7-.2.1-.3.1-.3.1zm12.7-4.4c-.1 0-.2 0-.2-.1-.2-.1-.3-.4-.2-.7l1.4-2.7c.1-.2.4-.3.7-.2.2.1.3.4.2.7L78.2 63c-.1.1-.3.2-.5.2zm-15.6-.9c-.2 0-.3-.1-.4-.3l-1.4-2.6c-.1-.2 0-.5.2-.7.2-.1.5 0 .7.2l1.4 2.6c.1.2 0 .5-.2.7-.2.1-.2.1-.3.1zm18.4-4.4c-.1 0-.2 0-.2-.1-.2-.1-.3-.4-.2-.7l1.4-2.7c.1-.2.4-.3.7-.2.2.1.3.4.2.7L81 57.7c-.1.1-.3.2-.5.2zm-21.3-.8c-.2 0-.3-.1-.4-.3l-1.4-2.6c-.1-.2 0-.5.2-.7.2-.1.5 0 .7.2l1.4 2.6c.1.2 0 .5-.2.7-.1.1-.2.1-.3.1zm24.1-4.5c-.1 0-.2 0-.2-.1-.2-.1-.3-.4-.2-.7l1.4-2.7c.1-.2.4-.3.7-.2.2.1.3.4.2.7l-1.4 2.7c-.1.2-.3.3-.5.3zm-27-.8c-.2 0-.3-.1-.4-.3l-1.4-2.6c-.1-.2 0-.5.2-.7.2-.1.5 0 .7.2l1.4 2.6c.1.2 0 .5-.2.7-.1.1-.2.1-.3.1zm29.9-4.5c-.1 0-.2 0-.2-.1-.2-.1-.3-.4-.2-.7l1.4-2.7c.1-.2.4-.3.7-.2.2.1.3.4.2.7L86.7 47c-.2.2-.4.3-.5.3zm-32.8-.7c-.2 0-.3-.1-.4-.3l-1.4-2.6c-.1-.2 0-.5.2-.7.2-.1.5 0 .7.2l1.4 2.6c.1.2 0 .5-.2.7-.1 0-.2.1-.3.1zM89 42c-.1 0-.2 0-.2-.1-.2-.1-.3-.4-.2-.7l1.4-2.7c.1-.2.4-.3.7-.2.2.1.3.4.2.7l-1.4 2.7c-.2.2-.4.3-.5.3zm-38.4-.7c-.2 0-.3-.1-.4-.3l-1.4-2.6c-.1-.2 0-.5.2-.7.2-.1.5 0 .7.2l1.4 2.6c.1.2 0 .5-.2.7-.2.1-.3.1-.3.1zm41.2-4.6c-.1 0-.2 0-.2-.1-.2-.1-.3-.4-.2-.7l1.4-2.7c.1-.2.4-.3.7-.2s.3.4.2.7l-1.4 2.7c-.2.2-.3.3-.5.3zM47.7 36c-.2 0-.3-.1-.4-.3l-1.4-2.6c-.1-.2 0-.5.2-.7.2-.1.5 0 .7.2l1.4 2.6c.1.2 0 .5-.2.7-.2.1-.2.1-.3.1zm46.9-4.6c-.1 0-.2 0-.2-.1-.2-.1-.3-.4-.2-.7l1.4-2.7c.1-.2.4-.3.7-.2.2.1.3.4.2.7L95 31.1c-.1.2-.2.3-.4.3zm-49.8-.6c-.2 0-.3-.1-.4-.3L43 27.9c-.1-.2 0-.5.2-.7.2-.1.5 0 .7.2l1.4 2.6c.1.2 0 .5-.2.7-.1 0-.2.1-.3.1zm52.6-4.7c-.1 0-.2 0-.2-.1-.2-.1-.3-.4-.2-.7l1.4-2.7c.1-.2.4-.3.7-.2.2.1.3.4.2.7l-1.4 2.7c-.2.2-.3.3-.5.3zm-55.5-.6c-.2 0-.3-.1-.4-.3L40 22.6c-.1-.2 0-.5.2-.7.2-.1.5 0 .7.2l1.4 2.6c.1.2 0 .5-.2.7 0 .1-.1.1-.2.1zm58.3-4.7c-.1 0-.2 0-.2-.1-.2-.1-.3-.4-.2-.7l1.4-2.7c.1-.2.4-.3.7-.2.2.1.3.4.2.7l-1.4 2.7c-.1.2-.3.3-.5.3zM39 20.2c-.2 0-.3-.1-.4-.3l-1.4-2.6c-.1-.2 0-.5.2-.7.2-.1.5 0 .7.2l1.4 2.6c.1.2 0 .5-.2.7-.1.1-.2.1-.3.1zm64-4.7c-.1 0-.2 0-.2-.1-.2-.1-.3-.4-.2-.7L104 12c.1-.2.4-.3.7-.2.2.1.3.4.2.7l-1.4 2.7c-.1.2-.3.3-.5.3zM36.2 15c-.2 0-.3-.1-.4-.3l-1.4-2.6c-.1-.2 0-.5.2-.7.2-.1.5 0 .7.2l1.4 2.6c.1.2 0 .5-.2.7-.2 0-.3.1-.3.1zm69.6-4.8c-.1 0-.2 0-.2-.1-.2-.1-.3-.4-.2-.7l.3-.5h-.8c-.3 0-.5-.2-.5-.5s.2-.5.5-.5h1.6c.2 0 .3.1.4.2.1.2.1.3 0 .5l-.7 1.2c0 .3-.2.4-.4.4zm-72.5-.5c-.2 0-.3-.1-.4-.3l-.4-.7c-.1-.2-.1-.3 0-.5 0-.1.2-.2.4-.2h3c.3 0 .5.2.5.5s-.2.5-.5.5h-2.2c.1.2 0 .5-.2.7h-.2zm68.6-.7h-3c-.3 0-.5-.2-.5-.5s.2-.5.5-.5h3c.3 0 .5.2.5.5s-.2.5-.5.5zm-6 0h-3c-.3 0-.5-.2-.5-.5s.2-.5.5-.5h3c.3 0 .5.2.5.5s-.2.5-.5.5zm-6 0h-3c-.3 0-.5-.2-.5-.5s.2-.5.5-.5h3c.3 0 .5.2.5.5s-.2.5-.5.5zm-6 0h-3c-.3 0-.5-.2-.5-.5s.2-.5.5-.5h3c.3 0 .5.2.5.5s-.2.5-.5.5zm-6 0h-3c-.3 0-.5-.2-.5-.5s.2-.5.5-.5h3c.3 0 .5.2.5.5s-.2.5-.5.5zm-6 0h-3c-.3 0-.5-.2-.5-.5s.2-.5.5-.5h3c.3 0 .5.2.5.5s-.2.5-.5.5zm-6 0h-3c-.3 0-.5-.2-.5-.5s.2-.5.5-.5h3c.3 0 .5.2.5.5s-.2.5-.5.5zm-6 0h-3c-.3 0-.5-.2-.5-.5s.2-.5.5-.5h3c.3 0 .5.2.5.5s-.2.5-.5.5zm-6 0h-3c-.3 0-.5-.2-.5-.5s.2-.5.5-.5h3c.3 0 .5.2.5.5s-.2.5-.5.5zm-6 0h-3c-.3 0-.5-.2-.5-.5s.2-.5.5-.5h3c.3 0 .5.2.5.5s-.2.5-.5.5zm-6 0h-3c-.3 0-.5-.2-.5-.5s.2-.5.5-.5h3c.3 0 .5.2.5.5s-.2.5-.5.5z"/></g><g id="XMLID_695_"><path id="XMLID_920_" class="st2" d="M69 143.6c-20.1 0-36.4-16.3-36.4-36.4S49 70.8 69 70.8s36.4 16.3 36.4 36.4-16.3 36.4-36.4 36.4zm0-69.8c-18.4 0-33.4 15-33.4 33.4s15 33.4 33.4 33.4 33.4-15 33.4-33.4c.1-18.4-14.9-33.4-33.4-33.4z"/></g><g id="XMLID_694_"><path id="XMLID_883_" class="st2" d="M105.2 91.2c-.7 0-1.5 0-2.2-.1-.3 0-.5-.3-.5-.5 0-.3.3-.5.5-.5 1 .1 2 .1 3 .1.3 0 .5.2.5.5s-.2.5-.5.5h-.8zm3.9-.2c-.3 0-.5-.2-.5-.4 0-.3.2-.5.4-.6 1-.1 2-.3 2.9-.4.3-.1.5.1.6.4.1.3-.1.5-.4.6-1 .1-2 .2-3 .4zm-9-.2s-.1 0 0 0c-1.1-.2-2.1-.4-3.1-.6-.3-.1-.4-.3-.4-.6.1-.3.3-.4.6-.4 1 .2 1.9.4 2.9.6.3 0 .5.3.4.6 0 .2-.2.4-.4.4zm14.8-1c-.2 0-.4-.1-.5-.4-.1-.3.1-.5.3-.6.9-.3 1.9-.6 2.8-.9.3-.1.5 0 .6.3.1.3 0 .5-.3.6-.9.4-1.9.7-2.9 1 .1 0 .1 0 0 0zm-20.6-.4h-.2c-1-.3-1.9-.7-2.8-1.1-.3-.1-.4-.4-.3-.7.1-.3.4-.4.7-.3.9.4 1.8.7 2.8 1 .3.1.4.4.3.6-.1.4-.3.5-.5.5zm26.2-1.8c-.2 0-.4-.1-.4-.3-.1-.2 0-.5.2-.7.9-.4 1.8-.9 2.6-1.4.2-.1.5-.1.7.2.1.2.1.5-.2.7l-2.7 1.5h-.2zM88.7 87c-.1 0-.2 0-.2-.1-.9-.5-1.8-1-2.6-1.6-.2-.2-.3-.5-.1-.7.2-.2.5-.3.7-.1.8.5 1.7 1 2.5 1.5.2.1.3.4.2.7-.1.3-.3.3-.5.3zm37-2.4c-.2 0-.3-.1-.4-.2-.2-.2-.1-.5.1-.7.8-.6 1.6-1.2 2.3-1.8.2-.2.5-.2.7.1.2.2.2.5-.1.7-.8.7-1.6 1.3-2.4 1.9 0-.1-.1 0-.2 0zm-42-.8c-.1 0-.2 0-.3-.1-.8-.6-1.6-1.3-2.3-2-.2-.2-.2-.5 0-.7.2-.2.5-.2.7 0 .7.7 1.5 1.3 2.2 1.9.2.2.3.5.1.7-.1.1-.2.2-.4.2zm46.5-3.2c-.1 0-.3 0-.3-.1-.2-.2-.2-.5 0-.7.7-.7 1.4-1.4 2-2.2.2-.2.5-.2.7-.1.2.2.2.5.1.7-.6.8-1.3 1.5-2 2.3-.2.1-.4.1-.5.1zm-50.9-.9c-.1 0-.3-.1-.4-.2-.7-.8-1.3-1.5-1.9-2.3-.2-.2-.1-.5.1-.7.2-.2.5-.1.7.1.6.8 1.2 1.5 1.9 2.3.2.2.2.5 0 .7-.1.1-.2.1-.4.1zM134 76c-.1 0-.2 0-.3-.1-.2-.2-.3-.5-.1-.7.6-.8 1.1-1.7 1.6-2.5.1-.2.4-.3.7-.2.2.1.3.4.2.7-.5.9-1 1.7-1.6 2.6-.2.1-.3.2-.5.2zm-58.3-1.1c-.2 0-.3-.1-.4-.2-.5-.9-1.1-1.7-1.5-2.6-.1-.2 0-.5.2-.7.2-.1.5 0 .7.2.5.9.9 1.7 1.5 2.6.1.2.1.5-.2.7h-.3zm61.3-4.1h-.2c-.3-.1-.4-.4-.2-.7.4-.9.8-1.8 1.1-2.7.1-.3.4-.4.6-.3.3.1.4.4.3.6-.3 1-.7 1.9-1.1 2.8-.2.2-.4.3-.5.3zm-64-1.2c-.2 0-.4-.1-.5-.3-.4-.9-.7-1.9-1-2.9-.1-.3.1-.5.3-.6.3-.1.5.1.6.3.3.9.6 1.9 1 2.8.1.3 0 .5-.3.7H73zm66-4.4h-.1c-.3-.1-.4-.3-.4-.6.2-1 .5-1.9.6-2.9 0-.3.3-.5.6-.4.3 0 .5.3.4.6l-.6 3c-.1.1-.3.3-.5.3zm-67.9-1.3c-.2 0-.4-.2-.5-.4-.2-1-.4-2-.5-3 0-.3.2-.5.4-.6.3 0 .5.2.6.4.1 1 .3 2 .5 2.9.1.3-.1.5-.4.6 0 .1 0 .1-.1.1zm68.9-4.6c-.3 0-.5-.3-.5-.5.1-1 .1-2 .1-3v-.2-.2c0-1-.1-2-.2-3 0-.3.2-.5.4-.5.3 0 .5.2.5.4.1 1 .2 2 .2 3v.4c0 1 0 2-.1 3 .1.4-.1.6-.4.6zM70.3 58c-.3 0-.5-.2-.5-.5v-1.7-1.3c0-.3.2-.5.5-.5s.5.2.5.5v3c.1.2-.2.4-.5.5.1 0 .1 0 0 0zm.3-6s-.1 0 0 0c-.3 0-.5-.3-.5-.6.1-1 .3-2 .5-3 .1-.3.3-.4.6-.4.3.1.4.3.4.6-.2 1-.4 1.9-.5 2.9-.1.3-.3.5-.5.5zm68.9-2.1c-.2 0-.4-.2-.5-.4-.2-1-.4-1.9-.7-2.9-.1-.3.1-.5.3-.6.3-.1.5.1.6.3.3 1 .5 2 .7 3 .2.3 0 .5-.4.6.1 0 .1 0 0 0zm-67.7-3.8h-.1c-.3-.1-.4-.4-.3-.6.3-1 .6-1.9 1-2.9.1-.3.4-.4.6-.3.3.1.4.4.3.6-.4.9-.7 1.8-1 2.8-.1.3-.3.4-.5.4zm66.1-2c-.2 0-.4-.1-.5-.3-.3-.9-.7-1.8-1.1-2.7-.1-.2 0-.5.2-.7.3-.1.5 0 .7.2.4.9.8 1.9 1.2 2.8.1.3 0 .5-.3.6 0 .1-.1.1-.2.1zM74 40.6c-.1 0-.2 0-.2-.1-.2-.1-.3-.4-.2-.7l1.5-2.7c.1-.2.5-.3.7-.2.2.1.3.5.2.7-.5.8-1 1.7-1.4 2.6-.2.3-.4.4-.6.4zm61.4-1.9c-.2 0-.3-.1-.4-.2-.5-.9-1-1.7-1.6-2.5-.2-.2-.1-.5.1-.7.2-.2.5-.1.7.1.6.8 1.1 1.7 1.6 2.6.1.2.1.5-.2.7h-.2zm-58.2-3.2c-.1 0-.2 0-.3-.1-.2-.2-.3-.5-.1-.7.6-.8 1.2-1.6 1.9-2.4.2-.2.5-.2.7 0 .2.2.2.5 0 .7-.7.7-1.3 1.5-1.9 2.3 0 .1-.2.2-.3.2zm54.7-1.7c-.1 0-.3-.1-.4-.2-.6-.7-1.3-1.5-2-2.2-.2-.2-.2-.5 0-.7.2-.2.5-.2.7 0 .7.7 1.4 1.5 2.1 2.2.2.2.2.5-.1.7 0 .2-.1.2-.3.2zM81.2 31c-.1 0-.3-.1-.4-.2-.2-.2-.2-.5 0-.7.7-.7 1.5-1.4 2.3-2 .2-.2.5-.1.7.1.2.2.1.5-.1.7-.8.6-1.5 1.3-2.2 1.9-.1.1-.2.2-.3.2zm46.5-1.4c-.1 0-.2 0-.3-.1-.8-.6-1.5-1.2-2.3-1.8-.2-.2-.3-.5-.1-.7.2-.2.5-.3.7-.1.8.6 1.6 1.2 2.4 1.9.2.2.2.5.1.7-.2 0-.4.1-.5.1zm-41.9-2.4c-.2 0-.3-.1-.4-.2-.2-.2-.1-.5.1-.7.8-.6 1.7-1.1 2.6-1.6.2-.1.5 0 .7.2.1.2 0 .5-.2.7-.9.5-1.7 1-2.5 1.5-.1.1-.2.1-.3.1zm37-1.1c-.1 0-.2 0-.3-.1-.8-.5-1.7-1-2.6-1.4-.2-.1-.4-.4-.2-.7.1-.2.4-.4.7-.2.9.4 1.8.9 2.7 1.4.2.1.3.4.2.7-.1.2-.3.3-.5.3zm-31.7-1.8c-.2 0-.4-.1-.5-.3-.1-.3 0-.5.3-.7.9-.4 1.9-.8 2.8-1.1.3-.1.5 0 .6.3.1.3 0 .5-.3.6-.9.3-1.9.7-2.7 1.1-.1.1-.1.1-.2.1zm26.3-.8h-.2c-.9-.3-1.9-.6-2.8-.9-.3-.1-.4-.3-.3-.6.1-.3.4-.4.6-.3 1 .3 1.9.6 2.9.9.3.1.4.4.3.6-.1.2-.3.3-.5.3zm-20.7-1.1c-.2 0-.4-.2-.5-.4-.1-.3.1-.5.4-.6l3-.6c.3 0 .5.1.6.4 0 .3-.1.5-.4.6-1 .2-1.9.4-2.9.6h-.2zm14.9-.5c-1.1-.2-2-.3-3-.4-.3 0-.5-.3-.4-.5s.3-.5.5-.4c1 .1 2 .2 3 .4.3.1.5.3.4.6 0 .2-.2.3-.5.3zm-8.9-.5c-.3 0-.5-.2-.5-.5s.2-.5.5-.5c.9-.1 1.7-.1 2.6-.1h.5c.3 0 .5.2.5.5s-.2.5-.5.5h-.4c-1 .1-1.9.1-2.7.1z"/></g><g id="XMLID_665_"><path id="XMLID_666_" class="st2" d="M35.4 91.2c-.7 0-1.5 0-2.2-.1-.3 0-.5-.3-.5-.5 0-.3.3-.5.5-.5 1 .1 2 .1 3 .1.3 0 .5.2.5.5s-.2.5-.5.5h-.8zm3.8-.2c-.3 0-.5-.2-.5-.4 0-.3.2-.5.4-.6 1-.1 2-.3 2.9-.4.3-.1.5.1.6.4.1.3-.1.5-.4.6-.9.1-1.9.2-3 .4.1 0 .1 0 0 0zm-8.9-.2s-.1 0 0 0c-1.1-.2-2.1-.3-3.1-.6-.3-.1-.4-.3-.4-.6.1-.3.3-.4.6-.4 1 .2 1.9.4 2.9.6.3 0 .5.3.4.6 0 .2-.2.4-.4.4zm14.8-1c-.2 0-.4-.1-.5-.4-.1-.3.1-.5.3-.6.9-.3 1.9-.6 2.8-.9.3-.1.5 0 .6.3s0 .5-.3.6c-.9.4-1.9.7-2.9 1 .1 0 .1 0 0 0zm-20.7-.4h-.2c-1-.3-1.9-.7-2.8-1.1-.3-.1-.4-.4-.3-.7.1-.3.4-.4.7-.3.9.4 1.8.7 2.8 1 .3.1.4.4.3.6 0 .4-.2.5-.5.5zm26.3-1.8c-.2 0-.4-.1-.4-.3-.1-.2 0-.5.2-.7.9-.4 1.8-.9 2.6-1.4.2-.1.5-.1.7.2.1.2.1.5-.2.7l-2.7 1.5h-.2zM18.9 87c-.1 0-.2 0-.2-.1-.9-.5-1.8-1-2.6-1.6-.2-.2-.3-.5-.1-.7.2-.2.5-.3.7-.1.8.5 1.7 1 2.5 1.5.2.1.3.4.2.7-.1.3-.3.3-.5.3zm36.9-2.4c-.2 0-.3-.1-.4-.2-.2-.2-.1-.5.1-.7.8-.6 1.6-1.2 2.3-1.8.2-.2.5-.2.7.1.2.2.2.5-.1.7-.8.7-1.6 1.3-2.4 1.9.1-.1-.1 0-.2 0zm-41.9-.8c-.1 0-.2 0-.3-.1-.8-.6-1.6-1.3-2.3-2-.2-.2-.2-.5 0-.7.2-.2.5-.2.7 0 .7.7 1.5 1.3 2.2 1.9.2.2.3.5.1.7-.1.1-.2.2-.4.2zm46.5-3.2c-.1 0-.3 0-.3-.1-.2-.2-.2-.5 0-.7.7-.7 1.4-1.4 2-2.2.2-.2.5-.2.7-.1.2.2.2.5.1.7-.6.8-1.3 1.5-2 2.3-.3.1-.4.1-.5.1zm-50.9-.9c-.1 0-.3-.1-.4-.2-.7-.7-1.3-1.5-1.9-2.3-.2-.2-.1-.5.1-.7.2-.2.5-.1.7.1.6.8 1.2 1.5 1.9 2.3.2.2.2.5 0 .7-.1.1-.2.1-.4.1zM64.2 76c-.1 0-.2 0-.3-.1-.2-.2-.3-.5-.1-.7.6-.8 1.1-1.7 1.6-2.5.1-.2.4-.3.7-.2.2.1.3.4.2.7-.5.9-1 1.7-1.6 2.6-.2.1-.4.2-.5.2zM5.9 74.9c-.2 0-.3-.1-.4-.2-.6-.9-1.1-1.7-1.5-2.6-.1-.2 0-.5.2-.7.2-.1.5 0 .7.2.5.9.9 1.7 1.5 2.6.1.2.1.5-.2.7h-.3zm61.2-4.1h-.2c-.3-.1-.4-.4-.2-.7.4-.9.8-1.8 1.1-2.7.1-.3.4-.4.6-.3.3.1.4.4.3.6-.3 1-.7 1.9-1.1 2.8-.1.2-.3.3-.5.3zm-64-1.2c-.2 0-.4-.1-.5-.3-.4-.9-.7-1.9-1-2.9-.1-.3.1-.5.3-.6.3-.1.5.1.6.3.3.9.6 1.9 1 2.8.1.3 0 .5-.3.7h-.1zm66.1-4.4h-.1c-.3-.1-.4-.3-.4-.6.2-1 .5-1.9.6-2.9 0-.3.3-.5.6-.4.3 0 .5.3.4.6l-.6 3c-.1.1-.3.3-.5.3zM1.3 63.9c-.2 0-.4-.2-.5-.4-.2-1-.4-2-.5-3 0-.3.2-.5.4-.6.3 0 .5.2.6.4.1 1 .3 2 .5 2.9.1.3-.1.5-.4.6 0 .1 0 .1-.1.1zm68.9-4.6c-.3 0-.5-.3-.5-.5.1-1 .1-2 .1-3v-.2-.2c0-1-.1-2-.2-3 0-.3.2-.5.4-.5.3 0 .5.2.5.4.1 1 .2 2 .2 3v.4c0 1 0 2-.1 3 .1.4-.2.6-.4.6zM.5 58c-.3 0-.5-.2-.5-.5v-1.7-1.3c0-.3.2-.5.5-.5s.5.2.5.5v3c.1.2-.2.4-.5.5.1 0 0 0 0 0zm.3-6c-.1 0-.1 0 0 0-.3 0-.5-.3-.5-.6.1-1 .3-2 .5-3 0-.3.3-.4.6-.4.3.1.4.3.4.6-.2 1-.4 1.9-.5 2.9-.1.3-.3.5-.5.5zm68.9-2.1c-.2 0-.4-.2-.5-.4-.2-1-.4-1.9-.7-2.9-.1-.3.1-.5.3-.6.3-.1.5.1.6.3.3 1 .5 2 .7 3 .2.3 0 .5-.4.6.1 0 .1 0 0 0zM2 46.1h-.1c-.3-.1-.4-.4-.3-.6.3-1 .6-1.9 1-2.9.1-.3.4-.4.6-.3.3.1.4.4.3.6-.4.9-.7 1.8-1 2.8-.1.3-.3.4-.5.4zm66.1-2c-.2 0-.4-.1-.5-.3-.3-.9-.7-1.8-1.1-2.7-.1-.2 0-.5.2-.7.3-.1.5 0 .7.2.4.9.8 1.9 1.2 2.8.1.3 0 .5-.3.6 0 .1-.1.1-.2.1zM4.2 40.6c-.1 0-.2 0-.2-.1-.2-.1-.3-.4-.2-.7l1.5-2.7c.1-.2.4-.2.7-.1.2.1.3.5.2.7-.5.8-1 1.7-1.4 2.6-.2.2-.4.3-.6.3zm61.4-1.9c-.2 0-.3-.1-.4-.2-.5-.8-1-1.7-1.6-2.5-.2-.2-.1-.5.1-.7.2-.2.5-.1.7.1.6.8 1.1 1.7 1.6 2.6.1.2.1.5-.2.7h-.2zM7.4 35.5c-.1 0-.2 0-.3-.1-.2-.2-.3-.5-.1-.7.6-.8 1.2-1.6 1.9-2.4.2-.2.5-.2.7 0s.2.5 0 .7c-.7.7-1.3 1.5-1.9 2.3 0 .1-.2.2-.3.2zm54.7-1.7c-.1 0-.3-.1-.4-.2-.6-.7-1.3-1.5-2-2.2-.2-.2-.2-.5 0-.7.2-.2.5-.2.7 0 .7.7 1.4 1.5 2.1 2.2.2.2.2.5-.1.7 0 .2-.2.2-.3.2zM11.4 31c-.1 0-.3-.1-.4-.2-.2-.2-.2-.5 0-.7.7-.7 1.5-1.4 2.3-2 .2-.2.5-.1.7.1.2.2.1.5-.1.7-.8.6-1.5 1.3-2.2 1.9-.1.1-.2.2-.3.2zm46.5-1.4c-.1 0-.2 0-.3-.1-.7-.6-1.5-1.2-2.3-1.8-.2-.2-.3-.5-.1-.7.2-.2.5-.3.7-.1.8.6 1.6 1.2 2.4 1.9.2.2.2.5.1.7-.2 0-.4.1-.5.1zM16 27.2c-.2 0-.3-.1-.4-.2-.2-.2-.1-.5.1-.7.8-.6 1.7-1.1 2.6-1.6.2-.1.5 0 .7.2.1.2 0 .5-.2.7-.9.5-1.7 1-2.5 1.5-.1.1-.2.1-.3.1zm37-1.1c-.1 0-.2 0-.3-.1-.8-.5-1.7-1-2.6-1.4-.2-.1-.4-.4-.2-.7.1-.2.4-.4.7-.2.9.4 1.8.9 2.7 1.4.2.1.3.4.2.7-.2.2-.3.3-.5.3zm-31.7-1.8c-.2 0-.4-.1-.5-.3-.1-.3 0-.5.3-.7.9-.4 1.9-.8 2.8-1.1.3-.1.5 0 .6.3.1.3 0 .5-.3.6-.9.3-1.9.7-2.7 1.1-.1.1-.2.1-.2.1zm26.3-.8h-.2c-.9-.3-1.9-.6-2.8-.9-.3-.1-.4-.3-.3-.6.1-.3.4-.4.6-.3 1 .3 1.9.6 2.9.9.3.1.4.4.3.6-.1.2-.3.3-.5.3zm-20.7-1.1c-.2 0-.4-.2-.5-.4-.1-.3.1-.5.4-.6l3-.6c.3 0 .5.1.6.4 0 .3-.1.5-.4.6-1 .2-1.9.4-2.9.6h-.2zm14.9-.5c-1.1-.2-2-.3-3-.4-.3 0-.5-.3-.4-.5s.3-.5.5-.4c1 .1 2 .2 3 .4.3.1.5.3.4.6 0 .2-.2.3-.5.3zm-8.9-.5c-.3 0-.5-.2-.5-.5s.2-.5.5-.5c.9-.1 1.7-.1 2.6-.1h.5c.3 0 .5.2.5.5s-.2.5-.5.5h-.4c-1 .1-1.9.1-2.7.1z"/></g><g id="XMLID_604_"><g id="XMLID_635_"><g id="XMLID_663_"><path id="XMLID_664_" class="st2" d="M93.7 3.9c-.2 0-.3-.1-.4-.3l-.7-1.3c-.1-.2-.1-.3 0-.5s.3-.2.4-.2h1.5c.3 0 .5.2.5.5s-.2.5-.5.5h-.7l.3.6c.1.2 0 .5-.2.7h-.2z"/></g><g id="XMLID_656_"><path id="XMLID_657_" class="st2" d="M127 2.6h-3.3c-.3 0-.5-.2-.5-.5s.2-.5.5-.5h3.3c.3 0 .5.2.5.5s-.2.5-.5.5zm-6.5 0h-3.3c-.3 0-.5-.2-.5-.5s.2-.5.5-.5h3.3c.3 0 .5.2.5.5s-.2.5-.5.5zm-6.5 0h-3.3c-.3 0-.5-.2-.5-.5s.2-.5.5-.5h3.3c.3 0 .5.2.5.5s-.3.5-.5.5zm-6.5 0h-3.3c-.3 0-.5-.2-.5-.5s.2-.5.5-.5h3.3c.3 0 .5.2.5.5s-.3.5-.5.5zm-6.6 0h-3.3c-.3 0-.5-.2-.5-.5s.2-.5.5-.5h3.3c.3 0 .5.2.5.5s-.2.5-.5.5z"/></g><g id="XMLID_654_"><path id="XMLID_655_" class="st2" d="M131 3.9c-.1 0-.2 0-.2-.1-.2-.1-.3-.4-.2-.7l.3-.6h-.7c-.3 0-.5-.2-.5-.5s.2-.5.5-.5h1.5c.2 0 .3.1.4.2.1.2.1.3 0 .5l-.7 1.3c0 .3-.2.4-.4.4z"/></g><g id="XMLID_646_"><path id="XMLID_647_" class="st2" d="M114.5 33.8c-.1 0-.2 0-.2-.1-.2-.1-.3-.4-.2-.7l1.4-2.5c.1-.2.4-.3.7-.2.2.1.3.4.2.7l-1.4 2.5c-.2.2-.4.3-.5.3zm2.7-5c-.1 0-.2 0-.2-.1-.2-.1-.3-.4-.2-.7l1.4-2.5c.1-.2.4-.3.7-.2.2.1.3.4.2.7l-1.4 2.5c-.1.2-.3.3-.5.3zm2.8-5c-.1 0-.2 0-.2-.1-.2-.1-.3-.4-.2-.7l1.4-2.5c.1-.2.4-.3.7-.2.2.1.3.4.2.7l-1.4 2.5c-.2.2-.3.3-.5.3zm2.7-4.9c-.1 0-.2 0-.2-.1-.2-.1-.3-.4-.2-.7l1.4-2.5c.1-.2.4-.3.7-.2.2.1.3.4.2.7l-1.4 2.5c-.1.2-.3.3-.5.3zm2.8-5c-.1 0-.2 0-.2-.1-.2-.1-.3-.4-.2-.7l1.4-2.5c.1-.2.4-.3.7-.2.2.1.3.4.2.7l-1.4 2.5c-.2.2-.3.3-.5.3zm2.8-5c-.1 0-.2 0-.2-.1-.2-.1-.3-.4-.2-.7l1.4-2.5c.1-.2.4-.3.7-.2.2.1.3.4.2.7l-1.4 2.5c-.2.2-.4.3-.5.3z"/></g><g id="XMLID_644_"><path id="XMLID_645_" class="st2" d="M112.3 37.6c-.2 0-.3-.1-.4-.3l-.7-1.3c-.1-.2 0-.5.2-.7.2-.1.5 0 .7.2l.3.5.3-.5c.1-.2.4-.3.7-.2.2.1.3.4.2.7l-.7 1.3c-.2.2-.4.3-.6.3z"/></g><g id="XMLID_636_"><path id="XMLID_637_" class="st2" d="M110.2 33.8c-.2 0-.3-.1-.4-.3l-1.4-2.5c-.1-.2 0-.5.2-.7.2-.1.5 0 .7.2l1.4 2.5c.1.2 0 .5-.2.7-.1.1-.2.1-.3.1zm-2.7-5c-.2 0-.3-.1-.4-.3l-1.4-2.5c-.1-.2 0-.5.2-.7.2-.1.5 0 .7.2L108 28c.1.2 0 .5-.2.7-.2.1-.2.1-.3.1zm-2.8-5c-.2 0-.3-.1-.4-.3l-1.4-2.5c-.1-.2 0-.5.2-.7.2-.1.5 0 .7.2l1.4 2.5c.1.2 0 .5-.2.7-.1.1-.2.1-.3.1zm-2.8-4.9c-.2 0-.3-.1-.4-.3l-1.4-2.5c-.1-.2 0-.5.2-.7.2-.1.5 0 .7.2l1.4 2.5c.1.2 0 .5-.2.7-.1 0-.2.1-.3.1zm-2.7-5c-.2 0-.3-.1-.4-.3l-1.4-2.5c-.1-.2 0-.5.2-.7.2-.1.5 0 .7.2l1.4 2.5c.1.2 0 .5-.2.7-.1.1-.2.1-.3.1zm-2.8-5c-.2 0-.3-.1-.4-.3l-1.4-2.5c-.1-.2 0-.5.2-.7.2-.1.5 0 .7.2l1.4 2.5c.1.2 0 .5-.2.7-.1.1-.2.1-.3.1z"/></g></g><g id="XMLID_605_"><g id="XMLID_633_"><path id="XMLID_634_" class="st2" d="M6.1 3.9c-.2 0-.3-.1-.4-.3l-.8-1.3c-.1-.1-.1-.3 0-.5.1-.1.3-.2.4-.2h1.5c.3 0 .5.2.5.5s-.2.5-.5.5h-.6l.3.6c.1.2 0 .5-.2.7h-.2z"/></g><g id="XMLID_626_"><path id="XMLID_627_" class="st2" d="M39.4 2.6h-3.3c-.3 0-.5-.2-.5-.5s.2-.5.5-.5h3.3c.3 0 .5.2.5.5s-.2.5-.5.5zm-6.5 0h-3.3c-.3 0-.5-.2-.5-.5s.2-.5.5-.5h3.3c.3 0 .5.2.5.5s-.2.5-.5.5zm-6.5 0h-3.3c-.3 0-.5-.2-.5-.5s.2-.5.5-.5h3.3c.3 0 .5.2.5.5s-.2.5-.5.5zm-6.5 0h-3.3c-.3 0-.5-.2-.5-.5s.2-.5.5-.5h3.3c.3 0 .5.2.5.5s-.3.5-.5.5zm-6.6 0H10c-.3 0-.5-.2-.5-.5s.2-.5.5-.5h3.3c.3 0 .5.2.5.5s-.2.5-.5.5z"/></g><g id="XMLID_624_"><path id="XMLID_625_" class="st2" d="M43.4 3.9c-.1 0-.2 0-.2-.1-.2-.1-.3-.4-.2-.7l.3-.6h-.7c-.3 0-.5-.2-.5-.5s.2-.5.5-.5h1.5c.2 0 .3.1.4.2.1.2.1.3 0 .5l-.7 1.3c0 .3-.2.4-.4.4z"/></g><g id="XMLID_616_"><path id="XMLID_617_" class="st2" d="M26.9 33.8c-.1 0-.2 0-.2-.1-.2-.1-.3-.4-.2-.7l1.4-2.5c.1-.2.4-.3.7-.2.2.1.3.4.2.7l-1.4 2.5c-.2.2-.4.3-.5.3zm2.7-5c-.1 0-.2 0-.2-.1-.2-.1-.3-.4-.2-.7l1.4-2.5c.1-.2.4-.3.7-.2.2.1.3.4.2.7l-1.4 2.5c-.1.2-.3.3-.5.3zm2.8-5c-.1 0-.2 0-.2-.1-.2-.1-.3-.4-.2-.7l1.4-2.5c.1-.2.4-.3.7-.2.2.1.3.4.2.7l-1.4 2.5c-.2.2-.3.3-.5.3zm2.7-4.9c-.1 0-.2 0-.2-.1-.2-.1-.3-.4-.2-.7l1.4-2.5c.1-.2.4-.3.7-.2.2.1.3.4.2.7l-1.4 2.5c-.1.2-.3.3-.5.3zm2.8-5c-.1 0-.2 0-.2-.1-.2-.1-.3-.4-.2-.7l1.4-2.5c.1-.2.4-.3.7-.2.2.1.3.4.2.7l-1.4 2.5c-.2.2-.3.3-.5.3zm2.8-5c-.1 0-.2 0-.2-.1-.2-.1-.3-.4-.2-.7l1.4-2.5c.1-.2.4-.3.7-.2.2.1.3.4.2.7l-1.4 2.5c-.2.2-.4.3-.5.3z"/></g><g id="XMLID_614_"><path id="XMLID_615_" class="st2" d="M24.7 37.6c-.2 0-.3-.1-.4-.3l-.7-1.3c-.1-.2 0-.5.2-.7.2-.1.5 0 .7.2l.3.5.3-.5c.1-.2.4-.3.7-.2.2.1.3.4.2.7l-.7 1.3c-.2.2-.4.3-.6.3z"/></g><g id="XMLID_606_"><path id="XMLID_607_" class="st2" d="M22.6 33.8c-.2 0-.3-.1-.4-.3L20.8 31c-.1-.2 0-.5.2-.7.2-.1.5 0 .7.2l1.4 2.5c.1.2 0 .5-.2.7-.1.1-.2.1-.3.1zm-2.7-5c-.2 0-.3-.1-.4-.3L18.1 26c-.1-.2 0-.5.2-.7.2-.1.5 0 .7.2l1.4 2.5c.1.2 0 .5-.2.7-.2.1-.2.1-.3.1zm-2.8-5c-.2 0-.3-.1-.4-.3L15.3 21c-.1-.2 0-.5.2-.7.2-.1.5 0 .7.2l1.4 2.5c.1.2 0 .5-.2.7-.1.1-.2.1-.3.1zm-2.7-4.9c-.2 0-.3-.1-.4-.3l-1.4-2.5c-.1-.2 0-.5.2-.7.2-.1.5 0 .7.2l1.4 2.5c.1.2 0 .5-.2.7-.2 0-.3.1-.3.1zm-2.8-5c-.2 0-.3-.1-.4-.3l-1.4-2.5c-.1-.2 0-.5.2-.7.2-.1.5 0 .7.2l1.4 2.5c.1.2 0 .5-.2.7-.1.1-.2.1-.3.1zm-2.8-5c-.2 0-.3-.1-.4-.3L7 6.1c-.1-.2 0-.5.2-.6.2-.1.5 0 .7.2l1.4 2.5c.1.2 0 .5-.2.7h-.3z"/></g></g></g></g></svg>