<svg xmlns="http://www.w3.org/2000/svg" width="186.53" height="187" viewBox="0 0 186.53025 187" id="svg8486"><g id="layer1" transform="translate(-32.45 -391.924)"><g id="g7232" transform="matrix(1.25 0 0 -1.25 56.61 539.193)"><path d="M0 0h110.039L55.02 103.725 0 0zm116.688-4H-6.649L55.02 112.261 116.688-4z" id="path7234" fill="#fff"/></g><g id="g7236" transform="matrix(1.25 0 0 -1.25 56.61 434.598)"><path d="M0 0l55.02-103.725L110.039 0H0zm55.02-112.261L-6.649 4h123.337L55.02-112.261z" id="path7238" fill="#fff"/></g><g id="g7240" transform="matrix(1.25 0 0 -1.25 82.118 445.929)"><path d="M0 0l34.612-63.283L69.225 0H0zm34.612-69.535L-5.061 3h79.346L34.612-69.535z" id="path7242" fill="#fff"/></g><g id="g7244" transform="matrix(1.25 0 0 -1.25 82.118 522.282)"><path d="M0 0h69.225L34.612 63.283 0 0zm74.285-3H-5.061l39.673 72.535L74.285-3z" id="path7246" fill="#fff"/></g><g id="g7248" transform="matrix(1.25 0 0 -1.25 198.314 533.731)"><path d="M0 0a6.376 6.376 0 0 1-6.369-6.369A6.376 6.376 0 0 1 0-12.738a6.376 6.376 0 0 1 6.369 6.369A6.376 6.376 0 0 1 0 0m0-16.738c-5.718 0-10.369 4.651-10.369 10.369S-5.718 4 0 4C5.717 4 10.369-.651 10.369-6.369S5.717-16.738 0-16.738" id="path7250" fill="#fff"/></g><g id="g7252" transform="matrix(1.25 0 0 -1.25 125.384 410.887)"><path d="M0 0c-31.244 0-56.662-25.418-56.662-56.662S-31.244-113.324 0-113.324s56.662 25.418 56.662 56.662S31.244 0 0 0m0-114.324c-31.795 0-57.662 25.867-57.662 57.662C-57.662-24.867-31.795 1 0 1c31.795 0 57.662-25.867 57.662-57.662 0-31.795-25.867-57.662-57.662-57.662" id="path7254" fill="#fff"/></g><g id="g7256" transform="matrix(1.25 0 0 -1.25 78.13 484.508)"><path d="M0 0c-19.6 0-35.545-15.946-35.545-35.546S-19.6-71.091 0-71.091s35.546 15.945 35.546 35.545S19.6 0 0 0m0-72.091c-20.151 0-36.545 16.394-36.545 36.545C-36.545-15.395-20.151 1 0 1c20.151 0 36.546-16.395 36.546-36.546S20.151-72.091 0-72.091" id="path7258" fill="#fff"/></g><g id="g7260" transform="matrix(1.25 0 0 -1.25 173.298 484.508)"><path d="M0 0c-19.6 0-35.545-15.946-35.545-35.546S-19.6-71.091 0-71.091s35.545 15.945 35.545 35.545S19.6 0 0 0m0-72.091c-20.151 0-36.545 16.394-36.545 36.545C-36.545-15.395-20.151 1 0 1c20.151 0 36.545-16.395 36.545-36.546S20.151-72.091 0-72.091" id="path7262" fill="#fff"/></g><g id="g7264" transform="matrix(1.25 0 0 -1.25 78.13 399.622)"><path d="M0 0c-19.6 0-35.545-15.946-35.545-35.545C-35.545-55.146-19.6-71.091 0-71.091s35.546 15.945 35.546 35.546C35.546-15.946 19.6 0 0 0m0-72.091c-20.151 0-36.545 16.394-36.545 36.546C-36.545-15.394-20.151 1 0 1c20.151 0 36.546-16.394 36.546-36.545 0-20.152-16.395-36.546-36.546-36.546" id="path7266" fill="#fff"/></g><g id="g7268" transform="matrix(1.25 0 0 -1.25 173.298 399.622)"><path d="M0 0c-19.6 0-35.545-15.946-35.545-35.545C-35.545-55.146-19.6-71.091 0-71.091s35.545 15.945 35.545 35.546C35.545-15.946 19.6 0 0 0m0-72.091c-20.151 0-36.545 16.394-36.545 36.546C-36.545-15.394-20.151 1 0 1c20.151 0 36.545-16.394 36.545-36.545 0-20.152-16.394-36.546-36.545-36.546" id="path7270" fill="#fff"/></g><g id="g7272" transform="matrix(1.25 0 0 -1.25 52.454 533.731)"><path d="M0 0a6.376 6.376 0 0 1-6.369-6.369A6.376 6.376 0 0 1 0-12.738a6.376 6.376 0 0 1 6.369 6.369A6.376 6.376 0 0 1 0 0m0-16.738c-5.718 0-10.369 4.651-10.369 10.369S-5.718 4 0 4 10.369-.651 10.369-6.369 5.718-16.738 0-16.738" id="path7274" fill="#fff"/></g><g id="g7276" transform="matrix(1.25 0 0 -1.25 52.454 424.137)"><path d="M0 0a6.376 6.376 0 0 1-6.369-6.369A6.376 6.376 0 0 1 0-12.738a6.376 6.376 0 0 1 6.369 6.369A6.376 6.376 0 0 1 0 0m0-16.738c-5.718 0-10.369 4.651-10.369 10.369S-5.718 4 0 4 10.369-.651 10.369-6.369 5.718-16.738 0-16.738" id="path7278" fill="#fff"/></g><g id="g7280" transform="matrix(1.25 0 0 -1.25 196.836 424.137)"><path d="M0 0a6.376 6.376 0 0 1-6.369-6.369A6.376 6.376 0 0 1 0-12.738a6.376 6.376 0 0 1 6.369 6.369A6.376 6.376 0 0 1 0 0m0-16.738c-5.718 0-10.369 4.651-10.369 10.369S-5.718 4 0 4 10.369-.651 10.369-6.369 5.718-16.738 0-16.738" id="path7282" fill="#fff"/></g><g id="g7284" transform="matrix(1.25 0 0 -1.25 88.52 449.932)"><path d="M0 0h10.085L5.043-9.506" id="path7286" fill="#fff"/></g><g id="g7288" transform="matrix(1.25 0 0 -1.25 162.5 449.932)"><path d="M0 0h-10.085l5.042-9.506" id="path7290" fill="#fff"/></g><g id="g7292" transform="matrix(1.25 0 0 -1.25 98.868 520)"><path d="M0 0h-10.085l5.042 9.506" id="path7294" fill="#fff"/></g><g id="g7296" transform="matrix(1.25 0 0 -1.25 152.018 519.502)"><path d="M0 0h10.085L5.043 9.506" id="path7298" fill="#fff"/></g></g></svg>