<?xml version="1.0" encoding="utf-8"?>
<!-- Generator: Adobe Illustrator 19.0.0, SVG Export Plug-In . SVG Version: 6.00 Build 0)  -->
<svg version="1.1" id="Layer_1" xmlns="http://www.w3.org/2000/svg" xmlns:xlink="http://www.w3.org/1999/xlink" x="0px" y="0px"
	 viewBox="0 0 141.7 142.5" style="enable-background:new 0 0 141.7 142.5;" xml:space="preserve">
<style type="text/css">
	.st0{display:none;}
	.st1{display:inline;fill:#FFFFFF;}
	.st2{fill:#FFFFFF;}
</style>
<g id="XMLID_1167_" class="st0">
	<g id="XMLID_2_">
		<path id="XMLID_761_" class="st1" d="M67.4,141.3c-0.1,0-0.2,0-0.2-0.2v-2.6c0-0.1,0.1-0.2,0.2-0.2h5.3c0.1,0,0.2,0,0.2,0.2v2.6
			c0,0.1,0,0.2-0.2,0.2H67.4z"/>
		<path id="XMLID_763_" class="st1" d="M-6.9,172.6c-0.8-0.3-1.4-0.7-1.9-1.1c-0.1-0.1-0.1-0.2,0-0.3l1.3-1.5c0.1-0.1,0.2-0.1,0.3,0
			c1,0.8,2,1.2,3,1.2c1.2,0,1.9-0.5,1.9-1.4c0-0.7-0.5-1.1-1.8-1.3l-0.6-0.1c-2.4-0.3-3.6-1.5-3.6-3.4c0-1.1,0.4-1.9,1.1-2.5
			c0.7-0.6,1.7-1,3-1c1.6,0,2.9,0.4,3.9,1.2c0.1,0.1,0.1,0.2,0,0.3l-1,1.5c-0.1,0.1-0.2,0.1-0.2,0.1c-0.9-0.6-1.8-0.9-2.7-0.9
			c-1,0-1.5,0.5-1.5,1.2c0,0.7,0.5,1.1,1.8,1.3l0.6,0.1c2.4,0.3,3.6,1.5,3.6,3.5c0,2.2-1.6,3.6-4.5,3.6
			C-5.2,173.1-6.1,172.9-6.9,172.6z"/>
		<path id="XMLID_765_" class="st1" d="M1.8,172.9c-0.1,0-0.2-0.1-0.2-0.2v-11.1c0-0.1,0-0.2,0.2-0.2h4.4c1.2,0,2.2,0.3,2.9,1
			c0.7,0.7,1.1,1.6,1.1,2.7c0,1.1-0.4,2-1.1,2.7c-0.7,0.7-1.7,1-2.9,1h-2c-0.1,0-0.1,0-0.1,0.1v3.8c0,0.1,0,0.2-0.2,0.2H1.8z
			 M6.1,166.6c1,0,1.7-0.6,1.7-1.5c0-0.9-0.6-1.5-1.7-1.5H4.2c-0.1,0-0.1,0-0.1,0.1v2.9c0,0.1,0,0.1,0.1,0.1H6.1z"/>
		<path id="XMLID_768_" class="st1" d="M11.8,161.6c0-0.1,0-0.2,0.2-0.2h7.3c0.1,0,0.2,0.1,0.2,0.2v1.8c0,0.1-0.1,0.2-0.2,0.2h-4.9
			c-0.1,0-0.1,0-0.1,0.1v2.3c0,0.1,0,0.1,0.1,0.1h4.1c0.1,0,0.2,0,0.2,0.2v1.8c0,0.1-0.1,0.2-0.2,0.2h-4.1c-0.1,0-0.1,0-0.1,0.1v2.4
			c0,0.1,0,0.1,0.1,0.1h4.9c0.1,0,0.2,0,0.2,0.2v1.8c0,0.1-0.1,0.2-0.2,0.2H12c-0.1,0-0.2-0.1-0.2-0.2V161.6z"/>
		<path id="XMLID_770_" class="st1" d="M24.5,161.6c0-0.1,0.1-0.2,0.2-0.2h2.1c0.1,0,0.2,0.1,0.2,0.2l3.9,11.1c0,0.1,0,0.2-0.1,0.2
			h-2.2c-0.1,0-0.2-0.1-0.2-0.2l-0.7-2h-4l-0.6,2c0,0.1-0.1,0.2-0.2,0.2h-2.2c-0.1,0-0.2-0.1-0.1-0.2L24.5,161.6z M24.4,168.6H27
			l-1.3-4h-0.1L24.4,168.6z"/>
		<path id="XMLID_773_" class="st1" d="M32.2,161.6c0-0.1,0-0.2,0.2-0.2h2.1c0.1,0,0.2,0.1,0.2,0.2v4.9l3.8-5
			c0.1-0.1,0.2-0.2,0.3-0.2h2.4c0.1,0,0.2,0.1,0.1,0.2l-3.5,4.3l3.8,6.7c0.1,0.1,0.1,0.2-0.1,0.2H39c-0.1,0-0.2-0.1-0.3-0.2
			l-2.6-4.8l-1.5,1.9v2.9c0,0.1,0,0.2-0.2,0.2h-2.1c-0.1,0-0.2-0.1-0.2-0.2V161.6z"/>
		<path id="XMLID_775_" class="st1" d="M43,161.6c0-0.1,0-0.2,0.2-0.2h7.3c0.1,0,0.2,0.1,0.2,0.2v1.8c0,0.1-0.1,0.2-0.2,0.2h-4.9
			c-0.1,0-0.1,0-0.1,0.1v2.3c0,0.1,0,0.1,0.1,0.1h4.1c0.1,0,0.2,0,0.2,0.2v1.8c0,0.1,0,0.2-0.2,0.2h-4.1c-0.1,0-0.1,0-0.1,0.1v2.4
			c0,0.1,0,0.1,0.1,0.1h4.9c0.1,0,0.2,0,0.2,0.2v1.8c0,0.1-0.1,0.2-0.2,0.2h-7.3c-0.1,0-0.2-0.1-0.2-0.2V161.6z"/>
		<path id="XMLID_777_" class="st1" d="M58.9,172.9c-0.1,0-0.2-0.1-0.3-0.2l-2-4.2h-1.5c-0.1,0-0.1,0-0.1,0.1v4.1
			c0,0.1,0,0.2-0.2,0.2h-2.1c-0.1,0-0.2-0.1-0.2-0.2v-11.1c0-0.1,0-0.2,0.2-0.2h4.6c1.2,0,2.1,0.3,2.8,1c0.7,0.7,1.1,1.5,1.1,2.6
			c0,1.5-0.8,2.6-2,3.2l2.3,4.5c0.1,0.1,0,0.2-0.1,0.2H58.9z M57.1,166.4c0.9,0,1.5-0.6,1.5-1.4c0-0.9-0.6-1.4-1.5-1.4h-2
			c-0.1,0-0.1,0-0.1,0.1v2.6c0,0.1,0,0.1,0.1,0.1H57.1z"/>
		<path id="XMLID_780_" class="st1" d="M62.9,164.8v-3.2c0-0.1,0.1-0.2,0.2-0.2h1.7c0.1,0,0.2,0.1,0.2,0.2v1.8c0,0.2,0,0.3-0.2,0.4
			l-1.4,1.1c-0.1,0.1-0.2,0.1-0.3,0.1C62.9,165,62.9,164.9,62.9,164.8z"/>
		<path id="XMLID_782_" class="st1" d="M68.4,172.6c-0.8-0.3-1.4-0.7-1.9-1.1c-0.1-0.1-0.1-0.2,0-0.3l1.3-1.5c0.1-0.1,0.2-0.1,0.3,0
			c1,0.8,2,1.2,3,1.2c1.2,0,1.9-0.5,1.9-1.4c0-0.7-0.5-1.1-1.8-1.3l-0.6-0.1c-2.4-0.3-3.6-1.5-3.6-3.4c0-1.1,0.4-1.9,1.1-2.5
			c0.7-0.6,1.7-1,3-1c1.6,0,2.9,0.4,3.9,1.2c0.1,0.1,0.1,0.2,0,0.3l-1,1.5c-0.1,0.1-0.2,0.1-0.2,0.1c-0.9-0.6-1.8-0.9-2.7-0.9
			c-1,0-1.5,0.5-1.5,1.2c0,0.7,0.5,1.1,1.8,1.3l0.6,0.1c2.4,0.3,3.6,1.5,3.6,3.5c0,2.2-1.6,3.6-4.5,3.6
			C70,173.1,69.2,172.9,68.4,172.6z"/>
		<path id="XMLID_784_" class="st1" d="M82,171.9c-0.8-0.8-1.2-1.8-1.2-3.2v-7.1c0-0.1,0.1-0.2,0.2-0.2h2.1c0.1,0,0.2,0.1,0.2,0.2
			v7.1c0,1.3,0.8,2.1,1.9,2.1c1.2,0,1.9-0.8,1.9-2.1v-7.1c0-0.1,0.1-0.2,0.2-0.2h2.1c0.1,0,0.2,0.1,0.2,0.2v7.1
			c0,1.4-0.4,2.5-1.2,3.2c-0.8,0.8-1.8,1.1-3.2,1.1C83.9,173.1,82.8,172.7,82,171.9z"/>
		<path id="XMLID_786_" class="st1" d="M91.9,172.9c-0.1,0-0.2-0.1-0.2-0.2v-11.1c0-0.1,0-0.2,0.2-0.2h4.4c1.2,0,2.2,0.3,2.9,1
			c0.7,0.7,1.1,1.6,1.1,2.7c0,1.1-0.4,2-1.1,2.7c-0.7,0.7-1.7,1-2.9,1h-2c-0.1,0-0.1,0-0.1,0.1v3.8c0,0.1,0,0.2-0.2,0.2H91.9z
			 M96.2,166.6c1,0,1.7-0.6,1.7-1.5c0-0.9-0.6-1.5-1.7-1.5h-1.9c-0.1,0-0.1,0-0.1,0.1v2.9c0,0.1,0,0.1,0.1,0.1H96.2z"/>
		<path id="XMLID_789_" class="st1" d="M101.9,161.6c0-0.1,0-0.2,0.2-0.2h4.3c2.1,0,3.4,0.9,4,2.6c0.2,0.6,0.3,1.7,0.3,3.1
			s-0.1,2.5-0.3,3.1c-0.6,1.7-1.9,2.6-4,2.6h-4.3c-0.1,0-0.2-0.1-0.2-0.2V161.6z M104.4,170.6c0,0.1,0,0.1,0.1,0.1h1.3
			c1.2,0,1.9-0.4,2.1-1.3c0.1-0.4,0.2-1.1,0.2-2.3s-0.1-1.9-0.2-2.3c-0.3-0.8-1-1.3-2.1-1.3h-1.3c-0.1,0-0.1,0-0.1,0.1V170.6z"/>
		<path id="XMLID_792_" class="st1" d="M115.2,161.6c0-0.1,0.1-0.2,0.2-0.2h2.1c0.1,0,0.2,0.1,0.2,0.2l3.9,11.1c0,0.1,0,0.2-0.1,0.2
			h-2.2c-0.1,0-0.2-0.1-0.2-0.2l-0.7-2h-4l-0.6,2c0,0.1-0.1,0.2-0.2,0.2h-2.2c-0.1,0-0.2-0.1-0.1-0.2L115.2,161.6z M115.1,168.6h2.6
			l-1.3-4h-0.1L115.1,168.6z"/>
		<path id="XMLID_795_" class="st1" d="M124.4,172.9c-0.1,0-0.2-0.1-0.2-0.2v-9c0-0.1,0-0.1-0.1-0.1h-2.9c-0.1,0-0.2-0.1-0.2-0.2
			v-1.9c0-0.1,0-0.2,0.2-0.2h8.5c0.1,0,0.2,0.1,0.2,0.2v1.9c0,0.1-0.1,0.2-0.2,0.2h-2.9c-0.1,0-0.1,0-0.1,0.1v9
			c0,0.1-0.1,0.2-0.2,0.2H124.4z"/>
		<path id="XMLID_797_" class="st1" d="M131.2,161.6c0-0.1,0-0.2,0.2-0.2h7.3c0.1,0,0.2,0.1,0.2,0.2v1.8c0,0.1-0.1,0.2-0.2,0.2h-4.9
			c-0.1,0-0.1,0-0.1,0.1v2.3c0,0.1,0,0.1,0.1,0.1h4.1c0.1,0,0.2,0,0.2,0.2v1.8c0,0.1,0,0.2-0.2,0.2h-4.1c-0.1,0-0.1,0-0.1,0.1v2.4
			c0,0.1,0,0.1,0.1,0.1h4.9c0.1,0,0.2,0,0.2,0.2v1.8c0,0.1-0.1,0.2-0.2,0.2h-7.3c-0.1,0-0.2-0.1-0.2-0.2V161.6z"/>
		<path id="XMLID_799_" class="st1" d="M142.2,172.6c-0.8-0.3-1.4-0.7-1.9-1.1c-0.1-0.1-0.1-0.2,0-0.3l1.3-1.5
			c0.1-0.1,0.2-0.1,0.3,0c1,0.8,2,1.2,3,1.2c1.2,0,1.9-0.5,1.9-1.4c0-0.7-0.5-1.1-1.8-1.3l-0.6-0.1c-2.4-0.3-3.6-1.5-3.6-3.4
			c0-1.1,0.4-1.9,1.1-2.5c0.7-0.6,1.7-1,3-1c1.6,0,2.9,0.4,3.9,1.2c0.1,0.1,0.1,0.2,0,0.3l-1,1.5c-0.1,0.1-0.2,0.1-0.2,0.1
			c-0.9-0.6-1.8-0.9-2.7-0.9c-1,0-1.5,0.5-1.5,1.2c0,0.7,0.5,1.1,1.8,1.3l0.6,0.1c2.4,0.3,3.6,1.5,3.6,3.5c0,2.2-1.6,3.6-4.5,3.6
			C143.8,173.1,143,172.9,142.2,172.6z"/>
	</g>
</g>
<g id="XMLID_1165_">
	<g id="XMLID_106_" class="st0">
		<path id="XMLID_341_" class="st1" d="M68.4,140.4c-0.1,0-0.2,0-0.2-0.2v-2.6c0-0.1,0.1-0.2,0.2-0.2h5.3c0.1,0,0.2,0,0.2,0.2v2.6
			c0,0.1,0,0.2-0.2,0.2H68.4z"/>
		<path id="XMLID_339_" class="st1" d="M16.5,172c-0.1,0-0.2-0.1-0.2-0.2v-9c0-0.1,0-0.1-0.1-0.1h-2.9c-0.1,0-0.2-0.1-0.2-0.2v-1.9
			c0-0.1,0-0.2,0.2-0.2h8.5c0.1,0,0.2,0.1,0.2,0.2v1.9c0,0.1-0.1,0.2-0.2,0.2h-2.9c-0.1,0-0.1,0-0.1,0.1v9c0,0.1-0.1,0.2-0.2,0.2
			H16.5z"/>
		<path id="XMLID_233_" class="st1" d="M23.4,160.8c0-0.1,0-0.2,0.2-0.2h7.3c0.1,0,0.2,0.1,0.2,0.2v1.8c0,0.1-0.1,0.2-0.2,0.2h-4.9
			c-0.1,0-0.1,0-0.1,0.1v2.3c0,0.1,0,0.1,0.1,0.1H30c0.1,0,0.2,0,0.2,0.2v1.8c0,0.1-0.1,0.2-0.2,0.2h-4.1c-0.1,0-0.1,0-0.1,0.1v2.4
			c0,0.1,0,0.1,0.1,0.1h4.9c0.1,0,0.2,0,0.2,0.2v1.8c0,0.1-0.1,0.2-0.2,0.2h-7.3c-0.1,0-0.2-0.1-0.2-0.2V160.8z"/>
		<path id="XMLID_230_" class="st1" d="M36,160.8c0-0.1,0.1-0.2,0.2-0.2h2.1c0.1,0,0.2,0.1,0.2,0.2l3.9,11.1c0,0.1,0,0.2-0.1,0.2
			h-2.2c-0.1,0-0.2-0.1-0.2-0.2l-0.7-2h-4l-0.6,2c0,0.1-0.1,0.2-0.2,0.2h-2.2c-0.1,0-0.2-0.1-0.1-0.2L36,160.8z M35.9,167.7h2.6
			l-1.3-4h-0.1L35.9,167.7z"/>
		<path id="XMLID_178_" class="st1" d="M43.7,160.8c0-0.1,0-0.2,0.2-0.2h2c0.1,0,0.2,0.1,0.3,0.2l2.9,6.5h0.1l2.8-6.5
			c0.1-0.1,0.1-0.2,0.3-0.2h2c0.1,0,0.2,0.1,0.2,0.2v11.1c0,0.1-0.1,0.2-0.2,0.2h-1.9c-0.1,0-0.2-0.1-0.2-0.2v-6.4H52l-2.1,4.8
			c-0.1,0.2-0.2,0.2-0.3,0.2h-1.2c-0.2,0-0.3-0.1-0.3-0.2l-2.1-4.8h-0.1v6.4c0,0.1,0,0.2-0.2,0.2h-1.9c-0.1,0-0.2-0.1-0.2-0.2V160.8
			z"/>
		<path id="XMLID_176_" class="st1" d="M61.7,171.1c-0.8-0.8-1.2-1.8-1.2-3.2v-7.1c0-0.1,0.1-0.2,0.2-0.2h2.1c0.1,0,0.2,0.1,0.2,0.2
			v7.1c0,1.3,0.8,2.1,1.9,2.1c1.2,0,1.9-0.8,1.9-2.1v-7.1c0-0.1,0.1-0.2,0.2-0.2h2.1c0.1,0,0.2,0.1,0.2,0.2v7.1
			c0,1.4-0.4,2.5-1.2,3.2c-0.8,0.8-1.8,1.1-3.2,1.1C63.5,172.2,62.5,171.8,61.7,171.1z"/>
		<path id="XMLID_173_" class="st1" d="M71.5,172c-0.1,0-0.2-0.1-0.2-0.2v-11.1c0-0.1,0-0.2,0.2-0.2H76c1.2,0,2.2,0.3,2.9,1
			c0.7,0.7,1.1,1.6,1.1,2.7c0,1.1-0.4,2-1.1,2.7c-0.7,0.7-1.7,1-2.9,1h-2c-0.1,0-0.1,0-0.1,0.1v3.8c0,0.1,0,0.2-0.2,0.2H71.5z
			 M75.8,165.8c1,0,1.7-0.6,1.7-1.5c0-0.9-0.6-1.5-1.7-1.5h-1.9c-0.1,0-0.1,0-0.1,0.1v2.9c0,0.1,0,0.1,0.1,0.1H75.8z"/>
		<path id="XMLID_116_" class="st1" d="M81.5,160.8c0-0.1,0-0.2,0.2-0.2H86c2.1,0,3.4,0.9,4,2.6c0.2,0.6,0.3,1.7,0.3,3.1
			s-0.1,2.5-0.3,3.1c-0.6,1.7-1.9,2.6-4,2.6h-4.3c-0.1,0-0.2-0.1-0.2-0.2V160.8z M84,169.7c0,0.1,0,0.1,0.1,0.1h1.3
			c1.2,0,1.9-0.4,2.1-1.3c0.1-0.4,0.2-1.1,0.2-2.3s-0.1-1.9-0.2-2.3c-0.3-0.8-1-1.3-2.1-1.3h-1.3c-0.1,0-0.1,0-0.1,0.1V169.7z"/>
		<path id="XMLID_113_" class="st1" d="M94.8,160.8c0-0.1,0.1-0.2,0.2-0.2h2.1c0.1,0,0.2,0.1,0.2,0.2l3.9,11.1c0,0.1,0,0.2-0.1,0.2
			H99c-0.1,0-0.2-0.1-0.2-0.2l-0.7-2h-4l-0.6,2c0,0.1-0.1,0.2-0.2,0.2H91c-0.1,0-0.2-0.1-0.1-0.2L94.8,160.8z M94.8,167.7h2.6
			l-1.3-4h-0.1L94.8,167.7z"/>
		<path id="XMLID_111_" class="st1" d="M104,172c-0.1,0-0.2-0.1-0.2-0.2v-9c0-0.1,0-0.1-0.1-0.1h-2.9c-0.1,0-0.2-0.1-0.2-0.2v-1.9
			c0-0.1,0-0.2,0.2-0.2h8.5c0.1,0,0.2,0.1,0.2,0.2v1.9c0,0.1-0.1,0.2-0.2,0.2h-2.9c-0.1,0-0.1,0-0.1,0.1v9c0,0.1-0.1,0.2-0.2,0.2
			H104z"/>
		<path id="XMLID_109_" class="st1" d="M110.8,160.8c0-0.1,0-0.2,0.2-0.2h7.3c0.1,0,0.2,0.1,0.2,0.2v1.8c0,0.1-0.1,0.2-0.2,0.2h-4.9
			c-0.1,0-0.1,0-0.1,0.1v2.3c0,0.1,0,0.1,0.1,0.1h4.1c0.1,0,0.2,0,0.2,0.2v1.8c0,0.1-0.1,0.2-0.2,0.2h-4.1c-0.1,0-0.1,0-0.1,0.1v2.4
			c0,0.1,0,0.1,0.1,0.1h4.9c0.1,0,0.2,0,0.2,0.2v1.8c0,0.1-0.1,0.2-0.2,0.2H111c-0.1,0-0.2-0.1-0.2-0.2V160.8z"/>
		<path id="XMLID_107_" class="st1" d="M121.8,171.8c-0.8-0.3-1.4-0.7-1.9-1.1c-0.1-0.1-0.1-0.2,0-0.3l1.3-1.5
			c0.1-0.1,0.2-0.1,0.3,0c1,0.8,2,1.2,3,1.2c1.2,0,1.9-0.5,1.9-1.4c0-0.7-0.5-1.1-1.8-1.3l-0.6-0.1c-2.4-0.3-3.6-1.5-3.6-3.4
			c0-1.1,0.4-1.9,1.1-2.5c0.7-0.6,1.7-1,3-1c1.6,0,2.9,0.4,3.9,1.2c0.1,0.1,0.1,0.2,0,0.3l-1,1.5c-0.1,0.1-0.2,0.1-0.2,0.1
			c-0.9-0.6-1.8-0.9-2.7-0.9c-1,0-1.5,0.5-1.5,1.2c0,0.7,0.5,1.1,1.8,1.3l0.6,0.1c2.4,0.3,3.6,1.5,3.6,3.5c0,2.2-1.6,3.6-4.5,3.6
			C123.4,172.2,122.6,172.1,121.8,171.8z"/>
	</g>
</g>
<g id="XMLID_603_">
	<g id="XMLID_721_">
		<g id="XMLID_726_">
			<path id="XMLID_727_" class="st2" d="M50,115.7L25.2,72.5h49.6L50,115.7z M32.1,76.5L50,107.7l17.9-31.2H32.1z"/>
		</g>
		<g id="XMLID_722_">
			<path id="XMLID_723_" class="st2" d="M89.4,115.7L64.6,72.5h49.6L89.4,115.7z M71.5,76.5l17.9,31.2l17.9-31.2H71.5z"/>
		</g>
	</g>
	<g id="XMLID_717_">
		<path id="XMLID_718_" class="st2" d="M69.7,142.5l-14.1-31.8h28.1L69.7,142.5z M58.7,112.7l11,24.8l11-24.8H58.7z"/>
	</g>
	<g id="XMLID_713_">
		<path id="XMLID_714_" class="st2" d="M91.1,95.7H48.3l21.4-38.6L91.1,95.7z M51.7,93.7h36l-18-32.5L51.7,93.7z"/>
	</g>
	<g id="XMLID_709_">
		<path id="XMLID_710_" class="st2" d="M69.7,96.6L39,66l30.6-30.6L100.3,66L69.7,96.6z M44.7,66l25,25l25-25l-25-25L44.7,66z"/>
	</g>
	<g id="XMLID_672_">
		<path id="XMLID_673_" class="st2" d="M103.9,69.5h-0.3c-0.3,0-0.5-0.2-0.5-0.5c0-0.1,0-0.2,0.1-0.3l-0.9-1.8
			c-0.1-0.2,0-0.5,0.2-0.7c0.2-0.1,0.5,0,0.7,0.2l1.2,2.3c0.1,0.2,0.1,0.3,0,0.5C104.2,69.4,104.1,69.5,103.9,69.5z M100.5,69.5h-3
			c-0.3,0-0.5-0.2-0.5-0.5s0.2-0.5,0.5-0.5h3c0.3,0,0.5,0.2,0.5,0.5S100.8,69.5,100.5,69.5z M94.5,69.5h-3c-0.3,0-0.5-0.2-0.5-0.5
			s0.2-0.5,0.5-0.5h3c0.3,0,0.5,0.2,0.5,0.5S94.8,69.5,94.5,69.5z M88.5,69.5h-3c-0.3,0-0.5-0.2-0.5-0.5s0.2-0.5,0.5-0.5h3
			c0.3,0,0.5,0.2,0.5,0.5S88.8,69.5,88.5,69.5z M82.5,69.5h-3c-0.3,0-0.5-0.2-0.5-0.5s0.2-0.5,0.5-0.5h3c0.3,0,0.5,0.2,0.5,0.5
			S82.8,69.5,82.5,69.5z M76.5,69.5h-3c-0.3,0-0.5-0.2-0.5-0.5s0.2-0.5,0.5-0.5h3c0.3,0,0.5,0.2,0.5,0.5S76.8,69.5,76.5,69.5z
			 M70.5,69.5h-3c-0.3,0-0.5-0.2-0.5-0.5s0.2-0.5,0.5-0.5h3c0.3,0,0.5,0.2,0.5,0.5S70.8,69.5,70.5,69.5z M64.5,69.5h-3
			c-0.3,0-0.5-0.2-0.5-0.5s0.2-0.5,0.5-0.5h3c0.3,0,0.5,0.2,0.5,0.5S64.8,69.5,64.5,69.5z M58.5,69.5h-3c-0.3,0-0.5-0.2-0.5-0.5
			s0.2-0.5,0.5-0.5h3c0.3,0,0.5,0.2,0.5,0.5S58.8,69.5,58.5,69.5z M52.5,69.5h-3c-0.3,0-0.5-0.2-0.5-0.5s0.2-0.5,0.5-0.5h3
			c0.3,0,0.5,0.2,0.5,0.5S52.8,69.5,52.5,69.5z M46.5,69.5h-3c-0.3,0-0.5-0.2-0.5-0.5s0.2-0.5,0.5-0.5h3c0.3,0,0.5,0.2,0.5,0.5
			S46.8,69.5,46.5,69.5z M40.5,69.5h-3c-0.3,0-0.5-0.2-0.5-0.5s0.2-0.5,0.5-0.5h3c0.3,0,0.5,0.2,0.5,0.5S40.8,69.5,40.5,69.5z
			 M38.4,67.8c-0.1,0-0.2,0-0.2-0.1c-0.2-0.1-0.3-0.4-0.2-0.7l1.4-2.7c0.1-0.2,0.4-0.3,0.7-0.2c0.2,0.1,0.3,0.4,0.2,0.7l-1.4,2.7
			C38.8,67.7,38.6,67.8,38.4,67.8z M101.3,64.5c-0.2,0-0.4-0.1-0.4-0.3l-1.4-2.7c-0.1-0.2,0-0.5,0.2-0.7c0.2-0.1,0.5,0,0.7,0.2
			l1.4,2.7c0.1,0.2,0,0.5-0.2,0.7C101.4,64.5,101.3,64.5,101.3,64.5z M41.2,62.5c-0.1,0-0.2,0-0.2-0.1c-0.2-0.1-0.3-0.4-0.2-0.7
			l1.4-2.7c0.1-0.2,0.4-0.3,0.7-0.2c0.2,0.1,0.3,0.4,0.2,0.7l-1.4,2.7C41.6,62.4,41.4,62.5,41.2,62.5z M98.5,59.2
			c-0.2,0-0.4-0.1-0.4-0.3l-1.4-2.7c-0.1-0.2,0-0.5,0.2-0.7c0.2-0.1,0.5,0,0.7,0.2l1.4,2.7c0.1,0.2,0,0.5-0.2,0.7
			C98.6,59.2,98.5,59.2,98.5,59.2z M44,57.2c-0.1,0-0.2,0-0.2-0.1c-0.2-0.1-0.3-0.4-0.2-0.7l1.4-2.7c0.1-0.2,0.4-0.3,0.7-0.2
			c0.2,0.1,0.3,0.4,0.2,0.7l-1.4,2.7C44.4,57.1,44.2,57.2,44,57.2z M95.7,53.9c-0.2,0-0.4-0.1-0.4-0.3L93.8,51
			c-0.1-0.2,0-0.5,0.2-0.7c0.2-0.1,0.5,0,0.7,0.2l1.4,2.7c0.1,0.2,0,0.5-0.2,0.7C95.8,53.9,95.8,53.9,95.7,53.9z M46.8,51.9
			c-0.1,0-0.2,0-0.2-0.1c-0.2-0.1-0.3-0.4-0.2-0.7l1.4-2.7c0.1-0.2,0.4-0.3,0.7-0.2c0.2,0.1,0.3,0.4,0.2,0.7l-1.4,2.7
			C47.2,51.8,47,51.9,46.8,51.9z M92.9,48.6c-0.2,0-0.4-0.1-0.4-0.3L91,45.7c-0.1-0.2,0-0.5,0.2-0.7c0.2-0.1,0.5,0,0.7,0.2l1.4,2.7
			c0.1,0.2,0,0.5-0.2,0.7C93,48.6,93,48.6,92.9,48.6z M49.6,46.6c-0.1,0-0.2,0-0.2-0.1c-0.2-0.1-0.3-0.4-0.2-0.7l1.4-2.7
			c0.1-0.2,0.4-0.3,0.7-0.2c0.2,0.1,0.3,0.4,0.2,0.7L50,46.3C50,46.5,49.8,46.6,49.6,46.6z M90.1,43.3c-0.2,0-0.4-0.1-0.4-0.3
			l-1.4-2.7c-0.1-0.2,0-0.5,0.2-0.7c0.2-0.1,0.5,0,0.7,0.2l1.4,2.7c0.1,0.2,0,0.5-0.2,0.7C90.2,43.2,90.2,43.3,90.1,43.3z
			 M52.4,41.3c-0.1,0-0.2,0-0.2-0.1c-0.2-0.1-0.3-0.4-0.2-0.7l1.4-2.7c0.1-0.2,0.4-0.3,0.7-0.2c0.2,0.1,0.3,0.4,0.2,0.7L52.8,41
			C52.8,41.2,52.6,41.3,52.4,41.3z M87.3,38c-0.2,0-0.4-0.1-0.4-0.3L85.5,35c-0.1-0.2,0-0.5,0.2-0.7c0.2-0.1,0.5,0,0.7,0.2l1.4,2.7
			c0.1,0.2,0,0.5-0.2,0.7C87.5,37.9,87.4,38,87.3,38z M55.2,36c-0.1,0-0.2,0-0.2-0.1c-0.2-0.1-0.3-0.4-0.2-0.7l1.4-2.7
			c0.1-0.2,0.4-0.3,0.7-0.2c0.2,0.1,0.3,0.4,0.2,0.7l-1.4,2.7C55.5,35.9,55.4,36,55.2,36z M84.5,32.6c-0.2,0-0.4-0.1-0.4-0.3
			l-1.4-2.7c-0.1-0.2,0-0.5,0.2-0.7c0.2-0.1,0.5,0,0.7,0.2l1.4,2.7c0.1,0.2,0,0.5-0.2,0.7C84.7,32.6,84.6,32.6,84.5,32.6z M58,30.6
			c-0.1,0-0.2,0-0.2-0.1c-0.2-0.1-0.3-0.4-0.2-0.7l1.4-2.7c0.1-0.2,0.4-0.3,0.7-0.2c0.2,0.1,0.3,0.4,0.2,0.7l-1.4,2.7
			C58.3,30.5,58.2,30.6,58,30.6z M81.7,27.3c-0.2,0-0.4-0.1-0.4-0.3l-1.4-2.7c-0.1-0.2,0-0.5,0.2-0.7c0.2-0.1,0.5,0,0.7,0.2l1.4,2.7
			c0.1,0.2,0,0.5-0.2,0.7C81.9,27.3,81.8,27.3,81.7,27.3z M60.8,25.3c-0.1,0-0.2,0-0.2-0.1c-0.2-0.1-0.3-0.4-0.2-0.7l1.4-2.7
			c0.1-0.2,0.4-0.3,0.7-0.2c0.2,0.1,0.3,0.4,0.2,0.7l-1.4,2.7C61.1,25.2,61,25.3,60.8,25.3z M78.9,22c-0.2,0-0.4-0.1-0.4-0.3
			l-1.4-2.7c-0.1-0.2,0-0.5,0.2-0.7c0.2-0.1,0.5,0,0.7,0.2l1.4,2.7c0.1,0.2,0,0.5-0.2,0.7C79.1,22,79,22,78.9,22z M63.6,20
			c-0.1,0-0.2,0-0.2-0.1c-0.2-0.1-0.3-0.4-0.2-0.7l1.4-2.7c0.1-0.2,0.4-0.3,0.7-0.2c0.2,0.1,0.3,0.4,0.2,0.7L64,19.8
			C63.9,19.9,63.7,20,63.6,20z M76.1,16.7c-0.2,0-0.4-0.1-0.4-0.3l-1.4-2.7c-0.1-0.2,0-0.5,0.2-0.7c0.2-0.1,0.5,0,0.7,0.2l1.4,2.7
			c0.1,0.2,0,0.5-0.2,0.7C76.3,16.7,76.2,16.7,76.1,16.7z M66.4,14.7c-0.1,0-0.2,0-0.2-0.1c-0.2-0.1-0.3-0.4-0.2-0.7l1.4-2.7
			c0.1-0.2,0.4-0.3,0.7-0.2c0.2,0.1,0.3,0.4,0.2,0.7l-1.4,2.7C66.7,14.6,66.5,14.7,66.4,14.7z M73.3,11.4c-0.2,0-0.4-0.1-0.4-0.3
			l-1.4-2.7c-0.1-0.2,0-0.5,0.2-0.7c0.2-0.1,0.5,0,0.7,0.2l1.4,2.7c0.1,0.2,0,0.5-0.2,0.7C73.5,11.4,73.4,11.4,73.3,11.4z M69.1,9.4
			c-0.1,0-0.2,0-0.2-0.1c-0.2-0.1-0.3-0.4-0.2-0.7L70.1,6c0.1-0.2,0.4-0.3,0.7-0.2C71,5.9,71.1,6.2,71,6.5l-1.4,2.7
			C69.5,9.3,69.3,9.4,69.1,9.4z"/>
	</g>
	<g id="XMLID_668_">
		<path id="XMLID_669_" class="st2" d="M69.7,51.4c-11.8,0-21.5-9.6-21.5-21.5S57.8,8.5,69.7,8.5s21.5,9.6,21.5,21.5
			S81.5,51.4,69.7,51.4z M69.7,10.5c-10.7,0-19.5,8.7-19.5,19.5s8.7,19.5,19.5,19.5s19.5-8.7,19.5-19.5S80.4,10.5,69.7,10.5z"/>
	</g>
	<g id="XMLID_646_">
		<path id="XMLID_647_" class="st2" d="M103.9,88.5c-0.9,0-1.9-0.1-2.8-0.2c-0.3,0-0.5-0.3-0.4-0.6c0-0.3,0.3-0.5,0.6-0.4
			c0.9,0.1,1.8,0.2,2.7,0.2l0.3,0c0.3,0,0.5,0.2,0.5,0.5c0,0.3-0.2,0.5-0.5,0.5L103.9,88.5z M107.1,88.3c-0.2,0-0.5-0.2-0.5-0.4
			c0-0.3,0.1-0.5,0.4-0.6c1-0.2,1.9-0.4,2.8-0.7c0.3-0.1,0.5,0.1,0.6,0.3c0.1,0.3-0.1,0.5-0.3,0.6C109.2,87.8,108.2,88.1,107.1,88.3
			C107.2,88.3,107.2,88.3,107.1,88.3z M98.2,87.7c0,0-0.1,0-0.1,0c-1-0.3-1.9-0.7-2.9-1.1c-0.2-0.1-0.4-0.4-0.2-0.7
			c0.1-0.2,0.4-0.4,0.7-0.2c0.9,0.4,1.8,0.8,2.7,1.1c0.3,0.1,0.4,0.4,0.3,0.6C98.6,87.5,98.4,87.7,98.2,87.7z M112.8,86.4
			c-0.2,0-0.4-0.1-0.4-0.3c-0.1-0.2,0-0.5,0.2-0.7c0.9-0.4,1.7-1,2.5-1.5c0.2-0.2,0.5-0.1,0.7,0.1c0.2,0.2,0.1,0.5-0.1,0.7
			c-0.8,0.6-1.7,1.2-2.6,1.6C112.9,86.3,112.9,86.4,112.8,86.4z M92.9,85.1c-0.1,0-0.2,0-0.3-0.1c-0.8-0.6-1.6-1.2-2.4-2
			c-0.2-0.2-0.2-0.5,0-0.7c0.2-0.2,0.5-0.2,0.7,0c0.7,0.7,1.5,1.3,2.3,1.9c0.2,0.2,0.3,0.5,0.1,0.7C93.2,85,93,85.1,92.9,85.1z
			 M117.6,82.8c-0.1,0-0.3,0-0.4-0.1c-0.2-0.2-0.2-0.5,0-0.7c0.7-0.7,1.3-1.4,1.9-2.2c0.2-0.2,0.5-0.3,0.7-0.1
			c0.2,0.2,0.3,0.5,0.1,0.7c-0.6,0.8-1.3,1.6-2,2.3C117.9,82.8,117.7,82.8,117.6,82.8z M88.6,80.9c-0.2,0-0.3-0.1-0.4-0.2
			c-0.6-0.8-1.2-1.7-1.7-2.6c-0.1-0.2,0-0.5,0.2-0.7c0.2-0.1,0.5,0,0.7,0.2c0.5,0.9,1,1.7,1.6,2.5c0.2,0.2,0.1,0.5-0.1,0.7
			C88.8,80.9,88.7,80.9,88.6,80.9z M121.1,78c-0.1,0-0.2,0-0.2-0.1c-0.2-0.1-0.3-0.4-0.2-0.7c0.4-0.9,0.8-1.8,1.1-2.7
			c0.1-0.3,0.4-0.4,0.6-0.3c0.3,0.1,0.4,0.4,0.3,0.6c-0.3,1-0.7,1.9-1.2,2.8C121.4,77.8,121.3,78,121.1,78z M85.7,75.7
			c-0.2,0-0.4-0.1-0.5-0.3c-0.3-1-0.6-2-0.8-3c0-0.3,0.1-0.5,0.4-0.6c0.3,0,0.5,0.1,0.6,0.4c0.2,1,0.4,1.9,0.7,2.8
			c0.1,0.3,0,0.5-0.3,0.6C85.8,75.7,85.8,75.7,85.7,75.7z M122.9,72.3C122.9,72.3,122.9,72.3,122.9,72.3c-0.4,0-0.5-0.3-0.5-0.6
			c0.1-1,0.2-1.9,0.2-2.9c0-0.3,0-0.7,0-1c0-0.3,0.2-0.5,0.5-0.5c0.3,0,0.5,0.2,0.5,0.5c0,0.3,0,0.7,0,1.1c0,1-0.1,2.1-0.2,3.1
			C123.4,72.1,123.2,72.3,122.9,72.3z M84.6,69.8c-0.3,0-0.5-0.2-0.5-0.5c0-0.2,0-0.4,0-0.5c0-0.9,0.1-1.7,0.2-2.5
			c0-0.3,0.3-0.5,0.6-0.4c0.3,0,0.5,0.3,0.4,0.6c-0.1,0.8-0.2,1.6-0.2,2.4c0,0.2,0,0.3,0,0.5C85.1,69.6,84.9,69.8,84.6,69.8
			C84.7,69.8,84.6,69.8,84.6,69.8z M122.7,65.3c-0.2,0-0.4-0.2-0.5-0.4c-0.2-1-0.5-1.9-0.8-2.8c-0.1-0.3,0-0.5,0.3-0.6
			c0.3-0.1,0.5,0,0.6,0.3c0.4,1,0.7,1.9,0.9,2.9c0.1,0.3-0.1,0.5-0.4,0.6C122.8,65.3,122.8,65.3,122.7,65.3z M85.4,63.9
			c0,0-0.1,0-0.1,0c-0.3-0.1-0.4-0.4-0.3-0.6c0.3-1,0.7-2,1.1-2.9c0.1-0.3,0.4-0.4,0.7-0.2c0.3,0.1,0.4,0.4,0.2,0.7
			c-0.4,0.9-0.8,1.8-1,2.7C85.8,63.7,85.6,63.9,85.4,63.9z M120.6,59.7c-0.2,0-0.3-0.1-0.4-0.3c-0.5-0.8-1-1.6-1.6-2.4
			c-0.2-0.2-0.1-0.5,0.1-0.7c0.2-0.2,0.5-0.1,0.7,0.1c0.6,0.8,1.2,1.7,1.7,2.5c0.1,0.2,0.1,0.5-0.2,0.7
			C120.8,59.7,120.7,59.7,120.6,59.7z M88,58.5c-0.1,0-0.2,0-0.3-0.1c-0.2-0.2-0.3-0.5-0.1-0.7c0.6-0.8,1.2-1.7,1.9-2.4
			c0.2-0.2,0.5-0.2,0.7,0s0.2,0.5,0,0.7c-0.7,0.7-1.3,1.5-1.8,2.3C88.3,58.4,88.1,58.5,88,58.5z M116.9,55c-0.1,0-0.2,0-0.3-0.1
			c-0.7-0.7-1.5-1.3-2.3-1.8c-0.2-0.2-0.3-0.5-0.1-0.7c0.2-0.2,0.5-0.3,0.7-0.1c0.9,0.6,1.7,1.2,2.4,1.9c0.2,0.2,0.2,0.5,0,0.7
			C117.1,55,117,55,116.9,55z M92,54.1c-0.1,0-0.3-0.1-0.4-0.2c-0.2-0.2-0.1-0.5,0.1-0.7c0.8-0.6,1.7-1.2,2.6-1.7
			c0.2-0.1,0.5,0,0.7,0.2c0.1,0.2,0,0.5-0.2,0.7c-0.8,0.5-1.7,1-2.4,1.6C92.3,54.1,92.1,54.1,92,54.1z M111.9,51.7
			c-0.1,0-0.1,0-0.2,0c-0.9-0.4-1.8-0.7-2.7-1c-0.3-0.1-0.4-0.3-0.3-0.6c0.1-0.3,0.3-0.4,0.6-0.3c1,0.3,2,0.6,2.9,1.1
			c0.3,0.1,0.4,0.4,0.2,0.7C112.2,51.6,112.1,51.7,111.9,51.7z M97.3,51.2c-0.2,0-0.4-0.1-0.5-0.3c-0.1-0.3,0-0.5,0.3-0.6
			c1-0.4,2-0.6,3-0.8c0.3-0.1,0.5,0.1,0.6,0.4s-0.1,0.5-0.4,0.6c-1,0.2-1.9,0.5-2.8,0.8C97.4,51.2,97.3,51.2,97.3,51.2z M106.1,50.1
			C106.1,50.1,106.1,50.1,106.1,50.1c-1-0.1-2-0.2-3-0.1c-0.3,0-0.5-0.2-0.5-0.5s0.2-0.5,0.5-0.5c1,0,2.1,0,3.1,0.1
			c0.3,0,0.5,0.3,0.4,0.6C106.6,50,106.4,50.1,106.1,50.1z"/>
	</g>
	<g id="XMLID_624_">
		<path id="XMLID_625_" class="st2" d="M37.5,88.8c-0.9,0-1.9-0.1-2.8-0.2c-0.3,0-0.5-0.3-0.4-0.6c0-0.3,0.3-0.5,0.6-0.4
			c0.9,0.1,1.8,0.2,2.7,0.2l0.3,0c0.3,0,0.5,0.2,0.5,0.5c0,0.3-0.2,0.5-0.5,0.5L37.5,88.8z M40.8,88.5c-0.2,0-0.5-0.2-0.5-0.4
			c0-0.3,0.1-0.5,0.4-0.6c1-0.2,1.9-0.4,2.8-0.7c0.3-0.1,0.5,0.1,0.6,0.3c0.1,0.3-0.1,0.5-0.3,0.6C42.9,88.1,41.9,88.3,40.8,88.5
			C40.8,88.5,40.8,88.5,40.8,88.5z M31.9,87.9c0,0-0.1,0-0.1,0c-1-0.3-1.9-0.7-2.9-1.1c-0.2-0.1-0.4-0.4-0.2-0.7
			c0.1-0.2,0.4-0.3,0.7-0.2c0.9,0.4,1.8,0.8,2.7,1.1c0.3,0.1,0.4,0.4,0.3,0.6C32.3,87.8,32.1,87.9,31.9,87.9z M46.4,86.6
			c-0.2,0-0.4-0.1-0.4-0.3c-0.1-0.2,0-0.5,0.2-0.7c0.9-0.4,1.7-1,2.5-1.5c0.2-0.2,0.5-0.1,0.7,0.1c0.2,0.2,0.1,0.5-0.1,0.7
			c-0.8,0.6-1.7,1.2-2.6,1.6C46.6,86.6,46.5,86.6,46.4,86.6z M26.5,85.3c-0.1,0-0.2,0-0.3-0.1c-0.8-0.6-1.6-1.2-2.4-2
			c-0.2-0.2-0.2-0.5,0-0.7c0.2-0.2,0.5-0.2,0.7,0c0.7,0.7,1.5,1.3,2.3,1.9c0.2,0.2,0.3,0.5,0.1,0.7C26.8,85.2,26.7,85.3,26.5,85.3z
			 M51.2,83c-0.1,0-0.3,0-0.4-0.1c-0.2-0.2-0.2-0.5,0-0.7c0.7-0.7,1.3-1.4,1.9-2.2c0.2-0.2,0.5-0.3,0.7-0.1c0.2,0.2,0.3,0.5,0.1,0.7
			c-0.6,0.8-1.3,1.6-2,2.3C51.5,83,51.4,83,51.2,83z M22.2,81.2c-0.2,0-0.3-0.1-0.4-0.2c-0.6-0.8-1.2-1.7-1.7-2.6
			c-0.1-0.2,0-0.5,0.2-0.7c0.2-0.1,0.5,0,0.7,0.2c0.5,0.9,1,1.7,1.6,2.5c0.2,0.2,0.1,0.5-0.1,0.7C22.4,81.1,22.3,81.2,22.2,81.2z
			 M54.7,78.2c-0.1,0-0.2,0-0.2-0.1c-0.2-0.1-0.3-0.4-0.2-0.7c0.4-0.9,0.8-1.8,1.1-2.7c0.1-0.3,0.4-0.4,0.6-0.3
			c0.3,0.1,0.4,0.4,0.3,0.6c-0.3,1-0.7,1.9-1.2,2.8C55.1,78.1,54.9,78.2,54.7,78.2z M19.4,75.9c-0.2,0-0.4-0.1-0.5-0.3
			c-0.3-1-0.6-2-0.8-3c0-0.3,0.1-0.5,0.4-0.6c0.3-0.1,0.5,0.1,0.6,0.4c0.2,1,0.4,1.9,0.7,2.8c0.1,0.3,0,0.5-0.3,0.6
			C19.5,75.9,19.4,75.9,19.4,75.9z M56.6,72.5C56.5,72.5,56.5,72.5,56.6,72.5c-0.4,0-0.5-0.3-0.5-0.6c0.1-1,0.2-1.9,0.2-2.9
			c0-0.3,0-0.7,0-1c0-0.3,0.2-0.5,0.5-0.5c0.3,0,0.5,0.2,0.5,0.5c0,0.3,0,0.7,0,1.1c0,1-0.1,2.1-0.2,3.1
			C57,72.3,56.8,72.5,56.6,72.5z M18.3,70c-0.3,0-0.5-0.2-0.5-0.5c0-0.2,0-0.4,0-0.5c0-0.9,0.1-1.7,0.2-2.5c0-0.3,0.3-0.5,0.6-0.4
			c0.3,0,0.5,0.3,0.4,0.6c-0.1,0.8-0.2,1.6-0.2,2.4c0,0.2,0,0.3,0,0.5C18.8,69.8,18.6,70,18.3,70C18.3,70,18.3,70,18.3,70z
			 M56.4,65.5c-0.2,0-0.4-0.2-0.5-0.4c-0.2-1-0.5-1.9-0.8-2.8c-0.1-0.3,0-0.5,0.3-0.6c0.3-0.1,0.5,0,0.6,0.3c0.4,1,0.7,1.9,0.9,2.9
			c0.1,0.3-0.1,0.5-0.4,0.6C56.4,65.5,56.4,65.5,56.4,65.5z M19.1,64.1c0,0-0.1,0-0.1,0c-0.3-0.1-0.4-0.4-0.3-0.6
			c0.3-1,0.7-2,1.1-2.9c0.1-0.3,0.4-0.4,0.7-0.2c0.3,0.1,0.4,0.4,0.2,0.7c-0.4,0.9-0.8,1.8-1,2.7C19.5,64,19.3,64.1,19.1,64.1z
			 M54.3,59.9c-0.2,0-0.3-0.1-0.4-0.3c-0.5-0.8-1-1.6-1.6-2.4c-0.2-0.2-0.1-0.5,0.1-0.7c0.2-0.2,0.5-0.1,0.7,0.1
			c0.6,0.8,1.2,1.7,1.7,2.5c0.1,0.2,0.1,0.5-0.2,0.7C54.4,59.9,54.3,59.9,54.3,59.9z M21.6,58.7c-0.1,0-0.2,0-0.3-0.1
			c-0.2-0.2-0.3-0.5-0.1-0.7c0.6-0.8,1.2-1.7,1.9-2.4c0.2-0.2,0.5-0.2,0.7,0c0.2,0.2,0.2,0.5,0,0.7c-0.7,0.7-1.3,1.5-1.8,2.3
			C21.9,58.6,21.8,58.7,21.6,58.7z M50.5,55.3c-0.1,0-0.2,0-0.3-0.1c-0.7-0.7-1.5-1.3-2.3-1.8c-0.2-0.2-0.3-0.5-0.1-0.7
			c0.2-0.2,0.5-0.3,0.7-0.1c0.9,0.6,1.7,1.2,2.4,1.9c0.2,0.2,0.2,0.5,0,0.7C50.8,55.2,50.6,55.3,50.5,55.3z M25.7,54.3
			c-0.1,0-0.3-0.1-0.4-0.2c-0.2-0.2-0.1-0.5,0.1-0.7c0.8-0.6,1.7-1.2,2.6-1.7c0.2-0.1,0.5,0,0.7,0.2c0.1,0.2,0,0.5-0.2,0.7
			c-0.8,0.5-1.7,1-2.4,1.6C25.9,54.3,25.8,54.3,25.7,54.3z M45.5,52c-0.1,0-0.1,0-0.2,0c-0.9-0.4-1.8-0.7-2.7-1
			c-0.3-0.1-0.4-0.3-0.3-0.6c0.1-0.3,0.3-0.4,0.6-0.3c1,0.3,2,0.6,2.9,1.1c0.3,0.1,0.4,0.4,0.2,0.7C45.9,51.9,45.7,52,45.5,52z
			 M30.9,51.4c-0.2,0-0.4-0.1-0.5-0.3c-0.1-0.3,0-0.5,0.3-0.6c1-0.4,2-0.6,3-0.8c0.3-0.1,0.5,0.1,0.6,0.4c0.1,0.3-0.1,0.5-0.4,0.6
			c-1,0.2-1.9,0.5-2.8,0.8C31,51.4,31,51.4,30.9,51.4z M39.8,50.4C39.7,50.4,39.7,50.4,39.8,50.4c-1-0.1-2-0.1-3-0.1
			c-0.3,0-0.5-0.2-0.5-0.5c0-0.3,0.2-0.5,0.5-0.5c1,0,2.1,0,3.1,0.1c0.3,0,0.5,0.3,0.4,0.6C40.2,50.2,40,50.4,39.8,50.4z"/>
	</g>
	<g id="XMLID_620_">
		<path id="XMLID_621_" class="st2" d="M52.2,69.5c-11.6,0-21-9.4-21-21s9.4-21,21-21s21,9.4,21,21S63.7,69.5,52.2,69.5z M52.2,28.5
			c-11,0-20,9-20,20s9,20,20,20s20-9,20-20S63.2,28.5,52.2,28.5z"/>
	</g>
	<g id="XMLID_616_">
		<path id="XMLID_617_" class="st2" d="M82.2,69.5c-11.6,0-21-9.4-21-21s9.4-21,21-21s21,9.4,21,21S93.8,69.5,82.2,69.5z M82.2,28.5
			c-11,0-20,9-20,20s9,20,20,20s20-9,20-20S93.2,28.5,82.2,28.5z"/>
	</g>
	<g id="XMLID_614_">
		<circle id="XMLID_615_" class="st2" cx="70.7" cy="5.9" r="5.9"/>
	</g>
	<g id="XMLID_612_">
		<polygon id="XMLID_613_" class="st2" points="84.7,126.4 69.7,99.8 55.7,126.3 45,107.1 48.5,105.2 55.6,117.9 69.6,91.4 
			84.5,117.9 92,103.2 95.5,105 		"/>
	</g>
	<g id="XMLID_608_">
		<path id="XMLID_609_" class="st2" d="M126.3,75.6l0.5-2c0.4-1.6,0.7-3.2,0.7-4.8s-0.2-3.2-0.7-4.8l-0.5-2l15.3,6.8L126.3,75.6z
			 M129.3,65.5c0.2,1.1,0.3,2.2,0.3,3.3s-0.1,2.2-0.3,3.3l7.5-3.3L129.3,65.5z"/>
	</g>
	<g id="XMLID_604_">
		<path id="XMLID_605_" class="st2" d="M15.3,75.8L0,69l15.3-6.8l-0.5,2c-0.4,1.6-0.7,3.2-0.7,4.8s0.2,3.2,0.7,4.8L15.3,75.8z
			 M4.9,69l7.5,3.3c-0.2-1.1-0.3-2.2-0.3-3.3s0.1-2.2,0.3-3.3L4.9,69z"/>
	</g>
</g>
</svg>
