<?xml version="1.0" encoding="UTF-8" standalone="no"?>
<svg
   xmlns:dc="http://purl.org/dc/elements/1.1/"
   xmlns:cc="http://creativecommons.org/ns#"
   xmlns:rdf="http://www.w3.org/1999/02/22-rdf-syntax-ns#"
   xmlns:svg="http://www.w3.org/2000/svg"
   xmlns="http://www.w3.org/2000/svg"
   width="184"
   height="185.3094"
   viewBox="0 0 184 185.3094"
   id="svg9176"
   version="1.1">
  <defs
     id="defs9178" />
  <metadata
     id="metadata9181">
    <rdf:RDF>
      <cc:Work
         rdf:about="">
        <dc:format>image/svg+xml</dc:format>
        <dc:type
           rdf:resource="http://purl.org/dc/dcmitype/StillImage" />
        <dc:title></dc:title>
      </cc:Work>
    </rdf:RDF>
  </metadata>
  <g
     id="layer1"
     transform="translate(0.817874,-433.99322)">
    <g
       id="g7552"
       transform="matrix(1.25,0,0,-1.25,148.01247,466.47462)">
      <path
         d="m 0,0 c -0.02,0 -0.04,0.001 -0.06,0.003 -0.961,0.113 -1.946,0.147 -2.911,0.102 -0.278,-0.014 -0.51,0.201 -0.522,0.477 -0.014,0.276 0.2,0.51 0.475,0.522 1.022,0.047 2.061,0.012 3.076,-0.107 C 0.332,0.964 0.528,0.716 0.495,0.441 0.466,0.187 0.25,0 0,0 m -8.829,-1.16 c -0.198,0 -0.386,0.118 -0.464,0.314 -0.103,0.256 0.022,0.547 0.278,0.65 0.952,0.382 1.943,0.685 2.945,0.902 0.273,0.06 0.535,-0.114 0.593,-0.383 0.059,-0.27 -0.112,-0.536 -0.382,-0.594 -0.947,-0.206 -1.884,-0.493 -2.785,-0.854 -0.06,-0.024 -0.123,-0.035 -0.185,-0.035 M 5.729,-1.68 c -0.074,0 -0.148,0.016 -0.218,0.05 C 4.64,-1.206 3.726,-0.852 2.794,-0.579 2.529,-0.501 2.377,-0.224 2.455,0.042 2.532,0.306 2.806,0.458 3.075,0.381 4.06,0.092 5.026,-0.282 5.948,-0.73 6.196,-0.852 6.3,-1.151 6.179,-1.399 6.093,-1.577 5.914,-1.68 5.729,-1.68 m -19.652,-2.591 c -0.14,0 -0.279,0.058 -0.378,0.172 -0.18,0.208 -0.158,0.524 0.051,0.705 0.773,0.671 1.609,1.283 2.484,1.818 0.235,0.141 0.543,0.07 0.688,-0.166 0.143,-0.236 0.069,-0.544 -0.166,-0.688 -0.828,-0.506 -1.619,-1.084 -2.352,-1.719 -0.093,-0.082 -0.211,-0.122 -0.327,-0.122 m 24.516,-0.875 c -0.128,0 -0.256,0.048 -0.354,0.146 -0.688,0.687 -1.436,1.32 -2.223,1.882 -0.226,0.16 -0.278,0.472 -0.118,0.698 0.161,0.225 0.474,0.275 0.698,0.116 0.833,-0.593 1.623,-1.262 2.35,-1.988 0.196,-0.196 0.196,-0.512 0,-0.708 -0.097,-0.098 -0.225,-0.146 -0.353,-0.146 m -28.321,-3.729 c -0.084,0 -0.17,0.022 -0.25,0.067 -0.239,0.139 -0.321,0.445 -0.182,0.683 0.511,0.885 1.102,1.736 1.757,2.529 0.175,0.213 0.492,0.242 0.704,0.067 0.213,-0.176 0.243,-0.491 0.067,-0.704 -0.62,-0.75 -1.18,-1.555 -1.663,-2.392 -0.093,-0.16 -0.261,-0.25 -0.433,-0.25 m 31.788,-1.132 c -0.185,0 -0.363,0.103 -0.45,0.28 -0.425,0.873 -0.926,1.715 -1.489,2.503 -0.16,0.225 -0.108,0.537 0.117,0.698 0.225,0.159 0.536,0.109 0.698,-0.117 0.593,-0.833 1.124,-1.723 1.573,-2.645 0.121,-0.248 0.018,-0.547 -0.231,-0.669 -0.07,-0.034 -0.144,-0.05 -0.218,-0.05 m -33.872,-4.463 c -0.032,0 -0.064,0.003 -0.095,0.009 -0.272,0.052 -0.449,0.315 -0.398,0.586 0.195,1.009 0.474,2.007 0.831,2.964 0.097,0.26 0.387,0.39 0.644,0.294 0.259,-0.097 0.391,-0.385 0.294,-0.643 -0.339,-0.906 -0.604,-1.849 -0.786,-2.804 -0.046,-0.239 -0.256,-0.406 -0.49,-0.406 m 35.55,-1.265 c -0.249,0 -0.466,0.187 -0.495,0.442 -0.114,0.963 -0.31,1.923 -0.583,2.852 -0.078,0.265 0.073,0.543 0.339,0.621 0.265,0.076 0.543,-0.074 0.62,-0.34 0.288,-0.982 0.496,-1.996 0.616,-3.016 0.034,-0.274 -0.163,-0.523 -0.437,-0.555 -0.02,-0.003 -0.04,-0.004 -0.06,-0.004 m -35.694,-4.703 c -0.244,0 -0.459,0.18 -0.494,0.429 -0.123,0.866 -0.186,1.752 -0.186,2.634 l 0.005,0.438 c 0.006,0.272 0.229,0.489 0.5,0.489 l 0.011,0 c 0.275,-0.006 0.495,-0.234 0.489,-0.51 l -0.005,-0.417 c 0,-0.835 0.06,-1.674 0.176,-2.493 0.039,-0.274 -0.151,-0.527 -0.425,-0.566 -0.023,-0.003 -0.048,-0.004 -0.071,-0.004 M 15.62,-20.86 c -0.027,0 -0.056,0.002 -0.083,0.006 -0.272,0.046 -0.457,0.304 -0.411,0.576 0.159,0.951 0.239,1.927 0.239,2.903 0,0.276 0.224,0.5 0.5,0.5 0.277,0 0.5,-0.224 0.5,-0.5 0,-1.031 -0.085,-2.063 -0.253,-3.068 -0.041,-0.244 -0.253,-0.417 -0.492,-0.417 m -33.759,-5.266 c -0.18,0 -0.355,0.099 -0.444,0.271 -0.472,0.912 -0.868,1.869 -1.179,2.844 -0.084,0.263 0.062,0.545 0.325,0.629 0.262,0.085 0.545,-0.063 0.628,-0.325 0.293,-0.922 0.668,-1.827 1.115,-2.689 0.127,-0.246 0.03,-0.547 -0.215,-0.674 -0.073,-0.038 -0.152,-0.056 -0.23,-0.056 m 31.805,-0.377 c -0.082,0 -0.164,0.02 -0.24,0.062 -0.242,0.132 -0.331,0.436 -0.198,0.678 0.465,0.851 0.863,1.747 1.179,2.663 0.09,0.261 0.375,0.4 0.636,0.309 0.262,-0.09 0.399,-0.375 0.31,-0.636 -0.335,-0.969 -0.755,-1.916 -1.249,-2.816 -0.09,-0.166 -0.261,-0.26 -0.438,-0.26 m -28.224,-4.4 c -0.124,0 -0.248,0.046 -0.344,0.138 -0.743,0.708 -1.43,1.482 -2.045,2.302 -0.165,0.221 -0.12,0.534 0.1,0.7 0.22,0.165 0.534,0.122 0.701,-0.1 0.581,-0.776 1.232,-1.509 1.933,-2.178 0.2,-0.19 0.208,-0.507 0.017,-0.707 -0.098,-0.103 -0.23,-0.155 -0.362,-0.155 m 24.53,-0.293 c -0.136,0 -0.272,0.055 -0.37,0.163 -0.186,0.204 -0.171,0.521 0.033,0.706 0.719,0.655 1.386,1.372 1.986,2.133 0.172,0.216 0.485,0.253 0.702,0.083 0.217,-0.171 0.254,-0.485 0.083,-0.702 -0.633,-0.804 -1.339,-1.562 -2.097,-2.253 -0.096,-0.087 -0.217,-0.13 -0.337,-0.13 m -19.586,-3.058 c -0.071,0 -0.141,0.015 -0.208,0.046 -0.932,0.426 -1.835,0.934 -2.684,1.51 -0.228,0.155 -0.288,0.466 -0.134,0.694 0.156,0.229 0.467,0.288 0.695,0.133 0.803,-0.545 1.657,-1.025 2.539,-1.428 0.251,-0.115 0.361,-0.412 0.247,-0.663 -0.084,-0.184 -0.266,-0.292 -0.455,-0.292 m 14.567,-0.172 c -0.193,0 -0.378,0.113 -0.46,0.303 -0.108,0.253 0.009,0.547 0.263,0.656 0.89,0.382 1.755,0.842 2.57,1.367 0.23,0.149 0.542,0.082 0.691,-0.15 0.15,-0.232 0.083,-0.542 -0.15,-0.691 -0.862,-0.556 -1.776,-1.041 -2.717,-1.445 -0.064,-0.028 -0.13,-0.04 -0.197,-0.04 m -8.798,-1.369 c -0.015,0 -0.032,0 -0.048,0.002 -1.024,0.096 -2.044,0.279 -3.03,0.543 -0.266,0.071 -0.426,0.345 -0.354,0.612 0.072,0.265 0.342,0.427 0.612,0.354 0.933,-0.25 1.897,-0.422 2.866,-0.514 0.276,-0.026 0.477,-0.269 0.451,-0.544 -0.024,-0.259 -0.242,-0.453 -0.497,-0.453 m 2.994,-0.036 c -0.259,0 -0.479,0.201 -0.498,0.465 -0.019,0.275 0.189,0.514 0.464,0.533 0.969,0.069 1.937,0.219 2.878,0.446 0.27,0.066 0.538,-0.1 0.604,-0.368 0.064,-0.268 -0.101,-0.538 -0.369,-0.603 -0.995,-0.241 -2.018,-0.4 -3.042,-0.472 -0.012,-0.001 -0.024,-0.001 -0.037,-0.001"
         style="fill:#ffffff;fill-opacity:1;fill-rule:nonzero;stroke:none"
         id="path7554" />
    </g>
    <g
       id="g7556"
       transform="matrix(1.25,0,0,-1.25,127.28127,459.07652)">
      <path
         d="m 0,0 c -0.242,0 -0.455,0.177 -0.493,0.423 -0.042,0.273 0.144,0.529 0.418,0.571 0.999,0.155 2.019,0.259 3.032,0.31 C 3.256,1.318 3.469,1.105 3.481,0.83 3.496,0.554 3.283,0.319 3.008,0.305 2.029,0.256 1.043,0.155 0.077,0.006 0.052,0.002 0.025,0 0,0 M 8.964,-0.006 C 8.938,-0.006 8.912,-0.004 8.886,0 7.924,0.15 6.938,0.252 5.956,0.303 5.68,0.318 5.468,0.553 5.482,0.829 5.497,1.104 5.732,1.312 6.007,1.302 7.024,1.25 8.045,1.144 9.04,0.988 9.313,0.945 9.5,0.69 9.457,0.417 9.418,0.17 9.206,-0.006 8.964,-0.006 m -14.753,-1.52 c -0.202,0 -0.392,0.123 -0.468,0.323 -0.097,0.258 0.032,0.547 0.291,0.645 0.948,0.359 1.925,0.672 2.904,0.93 0.265,0.069 0.541,-0.09 0.611,-0.356 0.07,-0.267 -0.089,-0.541 -0.357,-0.611 -0.944,-0.249 -1.888,-0.551 -2.804,-0.899 -0.058,-0.022 -0.118,-0.032 -0.177,-0.032 m 20.54,-0.013 c -0.06,0 -0.119,0.011 -0.178,0.033 -0.919,0.349 -1.862,0.652 -2.804,0.902 -0.267,0.07 -0.426,0.344 -0.356,0.611 0.07,0.266 0.341,0.425 0.611,0.355 0.976,-0.258 1.954,-0.572 2.905,-0.933 0.258,-0.098 0.387,-0.387 0.29,-0.645 -0.076,-0.2 -0.267,-0.323 -0.468,-0.323 m -25.889,-2.678 c -0.164,0 -0.325,0.081 -0.421,0.231 -0.149,0.232 -0.081,0.541 0.152,0.69 0.852,0.546 1.744,1.055 2.649,1.51 0.244,0.124 0.546,0.026 0.671,-0.222 0.124,-0.246 0.025,-0.547 -0.222,-0.671 -0.874,-0.44 -1.735,-0.931 -2.559,-1.459 -0.083,-0.053 -0.177,-0.079 -0.27,-0.079 m 31.235,-0.021 c -0.093,0 -0.187,0.026 -0.271,0.08 -0.825,0.53 -1.685,1.022 -2.557,1.462 -0.247,0.125 -0.345,0.425 -0.221,0.672 0.124,0.247 0.426,0.346 0.672,0.221 0.902,-0.456 1.793,-0.965 2.647,-1.514 0.233,-0.149 0.3,-0.459 0.151,-0.691 -0.096,-0.149 -0.257,-0.23 -0.421,-0.23 m -35.916,-3.713 c -0.13,0 -0.259,0.05 -0.357,0.15 -0.193,0.197 -0.191,0.513 0.006,0.707 0.725,0.712 1.493,1.392 2.284,2.022 0.215,0.171 0.531,0.137 0.702,-0.079 0.173,-0.216 0.137,-0.531 -0.079,-0.703 -0.764,-0.609 -1.507,-1.266 -2.206,-1.954 -0.097,-0.095 -0.223,-0.143 -0.35,-0.143 m 40.593,-0.027 c -0.127,0 -0.253,0.048 -0.35,0.144 -0.699,0.688 -1.441,1.346 -2.204,1.957 -0.216,0.172 -0.25,0.487 -0.078,0.703 0.173,0.215 0.487,0.249 0.703,0.078 0.79,-0.633 1.557,-1.314 2.28,-2.026 0.197,-0.193 0.199,-0.51 0.006,-0.707 -0.098,-0.099 -0.228,-0.149 -0.357,-0.149 m -44.412,-4.586 c -0.095,0 -0.192,0.027 -0.277,0.084 -0.23,0.153 -0.292,0.464 -0.139,0.693 0.562,0.843 1.175,1.666 1.822,2.447 0.175,0.214 0.491,0.242 0.703,0.067 0.213,-0.177 0.243,-0.492 0.066,-0.705 -0.624,-0.754 -1.216,-1.549 -1.759,-2.363 -0.096,-0.145 -0.255,-0.223 -0.416,-0.223 m 48.224,-0.031 c -0.161,0 -0.32,0.078 -0.416,0.223 -0.542,0.814 -1.133,1.61 -1.757,2.366 -0.176,0.213 -0.145,0.528 0.067,0.704 0.211,0.175 0.528,0.146 0.705,-0.068 0.645,-0.781 1.256,-1.605 1.817,-2.448 0.153,-0.229 0.091,-0.54 -0.139,-0.693 -0.086,-0.057 -0.181,-0.084 -0.277,-0.084 m -51.013,-5.268 c -0.061,0 -0.125,0.011 -0.185,0.035 -0.257,0.103 -0.381,0.394 -0.279,0.65 0.377,0.943 0.808,1.874 1.28,2.77 0.13,0.245 0.433,0.336 0.675,0.209 0.245,-0.129 0.338,-0.431 0.209,-0.675 -0.456,-0.865 -0.872,-1.765 -1.236,-2.675 -0.078,-0.196 -0.266,-0.314 -0.464,-0.314 m 53.795,-0.034 c -0.198,0 -0.387,0.119 -0.465,0.315 -0.36,0.906 -0.774,1.806 -1.23,2.676 -0.129,0.245 -0.034,0.547 0.21,0.676 0.243,0.125 0.547,0.034 0.675,-0.211 0.473,-0.901 0.902,-1.833 1.275,-2.771 0.102,-0.257 -0.023,-0.548 -0.28,-0.65 -0.061,-0.024 -0.123,-0.035 -0.185,-0.035 m -55.427,-5.727 c -0.028,0 -0.057,0.003 -0.086,0.008 -0.272,0.047 -0.455,0.305 -0.407,0.578 0.173,0.998 0.401,1.999 0.676,2.973 0.075,0.266 0.349,0.423 0.618,0.345 0.266,-0.075 0.42,-0.352 0.345,-0.617 -0.267,-0.941 -0.486,-1.907 -0.654,-2.872 -0.042,-0.243 -0.253,-0.415 -0.492,-0.415 m 57.052,-0.035 c -0.238,0 -0.45,0.172 -0.492,0.415 -0.166,0.965 -0.385,1.931 -0.65,2.872 -0.076,0.266 0.08,0.542 0.345,0.618 0.266,0.072 0.542,-0.081 0.617,-0.346 0.275,-0.975 0.501,-1.976 0.674,-2.974 0.047,-0.273 -0.135,-0.531 -0.408,-0.578 -0.028,-0.005 -0.058,-0.007 -0.086,-0.007 m -57.464,-5.938 c -0.268,0 -0.491,0.213 -0.5,0.483 -0.01,0.334 -0.016,0.669 -0.016,1.005 0,0.673 0.023,1.361 0.069,2.043 0.019,0.275 0.263,0.474 0.533,0.465 0.276,-0.019 0.484,-0.257 0.465,-0.533 -0.045,-0.659 -0.067,-1.324 -0.067,-1.975 0,-0.326 0.006,-0.649 0.016,-0.972 0.009,-0.276 -0.208,-0.507 -0.483,-0.516 -0.006,0 -0.012,0 -0.017,0 m 57.735,-2.006 c -0.018,0 -0.035,0.001 -0.052,0.002 -0.274,0.029 -0.475,0.274 -0.446,0.549 0.098,0.972 0.149,1.962 0.149,2.943 0,0.651 -0.022,1.298 -0.065,1.94 -0.019,0.275 0.189,0.514 0.465,0.532 0.258,0.01 0.514,-0.189 0.533,-0.465 0.045,-0.666 0.067,-1.341 0.067,-2.007 0,-1.015 -0.052,-2.039 -0.155,-3.045 -0.027,-0.257 -0.243,-0.449 -0.496,-0.449 m -56.918,-3.925 c -0.226,0 -0.43,0.153 -0.486,0.381 -0.242,0.986 -0.434,1.994 -0.571,2.995 -0.038,0.274 0.153,0.526 0.428,0.564 0.265,0.038 0.524,-0.155 0.562,-0.428 0.133,-0.967 0.319,-1.941 0.552,-2.893 0.066,-0.268 -0.098,-0.539 -0.366,-0.605 -0.04,-0.01 -0.08,-0.014 -0.119,-0.014 m 55.69,-1.936 c -0.051,0 -0.101,0.007 -0.153,0.024 -0.263,0.084 -0.407,0.366 -0.322,0.628 0.297,0.929 0.55,1.888 0.752,2.849 0.056,0.27 0.317,0.445 0.591,0.387 0.271,-0.056 0.444,-0.321 0.387,-0.592 -0.208,-0.995 -0.47,-1.987 -0.779,-2.949 -0.068,-0.212 -0.264,-0.347 -0.476,-0.347 m -53.667,-3.7 c -0.185,0 -0.364,0.104 -0.45,0.283 -0.442,0.917 -0.839,1.863 -1.18,2.813 -0.093,0.26 0.042,0.547 0.302,0.64 0.262,0.093 0.547,-0.043 0.64,-0.302 0.329,-0.917 0.712,-1.831 1.138,-2.716 0.12,-0.249 0.016,-0.548 -0.233,-0.668 -0.069,-0.033 -0.144,-0.05 -0.217,-0.05 m 51.254,-1.78 c -0.085,0 -0.17,0.021 -0.248,0.066 -0.239,0.136 -0.323,0.442 -0.187,0.682 0.488,0.852 0.934,1.737 1.327,2.631 0.112,0.252 0.408,0.365 0.659,0.255 0.253,-0.111 0.368,-0.406 0.257,-0.659 -0.408,-0.925 -0.869,-1.841 -1.373,-2.723 -0.093,-0.162 -0.262,-0.252 -0.435,-0.252 m -48.109,-3.314 c -0.15,0 -0.298,0.067 -0.397,0.195 -0.619,0.804 -1.203,1.648 -1.733,2.509 -0.145,0.235 -0.071,0.543 0.163,0.688 0.235,0.144 0.543,0.072 0.688,-0.164 0.512,-0.831 1.076,-1.646 1.675,-2.423 0.168,-0.219 0.128,-0.533 -0.091,-0.701 -0.091,-0.071 -0.199,-0.104 -0.305,-0.104 m 44.618,-1.553 c -0.118,0 -0.236,0.042 -0.331,0.126 -0.207,0.183 -0.227,0.499 -0.043,0.706 0.651,0.735 1.27,1.51 1.839,2.303 0.161,0.225 0.472,0.276 0.698,0.114 0.224,-0.161 0.275,-0.473 0.114,-0.697 -0.589,-0.821 -1.228,-1.622 -1.903,-2.383 -0.099,-0.111 -0.236,-0.169 -0.374,-0.169 m -40.497,-2.791 c -0.115,0 -0.232,0.04 -0.325,0.121 -0.773,0.661 -1.516,1.368 -2.211,2.102 -0.19,0.2 -0.181,0.516 0.019,0.706 0.2,0.191 0.517,0.181 0.707,-0.019 0.671,-0.708 1.389,-1.391 2.135,-2.03 0.21,-0.179 0.234,-0.495 0.055,-0.705 -0.099,-0.115 -0.24,-0.175 -0.38,-0.175 m 36.084,-1.256 c -0.153,0 -0.303,0.069 -0.402,0.201 -0.165,0.222 -0.118,0.535 0.103,0.7 0.787,0.585 1.551,1.217 2.271,1.877 0.203,0.186 0.52,0.173 0.706,-0.03 0.187,-0.204 0.173,-0.52 -0.03,-0.707 -0.745,-0.683 -1.536,-1.337 -2.349,-1.943 -0.09,-0.066 -0.195,-0.098 -0.299,-0.098 M -9.44,-54.009 c -0.082,0 -0.164,0.019 -0.241,0.061 -0.889,0.488 -1.762,1.028 -2.594,1.604 -0.228,0.157 -0.285,0.469 -0.127,0.696 0.156,0.228 0.47,0.283 0.695,0.126 0.805,-0.557 1.647,-1.078 2.507,-1.549 0.242,-0.133 0.331,-0.436 0.198,-0.679 -0.091,-0.166 -0.263,-0.259 -0.438,-0.259 m 26.01,-0.906 c -0.188,0 -0.37,0.108 -0.454,0.29 -0.115,0.251 -0.006,0.548 0.245,0.664 0.89,0.41 1.767,0.871 2.607,1.37 0.236,0.141 0.543,0.063 0.685,-0.174 0.142,-0.237 0.064,-0.545 -0.174,-0.685 -0.871,-0.517 -1.779,-0.995 -2.7,-1.419 -0.067,-0.031 -0.138,-0.046 -0.209,-0.046 m -20.488,-1.413 c -0.048,0 -0.097,0.007 -0.144,0.021 -0.972,0.293 -1.938,0.641 -2.872,1.034 -0.253,0.106 -0.374,0.4 -0.266,0.654 0.106,0.255 0.398,0.374 0.655,0.267 0.9,-0.378 1.833,-0.714 2.772,-0.998 0.264,-0.079 0.414,-0.358 0.334,-0.623 -0.066,-0.216 -0.264,-0.355 -0.479,-0.355 m 14.819,-0.514 c -0.228,0 -0.434,0.157 -0.487,0.389 -0.061,0.27 0.107,0.537 0.377,0.599 0.953,0.216 1.907,0.486 2.834,0.801 0.262,0.09 0.545,-0.051 0.635,-0.312 0.089,-0.262 -0.051,-0.546 -0.313,-0.635 -0.96,-0.326 -1.947,-0.605 -2.935,-0.83 -0.037,-0.008 -0.074,-0.012 -0.111,-0.012 m -8.938,-0.612 c -0.015,0 -0.029,10e-4 -0.044,0.002 -1.014,0.087 -2.03,0.227 -3.021,0.417 -0.27,0.053 -0.448,0.315 -0.396,0.586 0.052,0.271 0.31,0.449 0.586,0.397 0.956,-0.184 1.937,-0.32 2.917,-0.404 0.274,-0.023 0.478,-0.265 0.455,-0.54 -0.022,-0.261 -0.24,-0.458 -0.497,-0.458 m 2.996,-0.102 c -0.272,0 -0.495,0.218 -0.5,0.492 -0.005,0.275 0.216,0.503 0.491,0.508 0.98,0.016 1.969,0.084 2.939,0.2 0.269,0.032 0.522,-0.162 0.555,-0.437 0.034,-0.274 -0.162,-0.523 -0.436,-0.556 -1.004,-0.12 -2.028,-0.19 -3.04,-0.207 l -0.009,0 z"
         style="fill:#ffffff;fill-opacity:1;fill-rule:nonzero;stroke:none"
         id="path7558" />
    </g>
    <g
       id="g7560"
       transform="matrix(1.25,0,0,-1.25,34.844667,466.47462)">
      <path
         d="M 0,0 C -0.25,0 -0.466,0.187 -0.495,0.441 -0.528,0.716 -0.332,0.964 -0.058,0.997 0.957,1.116 1.998,1.151 3.018,1.104 3.293,1.092 3.507,0.858 3.493,0.582 3.481,0.306 3.241,0.088 2.971,0.105 2.005,0.15 1.02,0.116 0.06,0.003 0.04,0.001 0.02,0 0,0 m 8.829,-1.16 c -0.062,0 -0.125,0.011 -0.185,0.035 C 7.743,-0.764 6.806,-0.477 5.859,-0.271 5.589,-0.213 5.418,0.053 5.477,0.323 5.535,0.592 5.797,0.766 6.07,0.706 7.072,0.489 8.063,0.186 9.015,-0.196 9.271,-0.299 9.396,-0.59 9.293,-0.846 9.215,-1.042 9.027,-1.16 8.829,-1.16 M -5.729,-1.68 c -0.185,0 -0.364,0.103 -0.45,0.281 -0.121,0.248 -0.017,0.547 0.231,0.669 0.922,0.448 1.888,0.822 2.873,1.111 0.268,0.077 0.543,-0.075 0.62,-0.339 0.078,-0.266 -0.074,-0.543 -0.339,-0.621 -0.932,-0.273 -1.846,-0.627 -2.717,-1.051 -0.07,-0.034 -0.144,-0.05 -0.218,-0.05 m 19.652,-2.591 c -0.116,0 -0.234,0.04 -0.327,0.122 -0.733,0.635 -1.524,1.213 -2.352,1.719 -0.235,0.144 -0.309,0.452 -0.166,0.688 0.145,0.237 0.454,0.309 0.688,0.166 0.875,-0.535 1.711,-1.147 2.484,-1.818 0.209,-0.181 0.231,-0.497 0.051,-0.705 -0.099,-0.114 -0.238,-0.172 -0.378,-0.172 m -24.516,-0.875 c -0.128,0 -0.256,0.048 -0.353,0.146 -0.196,0.196 -0.196,0.512 0,0.708 0.727,0.726 1.517,1.395 2.35,1.988 0.224,0.159 0.536,0.109 0.698,-0.116 0.16,-0.226 0.108,-0.538 -0.118,-0.698 -0.787,-0.562 -1.535,-1.195 -2.223,-1.882 -0.098,-0.098 -0.226,-0.146 -0.354,-0.146 m 28.321,-3.729 c -0.172,0 -0.34,0.09 -0.433,0.25 -0.483,0.837 -1.043,1.642 -1.663,2.392 -0.176,0.213 -0.146,0.528 0.067,0.704 0.211,0.175 0.529,0.146 0.704,-0.067 0.655,-0.793 1.246,-1.644 1.757,-2.529 0.139,-0.238 0.057,-0.544 -0.182,-0.683 -0.079,-0.045 -0.166,-0.067 -0.25,-0.067 m -31.788,-1.132 c -0.074,0 -0.148,0.016 -0.218,0.05 -0.249,0.122 -0.352,0.421 -0.231,0.669 0.449,0.922 0.98,1.812 1.573,2.645 0.161,0.226 0.474,0.276 0.698,0.117 0.225,-0.161 0.277,-0.473 0.117,-0.698 -0.563,-0.788 -1.064,-1.63 -1.489,-2.503 -0.087,-0.177 -0.265,-0.28 -0.45,-0.28 m 33.872,-4.463 c -0.234,0 -0.444,0.167 -0.49,0.406 -0.182,0.955 -0.447,1.898 -0.786,2.804 -0.097,0.258 0.035,0.546 0.294,0.643 0.256,0.096 0.547,-0.034 0.644,-0.294 0.357,-0.957 0.636,-1.955 0.831,-2.964 0.051,-0.271 -0.126,-0.534 -0.398,-0.586 -0.031,-0.006 -0.063,-0.009 -0.095,-0.009 m -35.55,-1.265 c -0.02,0 -0.04,10e-4 -0.06,0.004 -0.274,0.032 -0.471,0.281 -0.437,0.555 0.12,1.02 0.328,2.034 0.616,3.016 0.077,0.265 0.356,0.416 0.62,0.34 0.266,-0.078 0.417,-0.356 0.339,-0.621 -0.273,-0.929 -0.469,-1.889 -0.583,-2.852 -0.029,-0.255 -0.246,-0.442 -0.495,-0.442 m 35.694,-4.703 c -0.023,0 -0.048,10e-4 -0.071,0.004 -0.274,0.039 -0.464,0.292 -0.425,0.566 0.116,0.819 0.176,1.658 0.176,2.493 l -0.005,0.417 c -0.006,0.276 0.214,0.504 0.489,0.51 l 0.011,0 c 0.271,0 0.494,-0.217 0.5,-0.489 l 0.005,-0.438 c 0,-0.882 -0.063,-1.768 -0.186,-2.634 -0.035,-0.249 -0.25,-0.429 -0.494,-0.429 M -15.62,-20.86 c -0.239,0 -0.451,0.173 -0.492,0.417 -0.168,1.005 -0.253,2.037 -0.253,3.068 0,0.276 0.223,0.5 0.5,0.5 0.276,0 0.5,-0.224 0.5,-0.5 0,-0.976 0.08,-1.952 0.239,-2.903 0.046,-0.272 -0.139,-0.53 -0.411,-0.576 -0.027,-0.004 -0.056,-0.006 -0.083,-0.006 m 33.759,-5.266 c -0.078,0 -0.157,0.018 -0.23,0.056 -0.245,0.127 -0.342,0.428 -0.215,0.674 0.447,0.862 0.822,1.767 1.115,2.689 0.083,0.262 0.366,0.41 0.628,0.325 0.263,-0.084 0.409,-0.366 0.325,-0.629 -0.311,-0.975 -0.707,-1.932 -1.179,-2.844 -0.089,-0.172 -0.264,-0.271 -0.444,-0.271 m -31.805,-0.377 c -0.177,0 -0.348,0.094 -0.438,0.26 -0.494,0.9 -0.914,1.847 -1.249,2.816 -0.089,0.261 0.048,0.546 0.31,0.636 0.261,0.092 0.546,-0.048 0.636,-0.309 0.316,-0.916 0.714,-1.812 1.179,-2.663 0.133,-0.242 0.044,-0.546 -0.198,-0.678 -0.076,-0.042 -0.158,-0.062 -0.24,-0.062 m 28.224,-4.4 c -0.132,0 -0.264,0.052 -0.362,0.155 -0.191,0.2 -0.183,0.517 0.017,0.707 0.701,0.669 1.352,1.402 1.933,2.178 0.167,0.221 0.481,0.264 0.701,0.1 0.22,-0.166 0.265,-0.479 0.1,-0.7 -0.615,-0.82 -1.302,-1.594 -2.045,-2.302 -0.096,-0.092 -0.22,-0.138 -0.344,-0.138 m -24.53,-0.293 c -0.12,0 -0.241,0.043 -0.337,0.13 -0.758,0.691 -1.464,1.449 -2.097,2.253 -0.171,0.217 -0.134,0.531 0.083,0.702 0.216,0.171 0.53,0.134 0.702,-0.083 0.6,-0.761 1.267,-1.478 1.986,-2.133 0.204,-0.185 0.219,-0.502 0.033,-0.706 -0.098,-0.108 -0.234,-0.163 -0.37,-0.163 m 19.586,-3.058 c -0.189,0 -0.371,0.108 -0.455,0.292 -0.114,0.251 -0.004,0.548 0.247,0.663 0.882,0.403 1.736,0.883 2.539,1.428 0.229,0.156 0.539,0.096 0.695,-0.133 0.154,-0.228 0.094,-0.539 -0.134,-0.694 -0.849,-0.576 -1.752,-1.084 -2.684,-1.51 -0.067,-0.031 -0.137,-0.046 -0.208,-0.046 m -14.567,-0.172 c -0.067,0 -0.133,0.012 -0.197,0.04 -0.941,0.404 -1.855,0.889 -2.717,1.445 -0.233,0.149 -0.3,0.459 -0.15,0.691 0.149,0.232 0.461,0.298 0.691,0.15 0.815,-0.525 1.68,-0.985 2.57,-1.367 0.254,-0.109 0.371,-0.403 0.263,-0.656 -0.082,-0.19 -0.267,-0.303 -0.46,-0.303 m 8.798,-1.369 c -0.255,0 -0.473,0.194 -0.497,0.453 -0.026,0.275 0.175,0.518 0.451,0.544 0.969,0.092 1.933,0.264 2.866,0.514 0.271,0.072 0.54,-0.089 0.612,-0.354 0.072,-0.267 -0.088,-0.541 -0.354,-0.612 -0.986,-0.264 -2.006,-0.447 -3.03,-0.543 -0.016,-0.002 -0.033,-0.002 -0.048,-0.002 m -2.994,-0.036 c -0.013,0 -0.025,0 -0.037,0.001 -1.024,0.072 -2.047,0.231 -3.042,0.472 -0.268,0.065 -0.433,0.335 -0.369,0.603 0.066,0.268 0.334,0.433 0.604,0.368 0.941,-0.227 1.909,-0.377 2.878,-0.446 0.275,-0.019 0.483,-0.258 0.464,-0.533 C 1.33,-35.63 1.11,-35.831 0.851,-35.831"
         style="fill:#ffffff;fill-opacity:1;fill-rule:nonzero;stroke:none"
         id="path7562" />
    </g>
    <g
       id="g7564"
       transform="matrix(1.25,0,0,-1.25,55.574667,459.07652)">
      <path
         d="M 0,0 C -0.025,0 -0.052,0.002 -0.077,0.006 -1.043,0.155 -2.029,0.256 -3.008,0.305 -3.283,0.319 -3.496,0.554 -3.481,0.83 -3.469,1.105 -3.27,1.317 -2.957,1.304 -1.944,1.253 -0.924,1.149 0.075,0.994 0.349,0.952 0.535,0.696 0.493,0.423 0.455,0.177 0.242,0 0,0 m -8.964,-0.006 c -0.242,0 -0.454,0.176 -0.493,0.423 -0.043,0.273 0.144,0.528 0.417,0.571 0.995,0.156 2.016,0.262 3.033,0.314 0.301,0.016 0.511,-0.198 0.525,-0.473 C -5.468,0.553 -5.68,0.318 -5.956,0.303 -6.938,0.252 -7.924,0.15 -8.886,0 -8.912,-0.004 -8.938,-0.006 -8.964,-0.006 M 5.789,-1.525 c -0.059,0 -0.119,0.01 -0.177,0.032 C 4.696,-1.146 3.753,-0.844 2.808,-0.595 2.54,-0.525 2.381,-0.251 2.451,0.016 2.521,0.282 2.797,0.441 3.062,0.372 4.041,0.114 5.019,-0.199 5.966,-0.558 6.225,-0.656 6.354,-0.944 6.257,-1.203 6.181,-1.402 5.991,-1.525 5.789,-1.525 m -20.54,-0.015 c -0.201,0 -0.392,0.123 -0.468,0.323 -0.097,0.258 0.032,0.547 0.29,0.645 0.95,0.361 1.927,0.675 2.905,0.934 0.269,0.07 0.541,-0.089 0.611,-0.356 0.07,-0.266 -0.088,-0.54 -0.356,-0.611 -0.943,-0.25 -1.887,-0.554 -2.804,-0.902 -0.059,-0.022 -0.119,-0.033 -0.178,-0.033 m 25.888,-2.677 c -0.093,0 -0.187,0.026 -0.27,0.079 -0.824,0.528 -1.685,1.019 -2.559,1.459 -0.247,0.124 -0.346,0.425 -0.222,0.671 0.124,0.248 0.425,0.346 0.671,0.222 0.905,-0.455 1.797,-0.964 2.649,-1.51 0.233,-0.149 0.301,-0.458 0.152,-0.69 -0.096,-0.15 -0.257,-0.231 -0.421,-0.231 m -31.234,-0.021 c -0.164,0 -0.325,0.081 -0.421,0.23 -0.149,0.232 -0.082,0.542 0.151,0.691 0.854,0.549 1.745,1.058 2.647,1.514 0.245,0.125 0.547,0.026 0.672,-0.221 0.124,-0.247 0.026,-0.547 -0.221,-0.672 -0.872,-0.44 -1.732,-0.932 -2.557,-1.462 -0.084,-0.054 -0.178,-0.08 -0.271,-0.08 M 15.818,-7.95 c -0.127,0 -0.253,0.048 -0.35,0.143 -0.699,0.688 -1.442,1.345 -2.206,1.954 -0.216,0.172 -0.252,0.487 -0.079,0.703 0.172,0.216 0.487,0.25 0.702,0.079 0.791,-0.63 1.559,-1.311 2.284,-2.022 0.197,-0.194 0.199,-0.51 0.006,-0.707 -0.098,-0.1 -0.227,-0.15 -0.357,-0.15 m -40.591,-0.029 c -0.129,0 -0.258,0.05 -0.357,0.149 -0.193,0.197 -0.191,0.513 0.006,0.707 0.721,0.711 1.487,1.392 2.279,2.026 0.217,0.172 0.532,0.137 0.703,-0.078 0.172,-0.216 0.138,-0.531 -0.078,-0.703 -0.765,-0.612 -1.506,-1.27 -2.203,-1.957 -0.097,-0.096 -0.223,-0.144 -0.35,-0.144 m 44.41,-4.584 c -0.161,0 -0.32,0.078 -0.416,0.223 -0.543,0.814 -1.135,1.609 -1.759,2.363 -0.177,0.213 -0.147,0.528 0.066,0.705 0.211,0.175 0.527,0.147 0.703,-0.067 0.647,-0.781 1.26,-1.604 1.822,-2.447 0.153,-0.229 0.091,-0.54 -0.139,-0.693 -0.085,-0.057 -0.182,-0.084 -0.277,-0.084 m -48.224,-0.033 c -0.096,0 -0.191,0.027 -0.277,0.084 -0.23,0.153 -0.292,0.464 -0.139,0.693 0.561,0.843 1.172,1.667 1.817,2.448 0.177,0.214 0.493,0.243 0.705,0.068 0.212,-0.176 0.243,-0.491 0.067,-0.704 -0.624,-0.756 -1.215,-1.552 -1.757,-2.366 -0.096,-0.145 -0.255,-0.223 -0.416,-0.223 m 51.014,-5.266 c -0.198,0 -0.386,0.118 -0.464,0.314 -0.364,0.91 -0.78,1.81 -1.236,2.674 -0.129,0.245 -0.036,0.547 0.209,0.676 0.241,0.127 0.545,0.036 0.675,-0.209 0.472,-0.896 0.903,-1.827 1.28,-2.77 0.102,-0.256 -0.022,-0.547 -0.279,-0.65 -0.06,-0.024 -0.124,-0.035 -0.185,-0.035 m -53.794,-0.036 c -0.062,0 -0.124,0.011 -0.185,0.035 -0.257,0.102 -0.382,0.393 -0.28,0.65 0.373,0.938 0.802,1.87 1.275,2.771 0.128,0.246 0.432,0.337 0.675,0.211 0.244,-0.129 0.339,-0.431 0.21,-0.676 -0.456,-0.87 -0.87,-1.77 -1.23,-2.676 -0.078,-0.196 -0.267,-0.315 -0.465,-0.315 m 55.426,-5.725 c -0.239,0 -0.45,0.171 -0.492,0.415 -0.168,0.964 -0.387,1.93 -0.654,2.871 -0.075,0.266 0.079,0.542 0.345,0.617 0.27,0.075 0.543,-0.079 0.618,-0.344 0.275,-0.975 0.503,-1.975 0.676,-2.974 0.048,-0.272 -0.135,-0.531 -0.407,-0.578 -0.029,-0.005 -0.058,-0.007 -0.086,-0.007 m -57.05,-0.037 c -0.029,0 -0.057,0.002 -0.085,0.007 -0.273,0.047 -0.455,0.305 -0.409,0.577 0.171,0.996 0.397,1.997 0.672,2.975 0.076,0.266 0.355,0.421 0.618,0.346 0.265,-0.076 0.421,-0.352 0.345,-0.618 -0.266,-0.944 -0.485,-1.91 -0.649,-2.872 -0.042,-0.243 -0.254,-0.415 -0.492,-0.415 m 57.462,-5.937 c -0.005,0 -0.011,0 -0.017,0.001 -0.275,0.009 -0.492,0.24 -0.483,0.516 0.01,0.322 0.016,0.645 0.016,0.971 0,0.652 -0.022,1.317 -0.067,1.976 -0.019,0.275 0.189,0.513 0.465,0.532 0.277,0.008 0.514,-0.189 0.533,-0.465 0.046,-0.681 0.069,-1.369 0.069,-2.043 0,-0.336 -0.006,-0.671 -0.016,-1.004 -0.009,-0.27 -0.232,-0.484 -0.5,-0.484 m -57.734,-2.006 c -0.253,0 -0.469,0.192 -0.496,0.449 -0.103,1.006 -0.155,2.03 -0.155,3.045 -10e-4,0.661 0.021,1.337 0.066,2.006 0.019,0.276 0.282,0.477 0.533,0.465 0.276,-0.018 0.484,-0.257 0.465,-0.532 -0.044,-0.647 -0.065,-1.299 -0.064,-1.938 0,-0.982 0.051,-1.972 0.149,-2.944 0.029,-0.275 -0.172,-0.52 -0.446,-0.549 -0.018,-0.001 -0.034,-0.002 -0.052,-0.002 m 56.918,-3.924 c -0.039,0 -0.079,0.004 -0.119,0.014 -0.268,0.066 -0.432,0.337 -0.366,0.605 0.233,0.952 0.419,1.926 0.552,2.893 0.037,0.274 0.293,0.464 0.562,0.428 0.275,-0.038 0.466,-0.29 0.428,-0.564 -0.137,-1.001 -0.329,-2.009 -0.571,-2.995 -0.056,-0.229 -0.26,-0.381 -0.486,-0.381 m -55.69,-1.937 c -0.212,0 -0.408,0.135 -0.476,0.347 -0.309,0.962 -0.571,1.954 -0.779,2.949 -0.057,0.271 0.116,0.536 0.387,0.592 0.275,0.058 0.535,-0.117 0.591,-0.387 0.202,-0.961 0.455,-1.92 0.752,-2.849 0.085,-0.262 -0.059,-0.544 -0.322,-0.628 -0.051,-0.017 -0.102,-0.024 -0.153,-0.024 m 53.667,-3.699 c -0.073,0 -0.148,0.017 -0.217,0.05 -0.249,0.12 -0.353,0.419 -0.233,0.668 0.426,0.885 0.809,1.799 1.138,2.716 0.094,0.259 0.379,0.396 0.64,0.302 0.26,-0.094 0.394,-0.38 0.302,-0.64 -0.341,-0.95 -0.738,-1.896 -1.18,-2.813 -0.086,-0.179 -0.265,-0.283 -0.45,-0.283 m -51.254,-1.781 c -0.173,0 -0.342,0.09 -0.435,0.252 -0.504,0.882 -0.965,1.798 -1.373,2.723 -0.111,0.253 0.004,0.548 0.257,0.659 0.253,0.11 0.547,-0.003 0.659,-0.255 0.393,-0.894 0.839,-1.779 1.327,-2.631 0.136,-0.24 0.052,-0.546 -0.187,-0.682 -0.078,-0.045 -0.163,-0.066 -0.248,-0.066 m 48.11,-3.314 c -0.106,0 -0.214,0.034 -0.305,0.104 -0.219,0.169 -0.259,0.483 -0.091,0.701 0.599,0.777 1.163,1.593 1.675,2.424 0.145,0.236 0.455,0.307 0.688,0.163 0.234,-0.145 0.308,-0.453 0.163,-0.688 -0.53,-0.861 -1.114,-1.705 -1.733,-2.509 -0.099,-0.128 -0.247,-0.195 -0.397,-0.195 m -44.619,-1.553 c -0.138,0 -0.275,0.058 -0.374,0.169 -0.674,0.761 -1.314,1.562 -1.903,2.383 -0.161,0.224 -0.11,0.536 0.114,0.697 0.225,0.162 0.537,0.111 0.698,-0.114 0.569,-0.793 1.188,-1.568 1.839,-2.303 0.184,-0.207 0.164,-0.523 -0.043,-0.706 -0.095,-0.084 -0.213,-0.126 -0.331,-0.126 m 40.496,-2.79 c -0.14,0 -0.281,0.059 -0.38,0.175 -0.179,0.209 -0.155,0.525 0.055,0.705 0.746,0.638 1.464,1.322 2.135,2.03 0.19,0.201 0.507,0.209 0.707,0.019 0.2,-0.19 0.209,-0.507 0.019,-0.707 -0.695,-0.733 -1.438,-1.44 -2.211,-2.102 -0.093,-0.081 -0.21,-0.12 -0.325,-0.12 m -36.083,-1.257 c -0.104,0 -0.209,0.032 -0.299,0.098 -0.813,0.606 -1.604,1.26 -2.349,1.943 -0.203,0.187 -0.217,0.503 -0.03,0.707 0.187,0.203 0.504,0.216 0.706,0.03 0.72,-0.66 1.484,-1.292 2.271,-1.877 0.221,-0.165 0.268,-0.478 0.103,-0.7 -0.099,-0.132 -0.249,-0.201 -0.402,-0.201 m 31.159,-2.151 c -0.175,0 -0.347,0.093 -0.438,0.259 -0.133,0.243 -0.044,0.546 0.198,0.679 0.86,0.471 1.702,0.992 2.507,1.549 0.224,0.156 0.538,0.101 0.695,-0.126 0.158,-0.227 0.101,-0.539 -0.127,-0.696 -0.832,-0.576 -1.705,-1.116 -2.594,-1.604 -0.077,-0.042 -0.159,-0.061 -0.241,-0.061 m -26.01,-0.906 c -0.071,0 -0.142,0.015 -0.209,0.046 -0.921,0.424 -1.829,0.902 -2.7,1.419 -0.238,0.14 -0.316,0.448 -0.174,0.685 0.141,0.237 0.448,0.315 0.684,0.174 0.841,-0.499 1.718,-0.96 2.608,-1.37 0.251,-0.116 0.36,-0.413 0.245,-0.664 -0.084,-0.182 -0.266,-0.29 -0.454,-0.29 m 20.488,-1.413 c -0.215,0 -0.413,0.14 -0.479,0.356 -0.08,0.264 0.07,0.543 0.334,0.623 0.939,0.283 1.872,0.619 2.772,0.998 0.256,0.106 0.549,-0.012 0.655,-0.267 0.108,-0.255 -0.013,-0.548 -0.266,-0.655 -0.934,-0.393 -1.9,-0.74 -2.872,-1.033 -0.047,-0.015 -0.096,-0.022 -0.144,-0.022 M -10.9,-56.842 c -0.037,0 -0.074,0.004 -0.111,0.012 -0.988,0.225 -1.975,0.504 -2.935,0.83 -0.262,0.089 -0.402,0.373 -0.313,0.635 0.09,0.261 0.374,0.402 0.635,0.312 0.927,-0.315 1.881,-0.585 2.834,-0.801 0.269,-0.062 0.438,-0.329 0.377,-0.599 -0.053,-0.232 -0.259,-0.389 -0.487,-0.389 m 8.938,-0.612 c -0.257,0 -0.475,0.197 -0.497,0.458 -0.023,0.275 0.181,0.517 0.455,0.54 0.98,0.084 1.961,0.22 2.917,0.404 0.272,0.051 0.533,-0.126 0.586,-0.397 0.052,-0.271 -0.126,-0.533 -0.396,-0.586 -0.991,-0.19 -2.007,-0.33 -3.021,-0.417 -0.015,-0.001 -0.029,-0.002 -0.044,-0.002 m -2.996,-0.102 -0.009,0 c -1.012,0.017 -2.036,0.087 -3.04,0.207 -0.274,0.033 -0.47,0.282 -0.436,0.556 0.033,0.274 0.286,0.464 0.555,0.437 0.97,-0.116 1.959,-0.184 2.939,-0.2 0.275,-0.005 0.496,-0.233 0.491,-0.508 -0.005,-0.274 -0.228,-0.492 -0.5,-0.492"
         style="fill:#ffffff;fill-opacity:1;fill-rule:nonzero;stroke:none"
         id="path7566" />
    </g>
    <g
       id="g7568"
       transform="matrix(1.25,0,0,-1.25,40.123067,490.69402)">
      <path
         d="M 0,0 40.919,-76.433 81.838,0 0,0 Z M 40.919,-84.909 -6.678,4 88.516,4 40.919,-84.909 Z"
         style="fill:#ffffff;fill-opacity:1;fill-rule:nonzero;stroke:none"
         id="path7570" />
    </g>
    <g
       id="g7572"
       transform="matrix(1.25,0,0,-1.25,73.108967,477.05322)">
      <path
         d="M 0,0 29.061,0 14.53,26.201 0,0 Z M 35.854,-4 -6.793,-4 14.53,34.448 35.854,-4 Z"
         style="fill:#ffffff;fill-opacity:1;fill-rule:nonzero;stroke:none"
         id="path7574" />
    </g>
    <g
       id="g7576"
       transform="matrix(1.25,0,0,-1.25,73.108967,576.24262)">
      <path
         d="M 0,0 14.53,-26.201 29.061,0 0,0 Z M 14.53,-34.448 -6.793,4 35.854,4 14.53,-34.448 Z"
         style="fill:#ffffff;fill-opacity:1;fill-rule:nonzero;stroke:none"
         id="path7578" />
    </g>
    <g
       id="g7580"
       transform="matrix(1.25,0,0,-1.25,21.736767,554.68682)">
      <path
         d="M 0,0 29.06,0 14.529,26.201 0,0 Z M 35.853,-4 -6.793,-4 14.529,34.449 35.853,-4 Z"
         style="fill:#ffffff;fill-opacity:1;fill-rule:nonzero;stroke:none"
         id="path7582" />
    </g>
    <g
       id="g7584"
       transform="matrix(1.25,0,0,-1.25,124.67257,554.68682)">
      <path
         d="M 0,0 29.061,0 14.53,26.201 0,0 Z M 35.854,-4 -6.793,-4 14.53,34.448 35.854,-4 Z"
         style="fill:#ffffff;fill-opacity:1;fill-rule:nonzero;stroke:none"
         id="path7586" />
    </g>
    <g
       id="g7588"
       transform="matrix(1.25,0,0,-1.25,35.336667,565.70312)">
      <path
         d="M 0,0 89.643,0 44.478,85.07 0,0 Z M 91.307,-1 -1.65,-1 -1.269,-0.269 44.472,87.216 44.916,86.377 91.307,-1 Z"
         style="fill:#ffffff;fill-opacity:1;fill-rule:nonzero;stroke:none"
         id="path7590" />
    </g>
    <g
       id="g7592"
       transform="matrix(1.25,0,0,-1.25,91.271667,515.42532)">
      <path
         d="m 0,0 c -4.572,0 -8.292,-3.72 -8.292,-8.292 0,-4.572 3.72,-8.291 8.292,-8.291 4.572,0 8.292,3.719 8.292,8.291 C 8.292,-3.72 4.572,0 0,0 m 0,-18.583 c -5.675,0 -10.292,4.617 -10.292,10.291 C -10.292,-2.617 -5.675,2 0,2 5.675,2 10.292,-2.617 10.292,-8.292 10.292,-13.966 5.675,-18.583 0,-18.583"
         style="fill:#ffffff;fill-opacity:1;fill-rule:nonzero;stroke:none"
         id="path7594" />
    </g>
    <g
       id="g7596"
       transform="matrix(1.25,0,0,-1.25,37.367967,490.93682)">
      <path
         d="m 0,0 c -0.098,0 -0.196,0.028 -0.282,0.087 l -2.476,1.695 c -0.228,0.155 -0.286,0.467 -0.131,0.695 0.159,0.228 0.47,0.285 0.696,0.13 L 0.282,0.913 C 0.511,0.757 0.568,0.445 0.413,0.218 0.315,0.076 0.159,0 0,0 m 4.951,-3.389 c -0.097,0 -0.196,0.028 -0.282,0.087 l -2.476,1.695 c -0.228,0.156 -0.286,0.467 -0.13,0.695 0.158,0.228 0.469,0.285 0.695,0.13 L 5.233,-2.477 C 5.462,-2.633 5.52,-2.944 5.363,-3.171 5.267,-3.313 5.11,-3.389 4.951,-3.389 m 4.951,-3.389 c -0.097,0 -0.196,0.028 -0.282,0.088 l -2.475,1.694 c -0.229,0.156 -0.287,0.467 -0.131,0.695 0.157,0.228 0.469,0.285 0.695,0.13 l 2.476,-1.694 c 0.228,-0.156 0.286,-0.468 0.13,-0.695 -0.097,-0.142 -0.253,-0.218 -0.413,-0.218 m 4.952,-3.389 c -0.098,0 -0.197,0.028 -0.283,0.087 l -2.475,1.695 c -0.229,0.156 -0.286,0.468 -0.13,0.695 0.156,0.228 0.469,0.285 0.694,0.13 l 2.476,-1.694 c 0.228,-0.157 0.286,-0.468 0.13,-0.695 -0.097,-0.142 -0.253,-0.218 -0.412,-0.218 m 4.952,-3.389 c -0.098,0 -0.197,0.029 -0.283,0.088 l -2.475,1.694 c -0.229,0.156 -0.286,0.467 -0.131,0.695 0.158,0.228 0.47,0.285 0.695,0.13 l 2.476,-1.694 c 0.228,-0.156 0.286,-0.467 0.131,-0.695 -0.098,-0.141 -0.254,-0.218 -0.413,-0.218 m 4.951,-3.389 c -0.098,0 -0.196,0.028 -0.282,0.088 l -2.476,1.694 c -0.228,0.157 -0.286,0.468 -0.13,0.695 0.156,0.228 0.47,0.285 0.694,0.131 l 2.476,-1.695 c 0.229,-0.156 0.286,-0.468 0.13,-0.695 -0.097,-0.142 -0.253,-0.218 -0.412,-0.218 m 4.951,-3.388 c -0.098,0 -0.196,0.028 -0.282,0.087 l -2.476,1.694 c -0.228,0.156 -0.286,0.468 -0.131,0.695 0.159,0.228 0.47,0.285 0.696,0.13 l 2.475,-1.694 c 0.229,-0.156 0.286,-0.467 0.131,-0.695 -0.098,-0.141 -0.254,-0.217 -0.413,-0.217 m 4.951,-3.39 c -0.097,0 -0.196,0.029 -0.282,0.088 l -2.476,1.695 c -0.228,0.156 -0.286,0.467 -0.13,0.694 0.158,0.228 0.47,0.286 0.695,0.131 l 2.475,-1.695 c 0.229,-0.156 0.287,-0.467 0.13,-0.695 -0.096,-0.141 -0.253,-0.218 -0.412,-0.218 m 4.951,-3.388 c -0.097,0 -0.196,0.028 -0.282,0.087 l -2.475,1.694 c -0.229,0.156 -0.287,0.468 -0.131,0.695 0.158,0.228 0.469,0.285 0.695,0.131 l 2.476,-1.695 c 0.228,-0.155 0.286,-0.467 0.13,-0.695 -0.097,-0.141 -0.253,-0.217 -0.413,-0.217 m 4.952,-3.389 c -0.098,0 -0.197,0.028 -0.283,0.087 l -2.475,1.695 c -0.229,0.156 -0.286,0.467 -0.131,0.695 0.158,0.228 0.471,0.285 0.695,0.13 l 2.476,-1.694 c 0.228,-0.156 0.286,-0.468 0.131,-0.695 -0.098,-0.142 -0.254,-0.218 -0.413,-0.218 m 4.951,-3.389 c -0.098,0 -0.197,0.028 -0.283,0.087 l -2.475,1.695 c -0.229,0.155 -0.286,0.467 -0.131,0.694 0.158,0.228 0.47,0.286 0.695,0.131 l 2.476,-1.695 c 0.228,-0.155 0.286,-0.467 0.131,-0.694 -0.098,-0.142 -0.254,-0.218 -0.413,-0.218 m 4.951,-3.389 c -0.098,0 -0.196,0.028 -0.282,0.088 l -2.476,1.694 c -0.228,0.156 -0.286,0.467 -0.131,0.695 0.158,0.228 0.471,0.285 0.696,0.13 l 2.475,-1.694 c 0.229,-0.156 0.286,-0.468 0.131,-0.695 -0.098,-0.142 -0.254,-0.218 -0.413,-0.218 m 4.952,-3.389 c -0.098,0 -0.196,0.028 -0.282,0.087 l -2.476,1.695 c -0.228,0.156 -0.286,0.467 -0.131,0.695 0.159,0.228 0.47,0.285 0.696,0.13 l 2.475,-1.694 c 0.229,-0.156 0.286,-0.468 0.131,-0.695 -0.098,-0.142 -0.254,-0.218 -0.413,-0.218 m 4.951,-3.389 c -0.097,0 -0.196,0.029 -0.282,0.088 l -2.476,1.694 c -0.228,0.156 -0.286,0.467 -0.13,0.695 0.157,0.228 0.469,0.286 0.695,0.13 l 2.475,-1.694 c 0.229,-0.156 0.287,-0.467 0.131,-0.695 -0.097,-0.141 -0.254,-0.218 -0.413,-0.218 m 4.951,-3.389 c -0.097,0 -0.196,0.028 -0.282,0.088 l -2.475,1.694 c -0.229,0.156 -0.287,0.467 -0.131,0.695 0.158,0.228 0.469,0.285 0.695,0.13 l 2.476,-1.694 c 0.228,-0.156 0.286,-0.468 0.13,-0.695 -0.097,-0.142 -0.253,-0.218 -0.413,-0.218 m 4.952,-3.388 c -0.098,0 -0.197,0.028 -0.283,0.087 l -2.475,1.694 c -0.229,0.156 -0.286,0.468 -0.131,0.695 0.158,0.228 0.471,0.285 0.695,0.13 l 2.476,-1.694 c 0.228,-0.156 0.286,-0.467 0.131,-0.695 -0.098,-0.141 -0.254,-0.217 -0.413,-0.217 m 4.951,-3.39 c -0.098,0 -0.197,0.029 -0.283,0.088 l -2.475,1.694 c -0.229,0.156 -0.286,0.467 -0.131,0.695 0.158,0.228 0.47,0.285 0.695,0.13 l 2.476,-1.694 c 0.228,-0.156 0.286,-0.467 0.131,-0.695 -0.098,-0.141 -0.254,-0.218 -0.413,-0.218 m 4.951,-3.388 c -0.098,0 -0.196,0.028 -0.282,0.087 l -2.476,1.694 c -0.228,0.156 -0.286,0.468 -0.131,0.695 0.157,0.228 0.471,0.285 0.696,0.131 l 2.475,-1.695 c 0.229,-0.155 0.286,-0.467 0.131,-0.695 -0.098,-0.141 -0.254,-0.217 -0.413,-0.217 m 4.678,-3.202 c -0.098,0 -0.197,0.028 -0.283,0.087 l -2.202,1.507 c -0.227,0.156 -0.286,0.468 -0.131,0.695 0.159,0.229 0.47,0.286 0.696,0.13 l 2.202,-1.506 c 0.227,-0.156 0.286,-0.468 0.131,-0.695 -0.098,-0.142 -0.254,-0.218 -0.413,-0.218"
         style="fill:#ffffff;fill-opacity:1;fill-rule:nonzero;stroke:none"
         id="path7598" />
    </g>
    <g
       id="g7600"
       transform="matrix(1.25,0,0,-1.25,143.61797,490.97282)">
      <path
         d="M 0,0 C -0.157,0 -0.312,0.074 -0.409,0.213 -0.568,0.439 -0.514,0.75 -0.287,0.909 L 2.169,2.632 C 2.393,2.791 2.706,2.737 2.865,2.51 3.024,2.284 2.97,1.973 2.743,1.814 L 0.287,0.091 C 0.2,0.029 0.1,0 0,0 m -4.911,-3.447 c -0.157,0 -0.312,0.074 -0.409,0.213 -0.159,0.226 -0.105,0.538 0.122,0.696 l 2.456,1.724 c 0.223,0.158 0.537,0.104 0.696,-0.123 0.159,-0.226 0.105,-0.537 -0.122,-0.696 l -2.456,-1.723 c -0.087,-0.061 -0.188,-0.091 -0.287,-0.091 m -4.911,-3.447 c -0.157,0 -0.312,0.075 -0.409,0.213 -0.16,0.226 -0.105,0.538 0.122,0.697 l 2.456,1.723 c 0.223,0.158 0.536,0.105 0.696,-0.122 0.159,-0.226 0.104,-0.537 -0.122,-0.696 l -2.456,-1.724 c -0.087,-0.061 -0.188,-0.091 -0.287,-0.091 m -4.911,-3.446 c -0.158,0 -0.312,0.074 -0.41,0.213 -0.159,0.226 -0.104,0.537 0.122,0.696 l 2.457,1.723 c 0.224,0.159 0.537,0.105 0.696,-0.122 0.159,-0.226 0.104,-0.537 -0.122,-0.696 l -2.456,-1.724 c -0.087,-0.061 -0.188,-0.09 -0.287,-0.09 m -4.912,-3.447 c -0.157,0 -0.311,0.075 -0.409,0.213 -0.159,0.226 -0.104,0.538 0.122,0.697 l 2.455,1.723 c 0.224,0.158 0.538,0.104 0.697,-0.122 0.159,-0.226 0.104,-0.538 -0.122,-0.697 l -2.455,-1.723 c -0.087,-0.061 -0.188,-0.091 -0.288,-0.091 m -4.911,-3.446 c -0.157,0 -0.311,0.074 -0.409,0.212 -0.159,0.227 -0.104,0.538 0.122,0.697 l 2.455,1.723 c 0.224,0.159 0.537,0.104 0.697,-0.122 0.159,-0.226 0.104,-0.538 -0.122,-0.696 l -2.456,-1.724 c -0.086,-0.061 -0.187,-0.09 -0.287,-0.09 m -4.911,-3.447 c -0.157,0 -0.311,0.074 -0.409,0.213 -0.159,0.225 -0.104,0.537 0.122,0.696 l 2.455,1.724 c 0.224,0.158 0.536,0.104 0.696,-0.122 0.16,-0.226 0.105,-0.538 -0.122,-0.697 l -2.455,-1.723 c -0.087,-0.062 -0.187,-0.091 -0.287,-0.091 m -4.912,-3.447 c -0.157,0 -0.311,0.074 -0.409,0.213 -0.159,0.226 -0.105,0.538 0.122,0.696 l 2.456,1.724 c 0.225,0.159 0.537,0.104 0.696,-0.122 0.16,-0.226 0.105,-0.538 -0.122,-0.696 l -2.456,-1.724 c -0.087,-0.062 -0.187,-0.091 -0.287,-0.091 m -4.911,-3.446 c -0.157,0 -0.312,0.074 -0.409,0.213 -0.159,0.226 -0.105,0.537 0.122,0.696 l 2.456,1.723 c 0.225,0.159 0.537,0.105 0.696,-0.122 0.159,-0.226 0.105,-0.538 -0.122,-0.696 l -2.456,-1.723 c -0.087,-0.062 -0.187,-0.091 -0.287,-0.091 m -4.911,-3.447 c -0.157,0 -0.312,0.074 -0.409,0.213 -0.16,0.226 -0.105,0.537 0.122,0.696 l 2.456,1.723 c 0.224,0.159 0.537,0.105 0.696,-0.122 0.159,-0.226 0.105,-0.537 -0.122,-0.696 l -2.456,-1.723 c -0.087,-0.062 -0.188,-0.091 -0.287,-0.091 m -4.911,-3.447 c -0.158,0 -0.312,0.074 -0.409,0.213 -0.16,0.226 -0.105,0.538 0.122,0.696 l 2.456,1.724 c 0.223,0.159 0.537,0.105 0.696,-0.122 0.159,-0.226 0.104,-0.538 -0.122,-0.696 l -2.456,-1.724 c -0.087,-0.062 -0.188,-0.091 -0.287,-0.091 m -4.911,-3.446 c -0.158,0 -0.312,0.074 -0.41,0.213 -0.159,0.226 -0.104,0.537 0.122,0.696 l 2.456,1.723 c 0.224,0.159 0.537,0.105 0.696,-0.122 0.159,-0.226 0.104,-0.537 -0.122,-0.696 l -2.455,-1.723 c -0.087,-0.062 -0.188,-0.091 -0.287,-0.091 m -4.912,-3.447 c -0.157,0 -0.311,0.074 -0.409,0.213 -0.159,0.226 -0.104,0.538 0.122,0.696 l 2.455,1.723 c 0.225,0.159 0.537,0.105 0.697,-0.122 0.159,-0.226 0.104,-0.537 -0.122,-0.696 l -2.455,-1.723 c -0.087,-0.062 -0.188,-0.091 -0.288,-0.091 m -4.911,-3.447 c -0.157,0 -0.311,0.075 -0.409,0.213 -0.159,0.226 -0.104,0.538 0.122,0.697 l 2.455,1.723 c 0.225,0.158 0.537,0.104 0.697,-0.122 0.159,-0.226 0.104,-0.538 -0.123,-0.697 l -2.455,-1.723 c -0.087,-0.061 -0.187,-0.091 -0.287,-0.091 m -4.912,-3.446 c -0.157,0 -0.311,0.074 -0.409,0.212 -0.159,0.227 -0.104,0.538 0.122,0.697 l 2.456,1.723 c 0.224,0.159 0.537,0.105 0.696,-0.122 0.16,-0.226 0.105,-0.537 -0.122,-0.696 l -2.456,-1.724 c -0.087,-0.061 -0.187,-0.09 -0.287,-0.09 m -4.911,-3.447 c -0.157,0 -0.311,0.075 -0.409,0.213 -0.159,0.226 -0.105,0.538 0.122,0.696 l 2.456,1.724 c 0.224,0.158 0.536,0.104 0.696,-0.122 0.159,-0.227 0.105,-0.538 -0.122,-0.697 l -2.456,-1.723 c -0.087,-0.061 -0.187,-0.091 -0.287,-0.091 m -4.911,-3.446 c -0.157,0 -0.312,0.074 -0.409,0.212 -0.159,0.226 -0.105,0.538 0.122,0.697 l 2.456,1.723 c 0.223,0.159 0.537,0.104 0.696,-0.122 0.159,-0.226 0.105,-0.538 -0.122,-0.697 l -2.456,-1.723 c -0.087,-0.061 -0.187,-0.09 -0.287,-0.09 m -4.911,-3.447 c -0.157,0 -0.312,0.074 -0.409,0.213 -0.16,0.226 -0.105,0.537 0.122,0.696 l 2.456,1.724 c 0.224,0.158 0.536,0.104 0.696,-0.123 0.159,-0.226 0.105,-0.537 -0.122,-0.696 l -2.456,-1.723 c -0.087,-0.062 -0.188,-0.091 -0.287,-0.091 m -3.122,-2.191 c -0.158,0 -0.312,0.074 -0.409,0.212 -0.16,0.226 -0.105,0.538 0.122,0.697 l 0.666,0.468 c 0.223,0.158 0.537,0.104 0.696,-0.122 0.159,-0.226 0.104,-0.538 -0.122,-0.697 l -0.666,-0.467 c -0.087,-0.062 -0.188,-0.091 -0.287,-0.091"
         style="fill:#ffffff;fill-opacity:1;fill-rule:nonzero;stroke:none"
         id="path7602" />
    </g>
    <g
       id="g7604"
       transform="matrix(1.25,0,0,-1.25,98.222367,526.02152)">
      <path
         d="m 0,0 c 0,-3.071 -2.49,-5.561 -5.561,-5.561 -3.071,0 -5.56,2.49 -5.56,5.561 0,3.071 2.489,5.561 5.56,5.561 C -2.49,5.561 0,3.071 0,0"
         style="fill:#ffffff;fill-opacity:1;fill-rule:nonzero;stroke:none"
         id="path7606" />
    </g>
    <g
       id="g7608"
       transform="matrix(1.25,0,0,-1.25,90.932467,462.39922)">
      <path
         d="m 0,0 c -0.276,0 -0.5,0.224 -0.5,0.5 l -0.002,3 c 0,0.276 0.224,0.5 0.5,0.5 0.276,0 0.5,-0.224 0.5,-0.5 L 0.5,0.5 C 0.5,0.224 0.276,0 0,0 m 0.004,-6 c -0.276,0 -0.5,0.224 -0.5,0.5 l -0.002,3 c 0,0.276 0.224,0.5 0.5,0.5 0.276,0 0.5,-0.224 0.5,-0.5 l 0.002,-3 C 0.504,-5.776 0.28,-6 0.004,-6 m 0.004,-6 c -0.277,0 -0.5,0.224 -0.5,0.5 l -0.002,3 c 0,0.276 0.223,0.5 0.5,0.5 0.276,0 0.5,-0.224 0.5,-0.5 l 0.002,-3 c 0,-0.276 -0.224,-0.5 -0.5,-0.5 m 0.004,-6 c -0.277,0 -0.5,0.224 -0.5,0.5 l -0.002,3 c 0,0.276 0.223,0.5 0.5,0.5 0.276,0 0.5,-0.224 0.5,-0.5 l 0.002,-3 c 0,-0.276 -0.224,-0.5 -0.5,-0.5 m 0.005,-6 c -0.277,0 -0.5,0.224 -0.5,0.5 l -0.003,3 c 0,0.276 0.223,0.5 0.5,0.5 0.276,0 0.5,-0.224 0.5,-0.5 l 0.003,-3 c 0,-0.276 -0.224,-0.5 -0.5,-0.5 m 0.004,-6 c -0.277,0 -0.5,0.224 -0.5,0.5 l -0.002,3 c 0,0.276 0.223,0.5 0.5,0.5 0.276,0 0.5,-0.224 0.5,-0.5 l 0.002,-3 c 0,-0.276 -0.224,-0.5 -0.5,-0.5 m 0.003,-6 c -0.276,0 -0.5,0.224 -0.5,0.5 l -0.002,3 c 0,0.276 0.224,0.5 0.5,0.5 0.277,0 0.5,-0.224 0.5,-0.5 l 0.002,-3 c 0,-0.276 -0.223,-0.5 -0.5,-0.5 m 0.004,-6 c -0.276,0 -0.5,0.224 -0.5,0.5 l -0.002,3 c 0,0.276 0.224,0.5 0.5,0.5 0.277,0 0.5,-0.224 0.5,-0.5 l 0.002,-3 c 0,-0.276 -0.223,-0.5 -0.5,-0.5 m 0.004,-6 c -0.276,0 -0.5,0.224 -0.5,0.5 l -0.002,3 c 0,0.276 0.224,0.5 0.5,0.5 0.277,0 0.5,-0.224 0.5,-0.5 l 0.002,-3 c 0,-0.276 -0.223,-0.5 -0.5,-0.5 m 0.004,-6 c -0.276,0 -0.5,0.224 -0.5,0.5 l -0.002,3 c 0,0.276 0.224,0.5 0.5,0.5 0.277,0 0.5,-0.224 0.5,-0.5 l 0.002,-3 c 0,-0.276 -0.224,-0.5 -0.5,-0.5 m 0.004,-6 c -0.276,0 -0.5,0.224 -0.5,0.5 l -0.002,3 c 0,0.276 0.224,0.5 0.5,0.5 0.276,0 0.5,-0.224 0.5,-0.5 l 0.002,-3 c 0,-0.276 -0.224,-0.5 -0.5,-0.5 m 0.004,-6 c -0.276,0 -0.5,0.224 -0.5,0.5 l -0.002,3 c 0,0.276 0.224,0.5 0.5,0.5 0.276,0 0.5,-0.224 0.5,-0.5 l 0.002,-3 c 0,-0.276 -0.224,-0.5 -0.5,-0.5 m 0.005,-6 c -0.277,0 -0.5,0.224 -0.5,0.5 l -0.003,3 c 0,0.276 0.224,0.5 0.499,0.5 l 0.001,0 c 0.276,0 0.5,-0.224 0.5,-0.5 l 0.003,-3 c 0,-0.276 -0.224,-0.5 -0.499,-0.5 l -0.001,0 z m 0.004,-6 c -0.277,0 -0.5,0.224 -0.5,0.5 l -0.002,3 c 0,0.276 0.223,0.5 0.5,0.5 0.276,0 0.5,-0.224 0.5,-0.5 l 0.002,-3 c 0,-0.276 -0.224,-0.5 -0.5,-0.5 m 0.004,-6 c -0.277,0 -0.5,0.224 -0.5,0.5 l -0.002,3 c 0,0.276 0.223,0.5 0.5,0.5 0.276,0 0.5,-0.224 0.5,-0.5 l 0.002,-3 c 0,-0.276 -0.224,-0.5 -0.5,-0.5 m 0.004,-6 c -0.277,0 -0.5,0.224 -0.5,0.5 l -0.002,3 c 0,0.276 0.223,0.5 0.5,0.5 0.276,0 0.5,-0.224 0.5,-0.5 l 0.002,-3 c 0,-0.276 -0.224,-0.5 -0.5,-0.5 m 0.003,-6 c -0.276,0 -0.5,0.224 -0.5,0.5 l -0.001,3 c 0,0.276 0.223,0.5 0.499,0.5 0.277,0 0.5,-0.224 0.5,-0.5 l 0.002,-3 c 0,-0.276 -0.223,-0.5 -0.5,-0.5 m 0.004,-6 c -0.276,0 -0.5,0.224 -0.5,0.5 l -0.002,3 c 0,0.276 0.224,0.5 0.5,0.5 0.277,0 0.5,-0.224 0.5,-0.5 l 0.002,-3 c 0,-0.276 -0.223,-0.5 -0.5,-0.5"
         style="fill:#ffffff;fill-opacity:1;fill-rule:nonzero;stroke:none"
         id="path7610" />
    </g>
    <g
       id="g7612"
       transform="matrix(1.25,0,0,-1.25,145.55397,479.07962)">
      <path
         d="m 0,0 c -4.021,0 -7.291,-3.271 -7.291,-7.292 0,-4.021 3.27,-7.291 7.291,-7.291 4.021,0 7.292,3.27 7.292,7.291 C 7.292,-3.271 4.021,0 0,0 m 0,-18.583 c -6.226,0 -11.291,5.065 -11.291,11.291 C -11.291,-1.065 -6.226,4 0,4 6.227,4 11.292,-1.065 11.292,-7.292 11.292,-13.518 6.227,-18.583 0,-18.583"
         style="fill:#ffffff;fill-opacity:1;fill-rule:nonzero;stroke:none"
         id="path7614" />
    </g>
    <g
       id="g7616"
       transform="matrix(1.25,0,0,-1.25,35.351367,479.07962)">
      <path
         d="m 0,0 c -4.021,0 -7.292,-3.271 -7.292,-7.292 0,-4.021 3.271,-7.291 7.292,-7.291 4.021,0 7.291,3.27 7.291,7.291 C 7.291,-3.271 4.021,0 0,0 m 0,-18.583 c -6.227,0 -11.292,5.065 -11.292,11.291 C -11.292,-1.065 -6.227,4 0,4 6.226,4 11.291,-1.065 11.291,-7.292 11.291,-13.518 6.226,-18.583 0,-18.583"
         style="fill:#ffffff;fill-opacity:1;fill-rule:nonzero;stroke:none"
         id="path7618" />
    </g>
  </g>
</svg>
