<?xml version="1.0" encoding="UTF-8" standalone="no"?>
<svg
   xmlns:dc="http://purl.org/dc/elements/1.1/"
   xmlns:cc="http://creativecommons.org/ns#"
   xmlns:rdf="http://www.w3.org/1999/02/22-rdf-syntax-ns#"
   xmlns:svg="http://www.w3.org/2000/svg"
   xmlns="http://www.w3.org/2000/svg"
   height="141.39999"
   width="140"
   xml:space="preserve"
   viewBox="0 0 140 141.4"
   y="0px"
   x="0px"
   id="Layer_1"
   version="1.1"><metadata
     id="metadata6387"><rdf:RDF><cc:Work
         rdf:about=""><dc:format>image/svg+xml</dc:format><dc:type
           rdf:resource="http://purl.org/dc/dcmitype/StillImage" /><dc:title></dc:title></cc:Work></rdf:RDF></metadata><defs
     id="defs6385" /><style
     id="style6319"
     type="text/css">
	.st0{display:none;}
	.st1{display:inline;fill:#FFFFFF;}
	.st2{fill:#FFFFFF;}
</style><g
     transform="translate(0,-3.8964844e-6)"
     style="display:none"
     class="st0"
     id="XMLID_1167_"><g
       id="XMLID_2_"><path
         style="display:inline;fill:#ffffff"
         d="m 56.5,141.4 c -0.1,0 -0.2,0 -0.2,-0.2 l 0,-2.6 c 0,-0.1 0.1,-0.2 0.2,-0.2 l 5.3,0 c 0.1,0 0.2,0 0.2,0.2 l 0,2.6 c 0,0.1 0,0.2 -0.2,0.2 l -5.3,0 z"
         class="st1"
         id="XMLID_761_" /><path
         style="display:inline;fill:#ffffff"
         d="m -17.8,172.7 c -0.8,-0.3 -1.4,-0.7 -1.9,-1.1 -0.1,-0.1 -0.1,-0.2 0,-0.3 l 1.3,-1.5 c 0.1,-0.1 0.2,-0.1 0.3,0 1,0.8 2,1.2 3,1.2 1.2,0 1.9,-0.5 1.9,-1.4 0,-0.7 -0.5,-1.1 -1.8,-1.3 l -0.6,-0.1 c -2.4,-0.3 -3.6,-1.5 -3.6,-3.4 0,-1.1 0.4,-1.9 1.1,-2.5 0.7,-0.6 1.7,-1 3,-1 1.6,0 2.9,0.4 3.9,1.2 0.1,0.1 0.1,0.2 0,0.3 l -1,1.5 c -0.1,0.1 -0.2,0.1 -0.2,0.1 -0.9,-0.6 -1.8,-0.9 -2.7,-0.9 -1,0 -1.5,0.5 -1.5,1.2 0,0.7 0.5,1.1 1.8,1.3 l 0.6,0.1 c 2.4,0.3 3.6,1.5 3.6,3.5 0,2.2 -1.6,3.6 -4.5,3.6 -1,0 -1.9,-0.2 -2.7,-0.5 z"
         class="st1"
         id="XMLID_763_" /><path
         style="display:inline;fill:#ffffff"
         d="m -9.1,173 c -0.1,0 -0.2,-0.1 -0.2,-0.2 l 0,-11.1 c 0,-0.1 0,-0.2 0.2,-0.2 l 4.4,0 c 1.2,0 2.2,0.3 2.9,1 0.7,0.7 1.1,1.6 1.1,2.7 0,1.1 -0.4,2 -1.1,2.7 -0.7,0.7 -1.7,1 -2.9,1 l -2,0 c -0.1,0 -0.1,0 -0.1,0.1 l 0,3.8 c 0,0.1 0,0.2 -0.2,0.2 l -2.1,0 z m 4.3,-6.2 c 1,0 1.7,-0.6 1.7,-1.5 0,-0.9 -0.6,-1.5 -1.7,-1.5 l -1.9,0 c -0.1,0 -0.1,0 -0.1,0.1 l 0,2.9 c 0,0.1 0,0.1 0.1,0.1 l 1.9,0 z"
         class="st1"
         id="XMLID_765_" /><path
         style="display:inline;fill:#ffffff"
         d="m 0.9,161.7 c 0,-0.1 0,-0.2 0.2,-0.2 l 7.3,0 c 0.1,0 0.2,0.1 0.2,0.2 l 0,1.8 c 0,0.1 -0.1,0.2 -0.2,0.2 l -4.9,0 c -0.1,0 -0.1,0 -0.1,0.1 l 0,2.3 c 0,0.1 0,0.1 0.1,0.1 l 4.1,0 c 0.1,0 0.2,0 0.2,0.2 l 0,1.8 c 0,0.1 -0.1,0.2 -0.2,0.2 l -4.1,0 c -0.1,0 -0.1,0 -0.1,0.1 l 0,2.4 c 0,0.1 0,0.1 0.1,0.1 l 4.9,0 c 0.1,0 0.2,0 0.2,0.2 l 0,1.8 c 0,0.1 -0.1,0.2 -0.2,0.2 l -7.3,0 C 1,173.2 0.9,173.1 0.9,173 l 0,-11.3 z"
         class="st1"
         id="XMLID_768_" /><path
         style="display:inline;fill:#ffffff"
         d="m 13.6,161.7 c 0,-0.1 0.1,-0.2 0.2,-0.2 l 2.1,0 c 0.1,0 0.2,0.1 0.2,0.2 l 3.9,11.1 c 0,0.1 0,0.2 -0.1,0.2 l -2.2,0 c -0.1,0 -0.2,-0.1 -0.2,-0.2 l -0.7,-2 -4,0 -0.6,2 c 0,0.1 -0.1,0.2 -0.2,0.2 l -2.2,0 c -0.1,0 -0.2,-0.1 -0.1,-0.2 l 3.9,-11.1 z m -0.1,7 2.6,0 -1.3,-4 -0.1,0 -1.2,4 z"
         class="st1"
         id="XMLID_770_" /><path
         style="display:inline;fill:#ffffff"
         d="m 21.3,161.7 c 0,-0.1 0,-0.2 0.2,-0.2 l 2.1,0 c 0.1,0 0.2,0.1 0.2,0.2 l 0,4.9 3.8,-5 c 0.1,-0.1 0.2,-0.2 0.3,-0.2 l 2.4,0 c 0.1,0 0.2,0.1 0.1,0.2 l -3.5,4.3 3.8,6.7 c 0.1,0.1 0.1,0.2 -0.1,0.2 l -2.5,0 c -0.1,0 -0.2,-0.1 -0.3,-0.2 l -2.6,-4.8 -1.5,1.9 0,2.9 c 0,0.1 0,0.2 -0.2,0.2 l -2.1,0 c -0.1,0 -0.2,-0.1 -0.2,-0.2 l 0,-10.9 z"
         class="st1"
         id="XMLID_773_" /><path
         style="display:inline;fill:#ffffff"
         d="m 32.1,161.7 c 0,-0.1 0,-0.2 0.2,-0.2 l 7.3,0 c 0.1,0 0.2,0.1 0.2,0.2 l 0,1.8 c 0,0.1 -0.1,0.2 -0.2,0.2 l -4.9,0 c -0.1,0 -0.1,0 -0.1,0.1 l 0,2.3 c 0,0.1 0,0.1 0.1,0.1 l 4.1,0 c 0.1,0 0.2,0 0.2,0.2 l 0,1.8 c 0,0.1 0,0.2 -0.2,0.2 l -4.1,0 c -0.1,0 -0.1,0 -0.1,0.1 l 0,2.4 c 0,0.1 0,0.1 0.1,0.1 l 4.9,0 c 0.1,0 0.2,0 0.2,0.2 l 0,1.8 c 0,0.1 -0.1,0.2 -0.2,0.2 l -7.3,0 c -0.1,0 -0.2,-0.1 -0.2,-0.2 l 0,-11.3 z"
         class="st1"
         id="XMLID_775_" /><path
         style="display:inline;fill:#ffffff"
         d="m 48,173 c -0.1,0 -0.2,-0.1 -0.3,-0.2 l -2,-4.2 -1.5,0 c -0.1,0 -0.1,0 -0.1,0.1 l 0,4.1 c 0,0.1 0,0.2 -0.2,0.2 l -2.1,0 c -0.1,0 -0.2,-0.1 -0.2,-0.2 l 0,-11.1 c 0,-0.1 0,-0.2 0.2,-0.2 l 4.6,0 c 1.2,0 2.1,0.3 2.8,1 0.7,0.7 1.1,1.5 1.1,2.6 0,1.5 -0.8,2.6 -2,3.2 l 2.3,4.5 c 0.1,0.1 0,0.2 -0.1,0.2 l -2.5,0 z m -1.8,-6.5 c 0.9,0 1.5,-0.6 1.5,-1.4 0,-0.9 -0.6,-1.4 -1.5,-1.4 l -2,0 c -0.1,0 -0.1,0 -0.1,0.1 l 0,2.6 c 0,0.1 0,0.1 0.1,0.1 l 2,0 z"
         class="st1"
         id="XMLID_777_" /><path
         style="display:inline;fill:#ffffff"
         d="m 52,164.9 0,-3.2 c 0,-0.1 0.1,-0.2 0.2,-0.2 l 1.7,0 c 0.1,0 0.2,0.1 0.2,0.2 l 0,1.8 c 0,0.2 0,0.3 -0.2,0.4 l -1.4,1.1 c -0.1,0.1 -0.2,0.1 -0.3,0.1 -0.2,0 -0.2,-0.1 -0.2,-0.2 z"
         class="st1"
         id="XMLID_780_" /><path
         style="display:inline;fill:#ffffff"
         d="m 57.5,172.7 c -0.8,-0.3 -1.4,-0.7 -1.9,-1.1 -0.1,-0.1 -0.1,-0.2 0,-0.3 l 1.3,-1.5 c 0.1,-0.1 0.2,-0.1 0.3,0 1,0.8 2,1.2 3,1.2 1.2,0 1.9,-0.5 1.9,-1.4 0,-0.7 -0.5,-1.1 -1.8,-1.3 l -0.6,-0.1 c -2.4,-0.3 -3.6,-1.5 -3.6,-3.4 0,-1.1 0.4,-1.9 1.1,-2.5 0.7,-0.6 1.7,-1 3,-1 1.6,0 2.9,0.4 3.9,1.2 0.1,0.1 0.1,0.2 0,0.3 l -1,1.5 c -0.1,0.1 -0.2,0.1 -0.2,0.1 -0.9,-0.6 -1.8,-0.9 -2.7,-0.9 -1,0 -1.5,0.5 -1.5,1.2 0,0.7 0.5,1.1 1.8,1.3 l 0.6,0.1 c 2.4,0.3 3.6,1.5 3.6,3.5 0,2.2 -1.6,3.6 -4.5,3.6 -1.1,0 -1.9,-0.2 -2.7,-0.5 z"
         class="st1"
         id="XMLID_782_" /><path
         style="display:inline;fill:#ffffff"
         d="m 71.1,172 c -0.8,-0.8 -1.2,-1.8 -1.2,-3.2 l 0,-7.1 c 0,-0.1 0.1,-0.2 0.2,-0.2 l 2.1,0 c 0.1,0 0.2,0.1 0.2,0.2 l 0,7.1 c 0,1.3 0.8,2.1 1.9,2.1 1.2,0 1.9,-0.8 1.9,-2.1 l 0,-7.1 c 0,-0.1 0.1,-0.2 0.2,-0.2 l 2.1,0 c 0.1,0 0.2,0.1 0.2,0.2 l 0,7.1 c 0,1.4 -0.4,2.5 -1.2,3.2 -0.8,0.8 -1.8,1.1 -3.2,1.1 -1.3,0.1 -2.4,-0.3 -3.2,-1.1 z"
         class="st1"
         id="XMLID_784_" /><path
         style="display:inline;fill:#ffffff"
         d="m 81,173 c -0.1,0 -0.2,-0.1 -0.2,-0.2 l 0,-11.1 c 0,-0.1 0,-0.2 0.2,-0.2 l 4.4,0 c 1.2,0 2.2,0.3 2.9,1 0.7,0.7 1.1,1.6 1.1,2.7 0,1.1 -0.4,2 -1.1,2.7 -0.7,0.7 -1.7,1 -2.9,1 l -2,0 c -0.1,0 -0.1,0 -0.1,0.1 l 0,3.8 c 0,0.1 0,0.2 -0.2,0.2 l -2.1,0 z m 4.3,-6.2 c 1,0 1.7,-0.6 1.7,-1.5 0,-0.9 -0.6,-1.5 -1.7,-1.5 l -1.9,0 c -0.1,0 -0.1,0 -0.1,0.1 l 0,2.9 c 0,0.1 0,0.1 0.1,0.1 l 1.9,0 z"
         class="st1"
         id="XMLID_786_" /><path
         style="display:inline;fill:#ffffff"
         d="m 91,161.7 c 0,-0.1 0,-0.2 0.2,-0.2 l 4.3,0 c 2.1,0 3.4,0.9 4,2.6 0.2,0.6 0.3,1.7 0.3,3.1 0,1.4 -0.1,2.5 -0.3,3.1 -0.6,1.7 -1.9,2.6 -4,2.6 l -4.3,0 c -0.1,0 -0.2,-0.1 -0.2,-0.2 l 0,-11 z m 2.5,9 c 0,0.1 0,0.1 0.1,0.1 l 1.3,0 c 1.2,0 1.9,-0.4 2.1,-1.3 0.1,-0.4 0.2,-1.1 0.2,-2.3 0,-1.2 -0.1,-1.9 -0.2,-2.3 -0.3,-0.8 -1,-1.3 -2.1,-1.3 l -1.3,0 c -0.1,0 -0.1,0 -0.1,0.1 l 0,7 z"
         class="st1"
         id="XMLID_789_" /><path
         style="display:inline;fill:#ffffff"
         d="m 104.3,161.7 c 0,-0.1 0.1,-0.2 0.2,-0.2 l 2.1,0 c 0.1,0 0.2,0.1 0.2,0.2 l 3.9,11.1 c 0,0.1 0,0.2 -0.1,0.2 l -2.2,0 c -0.1,0 -0.2,-0.1 -0.2,-0.2 l -0.7,-2 -4,0 -0.6,2 c 0,0.1 -0.1,0.2 -0.2,0.2 l -2.2,0 c -0.1,0 -0.2,-0.1 -0.1,-0.2 l 3.9,-11.1 z m -0.1,7 2.6,0 -1.3,-4 -0.1,0 -1.2,4 z"
         class="st1"
         id="XMLID_792_" /><path
         style="display:inline;fill:#ffffff"
         d="m 113.5,173 c -0.1,0 -0.2,-0.1 -0.2,-0.2 l 0,-9 c 0,-0.1 0,-0.1 -0.1,-0.1 l -2.9,0 c -0.1,0 -0.2,-0.1 -0.2,-0.2 l 0,-1.9 c 0,-0.1 0,-0.2 0.2,-0.2 l 8.5,0 c 0.1,0 0.2,0.1 0.2,0.2 l 0,1.9 c 0,0.1 -0.1,0.2 -0.2,0.2 l -2.9,0 c -0.1,0 -0.1,0 -0.1,0.1 l 0,9 c 0,0.1 -0.1,0.2 -0.2,0.2 l -2.1,0 z"
         class="st1"
         id="XMLID_795_" /><path
         style="display:inline;fill:#ffffff"
         d="m 120.3,161.7 c 0,-0.1 0,-0.2 0.2,-0.2 l 7.3,0 c 0.1,0 0.2,0.1 0.2,0.2 l 0,1.8 c 0,0.1 -0.1,0.2 -0.2,0.2 l -4.9,0 c -0.1,0 -0.1,0 -0.1,0.1 l 0,2.3 c 0,0.1 0,0.1 0.1,0.1 l 4.1,0 c 0.1,0 0.2,0 0.2,0.2 l 0,1.8 c 0,0.1 0,0.2 -0.2,0.2 l -4.1,0 c -0.1,0 -0.1,0 -0.1,0.1 l 0,2.4 c 0,0.1 0,0.1 0.1,0.1 l 4.9,0 c 0.1,0 0.2,0 0.2,0.2 l 0,1.8 c 0,0.1 -0.1,0.2 -0.2,0.2 l -7.3,0 c -0.1,0 -0.2,-0.1 -0.2,-0.2 l 0,-11.3 z"
         class="st1"
         id="XMLID_797_" /><path
         style="display:inline;fill:#ffffff"
         d="m 131.3,172.7 c -0.8,-0.3 -1.4,-0.7 -1.9,-1.1 -0.1,-0.1 -0.1,-0.2 0,-0.3 l 1.3,-1.5 c 0.1,-0.1 0.2,-0.1 0.3,0 1,0.8 2,1.2 3,1.2 1.2,0 1.9,-0.5 1.9,-1.4 0,-0.7 -0.5,-1.1 -1.8,-1.3 l -0.6,-0.1 c -2.4,-0.3 -3.6,-1.5 -3.6,-3.4 0,-1.1 0.4,-1.9 1.1,-2.5 0.7,-0.6 1.7,-1 3,-1 1.6,0 2.9,0.4 3.9,1.2 0.1,0.1 0.1,0.2 0,0.3 l -1,1.5 c -0.1,0.1 -0.2,0.1 -0.2,0.1 -0.9,-0.6 -1.8,-0.9 -2.7,-0.9 -1,0 -1.5,0.5 -1.5,1.2 0,0.7 0.5,1.1 1.8,1.3 l 0.6,0.1 c 2.4,0.3 3.6,1.5 3.6,3.5 0,2.2 -1.6,3.6 -4.5,3.6 -1.1,0 -1.9,-0.2 -2.7,-0.5 z"
         class="st1"
         id="XMLID_799_" /></g></g><g
     transform="translate(0,-3.8964844e-6)"
     id="XMLID_1165_"><g
       style="display:none"
       class="st0"
       id="XMLID_106_"><path
         style="display:inline;fill:#ffffff"
         d="m 57.5,140.5 c -0.1,0 -0.2,0 -0.2,-0.2 l 0,-2.6 c 0,-0.1 0.1,-0.2 0.2,-0.2 l 5.3,0 c 0.1,0 0.2,0 0.2,0.2 l 0,2.6 c 0,0.1 0,0.2 -0.2,0.2 l -5.3,0 z"
         class="st1"
         id="XMLID_341_" /><path
         style="display:inline;fill:#ffffff"
         d="m 5.6,172.1 c -0.1,0 -0.2,-0.1 -0.2,-0.2 l 0,-9 c 0,-0.1 0,-0.1 -0.1,-0.1 l -2.8,0 c -0.1,0 -0.2,-0.1 -0.2,-0.2 l 0,-1.9 c 0,-0.1 0,-0.2 0.2,-0.2 l 8.5,0 c 0.1,0 0.2,0.1 0.2,0.2 l 0,1.9 c 0,0.1 -0.1,0.2 -0.2,0.2 l -3,0 c -0.1,0 -0.1,0 -0.1,0.1 l 0,9 c 0,0.1 -0.1,0.2 -0.2,0.2 l -2.1,0 z"
         class="st1"
         id="XMLID_339_" /><path
         style="display:inline;fill:#ffffff"
         d="m 12.5,160.9 c 0,-0.1 0,-0.2 0.2,-0.2 l 7.3,0 c 0.1,0 0.2,0.1 0.2,0.2 l 0,1.8 c 0,0.1 -0.1,0.2 -0.2,0.2 l -5,0 c -0.1,0 -0.1,0 -0.1,0.1 l 0,2.3 c 0,0.1 0,0.1 0.1,0.1 l 4.1,0 c 0.1,0 0.2,0 0.2,0.2 l 0,1.8 c 0,0.1 -0.1,0.2 -0.2,0.2 l -4.1,0 c -0.1,0 -0.1,0 -0.1,0.1 l 0,2.4 c 0,0.1 0,0.1 0.1,0.1 l 5,0 c 0.1,0 0.2,0 0.2,0.2 l 0,1.8 c 0,0.1 -0.1,0.2 -0.2,0.2 l -7.3,0 c -0.1,0 -0.2,-0.1 -0.2,-0.2 l 0,-11.3 z"
         class="st1"
         id="XMLID_233_" /><path
         style="display:inline;fill:#ffffff"
         d="m 25.1,160.9 c 0,-0.1 0.1,-0.2 0.2,-0.2 l 2.1,0 c 0.1,0 0.2,0.1 0.2,0.2 l 3.9,11.1 c 0,0.1 0,0.2 -0.1,0.2 l -2.2,0 c -0.1,0 -0.2,-0.1 -0.2,-0.2 l -0.7,-2 -4,0 -0.6,2 c 0,0.1 -0.1,0.2 -0.2,0.2 l -2.2,0 c -0.1,0 -0.2,-0.1 -0.1,-0.2 l 3.9,-11.1 z m -0.1,7 2.6,0 -1.3,-4 -0.1,0 -1.2,4 z"
         class="st1"
         id="XMLID_230_" /><path
         style="display:inline;fill:#ffffff"
         d="m 32.8,160.9 c 0,-0.1 0,-0.2 0.2,-0.2 l 2,0 c 0.1,0 0.2,0.1 0.3,0.2 l 2.9,6.5 0.1,0 2.8,-6.5 c 0.1,-0.1 0.1,-0.2 0.3,-0.2 l 2,0 c 0.1,0 0.2,0.1 0.2,0.2 l 0,11.1 c 0,0.1 -0.1,0.2 -0.2,0.2 l -1.9,0 c -0.1,0 -0.2,-0.1 -0.2,-0.2 l 0,-6.4 -0.1,0 -2.1,4.8 c -0.1,0.2 -0.2,0.2 -0.3,0.2 l -1.2,0 c -0.2,0 -0.3,-0.1 -0.3,-0.2 l -2.1,-4.8 -0.2,0 0,6.4 c 0,0.1 0,0.2 -0.2,0.2 l -1.8,0 c -0.1,0 -0.2,-0.1 -0.2,-0.2 l 0,-11.1 z"
         class="st1"
         id="XMLID_178_" /><path
         style="display:inline;fill:#ffffff"
         d="M 50.8,171.2 C 50,170.4 49.6,169.4 49.6,168 l 0,-7.1 c 0,-0.1 0.1,-0.2 0.2,-0.2 l 2.1,0 c 0.1,0 0.2,0.1 0.2,0.2 l 0,7.1 c 0,1.3 0.8,2.1 1.9,2.1 1.2,0 1.9,-0.8 1.9,-2.1 l 0,-7.1 c 0,-0.1 0.1,-0.2 0.2,-0.2 l 2.1,0 c 0.1,0 0.2,0.1 0.2,0.2 l 0,7.1 c 0,1.4 -0.4,2.5 -1.2,3.2 -0.8,0.8 -1.8,1.1 -3.2,1.1 -1.4,0 -2.4,-0.4 -3.2,-1.1 z"
         class="st1"
         id="XMLID_176_" /><path
         style="display:inline;fill:#ffffff"
         d="m 60.6,172.1 c -0.1,0 -0.2,-0.1 -0.2,-0.2 l 0,-11.1 c 0,-0.1 0,-0.2 0.2,-0.2 l 4.4,0 c 1.2,0 2.2,0.3 2.9,1 0.7,0.7 1.1,1.6 1.1,2.7 0,1.1 -0.4,2 -1.1,2.7 -0.7,0.7 -1.7,1 -2.9,1 l -2,0 c -0.1,0 -0.1,0 -0.1,0.1 l 0,3.8 c 0,0.1 0,0.2 -0.2,0.2 l -2.1,0 z m 4.3,-6.2 c 1,0 1.7,-0.6 1.7,-1.5 0,-0.9 -0.6,-1.5 -1.7,-1.5 l -1.9,0 c -0.1,0 -0.1,0 -0.1,0.1 l 0,2.9 c 0,0.1 0,0.1 0.1,0.1 l 1.9,0 z"
         class="st1"
         id="XMLID_173_" /><path
         style="display:inline;fill:#ffffff"
         d="m 70.6,160.9 c 0,-0.1 0,-0.2 0.2,-0.2 l 4.3,0 c 2.1,0 3.4,0.9 4,2.6 0.2,0.6 0.3,1.7 0.3,3.1 0,1.4 -0.1,2.5 -0.3,3.1 -0.6,1.7 -1.9,2.6 -4,2.6 l -4.3,0 c -0.1,0 -0.2,-0.1 -0.2,-0.2 l 0,-11 z m 2.5,8.9 c 0,0.1 0,0.1 0.1,0.1 l 1.3,0 c 1.2,0 1.9,-0.4 2.1,-1.3 0.1,-0.4 0.2,-1.1 0.2,-2.3 0,-1.2 -0.1,-1.9 -0.2,-2.3 -0.3,-0.8 -1,-1.3 -2.1,-1.3 l -1.3,0 c -0.1,0 -0.1,0 -0.1,0.1 l 0,7 z"
         class="st1"
         id="XMLID_116_" /><path
         style="display:inline;fill:#ffffff"
         d="m 83.9,160.9 c 0,-0.1 0.1,-0.2 0.2,-0.2 l 2.1,0 c 0.1,0 0.2,0.1 0.2,0.2 l 3.9,11.1 c 0,0.1 0,0.2 -0.1,0.2 l -2.2,0 c -0.1,0 -0.2,-0.1 -0.2,-0.2 l -0.7,-2 -4,0 -0.6,2 c 0,0.1 -0.1,0.2 -0.2,0.2 l -2.2,0 c -0.1,0 -0.2,-0.1 -0.1,-0.2 l 3.9,-11.1 z m 0,7 2.6,0 -1.3,-4 -0.1,0 -1.2,4 z"
         class="st1"
         id="XMLID_113_" /><path
         style="display:inline;fill:#ffffff"
         d="m 93.1,172.1 c -0.1,0 -0.2,-0.1 -0.2,-0.2 l 0,-9 c 0,-0.1 0,-0.1 -0.1,-0.1 l -2.9,0 c -0.1,0 -0.2,-0.1 -0.2,-0.2 l 0,-1.9 c 0,-0.1 0,-0.2 0.2,-0.2 l 8.5,0 c 0.1,0 0.2,0.1 0.2,0.2 l 0,1.9 c 0,0.1 -0.1,0.2 -0.2,0.2 l -2.9,0 c -0.1,0 -0.1,0 -0.1,0.1 l 0,9 c 0,0.1 -0.1,0.2 -0.2,0.2 l -2.1,0 z"
         class="st1"
         id="XMLID_111_" /><path
         style="display:inline;fill:#ffffff"
         d="m 99.9,160.9 c 0,-0.1 0,-0.2 0.2,-0.2 l 7.3,0 c 0.1,0 0.2,0.1 0.2,0.2 l 0,1.8 c 0,0.1 -0.1,0.2 -0.2,0.2 l -4.9,0 c -0.1,0 -0.1,0 -0.1,0.1 l 0,2.3 c 0,0.1 0,0.1 0.1,0.1 l 4.1,0 c 0.1,0 0.2,0 0.2,0.2 l 0,1.8 c 0,0.1 -0.1,0.2 -0.2,0.2 l -4.1,0 c -0.1,0 -0.1,0 -0.1,0.1 l 0,2.4 c 0,0.1 0,0.1 0.1,0.1 l 4.9,0 c 0.1,0 0.2,0 0.2,0.2 l 0,1.8 c 0,0.1 -0.1,0.2 -0.2,0.2 l -7.3,0 c -0.1,0 -0.2,-0.1 -0.2,-0.2 l 0,-11.3 z"
         class="st1"
         id="XMLID_109_" /><path
         style="display:inline;fill:#ffffff"
         d="m 110.9,171.9 c -0.8,-0.3 -1.4,-0.7 -1.9,-1.1 -0.1,-0.1 -0.1,-0.2 0,-0.3 l 1.3,-1.5 c 0.1,-0.1 0.2,-0.1 0.3,0 1,0.8 2,1.2 3,1.2 1.2,0 1.9,-0.5 1.9,-1.4 0,-0.7 -0.5,-1.1 -1.8,-1.3 l -0.6,-0.1 c -2.4,-0.3 -3.6,-1.5 -3.6,-3.4 0,-1.1 0.4,-1.9 1.1,-2.5 0.7,-0.6 1.7,-1 3,-1 1.6,0 2.9,0.4 3.9,1.2 0.1,0.1 0.1,0.2 0,0.3 l -1,1.5 c -0.1,0.1 -0.2,0.1 -0.2,0.1 -0.9,-0.6 -1.8,-0.9 -2.7,-0.9 -1,0 -1.5,0.5 -1.5,1.2 0,0.7 0.5,1.1 1.8,1.3 l 0.6,0.1 c 2.4,0.3 3.6,1.5 3.6,3.5 0,2.2 -1.6,3.6 -4.5,3.6 -1.1,-0.1 -1.9,-0.2 -2.7,-0.5 z"
         class="st1"
         id="XMLID_107_" /></g></g><g
     transform="translate(12,-3.8964844e-6)"
     id="XMLID_603_"><g
       id="XMLID_672_"><g
         id="XMLID_676_"><path
           style="fill:#ffffff"
           d="M 58.8,74.5 C 45.8,74.5 35.3,63.9 35.3,51 35.3,38.1 45.9,27.5 58.8,27.5 71.7,27.5 82.3,38 82.3,51 82.3,64 71.7,74.5 58.8,74.5 Z m 0,-43.1 C 48,31.4 39.2,40.2 39.2,51 39.2,61.8 48,70.5 58.8,70.5 69.6,70.5 78.3,61.7 78.3,51 78.3,40.3 69.5,31.4 58.8,31.4 Z"
           class="st2"
           id="XMLID_1159_" /></g><g
         id="XMLID_675_"><path
           style="fill:#ffffff"
           d="m 58.8,102.3 c -13,0 -23.5,-10.6 -23.5,-23.5 0,-12.9 10.6,-23.5 23.5,-23.5 12.9,0 23.5,10.6 23.5,23.5 0,12.9 -10.6,23.5 -23.5,23.5 z m 0,-43.1 C 48,59.2 39.2,68 39.2,78.8 c 0,10.8 8.8,19.5 19.6,19.5 10.8,0 19.5,-8.8 19.5,-19.5 0,-10.7 -8.8,-19.6 -19.5,-19.6 z"
           class="st2"
           id="XMLID_1156_" /></g><g
         id="XMLID_674_"><path
           style="fill:#ffffff"
           d="M 44.9,88.4 C 31.9,88.4 21.4,77.8 21.4,64.9 21.4,52 32,41.4 44.9,41.4 c 12.9,0 23.5,10.6 23.5,23.5 0,12.9 -10.6,23.5 -23.5,23.5 z m 0,-43.1 c -10.8,0 -19.5,8.8 -19.5,19.5 0,10.7 8.8,19.5 19.5,19.5 10.7,0 19.5,-8.8 19.5,-19.5 0,-10.7 -8.8,-19.5 -19.5,-19.5 z"
           class="st2"
           id="XMLID_1153_" /></g><g
         id="XMLID_673_"><path
           style="fill:#ffffff"
           d="m 72.7,88.4 c -13,0 -23.5,-10.6 -23.5,-23.5 0,-12.9 10.6,-23.5 23.5,-23.5 13,0 23.5,10.6 23.5,23.5 0,12.9 -10.5,23.5 -23.5,23.5 z m 0,-43.1 c -10.8,0 -19.5,8.8 -19.5,19.5 0,10.7 8.8,19.5 19.5,19.5 10.8,0 19.5,-8.8 19.5,-19.5 0,-10.7 -8.8,-19.5 -19.5,-19.5 z"
           class="st2"
           id="XMLID_1150_" /></g></g><g
       id="XMLID_671_"><path
         style="fill:#ffffff"
         d="m 58.8,112.5 c -26.3,0 -47.7,-21.4 -47.7,-47.7 0,-26.3 21.4,-47.7 47.7,-47.7 26.3,0 47.7,21.4 47.7,47.7 0,26.3 -21.4,47.7 -47.7,47.7 z m 0,-93.3 c -25.2,0 -45.7,20.5 -45.7,45.7 0,25.2 20.5,45.7 45.7,45.7 25.2,0 45.7,-20.5 45.7,-45.7 C 104.5,39.7 84,19.2 58.8,19.2 Z"
         class="st2"
         id="XMLID_1147_" /></g><g
       id="XMLID_669_"><rect
         style="fill:#ffffff"
         height="9.6000004"
         width="9.6000004"
         class="st2"
         transform="matrix(0.7071,-0.7071,0.7071,0.7071,-68.8639,77.2588)"
         y="116.9"
         x="54"
         id="XMLID_670_" /></g><g
       id="XMLID_668_"><path
         style="fill:#ffffff"
         d="m 58.8,141.4 -4.6,-4.6 4.6,-4.6 4.6,4.6 -4.6,4.6 z m -1.7,-4.6 1.7,1.7 1.7,-1.7 -1.7,-1.7 -1.7,1.7 z"
         class="st2"
         id="XMLID_1144_" /></g><g
       id="XMLID_667_"><path
         style="fill:#ffffff"
         d="m 110,116.6 c -0.1,0 -0.3,0 -0.4,-0.1 l -0.7,-0.7 c -0.2,-0.2 -0.2,-0.5 0,-0.7 0.2,-0.2 0.5,-0.2 0.7,0 l 0.7,0.7 c 0.2,0.2 0.2,0.5 0,0.7 0,0.1 -0.2,0.1 -0.3,0.1 z m -2.8,-2.8 c -0.1,0 -0.3,0 -0.4,-0.1 l -2.1,-2.1 c -0.2,-0.2 -0.2,-0.5 0,-0.7 0.2,-0.2 0.5,-0.2 0.7,0 l 2.1,2.1 c 0.2,0.2 0.2,0.5 0,0.7 0,0.1 -0.2,0.1 -0.3,0.1 z m -4.2,-4.2 c -0.1,0 -0.3,0 -0.4,-0.1 l -2.1,-2.1 c -0.2,-0.2 -0.2,-0.5 0,-0.7 0.2,-0.2 0.5,-0.2 0.7,0 l 2.1,2.1 c 0.2,0.2 0.2,0.5 0,0.7 -0.1,0 -0.2,0.1 -0.3,0.1 z m -4.3,-4.3 c -0.1,0 -0.3,0 -0.4,-0.1 l -2.1,-2.1 c -0.2,-0.2 -0.2,-0.5 0,-0.7 0.2,-0.2 0.5,-0.2 0.7,0 l 2.1,2.1 c 0.2,0.2 0.2,0.5 0,0.7 0,0.1 -0.1,0.1 -0.3,0.1 z m -4.2,-4.2 c -0.1,0 -0.3,0 -0.4,-0.1 L 92,98.8 c -0.2,-0.2 -0.2,-0.5 0,-0.7 0.2,-0.2 0.5,-0.2 0.7,0 l 2.1,2.1 c 0.2,0.2 0.2,0.5 0,0.7 -0.1,0.1 -0.2,0.2 -0.3,0.2 z m -4.3,-4.2 c -0.1,0 -0.3,0 -0.4,-0.1 l -2.1,-2.1 c -0.2,-0.2 -0.2,-0.5 0,-0.7 0.2,-0.2 0.5,-0.2 0.7,0 l 2.1,2.1 c 0.2,0.2 0.2,0.5 0,0.7 0,0 -0.1,0.1 -0.3,0.1 z M 86,92.6 c -0.1,0 -0.3,0 -0.4,-0.1 l -2.1,-2.1 c -0.2,-0.2 -0.2,-0.5 0,-0.7 0.2,-0.2 0.5,-0.2 0.7,0 l 2.1,2.1 c 0.2,0.2 0.2,0.5 0,0.7 0,0.1 -0.2,0.1 -0.3,0.1 z m -4.2,-4.2 c -0.1,0 -0.3,0 -0.4,-0.1 l -2.1,-2.1 c -0.2,-0.2 -0.2,-0.5 0,-0.7 0.2,-0.2 0.5,-0.2 0.7,0 l 2.1,2.1 c 0.2,0.2 0.2,0.5 0,0.7 -0.1,0 -0.2,0.1 -0.3,0.1 z m -4.3,-4.3 c -0.1,0 -0.3,0 -0.4,-0.1 L 75,81.9 c -0.2,-0.2 -0.2,-0.5 0,-0.7 0.2,-0.2 0.5,-0.2 0.7,0 l 2.1,2.1 c 0.2,0.2 0.2,0.5 0,0.7 0,0.1 -0.2,0.1 -0.3,0.1 z m -4.2,-4.2 c -0.1,0 -0.3,0 -0.4,-0.1 l -2.1,-2.1 c -0.2,-0.2 -0.2,-0.5 0,-0.7 0.2,-0.2 0.5,-0.2 0.7,0 l 2.1,2.1 c 0.2,0.2 0.2,0.5 0,0.7 -0.1,0 -0.2,0.1 -0.3,0.1 z M 69,75.6 c -0.1,0 -0.3,0 -0.4,-0.1 l -2.1,-2.1 c -0.2,-0.2 -0.2,-0.5 0,-0.7 0.2,-0.2 0.5,-0.2 0.7,0 l 2.1,2.1 c 0.2,0.2 0.2,0.5 0,0.7 0,0.1 -0.1,0.1 -0.3,0.1 z m -4.2,-4.2 c -0.1,0 -0.3,0 -0.4,-0.1 l -2.1,-2.1 c -0.2,-0.2 -0.2,-0.5 0,-0.7 0.2,-0.2 0.5,-0.2 0.7,0 l 2.1,2.1 c 0.2,0.2 0.2,0.5 0,0.7 -0.1,0 -0.2,0.1 -0.3,0.1 z m -4.3,-4.2 c -0.1,0 -0.3,0 -0.4,-0.1 L 58,65 c -0.2,-0.2 -0.2,-0.5 0,-0.7 0.2,-0.2 0.5,-0.2 0.7,0 l 2.1,2.1 c 0.2,0.2 0.2,0.5 0,0.7 0,0 -0.1,0.1 -0.3,0.1 z m -4.2,-4.3 c -0.1,0 -0.3,0 -0.4,-0.1 l -2.1,-2.1 c -0.2,-0.2 -0.2,-0.5 0,-0.7 0.2,-0.2 0.5,-0.2 0.7,0 l 2.1,2.1 c 0.2,0.2 0.2,0.5 0,0.7 0,0.1 -0.2,0.1 -0.3,0.1 z m -4.2,-4.2 c -0.1,0 -0.3,0 -0.4,-0.1 l -2.1,-2.1 c -0.2,-0.2 -0.2,-0.5 0,-0.7 0.2,-0.2 0.5,-0.2 0.7,0 l 2.1,2.1 c 0.2,0.2 0.2,0.5 0,0.7 -0.1,0 -0.2,0.1 -0.3,0.1 z m -4.3,-4.3 c -0.1,0 -0.3,0 -0.4,-0.1 l -2.1,-2.1 c -0.2,-0.2 -0.2,-0.5 0,-0.7 0.2,-0.2 0.5,-0.2 0.7,0 l 2.1,2.1 c 0.2,0.2 0.2,0.5 0,0.7 0,0.1 -0.2,0.1 -0.3,0.1 z m -4.2,-4.2 c -0.1,0 -0.3,0 -0.4,-0.1 L 41.1,48 c -0.2,-0.2 -0.2,-0.5 0,-0.7 0.2,-0.2 0.5,-0.2 0.7,0 l 2.1,2.1 c 0.2,0.2 0.2,0.5 0,0.7 -0.1,0 -0.2,0.1 -0.3,0.1 z m -4.3,-4.3 c -0.1,0 -0.3,0 -0.4,-0.1 l -2.1,-2.1 c -0.2,-0.2 -0.2,-0.5 0,-0.7 0.2,-0.2 0.5,-0.2 0.7,0 l 2.1,2.1 c 0.2,0.2 0.2,0.5 0,0.7 0,0.1 -0.1,0.1 -0.3,0.1 z m -4.2,-4.2 c -0.1,0 -0.3,0 -0.4,-0.1 l -2.1,-2.1 c -0.2,-0.2 -0.2,-0.5 0,-0.7 0.2,-0.2 0.5,-0.2 0.7,0 l 2.1,2.1 c 0.2,0.2 0.2,0.5 0,0.7 -0.1,0 -0.2,0.1 -0.3,0.1 z m -4.3,-4.2 c -0.1,0 -0.3,0 -0.4,-0.1 l -2.1,-2.1 c -0.2,-0.2 -0.2,-0.5 0,-0.7 0.2,-0.2 0.5,-0.2 0.7,0 l 2.1,2.1 c 0.2,0.2 0.2,0.5 0,0.7 0,0 -0.1,0.1 -0.3,0.1 z m -4.2,-4.3 c -0.1,0 -0.3,0 -0.4,-0.1 L 24.1,31 c -0.2,-0.2 -0.2,-0.5 0,-0.7 0.2,-0.2 0.5,-0.2 0.7,0 l 2.1,2.1 c 0.2,0.2 0.2,0.5 0,0.7 0,0.1 -0.2,0.1 -0.3,0.1 z M 22.4,29 c -0.1,0 -0.3,0 -0.4,-0.1 l -2.1,-2.1 c -0.2,-0.2 -0.2,-0.5 0,-0.7 0.2,-0.2 0.5,-0.2 0.7,0 l 2.1,2.1 c 0.2,0.2 0.2,0.5 0,0.7 -0.1,0 -0.2,0.1 -0.3,0.1 z m -4.3,-4.3 c -0.1,0 -0.3,0 -0.4,-0.1 l -2.1,-2.1 c -0.2,-0.2 -0.2,-0.5 0,-0.7 0.2,-0.2 0.5,-0.2 0.7,0 l 2.1,2.1 c 0.2,0.2 0.2,0.5 0,0.7 0,0.1 -0.2,0.1 -0.3,0.1 z m -4.2,-4.2 c -0.1,0 -0.3,0 -0.4,-0.1 l -2.1,-2.1 c -0.2,-0.2 -0.2,-0.5 0,-0.7 0.2,-0.2 0.5,-0.2 0.7,0 l 2.1,2.1 c 0.2,0.2 0.2,0.5 0,0.7 -0.1,0 -0.2,0.1 -0.3,0.1 z M 9.6,16.2 c -0.1,0 -0.3,0 -0.4,-0.1 L 7.2,14 C 7,13.8 7,13.5 7.2,13.3 c 0.2,-0.2 0.5,-0.2 0.7,0 l 2.1,2.1 c 0.2,0.2 0.2,0.5 0,0.7 -0.1,0.1 -0.2,0.1 -0.4,0.1 z"
         class="st2"
         id="XMLID_1118_" /></g><g
       id="XMLID_606_"><g
         id="XMLID_613_"><path
           style="fill:#ffffff"
           d="m 59.6,122.6 c -0.1,0 -0.3,0 -0.4,-0.1 -0.2,-0.2 -0.2,-0.5 0,-0.7 l 2.1,-2.1 c 0.2,-0.2 0.5,-0.2 0.7,0 0.2,0.2 0.2,0.5 0,0.7 l -2.1,2.1 c -0.1,0.1 -0.2,0.1 -0.3,0.1 z m -2.2,-0.5 c -0.1,0 -0.3,0 -0.4,-0.1 l -2.1,-2.1 c -0.2,-0.2 -0.2,-0.5 0,-0.7 0.2,-0.2 0.5,-0.2 0.7,0 l 2.1,2.1 c 0.2,0.2 0.2,0.5 0,0.7 0,0 -0.1,0.1 -0.3,0.1 z m 6.4,-3.7 c -0.1,0 -0.3,0 -0.4,-0.1 -0.2,-0.2 -0.2,-0.5 0,-0.7 l 2.1,-2.1 c 0.2,-0.2 0.5,-0.2 0.7,0 0.2,0.2 0.2,0.5 0,0.7 l -2.1,2.1 c 0,0.1 -0.2,0.1 -0.3,0.1 z m -10.6,-0.5 c -0.1,0 -0.3,0 -0.4,-0.1 l -2.1,-2.1 c -0.2,-0.2 -0.2,-0.5 0,-0.7 0.2,-0.2 0.5,-0.2 0.7,0 l 2.1,2.1 c 0.2,0.2 0.2,0.5 0,0.7 -0.1,0 -0.2,0.1 -0.3,0.1 z M 68,114.2 c -0.1,0 -0.3,0 -0.4,-0.1 -0.2,-0.2 -0.2,-0.5 0,-0.7 l 2.1,-2.1 c 0.2,-0.2 0.5,-0.2 0.7,0 0.2,0.2 0.2,0.5 0,0.7 l -2.1,2.1 c 0,0 -0.1,0.1 -0.3,0.1 z m -19.1,-0.6 c -0.1,0 -0.3,0 -0.4,-0.1 l -2.1,-2.1 c -0.2,-0.2 -0.2,-0.5 0,-0.7 0.2,-0.2 0.5,-0.2 0.7,0 l 2.1,2.1 c 0.2,0.2 0.2,0.5 0,0.7 0,0.1 -0.1,0.1 -0.3,0.1 z m 23.4,-3.7 c -0.1,0 -0.3,0 -0.4,-0.1 -0.2,-0.2 -0.2,-0.5 0,-0.7 L 74,107 c 0.2,-0.2 0.5,-0.2 0.7,0 0.2,0.2 0.2,0.5 0,0.7 l -2.1,2.1 c -0.1,0.1 -0.2,0.1 -0.3,0.1 z m -27.6,-0.5 c -0.1,0 -0.3,0 -0.4,-0.1 l -2.1,-2.1 c -0.2,-0.2 -0.2,-0.5 0,-0.7 0.2,-0.2 0.5,-0.2 0.7,0 l 2.1,2.1 c 0.2,0.2 0.2,0.5 0,0.7 0,0 -0.2,0.1 -0.3,0.1 z m 31.8,-3.7 c -0.1,0 -0.3,0 -0.4,-0.1 -0.2,-0.2 -0.2,-0.5 0,-0.7 l 2.1,-2.1 c 0.2,-0.2 0.5,-0.2 0.7,0 0.2,0.2 0.2,0.5 0,0.7 l -2.1,2.1 c 0,0 -0.1,0.1 -0.3,0.1 z m -36,-0.6 c -0.1,0 -0.3,0 -0.4,-0.1 L 38,102.9 c -0.2,-0.2 -0.2,-0.5 0,-0.7 0.2,-0.2 0.5,-0.2 0.7,0 l 2.1,2.1 c 0.2,0.2 0.2,0.5 0,0.7 -0.1,0.1 -0.2,0.1 -0.3,0.1 z m 40.3,-3.7 c -0.1,0 -0.3,0 -0.4,-0.1 -0.2,-0.2 -0.2,-0.5 0,-0.7 l 2.1,-2.1 c 0.2,-0.2 0.5,-0.2 0.7,0 0.2,0.2 0.2,0.5 0,0.7 l -2.1,2.1 c -0.1,0.1 -0.2,0.1 -0.3,0.1 z m -44.6,-0.5 c -0.1,0 -0.3,0 -0.4,-0.1 l -2.1,-2.1 c -0.2,-0.2 -0.2,-0.5 0,-0.7 0.2,-0.2 0.5,-0.2 0.7,0 l 2.1,2.1 c 0.2,0.2 0.2,0.5 0,0.7 0,0 -0.2,0.1 -0.3,0.1 z M 85,97.2 c -0.1,0 -0.3,0 -0.4,-0.1 -0.2,-0.2 -0.2,-0.5 0,-0.7 l 2.1,-2.1 c 0.2,-0.2 0.5,-0.2 0.7,0 0.2,0.2 0.2,0.5 0,0.7 l -2,2 c -0.1,0.1 -0.3,0.2 -0.4,0.2 z M 32,96.6 c -0.1,0 -0.3,0 -0.4,-0.1 l -2.1,-2.1 c -0.2,-0.2 -0.2,-0.5 0,-0.7 0.2,-0.2 0.5,-0.2 0.7,0 l 2.1,2.1 c 0.2,0.2 0.2,0.5 0,0.7 -0.1,0.1 -0.2,0.1 -0.3,0.1 z m 57.3,-3.7 c -0.1,0 -0.3,0 -0.4,-0.1 -0.2,-0.2 -0.2,-0.5 0,-0.7 L 91,90 c 0.2,-0.2 0.5,-0.2 0.7,0 0.2,0.2 0.2,0.5 0,0.7 l -2.1,2.1 c -0.1,0.1 -0.2,0.1 -0.3,0.1 z M 27.7,92.4 c -0.1,0 -0.3,0 -0.4,-0.1 L 25.2,90.2 C 25,90 25,89.7 25.2,89.5 c 0.2,-0.2 0.5,-0.2 0.7,0 l 2.1,2.1 c 0.2,0.2 0.2,0.5 0,0.7 0,0 -0.1,0.1 -0.3,0.1 z m 65.8,-3.7 c -0.1,0 -0.3,0 -0.4,-0.1 -0.2,-0.2 -0.2,-0.5 0,-0.7 l 2.1,-2.1 c 0.2,-0.2 0.5,-0.2 0.7,0 0.2,0.2 0.2,0.5 0,0.7 l -2.1,2.1 c -0.1,0.1 -0.2,0.1 -0.3,0.1 z m -70,-0.5 c -0.1,0 -0.3,0 -0.4,-0.1 L 21,85.9 c -0.2,-0.2 -0.2,-0.5 0,-0.7 0.2,-0.2 0.5,-0.2 0.7,0 l 2.1,2.1 c 0.2,0.2 0.2,0.5 0,0.7 -0.1,0.1 -0.2,0.2 -0.3,0.2 z m 74.2,-3.7 c -0.1,0 -0.3,0 -0.4,-0.1 -0.2,-0.2 -0.2,-0.5 0,-0.7 l 2.1,-2.1 c 0.2,-0.2 0.5,-0.2 0.7,0 0.2,0.2 0.2,0.5 0,0.7 L 98,84.4 c 0,0 -0.1,0.1 -0.3,0.1 z M 19.2,83.9 c -0.1,0 -0.3,0 -0.4,-0.1 l -2.1,-2.1 c -0.2,-0.2 -0.2,-0.5 0,-0.7 0.2,-0.2 0.5,-0.2 0.7,0 l 2.1,2.1 c 0.2,0.2 0.2,0.5 0,0.7 0,0.1 -0.1,0.1 -0.3,0.1 z M 102,80.2 c -0.1,0 -0.3,0 -0.4,-0.1 -0.2,-0.2 -0.2,-0.5 0,-0.7 l 2.1,-2.1 c 0.2,-0.2 0.5,-0.2 0.7,0 0.2,0.2 0.2,0.5 0,0.7 l -2.1,2.1 c -0.1,0.1 -0.2,0.1 -0.3,0.1 z M 15,79.7 c -0.1,0 -0.3,0 -0.4,-0.1 l -2.1,-2.1 c -0.2,-0.2 -0.2,-0.5 0,-0.7 0.2,-0.2 0.5,-0.2 0.7,0 l 2.1,2.1 c 0.2,0.2 0.2,0.5 0,0.7 0,0 -0.2,0.1 -0.3,0.1 z M 106.2,76 c -0.1,0 -0.3,0 -0.4,-0.1 -0.2,-0.2 -0.2,-0.5 0,-0.7 L 108,73 c 0.2,-0.2 0.5,-0.2 0.7,0 0.2,0.2 0.2,0.5 0,0.7 l -2.1,2.1 c -0.1,0.1 -0.3,0.2 -0.4,0.2 z M 10.8,75.4 c -0.1,0 -0.3,0 -0.4,-0.1 L 8.3,73.2 C 8.1,73 8.1,72.7 8.3,72.5 8.5,72.3 8.8,72.3 9,72.5 l 2.1,2.1 c 0.2,0.2 0.2,0.5 0,0.7 -0.1,0.1 -0.2,0.1 -0.3,0.1 z m 99.7,-3.7 c -0.1,0 -0.3,0 -0.4,-0.1 -0.2,-0.2 -0.2,-0.5 0,-0.7 l 2.1,-2.1 c 0.2,-0.2 0.5,-0.2 0.7,0 0.2,0.2 0.2,0.5 0,0.7 l -2.1,2.1 c -0.1,0.1 -0.2,0.1 -0.3,0.1 z M 6.5,71.2 c -0.1,0 -0.3,0 -0.4,-0.1 L 4,68.9 C 3.8,68.7 3.8,68.4 4,68.2 4.2,68 4.5,68 4.7,68.2 l 2.1,2.1 c 0.2,0.2 0.2,0.5 0,0.7 0,0.1 -0.2,0.2 -0.3,0.2 z m 108.2,-3.7 c -0.1,0 -0.3,0 -0.4,-0.1 -0.2,-0.2 -0.2,-0.5 0,-0.7 l 2.1,-2.1 c 0.2,-0.2 0.5,-0.2 0.7,0 0.2,0.2 0.2,0.5 0,0.7 l -2.1,2.1 c 0,0 -0.2,0.1 -0.3,0.1 z M 2.3,66.9 c -0.1,0 -0.3,0 -0.4,-0.1 L 0,64.9 0.9,64 c 0.2,-0.2 0.5,-0.2 0.7,0 0.2,0.2 0.2,0.5 0,0.7 l -0.2,0.2 1.2,1.2 c 0.2,0.2 0.2,0.5 0,0.7 -0.1,0.1 -0.2,0.1 -0.3,0.1 z m 113.5,-2.5 c -0.1,0 -0.3,0 -0.4,-0.1 l -2.1,-2.1 c -0.2,-0.2 -0.2,-0.5 0,-0.7 0.2,-0.2 0.5,-0.2 0.7,0 l 2.1,2.1 c 0.2,0.2 0.2,0.5 0,0.7 0,0 -0.2,0.1 -0.3,0.1 z M 3.4,62.7 C 3.3,62.7 3.1,62.7 3,62.6 2.8,62.4 2.8,62.1 3,61.9 l 2.1,-2.1 c 0.2,-0.2 0.5,-0.2 0.7,0 0.2,0.2 0.2,0.5 0,0.7 l -2.1,2.1 c -0.1,0.1 -0.2,0.1 -0.3,0.1 z m 108.2,-2.6 c -0.1,0 -0.3,0 -0.4,-0.1 l -2.1,-2.1 c -0.2,-0.2 -0.2,-0.5 0,-0.7 0.2,-0.2 0.5,-0.2 0.7,0 l 2.1,2.1 c 0.2,0.2 0.2,0.5 0,0.7 -0.1,0.1 -0.2,0.1 -0.3,0.1 z M 7.6,58.5 c -0.1,0 -0.3,0 -0.4,-0.1 C 7,58.2 7,57.9 7.2,57.7 l 2.1,-2.1 c 0.2,-0.2 0.5,-0.2 0.7,0 0.2,0.2 0.2,0.5 0,0.7 l -2,2 c -0.1,0.1 -0.2,0.2 -0.4,0.2 z m 99.7,-2.6 c -0.1,0 -0.3,0 -0.4,-0.1 l -2.1,-2.1 c -0.2,-0.2 -0.2,-0.5 0,-0.7 0.2,-0.2 0.5,-0.2 0.7,0 l 2.1,2.1 c 0.2,0.2 0.2,0.5 0,0.7 0,0 -0.1,0.1 -0.3,0.1 z M 11.9,54.2 c -0.1,0 -0.3,0 -0.4,-0.1 -0.2,-0.2 -0.2,-0.5 0,-0.7 l 2.1,-2.1 c 0.2,-0.2 0.5,-0.2 0.7,0 0.2,0.2 0.2,0.5 0,0.7 l -2.1,2.1 c -0.1,0.1 -0.2,0.1 -0.3,0.1 z m 91.2,-2.6 c -0.1,0 -0.3,0 -0.4,-0.1 l -2.1,-2.1 c -0.2,-0.2 -0.2,-0.5 0,-0.7 0.2,-0.2 0.5,-0.2 0.7,0 l 2.1,2.1 c 0.2,0.2 0.2,0.5 0,0.7 -0.1,0.1 -0.2,0.1 -0.3,0.1 z M 16.1,50 c -0.1,0 -0.3,0 -0.4,-0.1 -0.2,-0.2 -0.2,-0.5 0,-0.7 l 2.1,-2.1 c 0.2,-0.2 0.5,-0.2 0.7,0 0.2,0.2 0.2,0.5 0,0.7 l -2.1,2.1 c 0,0 -0.2,0.1 -0.3,0.1 z m 82.7,-2.6 c -0.1,0 -0.3,0 -0.4,-0.1 l -2.1,-2.1 c -0.2,-0.2 -0.2,-0.5 0,-0.7 0.2,-0.2 0.5,-0.2 0.7,0 l 2.1,2.1 c 0.2,0.2 0.2,0.5 0,0.7 0,0 -0.1,0.1 -0.3,0.1 z M 20.4,45.7 c -0.1,0 -0.3,0 -0.4,-0.1 -0.2,-0.2 -0.2,-0.5 0,-0.7 l 2.1,-2.1 c 0.2,-0.2 0.5,-0.2 0.7,0 0.2,0.2 0.2,0.5 0,0.7 l -2.1,2.1 c -0.1,0.1 -0.2,0.1 -0.3,0.1 z m 74.2,-2.6 c -0.1,0 -0.3,0 -0.4,-0.1 l -2.1,-2.1 c -0.2,-0.2 -0.2,-0.5 0,-0.7 0.2,-0.2 0.5,-0.2 0.7,0 l 2.1,2.1 c 0.2,0.2 0.2,0.5 0,0.7 0,0.1 -0.2,0.1 -0.3,0.1 z m -70,-1.6 c -0.1,0 -0.3,0 -0.4,-0.1 -0.2,-0.2 -0.2,-0.5 0,-0.7 l 2.1,-2.1 c 0.2,-0.2 0.5,-0.2 0.7,0 0.2,0.2 0.2,0.5 0,0.7 l -2.1,2.1 c -0.1,0 -0.2,0.1 -0.3,0.1 z m 65.8,-2.6 c -0.1,0 -0.3,0 -0.4,-0.1 l -2.1,-2.1 c -0.2,-0.2 -0.2,-0.5 0,-0.7 0.2,-0.2 0.5,-0.2 0.7,0 l 2.1,2.1 c 0.2,0.2 0.2,0.5 0,0.7 -0.1,0 -0.2,0.1 -0.3,0.1 z M 28.8,37.2 c -0.1,0 -0.3,0 -0.4,-0.1 -0.2,-0.2 -0.2,-0.5 0,-0.7 l 2.1,-2.1 c 0.2,-0.2 0.5,-0.2 0.7,0 0.2,0.2 0.2,0.5 0,0.7 l -2.1,2.1 c 0,0.1 -0.1,0.1 -0.3,0.1 z m 57.3,-2.5 c -0.1,0 -0.3,0 -0.4,-0.1 l -2.1,-2.1 c -0.2,-0.2 -0.2,-0.5 0,-0.7 0.2,-0.2 0.5,-0.2 0.7,0 l 2.1,2.1 c 0.2,0.2 0.2,0.5 0,0.7 0,0 -0.2,0.1 -0.3,0.1 z M 33.1,33 c -0.1,0 -0.3,0 -0.4,-0.1 -0.2,-0.2 -0.2,-0.5 0,-0.7 l 2.1,-2.1 c 0.2,-0.2 0.5,-0.2 0.7,0 0.2,0.2 0.2,0.5 0,0.7 l -2.1,2.1 C 33.3,33 33.2,33 33.1,33 Z m 48.8,-2.6 c -0.1,0 -0.3,0 -0.4,-0.1 l -2.1,-2.1 c -0.2,-0.2 -0.2,-0.5 0,-0.7 0.2,-0.2 0.5,-0.2 0.7,0 l 2.1,2.1 c 0.2,0.2 0.2,0.5 0,0.7 -0.1,0.1 -0.2,0.1 -0.3,0.1 z M 37.3,28.8 c -0.1,0 -0.3,0 -0.4,-0.1 -0.2,-0.2 -0.2,-0.5 0,-0.7 L 39,25.9 c 0.2,-0.2 0.5,-0.2 0.7,0 0.2,0.2 0.2,0.5 0,0.7 l -2.1,2.1 c 0,0 -0.2,0.1 -0.3,0.1 z m 40.3,-2.6 c -0.1,0 -0.3,0 -0.4,-0.1 L 75.1,24 c -0.2,-0.2 -0.2,-0.5 0,-0.7 0.2,-0.2 0.5,-0.2 0.7,0 l 2.1,2.1 c 0.2,0.2 0.2,0.5 0,0.7 0,0 -0.1,0.1 -0.3,0.1 z m -36,-1.7 c -0.1,0 -0.3,0 -0.4,-0.1 -0.2,-0.2 -0.2,-0.5 0,-0.7 l 2.1,-2.1 c 0.2,-0.2 0.5,-0.2 0.7,0 0.2,0.2 0.2,0.5 0,0.7 l -2.1,2.1 c -0.1,0.1 -0.2,0.1 -0.3,0.1 z m 31.8,-2.6 c -0.1,0 -0.3,0 -0.4,-0.1 l -2.1,-2.1 c -0.2,-0.2 -0.2,-0.5 0,-0.7 0.2,-0.2 0.5,-0.2 0.7,0 l 2.1,2.1 c 0.2,0.2 0.2,0.5 0,0.7 -0.1,0.1 -0.2,0.1 -0.3,0.1 z M 45.8,20.3 c -0.1,0 -0.3,0 -0.4,-0.1 -0.2,-0.2 -0.2,-0.5 0,-0.7 l 2.1,-2.1 c 0.2,-0.2 0.5,-0.2 0.7,0 0.2,0.2 0.2,0.5 0,0.7 l -2.1,2.1 c 0,0 -0.2,0.1 -0.3,0.1 z m 23.3,-2.6 c -0.1,0 -0.3,0 -0.4,-0.1 l -2.1,-2.1 c -0.2,-0.2 -0.2,-0.5 0,-0.7 0.2,-0.2 0.5,-0.2 0.7,0 l 2.1,2.1 c 0.2,0.2 0.2,0.5 0,0.7 0,0 -0.1,0.1 -0.3,0.1 z M 50,16 c -0.1,0 -0.3,0 -0.4,-0.1 -0.2,-0.2 -0.2,-0.5 0,-0.7 l 2.1,-2.1 c 0.2,-0.2 0.5,-0.2 0.7,0 0.2,0.2 0.2,0.5 0,0.7 l -2.1,2.1 C 50.3,16 50.2,16 50,16 Z m 14.9,-2.6 c -0.1,0 -0.3,0 -0.4,-0.1 l -2.1,-2.1 c -0.2,-0.2 -0.2,-0.5 0,-0.7 0.2,-0.2 0.5,-0.2 0.7,0 l 2.1,2.1 c 0.2,0.2 0.2,0.5 0,0.7 0,0.1 -0.2,0.1 -0.3,0.1 z M 54.3,11.8 c -0.1,0 -0.3,0 -0.4,-0.1 -0.2,-0.2 -0.2,-0.5 0,-0.7 L 56,8.9 c 0.2,-0.2 0.5,-0.2 0.7,0 0.2,0.2 0.2,0.5 0,0.7 l -2.1,2.1 c -0.1,0 -0.2,0.1 -0.3,0.1 z m 6.4,-2.6 c -0.1,0 -0.3,0 -0.4,-0.1 L 58.7,7.5 C 58.5,7.6 58.3,7.6 58.1,7.4 57.9,7.2 57.9,6.9 58.1,6.7 L 58.7,6.1 61,8.3 c 0.2,0.2 0.2,0.5 0,0.7 -0.1,0.2 -0.2,0.2 -0.3,0.2 z"
           class="st2"
           id="XMLID_614_" /></g><g
         id="XMLID_610_"><g
           id="XMLID_611_"><polygon
             style="fill:#ffffff"
             points="8.9,62.9 8.9,60.6 4.6,64.9 8.9,69.2 8.9,66.9 6.9,64.9 "
             class="st2"
             id="XMLID_612_" /></g></g><g
         id="XMLID_607_"><g
           id="XMLID_608_"><polygon
             style="fill:#ffffff"
             points="107.6,62.9 107.6,60.6 111.9,64.9 107.6,69.2 107.6,66.9 109.6,64.9 "
             class="st2"
             id="XMLID_609_" /></g></g></g><g
       id="XMLID_604_"><rect
         style="fill:#ffffff"
         height="9.6000004"
         width="9.6000004"
         class="st2"
         transform="matrix(0.7071,-0.7071,0.7071,0.7071,12.3961,43.55)"
         y="2"
         x="54"
         id="XMLID_605_" /></g></g></svg>