<?xml version="1.0" encoding="UTF-8" standalone="no"?>
<svg
   xmlns:dc="http://purl.org/dc/elements/1.1/"
   xmlns:cc="http://creativecommons.org/ns#"
   xmlns:rdf="http://www.w3.org/1999/02/22-rdf-syntax-ns#"
   xmlns:svg="http://www.w3.org/2000/svg"
   xmlns="http://www.w3.org/2000/svg"
   version="1.1"
   id="svg5052"
   viewBox="0 0 177.66458 27.63787"
   height="7.8000212mm"
   width="50.140892mm">
  <defs
     id="defs5054" />
  <metadata
     id="metadata5057">
    <rdf:RDF>
      <cc:Work
         rdf:about="">
        <dc:format>image/svg+xml</dc:format>
        <dc:type
           rdf:resource="http://purl.org/dc/dcmitype/StillImage" />
        <dc:title></dc:title>
      </cc:Work>
    </rdf:RDF>
  </metadata>
  <g
     transform="translate(-316.882,-461.40042)"
     id="layer1">
    <g
       transform="matrix(1.25,0,0,-1.25,324.56825,468.60854)"
       id="g876">
      <path
         id="path878"
         style="fill:#ff2b06;fill-opacity:1;fill-rule:nonzero;stroke:none"
         d="m 0,0 -6.149,0 0,5.623 19.05,0 0,-5.623 -6.147,0 0,-16.316 -6.754,0 L 0,0 Z" />
    </g>
    <g
       transform="matrix(1.25,0,0,-1.25,342.00663,461.57942)"
       id="g880">
      <path
         id="path882"
         style="fill:#ff2b06;fill-opacity:1;fill-rule:nonzero;stroke:none"
         d="m 0,0 18.493,0 0,-5.623 -11.734,0 0,-2.734 11.734,0 0,-5.226 -11.734,0 0,-2.734 11.737,0 0,-5.622 L 0,-21.939 0,0 Z" />
    </g>
    <g
       transform="matrix(1.25,0,0,-1.25,374.99276,481.97529)"
       id="g884">
      <path
         id="path886"
         style="fill:#ff2b06;fill-opacity:1;fill-rule:nonzero;stroke:none"
         d="m 0,0 2.643,0 c 4.212,0 4.827,3.412 4.827,5.473 0,1.38 -0.432,5.22 -5.318,5.22 L 0,10.693 0,0 Z m -6.758,16.317 11.092,0 c 7.313,0 9.896,-5.409 9.896,-10.937 0,-6.732 -3.565,-11.003 -11.217,-11.003 l -9.771,0 0,21.94 z" />
    </g>
    <g
       transform="matrix(1.25,0,0,-1.25,405.94775,478.43592)"
       id="g888">
      <path
         id="path890"
         style="fill:#ff2b06;fill-opacity:1;fill-rule:nonzero;stroke:none"
         d="M 0,0 -2.063,3.42 -4.073,0 l -4.952,0 4.701,6.914 -4.526,6.613 4.954,0 1.833,-3.268 1.887,3.268 4.954,0 L 0.252,6.914 4.953,0 0,0 Z" />
    </g>
    <g
       transform="matrix(1.25,0,0,-1.25,437.23638,485.12167)"
       id="g892">
      <path
         id="path894"
         style="fill:#ffffff;fill-opacity:1;fill-rule:nonzero;stroke:none"
         d="m 0,0 c -0.412,-0.551 -0.881,-1.024 -1.403,-1.419 -0.523,-0.394 -1.079,-0.719 -1.67,-0.975 -0.592,-0.256 -1.203,-0.443 -1.833,-0.561 -0.632,-0.118 -1.251,-0.178 -1.862,-0.178 -1.579,0 -2.985,0.296 -4.228,0.887 -1.242,0.591 -2.295,1.379 -3.163,2.364 -0.867,0.986 -1.526,2.119 -1.98,3.4 -0.455,1.281 -0.68,2.61 -0.68,3.991 0,1.537 0.211,3 0.635,4.39 0.424,1.389 1.054,2.606 1.893,3.65 0.836,1.043 1.882,1.876 3.132,2.498 1.251,0.621 2.715,0.93 4.391,0.93 1.142,0 2.221,-0.131 3.237,-0.398 1.014,-0.266 1.921,-0.685 2.718,-1.257 0.798,-0.571 1.47,-1.295 2.012,-2.171 0.54,-0.878 0.909,-1.937 1.106,-3.179 l -2.808,0 c -0.137,0.788 -0.394,1.479 -0.768,2.07 -0.374,0.591 -0.837,1.074 -1.389,1.449 -0.551,0.372 -1.177,0.655 -1.877,0.842 -0.699,0.187 -1.443,0.28 -2.231,0.28 -1.282,0 -2.38,-0.255 -3.296,-0.767 -0.917,-0.513 -1.665,-1.188 -2.246,-2.026 -0.582,-0.838 -1.011,-1.794 -1.287,-2.867 -0.275,-1.075 -0.414,-2.172 -0.414,-3.296 0,-1.104 0.157,-2.164 0.473,-3.178 0.315,-1.015 0.778,-1.912 1.39,-2.69 0.611,-0.779 1.364,-1.4 2.261,-1.862 0.897,-0.464 1.936,-0.695 3.119,-0.695 1.084,0 2.054,0.177 2.911,0.532 0.857,0.354 1.582,0.843 2.174,1.463 0.589,0.62 1.028,1.349 1.314,2.188 C -0.083,4.252 0.04,5.155 0,6.119 l -6.739,0 0,2.365 9.253,0 0,-11.114 -1.775,0 L 0,0 Z" />
    </g>
    <g
       transform="matrix(1.25,0,0,-1.25,466.61176,478.87704)"
       id="g896">
      <path
         id="path898"
         style="fill:#ffffff;fill-opacity:1;fill-rule:nonzero;stroke:none"
         d="m 0,0 c 0,-2.68 -0.724,-4.704 -2.172,-6.074 -1.449,-1.37 -3.493,-2.055 -6.134,-2.055 -1.36,0 -2.577,0.159 -3.651,0.473 -1.073,0.316 -1.979,0.808 -2.72,1.479 -0.738,0.669 -1.305,1.517 -1.698,2.542 -0.396,1.024 -0.592,2.237 -0.592,3.635 l 0,13.48 2.808,0 0,-13.48 c 0,-1.872 0.508,-3.301 1.522,-4.287 1.014,-0.984 2.459,-1.477 4.331,-1.477 1.794,0 3.158,0.493 4.094,1.477 0.936,0.986 1.405,2.415 1.405,4.287 l 0,13.48 L 0,13.48 0,0 Z" />
    </g>
    <g
       transform="matrix(1.25,0,0,-1.25,490.77908,469.97079)"
       id="g900">
      <path
         id="path902"
         style="fill:#ffffff;fill-opacity:1;fill-rule:nonzero;stroke:none"
         d="m 0,0 c -0.158,0.748 -0.415,1.404 -0.768,1.966 -0.358,0.56 -0.796,1.029 -1.319,1.404 -0.52,0.373 -1.107,0.655 -1.757,0.843 -0.65,0.186 -1.341,0.279 -2.07,0.279 -1.26,0 -2.337,-0.235 -3.235,-0.709 -0.898,-0.472 -1.638,-1.108 -2.218,-1.906 -0.581,-0.798 -1.012,-1.71 -1.287,-2.735 -0.273,-1.024 -0.411,-2.088 -0.411,-3.191 0,-1.203 0.138,-2.342 0.411,-3.416 0.275,-1.073 0.706,-2.01 1.287,-2.808 0.58,-0.799 1.324,-1.434 2.234,-1.906 0.905,-0.473 1.989,-0.71 3.251,-0.71 0.925,0 1.746,0.152 2.468,0.458 0.717,0.305 1.337,0.729 1.862,1.272 0.521,0.541 0.93,1.186 1.224,1.935 0.298,0.748 0.474,1.557 0.535,2.424 l 2.807,0 c -0.275,-2.641 -1.197,-4.71 -2.765,-6.206 -1.563,-1.499 -3.691,-2.248 -6.369,-2.248 -1.635,0 -3.064,0.286 -4.286,0.858 -1.223,0.571 -2.238,1.349 -3.044,2.335 -0.808,0.985 -1.414,2.148 -1.819,3.488 -0.403,1.34 -0.604,2.779 -0.604,4.317 0,1.536 0.216,2.98 0.648,4.329 0.434,1.35 1.069,2.528 1.907,3.533 0.836,1.004 1.876,1.797 3.119,2.38 1.241,0.58 2.681,0.87 4.317,0.87 1.103,0 2.145,-0.146 3.131,-0.441 C -1.766,6.118 -0.887,5.685 -0.12,5.113 0.65,4.542 1.29,3.828 1.803,2.97 2.314,2.113 2.651,1.123 2.808,0 L 0,0 Z" />
    </g>
  </g>
</svg>
