<?xml version="1.0" encoding="UTF-8" standalone="no"?>
<svg
   xmlns:dc="http://purl.org/dc/elements/1.1/"
   xmlns:cc="http://creativecommons.org/ns#"
   xmlns:rdf="http://www.w3.org/1999/02/22-rdf-syntax-ns#"
   xmlns:svg="http://www.w3.org/2000/svg"
   xmlns="http://www.w3.org/2000/svg"
   xmlns:sodipodi="http://sodipodi.sourceforge.net/DTD/sodipodi-0.dtd"
   xmlns:inkscape="http://www.inkscape.org/namespaces/inkscape"
   version="1.1"
   id="svg9860"
   viewBox="0 0 180 181.19204"
   height="181.19205"
   width="180"
   inkscape:version="0.91 r13725"
   sodipodi:docname="social1.svg">
  <sodipodi:namedview
     pagecolor="#152220"
     bordercolor="#666666"
     borderopacity="1"
     objecttolerance="10"
     gridtolerance="10"
     guidetolerance="10"
     inkscape:pageopacity="0"
     inkscape:pageshadow="2"
     inkscape:window-width="1920"
     inkscape:window-height="1056"
     id="namedview34"
     showgrid="false"
     units="px"
     inkscape:zoom="1.3024854"
     inkscape:cx="-21.090299"
     inkscape:cy="90.596022"
     inkscape:window-x="0"
     inkscape:window-y="24"
     inkscape:window-maximized="1"
     inkscape:current-layer="svg9860" />
  <defs
     id="defs9862" />
  <metadata
     id="metadata9865">
    <rdf:RDF>
      <cc:Work
         rdf:about="">
        <dc:format>image/svg+xml</dc:format>
        <dc:type
           rdf:resource="http://purl.org/dc/dcmitype/StillImage" />
        <dc:title></dc:title>
      </cc:Work>
    </rdf:RDF>
  </metadata>
  <g
     transform="translate(-166.93088,426.80525)"
     id="layer1">
    <g
       transform="matrix(1.25,0,0,-1.25,245.78218,-276.28695)"
       id="g7820">
      <path
         id="path7822"
         style="fill:#ffffff;fill-opacity:1;fill-rule:nonzero;stroke:none"
         d="M 0,0 9.712,-16.613 19.424,0 0,0 Z M 9.712,-24.539 -6.971,4 26.396,4 9.712,-24.539 Z"
         inkscape:connector-curvature="0" />
    </g>
    <g
       transform="matrix(1.25,0,0,-1.25,211.37668,-387.24405)"
       id="g7824">
      <path
         id="path7826"
         style="fill:#ffffff;fill-opacity:1;fill-rule:nonzero;stroke:none"
         d="M 0,0 37.236,-70.434 74.474,0 0,0 Z M 37.236,-78.993 -6.639,4 81.112,4 37.236,-78.993 Z"
         inkscape:connector-curvature="0" />
    </g>
    <g
       transform="matrix(1.25,0,0,-1.25,206.03118,-375.77725)"
       id="g7828">
      <path
         id="path7830"
         style="fill:#ffffff;fill-opacity:1;fill-rule:nonzero;stroke:none"
         d="M 0,0 41.513,-78.523 83.026,0 0,0 Z M 41.513,-82.802 -3.32,2 86.347,2 41.513,-82.802 Z"
         inkscape:connector-curvature="0" />
    </g>
    <g
       transform="matrix(1.25,0,0,-1.25,297.93798,-345.49845)"
       id="g7832">
      <path
         id="path7834"
         style="fill:#ffffff;fill-opacity:1;fill-rule:nonzero;stroke:none"
         d="m 0,0 c -1.52,0.548 -3.114,0.866 -4.738,0.944 l 0.049,0.999 C -2.967,1.86 -1.274,1.523 0.34,0.94 L 0,0 Z m -12.288,-0.499 -0.414,0.91 c 1.564,0.714 3.223,1.188 4.931,1.409 L -7.643,0.828 C -9.251,0.62 -10.814,0.173 -12.288,-0.499 M 6.411,-4.245 c -1.106,1.19 -2.377,2.205 -3.776,3.017 l 0.502,0.866 C 4.622,-1.224 5.97,-2.301 7.144,-3.564 L 6.411,-4.245 Z m -24.743,-1.003 -0.785,0.619 c 1.064,1.35 2.32,2.532 3.734,3.514 l 0.57,-0.822 c -1.332,-0.925 -2.516,-2.039 -3.519,-3.311 m 28.501,-5.702 c -0.436,1.56 -1.101,3.044 -1.978,4.409 l 0.842,0.54 c 0.931,-1.449 1.637,-3.023 2.099,-4.68 l -0.963,-0.269 z m -31.702,-1.285 -0.983,0.188 c 0.326,1.691 0.902,3.318 1.711,4.836 l 0.883,-0.471 c -0.764,-1.429 -1.306,-2.962 -1.611,-4.553 m -0.601,-7.961 c -0.461,1.575 -0.694,3.211 -0.693,4.863 l 0.001,0.219 1,-0.014 -0.001,-0.205 c -10e-4,-1.558 0.219,-3.099 0.652,-4.582 l -0.959,-0.281 z m 33.144,-0.209 -0.957,0.293 c 0.473,1.542 0.713,3.15 0.713,4.779 0,0.51 -0.024,1.023 -0.071,1.527 l 0.996,0.092 c 0.049,-0.534 0.075,-1.079 0.075,-1.619 0,-1.729 -0.255,-3.435 -0.756,-5.072 m -29.066,-6.857 c -1.189,1.248 -2.181,2.66 -2.949,4.195 l 0.895,0.447 c 0.722,-1.446 1.658,-2.776 2.779,-3.952 l -0.725,-0.69 z m 24.897,-0.158 -0.715,0.699 c 1.135,1.162 2.087,2.48 2.83,3.918 l 0.889,-0.459 C 9.057,-24.789 8.046,-26.187 6.841,-27.42 m -18.037,-4.26 c -1.623,0.562 -3.152,1.364 -4.542,2.383 l 0.592,0.807 c 1.309,-0.96 2.749,-1.716 4.278,-2.245 l -0.328,-0.945 z m 11.125,-0.07 -0.317,0.949 c 1.535,0.51 2.984,1.247 4.307,2.19 l 0.58,-0.814 c -1.403,-1.001 -2.941,-1.783 -4.57,-2.325 m -5.46,-0.879 c -0.897,0 -1.795,0.068 -2.672,0.205 l 0.154,0.988 c 1.583,-0.247 3.243,-0.257 4.832,-0.03 l 0.141,-0.991 c -0.807,-0.114 -1.633,-0.172 -2.455,-0.172"
         inkscape:connector-curvature="0" />
    </g>
    <g
       transform="matrix(1.25,0,0,-1.25,211.37668,-288.27555)"
       id="g7836">
      <path
         id="path7838"
         style="fill:#ffffff;fill-opacity:1;fill-rule:nonzero;stroke:none"
         d="M 0,0 74.474,0 37.236,70.434 0,0 Z M 81.112,-4 -6.639,-4 37.236,78.993 81.112,-4 Z"
         inkscape:connector-curvature="0" />
    </g>
    <g
       transform="matrix(1.25,0,0,-1.25,206.03118,-299.74215)"
       id="g7840">
      <path
         id="path7842"
         style="fill:#ffffff;fill-opacity:1;fill-rule:nonzero;stroke:none"
         d="M 0,0 83.026,0 41.513,78.523 0,0 Z M 86.347,-2 -3.32,-2 41.513,82.803 86.347,-2 Z"
         inkscape:connector-curvature="0" />
    </g>
    <g
       transform="matrix(1.25,0,0,-1.25,255.00098,-360.05045)"
       id="g7844">
      <path
         id="path7846"
         style="fill:#ffffff;fill-opacity:1;fill-rule:nonzero;stroke:none"
         d="M 0,0 C -0.079,0 -0.159,0.019 -0.233,0.058 -0.478,0.187 -0.571,0.49 -0.442,0.734 l 2.337,4.42 C 2.024,5.399 2.329,5.491 2.57,5.362 2.814,5.233 2.908,4.931 2.779,4.687 L 0.442,0.266 C 0.353,0.097 0.179,0 0,0 m 5.651,-1.85 c -0.178,0 -0.352,0.097 -0.442,0.267 L 2.872,2.837 C 2.743,3.081 2.837,3.384 3.081,3.513 3.323,3.642 3.627,3.549 3.757,3.305 L 6.094,-1.116 C 6.223,-1.36 6.129,-1.663 5.885,-1.792 5.811,-1.831 5.73,-1.85 5.651,-1.85 m -9.39,-5.222 c -0.079,0 -0.159,0.018 -0.234,0.058 -0.244,0.129 -0.338,0.431 -0.209,0.676 l 2.337,4.42 c 0.129,0.245 0.434,0.337 0.676,0.208 0.244,-0.129 0.338,-0.432 0.209,-0.676 l -2.337,-4.42 c -0.09,-0.17 -0.264,-0.266 -0.442,-0.266 m 13.13,-1.85 c -0.179,0 -0.353,0.097 -0.443,0.266 l -2.337,4.421 c -0.129,0.244 -0.035,0.547 0.209,0.675 0.242,0.129 0.546,0.037 0.676,-0.208 l 2.337,-4.42 C 9.962,-8.432 9.868,-8.735 9.624,-8.864 9.55,-8.903 9.47,-8.922 9.391,-8.922 m -16.869,-5.223 c -0.079,0 -0.159,0.019 -0.233,0.058 -0.244,0.129 -0.338,0.431 -0.209,0.675 l 2.336,4.421 c 0.13,0.245 0.435,0.337 0.676,0.208 0.244,-0.129 0.338,-0.431 0.209,-0.675 l -2.336,-4.42 c -0.09,-0.17 -0.264,-0.267 -0.443,-0.267 m 20.608,-1.849 c -0.179,0 -0.353,0.097 -0.442,0.266 l -2.337,4.42 c -0.129,0.244 -0.036,0.547 0.209,0.676 0.242,0.129 0.546,0.036 0.675,-0.208 l 2.337,-4.42 c 0.129,-0.244 0.035,-0.547 -0.209,-0.676 -0.074,-0.04 -0.154,-0.058 -0.233,-0.058 m -24.347,-5.223 c -0.079,0 -0.159,0.018 -0.233,0.058 -0.244,0.129 -0.338,0.431 -0.209,0.676 l 2.337,4.42 c 0.13,0.245 0.434,0.337 0.676,0.208 0.244,-0.129 0.337,-0.432 0.208,-0.676 l -2.336,-4.42 c -0.09,-0.17 -0.264,-0.266 -0.443,-0.266 m 28.086,-1.85 c -0.179,0 -0.352,0.097 -0.442,0.266 l -2.337,4.421 c -0.129,0.244 -0.035,0.547 0.209,0.675 0.242,0.13 0.546,0.037 0.676,-0.208 l 2.337,-4.42 c 0.128,-0.244 0.035,-0.547 -0.209,-0.676 -0.075,-0.039 -0.155,-0.058 -0.234,-0.058 m -31.825,-5.223 c -0.079,0 -0.159,0.019 -0.233,0.059 -0.245,0.128 -0.338,0.431 -0.209,0.675 l 2.336,4.42 c 0.129,0.244 0.434,0.338 0.676,0.208 0.244,-0.129 0.338,-0.431 0.209,-0.676 l -2.337,-4.419 c -0.09,-0.17 -0.263,-0.267 -0.442,-0.267 m 35.564,-1.849 c -0.178,0 -0.352,0.097 -0.442,0.266 l -2.337,4.42 c -0.129,0.245 -0.035,0.547 0.209,0.676 0.241,0.13 0.546,0.037 0.676,-0.208 l 2.337,-4.42 c 0.129,-0.244 0.035,-0.547 -0.209,-0.676 -0.074,-0.04 -0.155,-0.058 -0.234,-0.058 m -39.303,-5.223 c -0.079,0 -0.159,0.018 -0.234,0.058 -0.244,0.129 -0.338,0.431 -0.209,0.676 l 2.337,4.42 c 0.13,0.245 0.434,0.337 0.676,0.208 0.244,-0.129 0.338,-0.432 0.209,-0.676 l -2.337,-4.42 c -0.09,-0.17 -0.264,-0.266 -0.442,-0.266 m 43.042,-1.849 c -0.179,0 -0.353,0.096 -0.443,0.266 l -2.337,4.42 c -0.129,0.244 -0.035,0.546 0.209,0.675 0.242,0.129 0.546,0.037 0.676,-0.208 l 2.337,-4.42 c 0.129,-0.244 0.035,-0.546 -0.209,-0.675 -0.074,-0.04 -0.154,-0.058 -0.233,-0.058 m -46.782,-5.224 c -0.079,0 -0.159,0.019 -0.233,0.059 -0.244,0.128 -0.338,0.431 -0.209,0.675 l 2.337,4.421 c 0.13,0.244 0.435,0.337 0.676,0.208 0.244,-0.129 0.338,-0.432 0.209,-0.676 l -2.337,-4.42 c -0.09,-0.17 -0.264,-0.267 -0.443,-0.267 m 50.521,-1.849 c -0.179,0 -0.353,0.096 -0.442,0.266 l -2.337,4.42 c -0.129,0.244 -0.036,0.547 0.209,0.676 0.242,0.128 0.546,0.036 0.675,-0.208 l 2.337,-4.42 c 0.129,-0.244 0.035,-0.547 -0.209,-0.676 -0.074,-0.04 -0.154,-0.058 -0.233,-0.058 m -54.259,-5.223 c -0.079,0 -0.159,0.018 -0.233,0.058 -0.244,0.129 -0.338,0.431 -0.209,0.676 l 2.337,4.42 c 0.13,0.244 0.434,0.336 0.675,0.208 0.245,-0.129 0.338,-0.432 0.209,-0.676 l -2.336,-4.42 c -0.09,-0.17 -0.264,-0.266 -0.443,-0.266 m 57.998,-1.849 c -0.179,0 -0.352,0.096 -0.442,0.266 l -2.337,4.42 c -0.129,0.244 -0.035,0.547 0.209,0.676 0.241,0.129 0.546,0.036 0.676,-0.208 l 2.337,-4.421 c 0.128,-0.244 0.035,-0.546 -0.209,-0.675 -0.075,-0.04 -0.155,-0.058 -0.234,-0.058 m -61.737,-5.224 c -0.079,0 -0.159,0.019 -0.234,0.059 -0.244,0.128 -0.337,0.431 -0.208,0.675 l 2.336,4.421 c 0.129,0.244 0.434,0.338 0.676,0.208 0.244,-0.129 0.338,-0.432 0.209,-0.676 l -2.337,-4.42 c -0.09,-0.17 -0.263,-0.267 -0.442,-0.267 m 65.476,-1.849 c -0.178,0 -0.352,0.097 -0.442,0.266 l -2.337,4.42 c -0.129,0.244 -0.035,0.547 0.209,0.676 0.242,0.129 0.546,0.037 0.676,-0.208 l 2.337,-4.42 c 0.129,-0.244 0.035,-0.547 -0.209,-0.676 -0.074,-0.039 -0.154,-0.058 -0.234,-0.058 m -69.215,-5.223 c -0.079,0 -0.16,0.019 -0.234,0.058 -0.244,0.129 -0.338,0.432 -0.209,0.676 l 2.337,4.42 c 0.13,0.244 0.435,0.336 0.676,0.208 0.244,-0.129 0.338,-0.432 0.209,-0.676 l -2.337,-4.42 c -0.09,-0.169 -0.264,-0.266 -0.442,-0.266 m 72.955,-1.849 c -0.179,0 -0.353,0.096 -0.443,0.266 l -2.337,4.42 c -0.128,0.244 -0.035,0.547 0.209,0.676 0.243,0.128 0.546,0.036 0.676,-0.208 l 2.337,-4.421 c 0.129,-0.244 0.035,-0.546 -0.209,-0.675 -0.074,-0.04 -0.154,-0.058 -0.233,-0.058 m -76.695,-5.224 c -0.079,0 -0.159,0.019 -0.233,0.058 -0.244,0.129 -0.338,0.432 -0.209,0.676 l 2.337,4.421 c 0.13,0.244 0.433,0.336 0.676,0.208 0.244,-0.129 0.338,-0.432 0.209,-0.676 l -2.337,-4.42 c -0.09,-0.17 -0.264,-0.267 -0.443,-0.267 m 80.434,-1.849 c -0.179,0 -0.353,0.097 -0.442,0.266 l -2.337,4.421 c -0.129,0.244 -0.035,0.547 0.209,0.676 0.241,0.128 0.546,0.036 0.675,-0.208 l 2.337,-4.421 c 0.129,-0.244 0.036,-0.547 -0.209,-0.676 -0.074,-0.039 -0.154,-0.058 -0.233,-0.058 m -83.251,-4.668 -0.628,0 c -0.176,0 -0.338,0.092 -0.429,0.242 -0.089,0.15 -0.095,0.336 -0.013,0.492 l 2.044,3.865 c 0.129,0.245 0.433,0.337 0.675,0.208 0.245,-0.128 0.338,-0.431 0.209,-0.675 l -1.674,-3.167 c 0.185,-0.073 0.316,-0.254 0.316,-0.465 0,-0.277 -0.224,-0.5 -0.5,-0.5 m 8,0 -5,0 c -0.276,0 -0.5,0.223 -0.5,0.5 0,0.276 0.224,0.5 0.5,0.5 l 5,0 c 0.276,0 0.5,-0.224 0.5,-0.5 0,-0.277 -0.224,-0.5 -0.5,-0.5 m 8,0 -5,0 c -0.276,0 -0.5,0.223 -0.5,0.5 0,0.276 0.224,0.5 0.5,0.5 l 5,0 c 0.276,0 0.5,-0.224 0.5,-0.5 0,-0.277 -0.224,-0.5 -0.5,-0.5 m 8,0 -5,0 c -0.276,0 -0.5,0.223 -0.5,0.5 0,0.276 0.224,0.5 0.5,0.5 l 5,0 c 0.276,0 0.5,-0.224 0.5,-0.5 0,-0.277 -0.224,-0.5 -0.5,-0.5 m 8,0 -5,0 c -0.276,0 -0.5,0.223 -0.5,0.5 0,0.276 0.224,0.5 0.5,0.5 l 5,0 c 0.276,0 0.5,-0.224 0.5,-0.5 0,-0.277 -0.224,-0.5 -0.5,-0.5 m 8,0 -5,0 c -0.276,0 -0.5,0.223 -0.5,0.5 0,0.276 0.224,0.5 0.5,0.5 l 5,0 c 0.276,0 0.5,-0.224 0.5,-0.5 0,-0.277 -0.224,-0.5 -0.5,-0.5 m 8,0 -5,0 c -0.276,0 -0.5,0.223 -0.5,0.5 0,0.276 0.224,0.5 0.5,0.5 l 5,0 c 0.276,0 0.5,-0.224 0.5,-0.5 0,-0.277 -0.224,-0.5 -0.5,-0.5 m 8,0 -5,0 c -0.276,0 -0.5,0.223 -0.5,0.5 0,0.276 0.224,0.5 0.5,0.5 l 5,0 c 0.276,0 0.5,-0.224 0.5,-0.5 0,-0.277 -0.224,-0.5 -0.5,-0.5 m 8,0 -5,0 c -0.276,0 -0.5,0.223 -0.5,0.5 0,0.276 0.224,0.5 0.5,0.5 l 5,0 c 0.276,0 0.5,-0.224 0.5,-0.5 0,-0.277 -0.224,-0.5 -0.5,-0.5 m 8,0 -5,0 c -0.276,0 -0.5,0.223 -0.5,0.5 0,0.276 0.224,0.5 0.5,0.5 l 5,0 c 0.276,0 0.5,-0.224 0.5,-0.5 0,-0.277 -0.224,-0.5 -0.5,-0.5 m 8,0 -5,0 c -0.276,0 -0.5,0.223 -0.5,0.5 0,0.276 0.224,0.5 0.5,0.5 l 5,0 c 0.276,0 0.5,-0.224 0.5,-0.5 0,-0.277 -0.224,-0.5 -0.5,-0.5 m 5.719,0 -2.719,0 c -0.276,0 -0.5,0.223 -0.5,0.5 0,0.276 0.224,0.5 0.5,0.5 l 1.889,0 -0.679,1.283 c -0.129,0.244 -0.035,0.546 0.209,0.675 0.241,0.129 0.546,0.036 0.676,-0.208 l 1.066,-2.016 c 0.082,-0.156 0.076,-0.342 -0.014,-0.492 -0.09,-0.15 -0.252,-0.242 -0.428,-0.242"
         inkscape:connector-curvature="0" />
    </g>
    <g
       transform="matrix(1.25,0,0,-1.25,231.86748,-346.52865)"
       id="g7848">
      <path
         id="path7850"
         style="fill:#ffffff;fill-opacity:1;fill-rule:nonzero;stroke:none"
         d="m 0,0 c -1.52,0.549 -3.113,0.866 -4.738,0.944 l 0.049,0.999 C -2.966,1.86 -1.273,1.523 0.34,0.94 L 0,0 Z m -12.288,-0.499 -0.414,0.911 c 1.564,0.713 3.223,1.187 4.931,1.408 L -7.643,0.828 C -9.251,0.62 -10.813,0.174 -12.288,-0.499 M 6.41,-4.246 c -1.104,1.19 -2.375,2.205 -3.775,3.018 l 0.502,0.865 c 1.486,-0.863 2.834,-1.94 4.006,-3.202 L 6.41,-4.246 Z m -24.743,-1.002 -0.785,0.621 c 1.066,1.35 2.323,2.531 3.735,3.512 l 0.57,-0.821 c -1.331,-0.925 -2.515,-2.039 -3.52,-3.312 m 28.5,-5.703 C 9.732,-9.392 9.068,-7.909 8.19,-6.542 l 0.842,0.54 c 0.932,-1.451 1.637,-3.025 2.098,-4.681 l -0.963,-0.268 z m -31.702,-1.282 -0.983,0.188 c 0.326,1.691 0.902,3.318 1.711,4.836 l 0.883,-0.471 c -0.763,-1.429 -1.305,-2.962 -1.611,-4.553 m -0.601,-7.961 c -0.459,1.57 -0.692,3.206 -0.693,4.861 l 0.001,0.221 1,-0.014 -0.001,-0.207 c 0.001,-1.56 0.221,-3.101 0.652,-4.581 l -0.959,-0.28 z m 33.143,-0.211 -0.957,0.293 c 0.473,1.543 0.713,3.151 0.713,4.779 0,0.509 -0.024,1.022 -0.071,1.525 l 0.996,0.092 c 0.049,-0.533 0.075,-1.077 0.075,-1.617 0,-1.728 -0.255,-3.435 -0.756,-5.072 m -29.066,-6.855 c -1.189,1.248 -2.181,2.659 -2.949,4.195 l 0.895,0.447 c 0.722,-1.446 1.658,-2.777 2.779,-3.953 l -0.725,-0.689 z m 24.897,-0.159 -0.715,0.699 c 1.135,1.161 2.087,2.479 2.83,3.917 l 0.889,-0.459 c -0.788,-1.526 -1.799,-2.925 -3.004,-4.157 m -18.037,-4.26 c -1.623,0.562 -3.152,1.364 -4.542,2.383 l 0.592,0.807 c 1.309,-0.96 2.749,-1.716 4.278,-2.245 l -0.328,-0.945 z m 11.123,-0.071 -0.315,0.949 c 1.535,0.509 2.984,1.246 4.307,2.19 l 0.58,-0.815 c -1.404,-1.001 -2.942,-1.783 -4.572,-2.324 m -5.457,-0.878 c -0.895,0 -1.794,0.069 -2.673,0.205 l 0.154,0.988 c 1.587,-0.246 3.243,-0.257 4.832,-0.03 l 0.141,-0.991 c -0.807,-0.114 -1.633,-0.172 -2.454,-0.172"
         inkscape:connector-curvature="0" />
    </g>
    <g
       transform="matrix(1.25,0,0,-1.25,305.29268,-292.65055)"
       id="g7852">
      <path
         id="path7854"
         style="fill:#ffffff;fill-opacity:1;fill-rule:nonzero;stroke:none"
         d="M 0,0 C -0.198,0 -0.386,0.119 -0.464,0.314 -0.566,0.57 -0.442,0.861 -0.187,0.964 0.48,1.231 1.185,1.393 1.905,1.444 2.146,1.467 2.42,1.257 2.439,0.98 2.459,0.705 2.251,0.466 1.976,0.447 1.358,0.403 0.757,0.265 0.187,0.036 0.125,0.011 0.062,0 0,0 m 5.766,-0.482 c -0.09,0 -0.18,0.023 -0.261,0.073 C 4.979,-0.087 4.408,0.15 3.809,0.295 3.54,0.36 3.375,0.63 3.439,0.898 3.505,1.166 3.774,1.334 4.043,1.267 4.744,1.097 5.412,0.82 6.026,0.444 6.262,0.3 6.336,-0.008 6.192,-0.244 6.098,-0.397 5.934,-0.482 5.766,-0.482 m -8.801,-2.024 c -0.094,0 -0.188,0.026 -0.271,0.08 -0.232,0.15 -0.299,0.459 -0.149,0.691 0.389,0.604 0.868,1.143 1.423,1.603 0.213,0.177 0.528,0.148 0.704,-0.066 0.177,-0.212 0.146,-0.528 -0.066,-0.704 -0.476,-0.394 -0.887,-0.857 -1.221,-1.375 -0.096,-0.148 -0.256,-0.229 -0.42,-0.229 m 11.378,-0.95 c -0.194,0 -0.378,0.113 -0.46,0.303 -0.242,0.566 -0.571,1.09 -0.976,1.556 -0.18,0.209 -0.158,0.525 0.051,0.706 0.206,0.18 0.524,0.158 0.705,-0.05 C 8.136,-1.487 8.52,-2.098 8.803,-2.759 8.911,-3.013 8.794,-3.307 8.54,-3.416 8.476,-3.443 8.409,-3.456 8.343,-3.456 M -4.053,-6.307 c -0.265,0 -0.486,0.208 -0.499,0.476 -0.006,0.109 -0.008,0.22 -0.008,0.331 0,0.61 0.08,1.217 0.236,1.802 0.072,0.266 0.344,0.427 0.612,0.354 0.267,-0.071 0.426,-0.345 0.355,-0.612 -0.134,-0.501 -0.203,-1.021 -0.203,-1.544 0,-0.095 0.002,-0.189 0.006,-0.283 0.014,-0.276 -0.199,-0.51 -0.474,-0.524 -0.009,0 -0.017,0 -0.025,0 M 8.558,-7.968 c -0.05,0 -0.102,0.008 -0.153,0.024 -0.262,0.084 -0.408,0.365 -0.324,0.629 0.188,0.585 0.282,1.196 0.282,1.815 0.001,0.192 -0.008,0.38 -0.026,0.566 -0.026,0.274 0.175,0.519 0.45,0.545 0.26,0.025 0.52,-0.173 0.546,-0.449 0.021,-0.219 0.031,-0.441 0.03,-0.664 0,-0.721 -0.11,-1.434 -0.329,-2.118 C 8.966,-7.833 8.77,-7.968 8.558,-7.968 M -2.678,-9.994 c -0.147,0 -0.294,0.065 -0.392,0.191 -0.447,0.566 -0.8,1.195 -1.053,1.869 -0.097,0.259 0.035,0.547 0.294,0.644 0.256,0.096 0.547,-0.034 0.643,-0.293 0.216,-0.578 0.519,-1.117 0.901,-1.602 0.171,-0.217 0.134,-0.531 -0.083,-0.702 -0.092,-0.072 -0.201,-0.107 -0.31,-0.107 m 8.952,-1.179 c -0.151,0 -0.301,0.069 -0.399,0.199 -0.166,0.221 -0.122,0.535 0.1,0.701 0.493,0.37 0.924,0.813 1.283,1.315 0.161,0.225 0.473,0.276 0.697,0.117 0.226,-0.161 0.277,-0.473 0.117,-0.698 -0.418,-0.586 -0.922,-1.102 -1.498,-1.534 -0.09,-0.068 -0.195,-0.1 -0.3,-0.1 m -5.693,-1.028 c -0.046,0 -0.094,0.006 -0.141,0.02 -0.691,0.202 -1.343,0.511 -1.941,0.916 -0.228,0.155 -0.287,0.466 -0.133,0.694 0.155,0.23 0.465,0.288 0.696,0.133 0.51,-0.347 1.069,-0.61 1.66,-0.783 0.264,-0.078 0.417,-0.356 0.339,-0.621 -0.064,-0.218 -0.263,-0.359 -0.48,-0.359 m 1.974,-0.259 c -0.272,0 -0.494,0.216 -0.5,0.489 -0.006,0.276 0.213,0.505 0.488,0.511 0.619,0.014 1.228,0.123 1.808,0.324 0.261,0.09 0.545,-0.048 0.636,-0.309 0.09,-0.261 -0.048,-0.546 -0.308,-0.636 C 4,-12.316 3.289,-12.443 2.566,-12.46 l -0.011,0 z"
         inkscape:connector-curvature="0" />
    </g>
    <g
       transform="matrix(1.25,0,0,-1.25,307.65108,-385.27745)"
       id="g7856">
      <path
         id="path7858"
         style="fill:#ffffff;fill-opacity:1;fill-rule:nonzero;stroke:none"
         d="M 0,0 C -0.198,0 -0.386,0.119 -0.464,0.314 -0.566,0.57 -0.442,0.861 -0.187,0.964 0.48,1.231 1.185,1.393 1.905,1.444 2.166,1.465 2.42,1.257 2.439,0.98 2.459,0.705 2.251,0.466 1.976,0.447 1.358,0.403 0.757,0.265 0.187,0.036 0.125,0.011 0.062,0 0,0 m 5.765,-0.482 c -0.09,0 -0.18,0.024 -0.261,0.073 C 4.978,-0.087 4.406,0.15 3.808,0.295 3.539,0.36 3.374,0.63 3.438,0.898 3.504,1.166 3.774,1.334 4.042,1.267 4.743,1.097 5.41,0.821 6.025,0.445 6.261,0.301 6.335,-0.007 6.191,-0.243 6.097,-0.397 5.933,-0.482 5.765,-0.482 m -8.799,-2.024 c -0.094,0 -0.188,0.026 -0.271,0.079 -0.232,0.15 -0.299,0.46 -0.149,0.692 0.389,0.603 0.868,1.143 1.423,1.603 0.214,0.176 0.528,0.148 0.704,-0.066 0.177,-0.213 0.146,-0.528 -0.066,-0.704 C -1.869,-1.297 -2.28,-1.76 -2.614,-2.277 -2.71,-2.426 -2.87,-2.506 -3.034,-2.506 m 11.377,-0.95 c -0.194,0 -0.378,0.114 -0.46,0.304 -0.242,0.565 -0.571,1.089 -0.976,1.556 -0.18,0.208 -0.158,0.524 0.051,0.705 0.206,0.181 0.524,0.159 0.705,-0.05 C 8.136,-1.486 8.52,-2.098 8.803,-2.759 8.911,-3.013 8.794,-3.307 8.54,-3.415 8.476,-3.443 8.409,-3.456 8.343,-3.456 M -4.052,-6.308 c -0.265,0 -0.486,0.209 -0.499,0.476 -0.006,0.109 -0.008,0.218 -0.009,0.327 0,0.613 0.08,1.219 0.235,1.806 0.071,0.265 0.34,0.427 0.611,0.355 0.268,-0.071 0.426,-0.345 0.356,-0.612 -0.134,-0.502 -0.202,-1.022 -0.202,-1.544 10e-4,-0.092 0.003,-0.188 0.007,-0.284 0.014,-0.276 -0.199,-0.51 -0.475,-0.523 -0.008,-10e-4 -0.016,-10e-4 -0.024,-10e-4 m 12.61,-1.66 c -0.05,0 -0.102,0.008 -0.153,0.024 -0.262,0.084 -0.408,0.365 -0.324,0.629 0.188,0.585 0.282,1.196 0.282,1.815 0,0.191 -0.009,0.38 -0.027,0.567 -0.026,0.274 0.175,0.519 0.45,0.545 0.26,0.026 0.52,-0.174 0.546,-0.449 0.021,-0.218 0.031,-0.439 0.031,-0.663 0,-0.723 -0.11,-1.436 -0.329,-2.12 C 8.966,-7.833 8.77,-7.968 8.558,-7.968 M -2.678,-9.995 c -0.147,0 -0.294,0.066 -0.392,0.191 -0.447,0.566 -0.8,1.196 -1.053,1.87 -0.097,0.259 0.035,0.547 0.294,0.643 0.258,0.096 0.546,-0.034 0.643,-0.292 0.216,-0.578 0.519,-1.117 0.901,-1.603 0.171,-0.216 0.134,-0.531 -0.083,-0.702 -0.092,-0.071 -0.201,-0.107 -0.31,-0.107 m 8.952,-1.178 c -0.151,0 -0.301,0.069 -0.399,0.2 -0.166,0.221 -0.122,0.534 0.1,0.7 0.493,0.371 0.924,0.813 1.283,1.315 0.161,0.226 0.473,0.276 0.697,0.117 0.226,-0.16 0.277,-0.472 0.117,-0.698 -0.418,-0.585 -0.922,-1.101 -1.498,-1.534 -0.09,-0.067 -0.195,-0.1 -0.3,-0.1 m -5.693,-1.029 c -0.046,0 -0.094,0.007 -0.141,0.02 -0.691,0.203 -1.343,0.511 -1.941,0.916 -0.228,0.155 -0.287,0.466 -0.133,0.695 0.155,0.229 0.465,0.288 0.696,0.133 0.51,-0.347 1.069,-0.611 1.66,-0.784 0.264,-0.077 0.417,-0.355 0.339,-0.62 -0.064,-0.218 -0.263,-0.36 -0.48,-0.36 m 1.975,-0.258 c -0.272,0 -0.494,0.216 -0.5,0.489 -0.006,0.276 0.213,0.505 0.488,0.511 0.619,0.014 1.227,0.123 1.808,0.324 0.261,0.09 0.545,-0.047 0.636,-0.309 0.09,-0.261 -0.048,-0.546 -0.308,-0.636 -0.679,-0.235 -1.39,-0.362 -2.113,-0.379 l -0.011,0 z"
         inkscape:connector-curvature="0" />
    </g>
    <g
       transform="matrix(1.25,0,0,-1.25,200.63088,-385.27745)"
       id="g7860">
      <path
         id="path7862"
         style="fill:#ffffff;fill-opacity:1;fill-rule:nonzero;stroke:none"
         d="m 0,0 c -0.198,0 -0.386,0.119 -0.464,0.314 -0.102,0.256 0.022,0.547 0.278,0.65 0.668,0.267 1.372,0.429 2.092,0.48 C 2.167,1.465 2.421,1.257 2.44,0.98 2.46,0.705 2.252,0.466 1.977,0.447 1.36,0.403 0.758,0.265 0.186,0.036 0.125,0.011 0.062,0 0,0 m 5.766,-0.482 c -0.09,0 -0.18,0.023 -0.261,0.073 C 4.979,-0.087 4.408,0.15 3.809,0.295 3.54,0.36 3.375,0.63 3.439,0.898 3.505,1.166 3.775,1.334 4.043,1.267 4.744,1.097 5.412,0.82 6.026,0.444 6.262,0.3 6.336,-0.008 6.192,-0.244 6.098,-0.397 5.934,-0.482 5.766,-0.482 m -8.801,-2.024 c -0.094,0 -0.188,0.026 -0.271,0.079 -0.232,0.15 -0.299,0.46 -0.149,0.692 0.389,0.603 0.868,1.143 1.423,1.603 0.214,0.176 0.528,0.148 0.704,-0.066 0.177,-0.213 0.146,-0.528 -0.066,-0.704 -0.476,-0.395 -0.887,-0.858 -1.221,-1.375 -0.096,-0.149 -0.256,-0.229 -0.42,-0.229 m 11.378,-0.95 c -0.194,0 -0.378,0.113 -0.46,0.303 -0.242,0.566 -0.571,1.09 -0.976,1.556 -0.18,0.209 -0.158,0.525 0.051,0.706 0.206,0.181 0.524,0.158 0.705,-0.05 C 8.136,-1.487 8.52,-2.098 8.803,-2.759 8.911,-3.013 8.794,-3.307 8.54,-3.416 8.476,-3.443 8.409,-3.456 8.343,-3.456 M -4.052,-6.308 c -0.265,0 -0.486,0.209 -0.499,0.476 -0.006,0.109 -0.008,0.218 -0.009,0.327 0,0.615 0.08,1.221 0.236,1.807 0.072,0.266 0.342,0.429 0.612,0.354 0.267,-0.072 0.426,-0.345 0.355,-0.612 -0.134,-0.502 -0.203,-1.021 -0.203,-1.544 10e-4,-0.092 0.003,-0.188 0.007,-0.284 0.014,-0.276 -0.199,-0.51 -0.475,-0.523 -0.008,-10e-4 -0.016,-10e-4 -0.024,-10e-4 m 12.61,-1.66 c -0.05,0 -0.102,0.008 -0.153,0.024 -0.262,0.084 -0.408,0.365 -0.324,0.629 0.188,0.585 0.282,1.196 0.282,1.815 0.001,0.192 -0.008,0.381 -0.026,0.566 -0.026,0.275 0.175,0.519 0.45,0.546 0.259,0.017 0.52,-0.174 0.546,-0.45 0.021,-0.219 0.031,-0.44 0.03,-0.664 0,-0.721 -0.11,-1.434 -0.329,-2.118 C 8.966,-7.833 8.77,-7.968 8.558,-7.968 M -2.678,-9.995 c -0.147,0 -0.294,0.066 -0.392,0.191 -0.447,0.566 -0.8,1.196 -1.053,1.87 -0.097,0.259 0.035,0.547 0.294,0.643 0.257,0.096 0.547,-0.034 0.643,-0.292 0.216,-0.578 0.519,-1.117 0.901,-1.603 0.171,-0.216 0.134,-0.531 -0.083,-0.702 -0.092,-0.071 -0.201,-0.107 -0.31,-0.107 m 8.952,-1.178 c -0.151,0 -0.301,0.069 -0.399,0.2 -0.166,0.221 -0.122,0.534 0.1,0.7 0.493,0.371 0.924,0.813 1.283,1.315 0.161,0.226 0.473,0.276 0.697,0.117 0.226,-0.16 0.277,-0.472 0.117,-0.698 -0.418,-0.585 -0.922,-1.101 -1.498,-1.534 -0.09,-0.067 -0.195,-0.1 -0.3,-0.1 m -5.692,-1.029 c -0.046,0 -0.094,0.007 -0.141,0.02 -0.691,0.203 -1.343,0.511 -1.941,0.916 -0.229,0.155 -0.287,0.466 -0.133,0.695 0.155,0.229 0.464,0.288 0.696,0.133 0.51,-0.347 1.069,-0.611 1.66,-0.784 0.264,-0.077 0.417,-0.355 0.339,-0.62 -0.064,-0.218 -0.263,-0.36 -0.48,-0.36 m 1.974,-0.258 c -0.272,0 -0.494,0.216 -0.5,0.489 -0.006,0.276 0.213,0.505 0.488,0.511 0.619,0.014 1.227,0.123 1.808,0.324 0.26,0.09 0.544,-0.047 0.636,-0.309 0.09,-0.261 -0.048,-0.546 -0.308,-0.636 -0.679,-0.235 -1.39,-0.362 -2.113,-0.379 l -0.011,0 z"
         inkscape:connector-curvature="0" />
    </g>
    <g
       transform="matrix(1.25,0,0,-1.25,203.90228,-292.65165)"
       id="g7864">
      <path
         id="path7866"
         style="fill:#ffffff;fill-opacity:1;fill-rule:nonzero;stroke:none"
         d="m 0,0 c -0.198,0 -0.386,0.119 -0.464,0.314 -0.102,0.256 0.022,0.547 0.278,0.65 0.668,0.267 1.372,0.429 2.092,0.48 C 2.148,1.466 2.421,1.257 2.44,0.98 2.46,0.705 2.252,0.466 1.977,0.447 1.36,0.403 0.758,0.265 0.186,0.036 0.125,0.011 0.062,0 0,0 m 5.765,-0.483 c -0.09,0 -0.18,0.023 -0.261,0.073 C 4.978,-0.088 4.406,0.148 3.809,0.293 3.54,0.358 3.375,0.628 3.439,0.897 3.505,1.165 3.774,1.333 4.043,1.265 4.743,1.096 5.41,0.819 6.025,0.443 6.261,0.299 6.335,-0.009 6.191,-0.244 6.097,-0.398 5.933,-0.483 5.765,-0.483 m -8.799,-2.024 c -0.094,0 -0.188,0.026 -0.271,0.08 -0.232,0.15 -0.299,0.459 -0.149,0.691 0.389,0.604 0.868,1.143 1.423,1.604 0.213,0.176 0.528,0.147 0.704,-0.067 0.177,-0.212 0.146,-0.528 -0.066,-0.704 C -1.869,-1.297 -2.28,-1.76 -2.614,-2.278 -2.71,-2.426 -2.87,-2.507 -3.034,-2.507 m 11.378,-0.95 c -0.194,0 -0.378,0.113 -0.46,0.303 -0.242,0.566 -0.571,1.089 -0.976,1.556 -0.18,0.208 -0.158,0.524 0.051,0.705 0.207,0.181 0.523,0.159 0.705,-0.05 C 8.137,-1.488 8.52,-2.099 8.804,-2.76 8.912,-3.014 8.795,-3.308 8.541,-3.417 8.477,-3.444 8.41,-3.457 8.344,-3.457 M -4.053,-6.308 c -0.265,0 -0.486,0.208 -0.499,0.476 -0.006,0.109 -0.008,0.22 -0.008,0.331 0,0.61 0.08,1.217 0.236,1.802 0.072,0.266 0.343,0.427 0.612,0.354 0.267,-0.071 0.426,-0.345 0.355,-0.612 -0.134,-0.501 -0.203,-1.021 -0.203,-1.544 0,-0.095 0.002,-0.189 0.006,-0.283 0.014,-0.276 -0.199,-0.51 -0.474,-0.524 -0.009,0 -0.017,0 -0.025,0 M 8.558,-7.969 c -0.05,0 -0.102,0.008 -0.153,0.024 -0.262,0.084 -0.408,0.365 -0.324,0.629 0.188,0.585 0.282,1.196 0.282,1.815 -10e-4,0.19 -0.009,0.38 -0.027,0.568 -0.025,0.275 0.178,0.518 0.452,0.544 0.269,0.023 0.518,-0.177 0.544,-0.452 0.02,-0.217 0.03,-0.436 0.031,-0.658 0,-0.725 -0.11,-1.438 -0.329,-2.122 C 8.966,-7.833 8.77,-7.969 8.558,-7.969 M -2.679,-9.995 c -0.147,0 -0.294,0.066 -0.392,0.191 -0.447,0.567 -0.8,1.196 -1.053,1.87 -0.097,0.259 0.035,0.547 0.294,0.644 0.257,0.095 0.547,-0.034 0.643,-0.293 0.216,-0.578 0.519,-1.117 0.901,-1.603 0.171,-0.216 0.134,-0.531 -0.083,-0.702 -0.092,-0.071 -0.201,-0.107 -0.31,-0.107 m 8.953,-1.179 c -0.151,0 -0.301,0.069 -0.399,0.2 -0.166,0.221 -0.122,0.534 0.1,0.7 0.493,0.371 0.924,0.813 1.283,1.316 0.161,0.225 0.473,0.275 0.697,0.116 0.226,-0.16 0.277,-0.472 0.117,-0.698 -0.418,-0.585 -0.922,-1.101 -1.498,-1.534 -0.09,-0.067 -0.195,-0.1 -0.3,-0.1 m -5.693,-1.028 c -0.046,0 -0.094,0.006 -0.141,0.02 -0.691,0.203 -1.343,0.511 -1.941,0.916 -0.228,0.155 -0.287,0.466 -0.133,0.694 0.155,0.23 0.465,0.288 0.696,0.133 0.51,-0.347 1.069,-0.61 1.66,-0.783 0.264,-0.078 0.417,-0.356 0.339,-0.621 -0.064,-0.218 -0.263,-0.359 -0.48,-0.359 m 1.974,-0.258 c -0.272,0 -0.494,0.216 -0.5,0.488 -0.006,0.276 0.213,0.505 0.488,0.512 0.619,0.014 1.228,0.123 1.808,0.324 0.261,0.089 0.545,-0.047 0.636,-0.309 0.09,-0.261 -0.048,-0.546 -0.308,-0.637 C 4,-12.316 3.289,-12.444 2.566,-12.46 l -0.011,0 z"
         inkscape:connector-curvature="0" />
    </g>
    <g
       transform="matrix(1.25,0,0,-1.25,257.92208,-405.87445)"
       id="g7868">
      <path
         id="path7870"
         style="fill:#ffffff;fill-opacity:1;fill-rule:nonzero;stroke:none"
         d="m 0,0 c -10.678,0 -19.365,-8.688 -19.365,-19.366 0,-10.678 8.687,-19.365 19.365,-19.365 10.679,0 19.366,8.687 19.366,19.365 C 19.366,-8.688 10.679,0 0,0 m 0,-39.731 c -11.229,0 -20.365,9.136 -20.365,20.365 C -20.365,-8.136 -11.229,1 0,1 11.229,1 20.366,-8.136 20.366,-19.366 20.366,-30.595 11.229,-39.731 0,-39.731"
         inkscape:connector-curvature="0" />
    </g>
    <g
       transform="matrix(1.25,0,0,-1.25,242.51198,-397.97275)"
       id="g7872">
      <path
         id="path7874"
         style="fill:#ffffff;fill-opacity:1;fill-rule:nonzero;stroke:none"
         d="M 0,0 24.653,0 12.326,21.085 0,0 Z M 26.396,-1 -1.742,-1 12.326,23.066 26.396,-1 Z"
         inkscape:connector-curvature="0" />
    </g>
  </g>
</svg>
