<?xml version="1.0" encoding="utf-8"?>
<!-- Generator: Adobe Illustrator 19.0.0, SVG Export Plug-In . SVG Version: 6.00 Build 0)  -->
<svg version="1.1" id="Layer_1" xmlns="http://www.w3.org/2000/svg" xmlns:xlink="http://www.w3.org/1999/xlink" x="0px" y="0px"
	 viewBox="0 0 140.6 143.6" style="enable-background:new 0 0 140.6 143.6;" xml:space="preserve">
<style type="text/css">
	.st0{display:none;}
	.st1{display:inline;fill:#FFFFFF;}
	.st2{fill:#FFFFFF;}
</style>
<g id="XMLID_1167_" class="st0">
	<g id="XMLID_2_">
		<path id="XMLID_761_" class="st1" d="M68.2,142.4c-0.1,0-0.2,0-0.2-0.2v-2.6c0-0.1,0.1-0.2,0.2-0.2h5.3c0.1,0,0.2,0,0.2,0.2v2.6
			c0,0.1,0,0.2-0.2,0.2H68.2z"/>
		<path id="XMLID_763_" class="st1" d="M-6.1,173.7c-0.8-0.3-1.4-0.7-1.9-1.1c-0.1-0.1-0.1-0.2,0-0.3l1.3-1.5c0.1-0.1,0.2-0.1,0.3,0
			c1,0.8,2,1.2,3,1.2c1.2,0,1.9-0.5,1.9-1.4c0-0.7-0.5-1.1-1.8-1.3l-0.6-0.1c-2.4-0.3-3.6-1.5-3.6-3.4c0-1.1,0.4-1.9,1.1-2.5
			c0.7-0.6,1.7-1,3-1c1.6,0,2.9,0.4,3.9,1.2c0.1,0.1,0.1,0.2,0,0.3l-1,1.5c-0.1,0.1-0.2,0.1-0.2,0.1c-0.9-0.6-1.8-0.9-2.7-0.9
			c-1,0-1.5,0.5-1.5,1.2c0,0.7,0.5,1.1,1.8,1.3l0.6,0.1c2.4,0.3,3.6,1.5,3.6,3.5c0,2.2-1.6,3.6-4.5,3.6
			C-4.5,174.2-5.3,174-6.1,173.7z"/>
		<path id="XMLID_765_" class="st1" d="M2.6,174c-0.1,0-0.2-0.1-0.2-0.2v-11.1c0-0.1,0-0.2,0.2-0.2H7c1.2,0,2.2,0.3,2.9,1
			c0.7,0.7,1.1,1.6,1.1,2.7c0,1.1-0.4,2-1.1,2.7c-0.7,0.7-1.7,1-2.9,1H5c-0.1,0-0.1,0-0.1,0.1v3.8c0,0.1,0,0.2-0.2,0.2H2.6z
			 M6.9,167.8c1,0,1.7-0.6,1.7-1.5c0-0.9-0.6-1.5-1.7-1.5H5c-0.1,0-0.1,0-0.1,0.1v2.9c0,0.1,0,0.1,0.1,0.1H6.9z"/>
		<path id="XMLID_768_" class="st1" d="M12.6,162.7c0-0.1,0-0.2,0.2-0.2h7.3c0.1,0,0.2,0.1,0.2,0.2v1.8c0,0.1-0.1,0.2-0.2,0.2h-4.9
			c-0.1,0-0.1,0-0.1,0.1v2.3c0,0.1,0,0.1,0.1,0.1h4.1c0.1,0,0.2,0,0.2,0.2v1.8c0,0.1-0.1,0.2-0.2,0.2h-4.1c-0.1,0-0.1,0-0.1,0.1v2.4
			c0,0.1,0,0.1,0.1,0.1h4.9c0.1,0,0.2,0,0.2,0.2v1.8c0,0.1-0.1,0.2-0.2,0.2h-7.3c-0.1,0-0.2-0.1-0.2-0.2V162.7z"/>
		<path id="XMLID_770_" class="st1" d="M25.2,162.7c0-0.1,0.1-0.2,0.2-0.2h2.1c0.1,0,0.2,0.1,0.2,0.2l3.9,11.1c0,0.1,0,0.2-0.1,0.2
			h-2.2c-0.1,0-0.2-0.1-0.2-0.2l-0.7-2h-4l-0.6,2c0,0.1-0.1,0.2-0.2,0.2h-2.2c-0.1,0-0.2-0.1-0.1-0.2L25.2,162.7z M25.2,169.7h2.6
			l-1.3-4h-0.1L25.2,169.7z"/>
		<path id="XMLID_773_" class="st1" d="M32.9,162.7c0-0.1,0-0.2,0.2-0.2h2.1c0.1,0,0.2,0.1,0.2,0.2v4.9l3.8-5
			c0.1-0.1,0.2-0.2,0.3-0.2h2.4c0.1,0,0.2,0.1,0.1,0.2l-3.5,4.3l3.8,6.7c0.1,0.1,0.1,0.2-0.1,0.2h-2.5c-0.1,0-0.2-0.1-0.3-0.2
			l-2.6-4.8l-1.5,1.9v2.9c0,0.1,0,0.2-0.2,0.2h-2.1c-0.1,0-0.2-0.1-0.2-0.2V162.7z"/>
		<path id="XMLID_775_" class="st1" d="M43.8,162.7c0-0.1,0-0.2,0.2-0.2h7.3c0.1,0,0.2,0.1,0.2,0.2v1.8c0,0.1-0.1,0.2-0.2,0.2h-4.9
			c-0.1,0-0.1,0-0.1,0.1v2.3c0,0.1,0,0.1,0.1,0.1h4.1c0.1,0,0.2,0,0.2,0.2v1.8c0,0.1,0,0.2-0.2,0.2h-4.1c-0.1,0-0.1,0-0.1,0.1v2.4
			c0,0.1,0,0.1,0.1,0.1h4.9c0.1,0,0.2,0,0.2,0.2v1.8c0,0.1-0.1,0.2-0.2,0.2h-7.3c-0.1,0-0.2-0.1-0.2-0.2V162.7z"/>
		<path id="XMLID_777_" class="st1" d="M59.6,174c-0.1,0-0.2-0.1-0.3-0.2l-2-4.2h-1.5c-0.1,0-0.1,0-0.1,0.1v4.1c0,0.1,0,0.2-0.2,0.2
			h-2.1c-0.1,0-0.2-0.1-0.2-0.2v-11.1c0-0.1,0-0.2,0.2-0.2H58c1.2,0,2.1,0.3,2.8,1c0.7,0.7,1.1,1.5,1.1,2.6c0,1.5-0.8,2.6-2,3.2
			l2.3,4.5c0.1,0.1,0,0.2-0.1,0.2H59.6z M57.9,167.5c0.9,0,1.5-0.6,1.5-1.4c0-0.9-0.6-1.4-1.5-1.4h-2c-0.1,0-0.1,0-0.1,0.1v2.6
			c0,0.1,0,0.1,0.1,0.1H57.9z"/>
		<path id="XMLID_780_" class="st1" d="M63.6,165.9v-3.2c0-0.1,0.1-0.2,0.2-0.2h1.7c0.1,0,0.2,0.1,0.2,0.2v1.8c0,0.2,0,0.3-0.2,0.4
			l-1.4,1.1c-0.1,0.1-0.2,0.1-0.3,0.1C63.7,166.1,63.6,166,63.6,165.9z"/>
		<path id="XMLID_782_" class="st1" d="M69.1,173.7c-0.8-0.3-1.4-0.7-1.9-1.1c-0.1-0.1-0.1-0.2,0-0.3l1.3-1.5c0.1-0.1,0.2-0.1,0.3,0
			c1,0.8,2,1.2,3,1.2c1.2,0,1.9-0.5,1.9-1.4c0-0.7-0.5-1.1-1.8-1.3l-0.6-0.1c-2.4-0.3-3.6-1.5-3.6-3.4c0-1.1,0.4-1.9,1.1-2.5
			c0.7-0.6,1.7-1,3-1c1.6,0,2.9,0.4,3.9,1.2c0.1,0.1,0.1,0.2,0,0.3l-1,1.5c-0.1,0.1-0.2,0.1-0.2,0.1c-0.9-0.6-1.8-0.9-2.7-0.9
			c-1,0-1.5,0.5-1.5,1.2c0,0.7,0.5,1.1,1.8,1.3l0.6,0.1c2.4,0.3,3.6,1.5,3.6,3.5c0,2.2-1.6,3.6-4.5,3.6
			C70.8,174.2,69.9,174,69.1,173.7z"/>
		<path id="XMLID_784_" class="st1" d="M82.8,173c-0.8-0.8-1.2-1.8-1.2-3.2v-7.1c0-0.1,0.1-0.2,0.2-0.2h2.1c0.1,0,0.2,0.1,0.2,0.2
			v7.1c0,1.3,0.8,2.1,1.9,2.1c1.2,0,1.9-0.8,1.9-2.1v-7.1c0-0.1,0.1-0.2,0.2-0.2h2.1c0.1,0,0.2,0.1,0.2,0.2v7.1
			c0,1.4-0.4,2.5-1.2,3.2c-0.8,0.8-1.8,1.1-3.2,1.1C84.7,174.2,83.6,173.8,82.8,173z"/>
		<path id="XMLID_786_" class="st1" d="M92.7,174c-0.1,0-0.2-0.1-0.2-0.2v-11.1c0-0.1,0-0.2,0.2-0.2h4.4c1.2,0,2.2,0.3,2.9,1
			c0.7,0.7,1.1,1.6,1.1,2.7c0,1.1-0.4,2-1.1,2.7c-0.7,0.7-1.7,1-2.9,1h-2c-0.1,0-0.1,0-0.1,0.1v3.8c0,0.1,0,0.2-0.2,0.2H92.7z
			 M97,167.8c1,0,1.7-0.6,1.7-1.5c0-0.9-0.6-1.5-1.7-1.5h-1.9c-0.1,0-0.1,0-0.1,0.1v2.9c0,0.1,0,0.1,0.1,0.1H97z"/>
		<path id="XMLID_789_" class="st1" d="M102.7,162.7c0-0.1,0-0.2,0.2-0.2h4.3c2.1,0,3.4,0.9,4,2.6c0.2,0.6,0.3,1.7,0.3,3.1
			s-0.1,2.5-0.3,3.1c-0.6,1.7-1.9,2.6-4,2.6h-4.3c-0.1,0-0.2-0.1-0.2-0.2V162.7z M105.1,171.7c0,0.1,0,0.1,0.1,0.1h1.3
			c1.2,0,1.9-0.4,2.1-1.3c0.1-0.4,0.2-1.1,0.2-2.3s-0.1-1.9-0.2-2.3c-0.3-0.8-1-1.3-2.1-1.3h-1.3c-0.1,0-0.1,0-0.1,0.1V171.7z"/>
		<path id="XMLID_792_" class="st1" d="M116,162.7c0-0.1,0.1-0.2,0.2-0.2h2.1c0.1,0,0.2,0.1,0.2,0.2l3.9,11.1c0,0.1,0,0.2-0.1,0.2
			h-2.2c-0.1,0-0.2-0.1-0.2-0.2l-0.7-2h-4l-0.6,2c0,0.1-0.1,0.2-0.2,0.2h-2.2c-0.1,0-0.2-0.1-0.1-0.2L116,162.7z M115.9,169.7h2.6
			l-1.3-4h-0.1L115.9,169.7z"/>
		<path id="XMLID_795_" class="st1" d="M125.1,174c-0.1,0-0.2-0.1-0.2-0.2v-9c0-0.1,0-0.1-0.1-0.1H122c-0.1,0-0.2-0.1-0.2-0.2v-1.9
			c0-0.1,0-0.2,0.2-0.2h8.5c0.1,0,0.2,0.1,0.2,0.2v1.9c0,0.1-0.1,0.2-0.2,0.2h-2.9c-0.1,0-0.1,0-0.1,0.1v9c0,0.1-0.1,0.2-0.2,0.2
			H125.1z"/>
		<path id="XMLID_797_" class="st1" d="M132,162.7c0-0.1,0-0.2,0.2-0.2h7.3c0.1,0,0.2,0.1,0.2,0.2v1.8c0,0.1-0.1,0.2-0.2,0.2h-4.9
			c-0.1,0-0.1,0-0.1,0.1v2.3c0,0.1,0,0.1,0.1,0.1h4.1c0.1,0,0.2,0,0.2,0.2v1.8c0,0.1,0,0.2-0.2,0.2h-4.1c-0.1,0-0.1,0-0.1,0.1v2.4
			c0,0.1,0,0.1,0.1,0.1h4.9c0.1,0,0.2,0,0.2,0.2v1.8c0,0.1-0.1,0.2-0.2,0.2h-7.3c-0.1,0-0.2-0.1-0.2-0.2V162.7z"/>
		<path id="XMLID_799_" class="st1" d="M142.9,173.7c-0.8-0.3-1.4-0.7-1.9-1.1c-0.1-0.1-0.1-0.2,0-0.3l1.3-1.5
			c0.1-0.1,0.2-0.1,0.3,0c1,0.8,2,1.2,3,1.2c1.2,0,1.9-0.5,1.9-1.4c0-0.7-0.5-1.1-1.8-1.3l-0.6-0.1c-2.4-0.3-3.6-1.5-3.6-3.4
			c0-1.1,0.4-1.9,1.1-2.5c0.7-0.6,1.7-1,3-1c1.6,0,2.9,0.4,3.9,1.2c0.1,0.1,0.1,0.2,0,0.3l-1,1.5c-0.1,0.1-0.2,0.1-0.2,0.1
			c-0.9-0.6-1.8-0.9-2.7-0.9c-1,0-1.5,0.5-1.5,1.2c0,0.7,0.5,1.1,1.8,1.3l0.6,0.1c2.4,0.3,3.6,1.5,3.6,3.5c0,2.2-1.6,3.6-4.5,3.6
			C144.6,174.2,143.7,174,142.9,173.7z"/>
	</g>
</g>
<g id="XMLID_1165_">
	<g id="XMLID_106_" class="st0">
		<path id="XMLID_341_" class="st1" d="M69.2,141.5c-0.1,0-0.2,0-0.2-0.2v-2.6c0-0.1,0.1-0.2,0.2-0.2h5.3c0.1,0,0.2,0,0.2,0.2v2.6
			c0,0.1,0,0.2-0.2,0.2H69.2z"/>
		<path id="XMLID_339_" class="st1" d="M17.3,173.1c-0.1,0-0.2-0.1-0.2-0.2v-9c0-0.1,0-0.1-0.1-0.1h-2.9c-0.1,0-0.2-0.1-0.2-0.2
			v-1.9c0-0.1,0-0.2,0.2-0.2h8.5c0.1,0,0.2,0.1,0.2,0.2v1.9c0,0.1-0.1,0.2-0.2,0.2h-2.9c-0.1,0-0.1,0-0.1,0.1v9
			c0,0.1-0.1,0.2-0.2,0.2H17.3z"/>
		<path id="XMLID_233_" class="st1" d="M24.1,161.9c0-0.1,0-0.2,0.2-0.2h7.3c0.1,0,0.2,0.1,0.2,0.2v1.8c0,0.1-0.1,0.2-0.2,0.2h-4.9
			c-0.1,0-0.1,0-0.1,0.1v2.3c0,0.1,0,0.1,0.1,0.1h4.1c0.1,0,0.2,0,0.2,0.2v1.8c0,0.1-0.1,0.2-0.2,0.2h-4.1c-0.1,0-0.1,0-0.1,0.1v2.4
			c0,0.1,0,0.1,0.1,0.1h4.9c0.1,0,0.2,0,0.2,0.2v1.8c0,0.1-0.1,0.2-0.2,0.2h-7.3c-0.1,0-0.2-0.1-0.2-0.2V161.9z"/>
		<path id="XMLID_230_" class="st1" d="M36.8,161.9c0-0.1,0.1-0.2,0.2-0.2h2.1c0.1,0,0.2,0.1,0.2,0.2l3.9,11.1c0,0.1,0,0.2-0.1,0.2
			h-2.2c-0.1,0-0.2-0.1-0.2-0.2l-0.7-2h-4l-0.6,2c0,0.1-0.1,0.2-0.2,0.2h-2.2c-0.1,0-0.2-0.1-0.1-0.2L36.8,161.9z M36.7,168.9h2.6
			l-1.3-4H38L36.7,168.9z"/>
		<path id="XMLID_178_" class="st1" d="M44.5,161.9c0-0.1,0-0.2,0.2-0.2h2c0.1,0,0.2,0.1,0.3,0.2l2.9,6.5h0.1l2.8-6.5
			c0.1-0.1,0.1-0.2,0.3-0.2h2c0.1,0,0.2,0.1,0.2,0.2V173c0,0.1-0.1,0.2-0.2,0.2H53c-0.1,0-0.2-0.1-0.2-0.2v-6.4h-0.1l-2.1,4.8
			c-0.1,0.2-0.2,0.2-0.3,0.2h-1.2c-0.2,0-0.3-0.1-0.3-0.2l-2.1-4.8h-0.1v6.4c0,0.1,0,0.2-0.2,0.2h-1.9c-0.1,0-0.2-0.1-0.2-0.2V161.9
			z"/>
		<path id="XMLID_176_" class="st1" d="M62.4,172.2c-0.8-0.8-1.2-1.8-1.2-3.2v-7.1c0-0.1,0.1-0.2,0.2-0.2h2.1c0.1,0,0.2,0.1,0.2,0.2
			v7.1c0,1.3,0.8,2.1,1.9,2.1s1.9-0.8,1.9-2.1v-7.1c0-0.1,0.1-0.2,0.2-0.2h2.1c0.1,0,0.2,0.1,0.2,0.2v7.1c0,1.4-0.4,2.5-1.2,3.2
			c-0.8,0.8-1.8,1.1-3.2,1.1C64.3,173.3,63.2,172.9,62.4,172.2z"/>
		<path id="XMLID_173_" class="st1" d="M72.3,173.1c-0.1,0-0.2-0.1-0.2-0.2v-11.1c0-0.1,0-0.2,0.2-0.2h4.4c1.2,0,2.2,0.3,2.9,1
			c0.7,0.7,1.1,1.6,1.1,2.7c0,1.1-0.4,2-1.1,2.7c-0.7,0.7-1.7,1-2.9,1h-2c-0.1,0-0.1,0-0.1,0.1v3.8c0,0.1,0,0.2-0.2,0.2H72.3z
			 M76.6,166.9c1,0,1.7-0.6,1.7-1.5c0-0.9-0.6-1.5-1.7-1.5h-1.9c-0.1,0-0.1,0-0.1,0.1v2.9c0,0.1,0,0.1,0.1,0.1H76.6z"/>
		<path id="XMLID_116_" class="st1" d="M82.3,161.9c0-0.1,0-0.2,0.2-0.2h4.3c2.1,0,3.4,0.9,4,2.6c0.2,0.6,0.3,1.7,0.3,3.1
			s-0.1,2.5-0.3,3.1c-0.6,1.7-1.9,2.6-4,2.6h-4.3c-0.1,0-0.2-0.1-0.2-0.2V161.9z M84.8,170.8c0,0.1,0,0.1,0.1,0.1h1.3
			c1.2,0,1.9-0.4,2.1-1.3c0.1-0.4,0.2-1.1,0.2-2.3s-0.1-1.9-0.2-2.3c-0.3-0.8-1-1.3-2.1-1.3h-1.3c-0.1,0-0.1,0-0.1,0.1V170.8z"/>
		<path id="XMLID_113_" class="st1" d="M95.6,161.9c0-0.1,0.1-0.2,0.2-0.2h2.1c0.1,0,0.2,0.1,0.2,0.2L102,173c0,0.1,0,0.2-0.1,0.2
			h-2.2c-0.1,0-0.2-0.1-0.2-0.2l-0.7-2h-4l-0.6,2c0,0.1-0.1,0.2-0.2,0.2h-2.2c-0.1,0-0.2-0.1-0.1-0.2L95.6,161.9z M95.5,168.9h2.6
			l-1.3-4h-0.1L95.5,168.9z"/>
		<path id="XMLID_111_" class="st1" d="M104.7,173.1c-0.1,0-0.2-0.1-0.2-0.2v-9c0-0.1,0-0.1-0.1-0.1h-2.9c-0.1,0-0.2-0.1-0.2-0.2
			v-1.9c0-0.1,0-0.2,0.2-0.2h8.5c0.1,0,0.2,0.1,0.2,0.2v1.9c0,0.1-0.1,0.2-0.2,0.2h-2.9c-0.1,0-0.1,0-0.1,0.1v9
			c0,0.1-0.1,0.2-0.2,0.2H104.7z"/>
		<path id="XMLID_109_" class="st1" d="M111.6,161.9c0-0.1,0-0.2,0.2-0.2h7.3c0.1,0,0.2,0.1,0.2,0.2v1.8c0,0.1-0.1,0.2-0.2,0.2h-4.9
			c-0.1,0-0.1,0-0.1,0.1v2.3c0,0.1,0,0.1,0.1,0.1h4.1c0.1,0,0.2,0,0.2,0.2v1.8c0,0.1-0.1,0.2-0.2,0.2h-4.1c-0.1,0-0.1,0-0.1,0.1v2.4
			c0,0.1,0,0.1,0.1,0.1h4.9c0.1,0,0.2,0,0.2,0.2v1.8c0,0.1-0.1,0.2-0.2,0.2h-7.3c-0.1,0-0.2-0.1-0.2-0.2V161.9z"/>
		<path id="XMLID_107_" class="st1" d="M122.6,172.9c-0.8-0.3-1.4-0.7-1.9-1.1c-0.1-0.1-0.1-0.2,0-0.3l1.3-1.5
			c0.1-0.1,0.2-0.1,0.3,0c1,0.8,2,1.2,3,1.2c1.2,0,1.9-0.5,1.9-1.4c0-0.7-0.5-1.1-1.8-1.3l-0.6-0.1c-2.4-0.3-3.6-1.5-3.6-3.4
			c0-1.1,0.4-1.9,1.1-2.5c0.7-0.6,1.7-1,3-1c1.6,0,2.9,0.4,3.9,1.2c0.1,0.1,0.1,0.2,0,0.3l-1,1.5c-0.1,0.1-0.2,0.1-0.2,0.1
			c-0.9-0.6-1.8-0.9-2.7-0.9c-1,0-1.5,0.5-1.5,1.2c0,0.7,0.5,1.1,1.8,1.3l0.6,0.1c2.4,0.3,3.6,1.5,3.6,3.5c0,2.2-1.6,3.6-4.5,3.6
			C124.2,173.3,123.4,173.2,122.6,172.9z"/>
	</g>
</g>
<g id="XMLID_603_">
	<g id="XMLID_1061_">
		<g id="XMLID_1062_">
			<path id="XMLID_1063_" class="st2" d="M24.7,115.4L4.7,79.2h40.1L24.7,115.4z M9.8,82.2l15,27l15-27H9.8z"/>
		</g>
	</g>
	<g id="XMLID_1031_">
		<g id="XMLID_1059_">
			<path id="XMLID_1060_" class="st2" d="M6.8,105.5H5.3c-0.2,0-0.3-0.1-0.4-0.2c-0.1-0.2-0.1-0.3,0-0.5l0.7-1.3
				c0.1-0.2,0.4-0.3,0.7-0.2c0.2,0.1,0.3,0.4,0.2,0.7l-0.3,0.6h0.7c0.3,0,0.5,0.2,0.5,0.5S7.1,105.5,6.8,105.5z"/>
		</g>
		<g id="XMLID_1052_">
			<path id="XMLID_1053_" class="st2" d="M39.4,105.5h-3.3c-0.3,0-0.5-0.2-0.5-0.5s0.2-0.5,0.5-0.5h3.3c0.3,0,0.5,0.2,0.5,0.5
				S39.7,105.5,39.4,105.5z M32.9,105.5h-3.3c-0.3,0-0.5-0.2-0.5-0.5s0.2-0.5,0.5-0.5h3.3c0.3,0,0.5,0.2,0.5,0.5
				S33.2,105.5,32.9,105.5z M26.4,105.5h-3.3c-0.3,0-0.5-0.2-0.5-0.5s0.2-0.5,0.5-0.5h3.3c0.3,0,0.5,0.2,0.5,0.5
				S26.7,105.5,26.4,105.5z M19.9,105.5h-3.3c-0.3,0-0.5-0.2-0.5-0.5s0.2-0.5,0.5-0.5h3.3c0.3,0,0.5,0.2,0.5,0.5
				S20.1,105.5,19.9,105.5z M13.3,105.5h-3.3c-0.3,0-0.5-0.2-0.5-0.5s0.2-0.5,0.5-0.5h3.3c0.3,0,0.5,0.2,0.5,0.5
				S13.6,105.5,13.3,105.5z"/>
		</g>
		<g id="XMLID_1050_">
			<path id="XMLID_1051_" class="st2" d="M44.2,105.5h-1.5c-0.3,0-0.5-0.2-0.5-0.5s0.2-0.5,0.5-0.5h0.7L43,104
				c-0.1-0.2,0-0.5,0.2-0.7c0.2-0.1,0.5,0,0.7,0.2l0.7,1.3c0.1,0.2,0.1,0.3,0,0.5C44.5,105.5,44.3,105.5,44.2,105.5z"/>
		</g>
		<g id="XMLID_1042_">
			<path id="XMLID_1043_" class="st2" d="M42,101.7c-0.2,0-0.3-0.1-0.4-0.3L40.2,99c-0.1-0.2,0-0.5,0.2-0.7c0.2-0.1,0.5,0,0.7,0.2
				l1.4,2.5c0.1,0.2,0,0.5-0.2,0.7C42.2,101.7,42.1,101.7,42,101.7z M39.3,96.8c-0.2,0-0.3-0.1-0.4-0.3L37.5,94
				c-0.1-0.2,0-0.5,0.2-0.7c0.2-0.1,0.5,0,0.7,0.2l1.4,2.5c0.1,0.2,0,0.5-0.2,0.7C39.5,96.7,39.4,96.8,39.3,96.8z M36.5,91.8
				c-0.2,0-0.3-0.1-0.4-0.3L34.7,89c-0.1-0.2,0-0.5,0.2-0.7c0.2-0.1,0.5,0,0.7,0.2L37,91c0.1,0.2,0,0.5-0.2,0.7
				C36.7,91.8,36.6,91.8,36.5,91.8z M33.8,86.8c-0.2,0-0.3-0.1-0.4-0.3l-1.4-2.5c-0.1-0.2,0-0.5,0.2-0.7c0.2-0.1,0.5,0,0.7,0.2
				l1.4,2.5c0.1,0.2,0,0.5-0.2,0.7C33.9,86.8,33.8,86.8,33.8,86.8z M31,81.8c-0.2,0-0.3-0.1-0.4-0.3l-1.4-2.5
				c-0.1-0.2,0-0.5,0.2-0.7c0.2-0.1,0.5,0,0.7,0.2l1.4,2.5c0.1,0.2,0,0.5-0.2,0.7C31.2,81.8,31.1,81.8,31,81.8z M28.2,76.8
				c-0.2,0-0.3-0.1-0.4-0.3l-1.4-2.5c-0.1-0.2,0-0.5,0.2-0.7c0.2-0.1,0.5,0,0.7,0.2l1.4,2.5c0.1,0.2,0,0.5-0.2,0.7
				C28.4,76.8,28.3,76.8,28.2,76.8z"/>
		</g>
		<g id="XMLID_1040_">
			<path id="XMLID_1041_" class="st2" d="M25.5,71.9c-0.2,0-0.3-0.1-0.4-0.3l-0.3-0.5l-0.3,0.5c-0.1,0.2-0.4,0.3-0.7,0.2
				c-0.2-0.1-0.3-0.4-0.2-0.7l0.7-1.3c0.2-0.3,0.7-0.3,0.9,0l0.7,1.3c0.1,0.2,0,0.5-0.2,0.7C25.6,71.8,25.6,71.9,25.5,71.9z"/>
		</g>
		<g id="XMLID_1032_">
			<path id="XMLID_1033_" class="st2" d="M7.4,101.7c-0.1,0-0.2,0-0.2-0.1C7,101.5,6.9,101.2,7,101l1.4-2.5c0.1-0.2,0.4-0.3,0.7-0.2
				c0.2,0.1,0.3,0.4,0.2,0.7l-1.4,2.5C7.8,101.7,7.6,101.7,7.4,101.7z M10.2,96.8c-0.1,0-0.2,0-0.2-0.1c-0.2-0.1-0.3-0.4-0.2-0.7
				l1.4-2.5c0.1-0.2,0.4-0.3,0.7-0.2c0.2,0.1,0.3,0.4,0.2,0.7l-1.4,2.5C10.6,96.7,10.4,96.8,10.2,96.8z M13,91.8
				c-0.1,0-0.2,0-0.2-0.1c-0.2-0.1-0.3-0.4-0.2-0.7l1.4-2.5c0.1-0.2,0.4-0.3,0.7-0.2c0.2,0.1,0.3,0.4,0.2,0.7l-1.4,2.5
				C13.3,91.7,13.1,91.8,13,91.8z M15.7,86.8c-0.1,0-0.2,0-0.2-0.1c-0.2-0.1-0.3-0.4-0.2-0.7l1.4-2.5c0.1-0.2,0.4-0.3,0.7-0.2
				c0.2,0.1,0.3,0.4,0.2,0.7l-1.4,2.5C16.1,86.7,15.9,86.8,15.7,86.8z M18.5,81.8c-0.1,0-0.2,0-0.2-0.1c-0.2-0.1-0.3-0.4-0.2-0.7
				l1.4-2.5c0.1-0.2,0.4-0.3,0.7-0.2c0.2,0.1,0.3,0.4,0.2,0.7l-1.4,2.5C18.8,81.7,18.7,81.8,18.5,81.8z M21.3,76.8
				c-0.1,0-0.2,0-0.2-0.1c-0.2-0.1-0.3-0.4-0.2-0.7l1.4-2.5c0.1-0.2,0.4-0.3,0.7-0.2c0.2,0.1,0.3,0.4,0.2,0.7l-1.4,2.5
				C21.6,76.7,21.4,76.8,21.3,76.8z"/>
		</g>
	</g>
	<g id="XMLID_1027_">
		<path id="XMLID_1028_" class="st2" d="M115.7,116.2L95.6,80h40.1L115.7,116.2z M100.7,83l15,27l15-27H100.7z"/>
	</g>
	<g id="XMLID_716_">
		<g id="XMLID_1025_">
			<path id="XMLID_1026_" class="st2" d="M97.8,106.4h-1.5c-0.2,0-0.3-0.1-0.4-0.2c-0.1-0.2-0.1-0.3,0-0.5l0.7-1.3
				c0.1-0.2,0.4-0.3,0.7-0.2c0.2,0.1,0.3,0.4,0.2,0.7l-0.3,0.6h0.7c0.3,0,0.5,0.2,0.5,0.5S98.1,106.4,97.8,106.4z"/>
		</g>
		<g id="XMLID_1018_">
			<path id="XMLID_1019_" class="st2" d="M130.3,106.4h-3.3c-0.3,0-0.5-0.2-0.5-0.5s0.2-0.5,0.5-0.5h3.3c0.3,0,0.5,0.2,0.5,0.5
				S130.6,106.4,130.3,106.4z M123.8,106.4h-3.3c-0.3,0-0.5-0.2-0.5-0.5s0.2-0.5,0.5-0.5h3.3c0.3,0,0.5,0.2,0.5,0.5
				S124.1,106.4,123.8,106.4z M117.3,106.4h-3.3c-0.3,0-0.5-0.2-0.5-0.5s0.2-0.5,0.5-0.5h3.3c0.3,0,0.5,0.2,0.5,0.5
				S117.6,106.4,117.3,106.4z M110.8,106.4h-3.3c-0.3,0-0.5-0.2-0.5-0.5s0.2-0.5,0.5-0.5h3.3c0.3,0,0.5,0.2,0.5,0.5
				S111.1,106.4,110.8,106.4z M104.3,106.4H101c-0.3,0-0.5-0.2-0.5-0.5s0.2-0.5,0.5-0.5h3.3c0.3,0,0.5,0.2,0.5,0.5
				S104.6,106.4,104.3,106.4z"/>
		</g>
		<g id="XMLID_1016_">
			<path id="XMLID_1017_" class="st2" d="M135.1,106.4h-1.5c-0.3,0-0.5-0.2-0.5-0.5s0.2-0.5,0.5-0.5h0.7l-0.3-0.6
				c-0.1-0.2,0-0.5,0.2-0.7c0.2-0.1,0.5,0,0.7,0.2l0.7,1.3c0.1,0.2,0.1,0.3,0,0.5C135.4,106.3,135.3,106.4,135.1,106.4z"/>
		</g>
		<g id="XMLID_727_">
			<path id="XMLID_728_" class="st2" d="M133,102.6c-0.2,0-0.3-0.1-0.4-0.3l-1.4-2.5c-0.1-0.2,0-0.5,0.2-0.7c0.2-0.1,0.5,0,0.7,0.2
				l1.4,2.5c0.1,0.2,0,0.5-0.2,0.7C133.2,102.5,133.1,102.6,133,102.6z M130.2,97.6c-0.2,0-0.3-0.1-0.4-0.3l-1.4-2.5
				c-0.1-0.2,0-0.5,0.2-0.7c0.2-0.1,0.5,0,0.7,0.2l1.4,2.5c0.1,0.2,0,0.5-0.2,0.7C130.4,97.6,130.3,97.6,130.2,97.6z M127.5,92.6
				c-0.2,0-0.3-0.1-0.4-0.3l-1.4-2.5c-0.1-0.2,0-0.5,0.2-0.7c0.2-0.1,0.5,0,0.7,0.2l1.4,2.5c0.1,0.2,0,0.5-0.2,0.7
				C127.6,92.6,127.6,92.6,127.5,92.6z M124.7,87.6c-0.2,0-0.3-0.1-0.4-0.3l-1.4-2.5c-0.1-0.2,0-0.5,0.2-0.7c0.2-0.1,0.5,0,0.7,0.2
				l1.4,2.5c0.1,0.2,0,0.5-0.2,0.7C124.9,87.6,124.8,87.6,124.7,87.6z M121.9,82.6c-0.2,0-0.3-0.1-0.4-0.3l-1.4-2.5
				c-0.1-0.2,0-0.5,0.2-0.7c0.2-0.1,0.5,0,0.7,0.2l1.4,2.5c0.1,0.2,0,0.5-0.2,0.7C122.1,82.6,122,82.6,121.9,82.6z M119.2,77.7
				c-0.2,0-0.3-0.1-0.4-0.3l-1.4-2.5c-0.1-0.2,0-0.5,0.2-0.7c0.2-0.1,0.5,0,0.7,0.2l1.4,2.5c0.1,0.2,0,0.5-0.2,0.7
				C119.3,77.6,119.3,77.7,119.2,77.7z"/>
		</g>
		<g id="XMLID_725_">
			<path id="XMLID_726_" class="st2" d="M116.4,72.7c-0.2,0-0.3-0.1-0.4-0.3l-0.3-0.5l-0.3,0.5c-0.1,0.2-0.4,0.3-0.7,0.2
				c-0.2-0.1-0.3-0.4-0.2-0.7l0.7-1.3c0.1-0.2,0.3-0.3,0.4-0.3l0,0c0.2,0,0.3,0.1,0.4,0.3l0.7,1.3c0.1,0.2,0,0.5-0.2,0.7
				C116.6,72.7,116.5,72.7,116.4,72.7z"/>
		</g>
		<g id="XMLID_717_">
			<path id="XMLID_718_" class="st2" d="M98.4,102.6c-0.1,0-0.2,0-0.2-0.1c-0.2-0.1-0.3-0.4-0.2-0.7l1.4-2.5
				c0.1-0.2,0.4-0.3,0.7-0.2c0.2,0.1,0.3,0.4,0.2,0.7l-1.4,2.5C98.7,102.5,98.6,102.6,98.4,102.6z M101.2,97.6c-0.1,0-0.2,0-0.2-0.1
				c-0.2-0.1-0.3-0.4-0.2-0.7l1.4-2.5c0.1-0.2,0.4-0.3,0.7-0.2c0.2,0.1,0.3,0.4,0.2,0.7l-1.4,2.5C101.5,97.5,101.3,97.6,101.2,97.6z
				 M103.9,92.6c-0.1,0-0.2,0-0.2-0.1c-0.2-0.1-0.3-0.4-0.2-0.7l1.4-2.5c0.1-0.2,0.4-0.3,0.7-0.2c0.2,0.1,0.3,0.4,0.2,0.7l-1.4,2.5
				C104.3,92.5,104.1,92.6,103.9,92.6z M106.7,87.6c-0.1,0-0.2,0-0.2-0.1c-0.2-0.1-0.3-0.4-0.2-0.7l1.4-2.5c0.1-0.2,0.4-0.3,0.7-0.2
				c0.2,0.1,0.3,0.4,0.2,0.7l-1.4,2.5C107,87.5,106.9,87.6,106.7,87.6z M109.4,82.6c-0.1,0-0.2,0-0.2-0.1c-0.2-0.1-0.3-0.4-0.2-0.7
				l1.4-2.5c0.1-0.2,0.4-0.3,0.7-0.2c0.2,0.1,0.3,0.4,0.2,0.7l-1.4,2.5C109.8,82.5,109.6,82.6,109.4,82.6z M112.2,77.7
				c-0.1,0-0.2,0-0.2-0.1c-0.2-0.1-0.3-0.4-0.2-0.7l1.4-2.5c0.1-0.2,0.4-0.3,0.7-0.2c0.2,0.1,0.3,0.4,0.2,0.7l-1.4,2.5
				C112.5,77.6,112.4,77.7,112.2,77.7z"/>
		</g>
	</g>
	<g id="XMLID_712_">
		<path id="XMLID_713_" class="st2" d="M69,113.6L18,19.2h102.1L69,113.6z M24.7,23.2l44.3,82l44.3-82H24.7z"/>
	</g>
	<g id="XMLID_708_">
		<path id="XMLID_709_" class="st2" d="M119.7,91.4H20.9L70.3,0L119.7,91.4z M24.3,89.4h92l-46-85.2L24.3,89.4z"/>
	</g>
	<g id="XMLID_704_">
		<path id="XMLID_705_" class="st2" d="M109.6,85.9H31c-0.2,0-0.3-0.1-0.4-0.2c-0.1-0.2-0.1-0.3,0-0.5l39.3-72.7
			c0.2-0.3,0.7-0.3,0.9,0l39.3,72.7c0.1,0.2,0.1,0.3,0,0.5C110,85.8,109.8,85.9,109.6,85.9z M31.8,84.9h76.9L70.3,13.7L31.8,84.9z"
			/>
	</g>
	<g id="XMLID_700_">
		<path id="XMLID_701_" class="st2" d="M70.2,68.4L39.6,12.5h60.2L70.2,68.4z M43,14.5l27.2,49.7l26.3-49.7H43z"/>
	</g>
	<g id="XMLID_696_">
		<path id="XMLID_923_" class="st2" d="M70.3,77.3c-0.2,0-0.4-0.1-0.4-0.3l-1-1.8c-0.1-0.2,0-0.5,0.2-0.7c0.2-0.1,0.5,0,0.7,0.2
			l0.5,1l0,0c0.1-0.2,0.4-0.3,0.7-0.2c0.2,0.1,0.3,0.4,0.2,0.7L70.7,77C70.6,77.2,70.4,77.3,70.3,77.3z M72.1,73.8
			c-0.1,0-0.2,0-0.2-0.1c-0.2-0.1-0.3-0.4-0.2-0.7l1.4-2.7c0.1-0.2,0.4-0.3,0.7-0.2c0.2,0.1,0.3,0.4,0.2,0.7l-1.4,2.7
			C72.5,73.7,72.3,73.8,72.1,73.8z M67.8,72.9c-0.2,0-0.3-0.1-0.4-0.3L66,70c-0.1-0.2,0-0.5,0.2-0.7c0.2-0.1,0.5,0,0.7,0.2l1.4,2.6
			c0.1,0.2,0,0.5-0.2,0.7C68,72.9,67.9,72.9,67.8,72.9z M74.9,68.5c-0.1,0-0.2,0-0.2-0.1c-0.2-0.1-0.3-0.4-0.2-0.7l1.4-2.7
			c0.1-0.2,0.4-0.3,0.7-0.2c0.2,0.1,0.3,0.4,0.2,0.7l-1.4,2.7C75.3,68.4,75.1,68.5,74.9,68.5z M65,67.6c-0.2,0-0.3-0.1-0.4-0.3
			l-1.4-2.6c-0.1-0.2,0-0.5,0.2-0.7c0.2-0.1,0.5,0,0.7,0.2l1.4,2.6c0.1,0.2,0,0.5-0.2,0.7C65.1,67.6,65,67.6,65,67.6z M77.7,63.2
			c-0.1,0-0.2,0-0.2-0.1c-0.2-0.1-0.3-0.4-0.2-0.7l1.4-2.7c0.1-0.2,0.4-0.3,0.7-0.2c0.2,0.1,0.3,0.4,0.2,0.7L78.2,63
			C78.1,63.1,77.9,63.2,77.7,63.2z M62.1,62.3c-0.2,0-0.3-0.1-0.4-0.3l-1.4-2.6c-0.1-0.2,0-0.5,0.2-0.7c0.2-0.1,0.5,0,0.7,0.2
			l1.4,2.6c0.1,0.2,0,0.5-0.2,0.7C62.2,62.3,62.2,62.3,62.1,62.3z M80.5,57.9c-0.1,0-0.2,0-0.2-0.1c-0.2-0.1-0.3-0.4-0.2-0.7
			l1.4-2.7c0.1-0.2,0.4-0.3,0.7-0.2c0.2,0.1,0.3,0.4,0.2,0.7L81,57.7C80.9,57.8,80.7,57.9,80.5,57.9z M59.2,57.1
			c-0.2,0-0.3-0.1-0.4-0.3l-1.4-2.6c-0.1-0.2,0-0.5,0.2-0.7c0.2-0.1,0.5,0,0.7,0.2l1.4,2.6c0.1,0.2,0,0.5-0.2,0.7
			C59.4,57.1,59.3,57.1,59.2,57.1z M83.3,52.6c-0.1,0-0.2,0-0.2-0.1c-0.2-0.1-0.3-0.4-0.2-0.7l1.4-2.7c0.1-0.2,0.4-0.3,0.7-0.2
			c0.2,0.1,0.3,0.4,0.2,0.7l-1.4,2.7C83.7,52.5,83.5,52.6,83.3,52.6z M56.3,51.8c-0.2,0-0.3-0.1-0.4-0.3l-1.4-2.6
			c-0.1-0.2,0-0.5,0.2-0.7c0.2-0.1,0.5,0,0.7,0.2l1.4,2.6c0.1,0.2,0,0.5-0.2,0.7C56.5,51.8,56.4,51.8,56.3,51.8z M86.2,47.3
			c-0.1,0-0.2,0-0.2-0.1c-0.2-0.1-0.3-0.4-0.2-0.7l1.4-2.7c0.1-0.2,0.4-0.3,0.7-0.2c0.2,0.1,0.3,0.4,0.2,0.7l-1.4,2.7
			C86.5,47.2,86.3,47.3,86.2,47.3z M53.4,46.6c-0.2,0-0.3-0.1-0.4-0.3l-1.4-2.6c-0.1-0.2,0-0.5,0.2-0.7c0.2-0.1,0.5,0,0.7,0.2
			l1.4,2.6c0.1,0.2,0,0.5-0.2,0.7C53.6,46.5,53.5,46.6,53.4,46.6z M89,42c-0.1,0-0.2,0-0.2-0.1c-0.2-0.1-0.3-0.4-0.2-0.7l1.4-2.7
			c0.1-0.2,0.4-0.3,0.7-0.2c0.2,0.1,0.3,0.4,0.2,0.7l-1.4,2.7C89.3,41.9,89.1,42,89,42z M50.6,41.3c-0.2,0-0.3-0.1-0.4-0.3l-1.4-2.6
			c-0.1-0.2,0-0.5,0.2-0.7c0.2-0.1,0.5,0,0.7,0.2l1.4,2.6c0.1,0.2,0,0.5-0.2,0.7C50.7,41.3,50.6,41.3,50.6,41.3z M91.8,36.7
			c-0.1,0-0.2,0-0.2-0.1c-0.2-0.1-0.3-0.4-0.2-0.7l1.4-2.7c0.1-0.2,0.4-0.3,0.7-0.2s0.3,0.4,0.2,0.7l-1.4,2.7
			C92.1,36.6,92,36.7,91.8,36.7z M47.7,36c-0.2,0-0.3-0.1-0.4-0.3l-1.4-2.6c-0.1-0.2,0-0.5,0.2-0.7c0.2-0.1,0.5,0,0.7,0.2l1.4,2.6
			c0.1,0.2,0,0.5-0.2,0.7C47.8,36,47.8,36,47.7,36z M94.6,31.4c-0.1,0-0.2,0-0.2-0.1c-0.2-0.1-0.3-0.4-0.2-0.7l1.4-2.7
			c0.1-0.2,0.4-0.3,0.7-0.2c0.2,0.1,0.3,0.4,0.2,0.7L95,31.1C94.9,31.3,94.8,31.4,94.6,31.4z M44.8,30.8c-0.2,0-0.3-0.1-0.4-0.3
			l-1.4-2.6c-0.1-0.2,0-0.5,0.2-0.7c0.2-0.1,0.5,0,0.7,0.2l1.4,2.6c0.1,0.2,0,0.5-0.2,0.7C45,30.7,44.9,30.8,44.8,30.8z M97.4,26.1
			c-0.1,0-0.2,0-0.2-0.1c-0.2-0.1-0.3-0.4-0.2-0.7l1.4-2.7c0.1-0.2,0.4-0.3,0.7-0.2c0.2,0.1,0.3,0.4,0.2,0.7l-1.4,2.7
			C97.7,26,97.6,26.1,97.4,26.1z M41.9,25.5c-0.2,0-0.3-0.1-0.4-0.3L40,22.6c-0.1-0.2,0-0.5,0.2-0.7c0.2-0.1,0.5,0,0.7,0.2l1.4,2.6
			c0.1,0.2,0,0.5-0.2,0.7C42.1,25.5,42,25.5,41.9,25.5z M100.2,20.8c-0.1,0-0.2,0-0.2-0.1c-0.2-0.1-0.3-0.4-0.2-0.7l1.4-2.7
			c0.1-0.2,0.4-0.3,0.7-0.2c0.2,0.1,0.3,0.4,0.2,0.7l-1.4,2.7C100.6,20.7,100.4,20.8,100.2,20.8z M39,20.2c-0.2,0-0.3-0.1-0.4-0.3
			l-1.4-2.6c-0.1-0.2,0-0.5,0.2-0.7c0.2-0.1,0.5,0,0.7,0.2l1.4,2.6c0.1,0.2,0,0.5-0.2,0.7C39.2,20.2,39.1,20.2,39,20.2z M103,15.5
			c-0.1,0-0.2,0-0.2-0.1c-0.2-0.1-0.3-0.4-0.2-0.7l1.4-2.7c0.1-0.2,0.4-0.3,0.7-0.2c0.2,0.1,0.3,0.4,0.2,0.7l-1.4,2.7
			C103.4,15.4,103.2,15.5,103,15.5z M36.2,15c-0.2,0-0.3-0.1-0.4-0.3l-1.4-2.6c-0.1-0.2,0-0.5,0.2-0.7c0.2-0.1,0.5,0,0.7,0.2
			l1.4,2.6c0.1,0.2,0,0.5-0.2,0.7C36.3,14.9,36.2,15,36.2,15z M105.8,10.2c-0.1,0-0.2,0-0.2-0.1c-0.2-0.1-0.3-0.4-0.2-0.7l0.3-0.5
			h-0.8c-0.3,0-0.5-0.2-0.5-0.5s0.2-0.5,0.5-0.5h1.6c0.2,0,0.3,0.1,0.4,0.2c0.1,0.2,0.1,0.3,0,0.5l-0.7,1.2
			C106.2,10.1,106,10.2,105.8,10.2z M33.3,9.7c-0.2,0-0.3-0.1-0.4-0.3l-0.4-0.7c-0.1-0.2-0.1-0.3,0-0.5C32.5,8.1,32.7,8,32.9,8h3
			c0.3,0,0.5,0.2,0.5,0.5S36.2,9,35.9,9h-2.2c0.1,0.2,0,0.5-0.2,0.7C33.4,9.7,33.4,9.7,33.3,9.7z M101.9,9h-3
			c-0.3,0-0.5-0.2-0.5-0.5S98.6,8,98.9,8h3c0.3,0,0.5,0.2,0.5,0.5S102.2,9,101.9,9z M95.9,9h-3c-0.3,0-0.5-0.2-0.5-0.5
			S92.6,8,92.9,8h3c0.3,0,0.5,0.2,0.5,0.5S96.2,9,95.9,9z M89.9,9h-3c-0.3,0-0.5-0.2-0.5-0.5S86.6,8,86.9,8h3c0.3,0,0.5,0.2,0.5,0.5
			S90.2,9,89.9,9z M83.9,9h-3c-0.3,0-0.5-0.2-0.5-0.5S80.6,8,80.9,8h3c0.3,0,0.5,0.2,0.5,0.5S84.2,9,83.9,9z M77.9,9h-3
			c-0.3,0-0.5-0.2-0.5-0.5S74.6,8,74.9,8h3c0.3,0,0.5,0.2,0.5,0.5S78.2,9,77.9,9z M71.9,9h-3c-0.3,0-0.5-0.2-0.5-0.5S68.6,8,68.9,8
			h3c0.3,0,0.5,0.2,0.5,0.5S72.2,9,71.9,9z M65.9,9h-3c-0.3,0-0.5-0.2-0.5-0.5S62.6,8,62.9,8h3c0.3,0,0.5,0.2,0.5,0.5S66.2,9,65.9,9
			z M59.9,9h-3c-0.3,0-0.5-0.2-0.5-0.5S56.6,8,56.9,8h3c0.3,0,0.5,0.2,0.5,0.5S60.2,9,59.9,9z M53.9,9h-3c-0.3,0-0.5-0.2-0.5-0.5
			S50.6,8,50.9,8h3c0.3,0,0.5,0.2,0.5,0.5S54.2,9,53.9,9z M47.9,9h-3c-0.3,0-0.5-0.2-0.5-0.5S44.6,8,44.9,8h3c0.3,0,0.5,0.2,0.5,0.5
			S48.2,9,47.9,9z M41.9,9h-3c-0.3,0-0.5-0.2-0.5-0.5S38.6,8,38.9,8h3c0.3,0,0.5,0.2,0.5,0.5S42.2,9,41.9,9z"/>
	</g>
	<g id="XMLID_695_">
		<path id="XMLID_920_" class="st2" d="M69,143.6c-20.1,0-36.4-16.3-36.4-36.4S49,70.8,69,70.8s36.4,16.3,36.4,36.4
			S89.1,143.6,69,143.6z M69,73.8c-18.4,0-33.4,15-33.4,33.4c0,18.4,15,33.4,33.4,33.4c18.4,0,33.4-15,33.4-33.4
			C102.5,88.8,87.5,73.8,69,73.8z"/>
	</g>
	<g id="XMLID_694_">
		<path id="XMLID_883_" class="st2" d="M105.2,91.2c-0.7,0-1.5,0-2.2-0.1c-0.3,0-0.5-0.3-0.5-0.5c0-0.3,0.3-0.5,0.5-0.5
			c1,0.1,2,0.1,3,0.1c0.3,0,0.5,0.2,0.5,0.5c0,0.3-0.2,0.5-0.5,0.5C105.8,91.2,105.5,91.2,105.2,91.2z M109.1,91
			c-0.3,0-0.5-0.2-0.5-0.4c0-0.3,0.2-0.5,0.4-0.6c1-0.1,2-0.3,2.9-0.4c0.3-0.1,0.5,0.1,0.6,0.4c0.1,0.3-0.1,0.5-0.4,0.6
			C111.1,90.7,110.1,90.8,109.1,91C109.1,91,109.1,91,109.1,91z M100.1,90.8C100.1,90.8,100,90.8,100.1,90.8
			C99,90.6,98,90.4,97,90.2c-0.3-0.1-0.4-0.3-0.4-0.6c0.1-0.3,0.3-0.4,0.6-0.4c1,0.2,1.9,0.4,2.9,0.6c0.3,0,0.5,0.3,0.4,0.6
			C100.5,90.6,100.3,90.8,100.1,90.8z M114.9,89.8c-0.2,0-0.4-0.1-0.5-0.4c-0.1-0.3,0.1-0.5,0.3-0.6c0.9-0.3,1.9-0.6,2.8-0.9
			c0.3-0.1,0.5,0,0.6,0.3c0.1,0.3,0,0.5-0.3,0.6c-0.9,0.4-1.9,0.7-2.9,1C115,89.8,115,89.8,114.9,89.8z M94.3,89.4
			c-0.1,0-0.1,0-0.2,0c-1-0.3-1.9-0.7-2.8-1.1c-0.3-0.1-0.4-0.4-0.3-0.7c0.1-0.3,0.4-0.4,0.7-0.3c0.9,0.4,1.8,0.7,2.8,1
			c0.3,0.1,0.4,0.4,0.3,0.6C94.7,89.3,94.5,89.4,94.3,89.4z M120.5,87.6c-0.2,0-0.4-0.1-0.4-0.3c-0.1-0.2,0-0.5,0.2-0.7
			c0.9-0.4,1.8-0.9,2.6-1.4c0.2-0.1,0.5-0.1,0.7,0.2c0.1,0.2,0.1,0.5-0.2,0.7c-0.9,0.5-1.8,1-2.7,1.5
			C120.7,87.6,120.6,87.6,120.5,87.6z M88.7,87c-0.1,0-0.2,0-0.2-0.1c-0.9-0.5-1.8-1-2.6-1.6c-0.2-0.2-0.3-0.5-0.1-0.7
			c0.2-0.2,0.5-0.3,0.7-0.1c0.8,0.5,1.7,1,2.5,1.5c0.2,0.1,0.3,0.4,0.2,0.7C89.1,87,88.9,87,88.7,87z M125.7,84.6
			c-0.2,0-0.3-0.1-0.4-0.2c-0.2-0.2-0.1-0.5,0.1-0.7c0.8-0.6,1.6-1.2,2.3-1.8c0.2-0.2,0.5-0.2,0.7,0.1c0.2,0.2,0.2,0.5-0.1,0.7
			c-0.8,0.7-1.6,1.3-2.4,1.9C125.9,84.5,125.8,84.6,125.7,84.6z M83.7,83.8c-0.1,0-0.2,0-0.3-0.1c-0.8-0.6-1.6-1.3-2.3-2
			c-0.2-0.2-0.2-0.5,0-0.7c0.2-0.2,0.5-0.2,0.7,0c0.7,0.7,1.5,1.3,2.2,1.9c0.2,0.2,0.3,0.5,0.1,0.7C84,83.7,83.9,83.8,83.7,83.8z
			 M130.2,80.6c-0.1,0-0.3,0-0.3-0.1c-0.2-0.2-0.2-0.5,0-0.7c0.7-0.7,1.4-1.4,2-2.2c0.2-0.2,0.5-0.2,0.7-0.1
			c0.2,0.2,0.2,0.5,0.1,0.7c-0.6,0.8-1.3,1.5-2,2.3C130.5,80.6,130.3,80.6,130.2,80.6z M79.3,79.7c-0.1,0-0.3-0.1-0.4-0.2
			c-0.7-0.8-1.3-1.5-1.9-2.3c-0.2-0.2-0.1-0.5,0.1-0.7c0.2-0.2,0.5-0.1,0.7,0.1c0.6,0.8,1.2,1.5,1.9,2.3c0.2,0.2,0.2,0.5,0,0.7
			C79.6,79.7,79.5,79.7,79.3,79.7z M134,76c-0.1,0-0.2,0-0.3-0.1c-0.2-0.2-0.3-0.5-0.1-0.7c0.6-0.8,1.1-1.7,1.6-2.5
			c0.1-0.2,0.4-0.3,0.7-0.2c0.2,0.1,0.3,0.4,0.2,0.7c-0.5,0.9-1,1.7-1.6,2.6C134.3,75.9,134.2,76,134,76z M75.7,74.9
			c-0.2,0-0.3-0.1-0.4-0.2c-0.5-0.9-1.1-1.7-1.5-2.6c-0.1-0.2,0-0.5,0.2-0.7c0.2-0.1,0.5,0,0.7,0.2c0.5,0.9,0.9,1.7,1.5,2.6
			c0.1,0.2,0.1,0.5-0.2,0.7C75.9,74.9,75.8,74.9,75.7,74.9z M137,70.8c-0.1,0-0.1,0-0.2,0c-0.3-0.1-0.4-0.4-0.2-0.7
			c0.4-0.9,0.8-1.8,1.1-2.7c0.1-0.3,0.4-0.4,0.6-0.3c0.3,0.1,0.4,0.4,0.3,0.6c-0.3,1-0.7,1.9-1.1,2.8
			C137.3,70.7,137.1,70.8,137,70.8z M73,69.6c-0.2,0-0.4-0.1-0.5-0.3c-0.4-0.9-0.7-1.9-1-2.9c-0.1-0.3,0.1-0.5,0.3-0.6
			c0.3-0.1,0.5,0.1,0.6,0.3c0.3,0.9,0.6,1.9,1,2.8c0.1,0.3,0,0.5-0.3,0.7C73.1,69.6,73,69.6,73,69.6z M139,65.2c0,0-0.1,0-0.1,0
			c-0.3-0.1-0.4-0.3-0.4-0.6c0.2-1,0.5-1.9,0.6-2.9c0-0.3,0.3-0.5,0.6-0.4c0.3,0,0.5,0.3,0.4,0.6c-0.2,1-0.4,2-0.6,3
			C139.4,65,139.2,65.2,139,65.2z M71.1,63.9c-0.2,0-0.4-0.2-0.5-0.4c-0.2-1-0.4-2-0.5-3c0-0.3,0.2-0.5,0.4-0.6
			c0.3,0,0.5,0.2,0.6,0.4c0.1,1,0.3,2,0.5,2.9c0.1,0.3-0.1,0.5-0.4,0.6C71.2,63.9,71.2,63.9,71.1,63.9z M140,59.3
			C140,59.3,140,59.3,140,59.3c-0.3,0-0.5-0.3-0.5-0.5c0.1-1,0.1-2,0.1-3c0-0.1,0-0.1,0-0.2c0-0.1,0-0.1,0-0.2c0-1-0.1-2-0.2-3
			c0-0.3,0.2-0.5,0.4-0.5c0.3,0,0.5,0.2,0.5,0.4c0.1,1,0.2,2,0.2,3c0,0.1,0,0.1,0,0.2c0,0.1,0,0.1,0,0.2c0,1,0,2-0.1,3
			C140.5,59.1,140.3,59.3,140,59.3z M70.3,58c-0.3,0-0.5-0.2-0.5-0.5c0-0.6,0-1.1,0-1.7c0-0.4,0-0.9,0-1.3c0-0.3,0.2-0.5,0.5-0.5
			c0.3,0,0.5,0.2,0.5,0.5c0,0.4,0,0.9,0,1.3c0,0.6,0,1.1,0,1.7C70.9,57.7,70.6,57.9,70.3,58C70.4,58,70.4,58,70.3,58z M70.6,52
			C70.6,52,70.5,52,70.6,52c-0.3,0-0.5-0.3-0.5-0.6c0.1-1,0.3-2,0.5-3c0.1-0.3,0.3-0.4,0.6-0.4c0.3,0.1,0.4,0.3,0.4,0.6
			c-0.2,1-0.4,1.9-0.5,2.9C71,51.8,70.8,52,70.6,52z M139.5,49.9c-0.2,0-0.4-0.2-0.5-0.4c-0.2-1-0.4-1.9-0.7-2.9
			c-0.1-0.3,0.1-0.5,0.3-0.6c0.3-0.1,0.5,0.1,0.6,0.3c0.3,1,0.5,2,0.7,3C140.1,49.6,139.9,49.8,139.5,49.9
			C139.6,49.9,139.6,49.9,139.5,49.9z M71.8,46.1c0,0-0.1,0-0.1,0c-0.3-0.1-0.4-0.4-0.3-0.6c0.3-1,0.6-1.9,1-2.9
			c0.1-0.3,0.4-0.4,0.6-0.3c0.3,0.1,0.4,0.4,0.3,0.6c-0.4,0.9-0.7,1.8-1,2.8C72.2,46,72,46.1,71.8,46.1z M137.9,44.1
			c-0.2,0-0.4-0.1-0.5-0.3c-0.3-0.9-0.7-1.8-1.1-2.7c-0.1-0.2,0-0.5,0.2-0.7c0.3-0.1,0.5,0,0.7,0.2c0.4,0.9,0.8,1.9,1.2,2.8
			c0.1,0.3,0,0.5-0.3,0.6C138.1,44.1,138,44.1,137.9,44.1z M74,40.6c-0.1,0-0.2,0-0.2-0.1c-0.2-0.1-0.3-0.4-0.2-0.7
			c0.5-0.9,1-1.8,1.5-2.7c0.1-0.2,0.5-0.3,0.7-0.2c0.2,0.1,0.3,0.5,0.2,0.7c-0.5,0.8-1,1.7-1.4,2.6C74.4,40.5,74.2,40.6,74,40.6z
			 M135.4,38.7c-0.2,0-0.3-0.1-0.4-0.2c-0.5-0.9-1-1.7-1.6-2.5c-0.2-0.2-0.1-0.5,0.1-0.7c0.2-0.2,0.5-0.1,0.7,0.1
			c0.6,0.8,1.1,1.7,1.6,2.6c0.1,0.2,0.1,0.5-0.2,0.7C135.6,38.7,135.5,38.7,135.4,38.7z M77.2,35.5c-0.1,0-0.2,0-0.3-0.1
			c-0.2-0.2-0.3-0.5-0.1-0.7c0.6-0.8,1.2-1.6,1.9-2.4c0.2-0.2,0.5-0.2,0.7,0c0.2,0.2,0.2,0.5,0,0.7c-0.7,0.7-1.3,1.5-1.9,2.3
			C77.5,35.4,77.3,35.5,77.2,35.5z M131.9,33.8c-0.1,0-0.3-0.1-0.4-0.2c-0.6-0.7-1.3-1.5-2-2.2c-0.2-0.2-0.2-0.5,0-0.7
			c0.2-0.2,0.5-0.2,0.7,0c0.7,0.7,1.4,1.5,2.1,2.2c0.2,0.2,0.2,0.5-0.1,0.7C132.2,33.8,132.1,33.8,131.9,33.8z M81.2,31
			c-0.1,0-0.3-0.1-0.4-0.2c-0.2-0.2-0.2-0.5,0-0.7c0.7-0.7,1.5-1.4,2.3-2c0.2-0.2,0.5-0.1,0.7,0.1c0.2,0.2,0.1,0.5-0.1,0.7
			c-0.8,0.6-1.5,1.3-2.2,1.9C81.4,30.9,81.3,31,81.2,31z M127.7,29.6c-0.1,0-0.2,0-0.3-0.1c-0.8-0.6-1.5-1.2-2.3-1.8
			c-0.2-0.2-0.3-0.5-0.1-0.7c0.2-0.2,0.5-0.3,0.7-0.1c0.8,0.6,1.6,1.2,2.4,1.9c0.2,0.2,0.2,0.5,0.1,0.7
			C128,29.5,127.8,29.6,127.7,29.6z M85.8,27.2c-0.2,0-0.3-0.1-0.4-0.2c-0.2-0.2-0.1-0.5,0.1-0.7c0.8-0.6,1.7-1.1,2.6-1.6
			c0.2-0.1,0.5,0,0.7,0.2c0.1,0.2,0,0.5-0.2,0.7c-0.9,0.5-1.7,1-2.5,1.5C86,27.2,85.9,27.2,85.8,27.2z M122.8,26.1
			c-0.1,0-0.2,0-0.3-0.1c-0.8-0.5-1.7-1-2.6-1.4c-0.2-0.1-0.4-0.4-0.2-0.7c0.1-0.2,0.4-0.4,0.7-0.2c0.9,0.4,1.8,0.9,2.7,1.4
			c0.2,0.1,0.3,0.4,0.2,0.7C123.2,26,123,26.1,122.8,26.1z M91.1,24.3c-0.2,0-0.4-0.1-0.5-0.3c-0.1-0.3,0-0.5,0.3-0.7
			c0.9-0.4,1.9-0.8,2.8-1.1c0.3-0.1,0.5,0,0.6,0.3c0.1,0.3,0,0.5-0.3,0.6c-0.9,0.3-1.9,0.7-2.7,1.1C91.2,24.3,91.2,24.3,91.1,24.3z
			 M117.4,23.5c-0.1,0-0.1,0-0.2,0c-0.9-0.3-1.9-0.6-2.8-0.9c-0.3-0.1-0.4-0.3-0.3-0.6c0.1-0.3,0.4-0.4,0.6-0.3
			c1,0.3,1.9,0.6,2.9,0.9c0.3,0.1,0.4,0.4,0.3,0.6C117.8,23.4,117.6,23.5,117.4,23.5z M96.7,22.4c-0.2,0-0.4-0.2-0.5-0.4
			c-0.1-0.3,0.1-0.5,0.4-0.6c1-0.2,2-0.4,3-0.6c0.3,0,0.5,0.1,0.6,0.4c0,0.3-0.1,0.5-0.4,0.6c-1,0.2-1.9,0.4-2.9,0.6
			C96.8,22.4,96.8,22.4,96.7,22.4z M111.6,21.9C111.6,21.9,111.6,21.9,111.6,21.9c-1.1-0.2-2-0.3-3-0.4c-0.3,0-0.5-0.3-0.4-0.5
			s0.3-0.5,0.5-0.4c1,0.1,2,0.2,3,0.4c0.3,0.1,0.5,0.3,0.4,0.6C112.1,21.8,111.9,21.9,111.6,21.9z M102.7,21.4
			c-0.3,0-0.5-0.2-0.5-0.5c0-0.3,0.2-0.5,0.5-0.5c0.9-0.1,1.7-0.1,2.6-0.1l0.5,0c0.3,0,0.5,0.2,0.5,0.5c0,0.3-0.2,0.5-0.5,0.5
			c0,0,0,0,0,0l-0.4,0C104.4,21.4,103.5,21.4,102.7,21.4C102.7,21.4,102.7,21.4,102.7,21.4z"/>
	</g>
	<g id="XMLID_665_">
		<path id="XMLID_666_" class="st2" d="M35.4,91.2c-0.7,0-1.5,0-2.2-0.1c-0.3,0-0.5-0.3-0.5-0.5c0-0.3,0.3-0.5,0.5-0.5
			c1,0.1,2,0.1,3,0.1c0.3,0,0.5,0.2,0.5,0.5c0,0.3-0.2,0.5-0.5,0.5C36,91.2,35.7,91.2,35.4,91.2z M39.2,91c-0.3,0-0.5-0.2-0.5-0.4
			c0-0.3,0.2-0.5,0.4-0.6c1-0.1,2-0.3,2.9-0.4c0.3-0.1,0.5,0.1,0.6,0.4c0.1,0.3-0.1,0.5-0.4,0.6C41.3,90.7,40.3,90.8,39.2,91
			C39.3,91,39.3,91,39.2,91z M30.3,90.8C30.3,90.8,30.2,90.8,30.3,90.8c-1.1-0.2-2.1-0.3-3.1-0.6c-0.3-0.1-0.4-0.3-0.4-0.6
			c0.1-0.3,0.3-0.4,0.6-0.4c1,0.2,1.9,0.4,2.9,0.6c0.3,0,0.5,0.3,0.4,0.6C30.7,90.6,30.5,90.8,30.3,90.8z M45.1,89.8
			c-0.2,0-0.4-0.1-0.5-0.4c-0.1-0.3,0.1-0.5,0.3-0.6c0.9-0.3,1.9-0.6,2.8-0.9c0.3-0.1,0.5,0,0.6,0.3s0,0.5-0.3,0.6
			c-0.9,0.4-1.9,0.7-2.9,1C45.2,89.8,45.2,89.8,45.1,89.8z M24.4,89.4c-0.1,0-0.1,0-0.2,0c-1-0.3-1.9-0.7-2.8-1.1
			c-0.3-0.1-0.4-0.4-0.3-0.7c0.1-0.3,0.4-0.4,0.7-0.3c0.9,0.4,1.8,0.7,2.8,1c0.3,0.1,0.4,0.4,0.3,0.6C24.9,89.3,24.7,89.4,24.4,89.4
			z M50.7,87.6c-0.2,0-0.4-0.1-0.4-0.3c-0.1-0.2,0-0.5,0.2-0.7c0.9-0.4,1.8-0.9,2.6-1.4c0.2-0.1,0.5-0.1,0.7,0.2
			c0.1,0.2,0.1,0.5-0.2,0.7c-0.9,0.5-1.8,1-2.7,1.5C50.9,87.6,50.8,87.6,50.7,87.6z M18.9,87c-0.1,0-0.2,0-0.2-0.1
			c-0.9-0.5-1.8-1-2.6-1.6c-0.2-0.2-0.3-0.5-0.1-0.7c0.2-0.2,0.5-0.3,0.7-0.1c0.8,0.5,1.7,1,2.5,1.5c0.2,0.1,0.3,0.4,0.2,0.7
			C19.3,87,19.1,87,18.9,87z M55.8,84.6c-0.2,0-0.3-0.1-0.4-0.2c-0.2-0.2-0.1-0.5,0.1-0.7c0.8-0.6,1.6-1.2,2.3-1.8
			c0.2-0.2,0.5-0.2,0.7,0.1c0.2,0.2,0.2,0.5-0.1,0.7c-0.8,0.7-1.6,1.3-2.4,1.9C56.1,84.5,55.9,84.6,55.8,84.6z M13.9,83.8
			c-0.1,0-0.2,0-0.3-0.1c-0.8-0.6-1.6-1.3-2.3-2c-0.2-0.2-0.2-0.5,0-0.7c0.2-0.2,0.5-0.2,0.7,0c0.7,0.7,1.5,1.3,2.2,1.9
			c0.2,0.2,0.3,0.5,0.1,0.7C14.2,83.7,14.1,83.8,13.9,83.8z M60.4,80.6c-0.1,0-0.3,0-0.3-0.1c-0.2-0.2-0.2-0.5,0-0.7
			c0.7-0.7,1.4-1.4,2-2.2c0.2-0.2,0.5-0.2,0.7-0.1c0.2,0.2,0.2,0.5,0.1,0.7c-0.6,0.8-1.3,1.5-2,2.3C60.6,80.6,60.5,80.6,60.4,80.6z
			 M9.5,79.7c-0.1,0-0.3-0.1-0.4-0.2c-0.7-0.7-1.3-1.5-1.9-2.3c-0.2-0.2-0.1-0.5,0.1-0.7c0.2-0.2,0.5-0.1,0.7,0.1
			c0.6,0.8,1.2,1.5,1.9,2.3c0.2,0.2,0.2,0.5,0,0.7C9.8,79.7,9.7,79.7,9.5,79.7z M64.2,76c-0.1,0-0.2,0-0.3-0.1
			c-0.2-0.2-0.3-0.5-0.1-0.7c0.6-0.8,1.1-1.7,1.6-2.5c0.1-0.2,0.4-0.3,0.7-0.2c0.2,0.1,0.3,0.4,0.2,0.7c-0.5,0.9-1,1.7-1.6,2.6
			C64.5,75.9,64.3,76,64.2,76z M5.9,74.9c-0.2,0-0.3-0.1-0.4-0.2C4.9,73.8,4.4,73,4,72.1c-0.1-0.2,0-0.5,0.2-0.7
			c0.2-0.1,0.5,0,0.7,0.2c0.5,0.9,0.9,1.7,1.5,2.6c0.1,0.2,0.1,0.5-0.2,0.7C6.1,74.9,6,74.9,5.9,74.9z M67.1,70.8
			c-0.1,0-0.1,0-0.2,0c-0.3-0.1-0.4-0.4-0.2-0.7c0.4-0.9,0.8-1.8,1.1-2.7c0.1-0.3,0.4-0.4,0.6-0.3c0.3,0.1,0.4,0.4,0.3,0.6
			c-0.3,1-0.7,1.9-1.1,2.8C67.5,70.7,67.3,70.8,67.1,70.8z M3.1,69.6c-0.2,0-0.4-0.1-0.5-0.3c-0.4-0.9-0.7-1.9-1-2.9
			c-0.1-0.3,0.1-0.5,0.3-0.6c0.3-0.1,0.5,0.1,0.6,0.3c0.3,0.9,0.6,1.9,1,2.8c0.1,0.3,0,0.5-0.3,0.7C3.3,69.6,3.2,69.6,3.1,69.6z
			 M69.2,65.2c0,0-0.1,0-0.1,0c-0.3-0.1-0.4-0.3-0.4-0.6c0.2-1,0.5-1.9,0.6-2.9c0-0.3,0.3-0.5,0.6-0.4c0.3,0,0.5,0.3,0.4,0.6
			c-0.2,1-0.4,2-0.6,3C69.6,65,69.4,65.2,69.2,65.2z M1.3,63.9c-0.2,0-0.4-0.2-0.5-0.4c-0.2-1-0.4-2-0.5-3c0-0.3,0.2-0.5,0.4-0.6
			c0.3,0,0.5,0.2,0.6,0.4c0.1,1,0.3,2,0.5,2.9c0.1,0.3-0.1,0.5-0.4,0.6C1.4,63.9,1.4,63.9,1.3,63.9z M70.2,59.3
			C70.2,59.3,70.2,59.3,70.2,59.3c-0.3,0-0.5-0.3-0.5-0.5c0.1-1,0.1-2,0.1-3c0-0.1,0-0.1,0-0.2c0-0.1,0-0.1,0-0.2c0-1-0.1-2-0.2-3
			c0-0.3,0.2-0.5,0.4-0.5c0.3,0,0.5,0.2,0.5,0.4c0.1,1,0.2,2,0.2,3c0,0.1,0,0.1,0,0.2c0,0.1,0,0.1,0,0.2c0,1,0,2-0.1,3
			C70.7,59.1,70.4,59.3,70.2,59.3z M0.5,58c-0.3,0-0.5-0.2-0.5-0.5c0-0.6,0-1.1,0-1.7c0-0.4,0-0.9,0-1.3c0-0.3,0.2-0.5,0.5-0.5
			C0.8,54,1,54.2,1,54.5c0,0.4,0,0.9,0,1.3c0,0.6,0,1.1,0,1.7C1.1,57.7,0.8,57.9,0.5,58C0.6,58,0.5,58,0.5,58z M0.8,52
			C0.7,52,0.7,52,0.8,52c-0.3,0-0.5-0.3-0.5-0.6c0.1-1,0.3-2,0.5-3C0.8,48.1,1.1,48,1.4,48c0.3,0.1,0.4,0.3,0.4,0.6
			c-0.2,1-0.4,1.9-0.5,2.9C1.2,51.8,1,52,0.8,52z M69.7,49.9c-0.2,0-0.4-0.2-0.5-0.4c-0.2-1-0.4-1.9-0.7-2.9
			c-0.1-0.3,0.1-0.5,0.3-0.6c0.3-0.1,0.5,0.1,0.6,0.3c0.3,1,0.5,2,0.7,3C70.3,49.6,70.1,49.8,69.7,49.9
			C69.8,49.9,69.8,49.9,69.7,49.9z M2,46.1c0,0-0.1,0-0.1,0c-0.3-0.1-0.4-0.4-0.3-0.6c0.3-1,0.6-1.9,1-2.9c0.1-0.3,0.4-0.4,0.6-0.3
			c0.3,0.1,0.4,0.4,0.3,0.6c-0.4,0.9-0.7,1.8-1,2.8C2.4,46,2.2,46.1,2,46.1z M68.1,44.1c-0.2,0-0.4-0.1-0.5-0.3
			c-0.3-0.9-0.7-1.8-1.1-2.7c-0.1-0.2,0-0.5,0.2-0.7c0.3-0.1,0.5,0,0.7,0.2c0.4,0.9,0.8,1.9,1.2,2.8c0.1,0.3,0,0.5-0.3,0.6
			C68.3,44.1,68.2,44.1,68.1,44.1z M4.2,40.6c-0.1,0-0.2,0-0.2-0.1c-0.2-0.1-0.3-0.4-0.2-0.7c0.5-0.9,1-1.8,1.5-2.7
			C5.4,36.9,5.7,36.9,6,37c0.2,0.1,0.3,0.5,0.2,0.7c-0.5,0.8-1,1.7-1.4,2.6C4.6,40.5,4.4,40.6,4.2,40.6z M65.6,38.7
			c-0.2,0-0.3-0.1-0.4-0.2c-0.5-0.8-1-1.7-1.6-2.5c-0.2-0.2-0.1-0.5,0.1-0.7c0.2-0.2,0.5-0.1,0.7,0.1c0.6,0.8,1.1,1.7,1.6,2.6
			c0.1,0.2,0.1,0.5-0.2,0.7C65.8,38.7,65.7,38.7,65.6,38.7z M7.4,35.5c-0.1,0-0.2,0-0.3-0.1c-0.2-0.2-0.3-0.5-0.1-0.7
			c0.6-0.8,1.2-1.6,1.9-2.4c0.2-0.2,0.5-0.2,0.7,0s0.2,0.5,0,0.7c-0.7,0.7-1.3,1.5-1.9,2.3C7.7,35.4,7.5,35.5,7.4,35.5z M62.1,33.8
			c-0.1,0-0.3-0.1-0.4-0.2c-0.6-0.7-1.3-1.5-2-2.2c-0.2-0.2-0.2-0.5,0-0.7c0.2-0.2,0.5-0.2,0.7,0c0.7,0.7,1.4,1.5,2.1,2.2
			c0.2,0.2,0.2,0.5-0.1,0.7C62.4,33.8,62.2,33.8,62.1,33.8z M11.4,31c-0.1,0-0.3-0.1-0.4-0.2c-0.2-0.2-0.2-0.5,0-0.7
			c0.7-0.7,1.5-1.4,2.3-2c0.2-0.2,0.5-0.1,0.7,0.1c0.2,0.2,0.1,0.5-0.1,0.7c-0.8,0.6-1.5,1.3-2.2,1.9C11.6,30.9,11.5,31,11.4,31z
			 M57.9,29.6c-0.1,0-0.2,0-0.3-0.1c-0.7-0.6-1.5-1.2-2.3-1.8c-0.2-0.2-0.3-0.5-0.1-0.7c0.2-0.2,0.5-0.3,0.7-0.1
			c0.8,0.6,1.6,1.2,2.4,1.9c0.2,0.2,0.2,0.5,0.1,0.7C58.2,29.5,58,29.6,57.9,29.6z M16,27.2c-0.2,0-0.3-0.1-0.4-0.2
			c-0.2-0.2-0.1-0.5,0.1-0.7c0.8-0.6,1.7-1.1,2.6-1.6c0.2-0.1,0.5,0,0.7,0.2c0.1,0.2,0,0.5-0.2,0.7c-0.9,0.5-1.7,1-2.5,1.5
			C16.2,27.2,16.1,27.2,16,27.2z M53,26.1c-0.1,0-0.2,0-0.3-0.1c-0.8-0.5-1.7-1-2.6-1.4c-0.2-0.1-0.4-0.4-0.2-0.7
			c0.1-0.2,0.4-0.4,0.7-0.2c0.9,0.4,1.8,0.9,2.7,1.4c0.2,0.1,0.3,0.4,0.2,0.7C53.3,26,53.2,26.1,53,26.1z M21.3,24.3
			c-0.2,0-0.4-0.1-0.5-0.3c-0.1-0.3,0-0.5,0.3-0.7c0.9-0.4,1.9-0.8,2.8-1.1c0.3-0.1,0.5,0,0.6,0.3c0.1,0.3,0,0.5-0.3,0.6
			c-0.9,0.3-1.9,0.7-2.7,1.1C21.4,24.3,21.3,24.3,21.3,24.3z M47.6,23.5c-0.1,0-0.1,0-0.2,0c-0.9-0.3-1.9-0.6-2.8-0.9
			c-0.3-0.1-0.4-0.3-0.3-0.6c0.1-0.3,0.4-0.4,0.6-0.3c1,0.3,1.9,0.6,2.9,0.9c0.3,0.1,0.4,0.4,0.3,0.6C48,23.4,47.8,23.5,47.6,23.5z
			 M26.9,22.4c-0.2,0-0.4-0.2-0.5-0.4c-0.1-0.3,0.1-0.5,0.4-0.6c1-0.2,2-0.4,3-0.6c0.3,0,0.5,0.1,0.6,0.4c0,0.3-0.1,0.5-0.4,0.6
			c-1,0.2-1.9,0.4-2.9,0.6C27,22.4,27,22.4,26.9,22.4z M41.8,21.9C41.8,21.9,41.8,21.9,41.8,21.9c-1.1-0.2-2-0.3-3-0.4
			c-0.3,0-0.5-0.3-0.4-0.5s0.3-0.5,0.5-0.4c1,0.1,2,0.2,3,0.4c0.3,0.1,0.5,0.3,0.4,0.6C42.3,21.8,42.1,21.9,41.8,21.9z M32.9,21.4
			c-0.3,0-0.5-0.2-0.5-0.5c0-0.3,0.2-0.5,0.5-0.5c0.9-0.1,1.7-0.1,2.6-0.1l0.5,0c0.3,0,0.5,0.2,0.5,0.5c0,0.3-0.2,0.5-0.5,0.5
			c0,0,0,0,0,0l-0.4,0C34.6,21.4,33.7,21.4,32.9,21.4C32.9,21.4,32.9,21.4,32.9,21.4z"/>
	</g>
	<g id="XMLID_604_">
		<g id="XMLID_635_">
			<g id="XMLID_663_">
				<path id="XMLID_664_" class="st2" d="M93.7,3.9c-0.2,0-0.3-0.1-0.4-0.3l-0.7-1.3c-0.1-0.2-0.1-0.3,0-0.5
					c0.1-0.2,0.3-0.2,0.4-0.2h1.5c0.3,0,0.5,0.2,0.5,0.5s-0.2,0.5-0.5,0.5h-0.7l0.3,0.6c0.1,0.2,0,0.5-0.2,0.7
					C93.8,3.9,93.7,3.9,93.7,3.9z"/>
			</g>
			<g id="XMLID_656_">
				<path id="XMLID_657_" class="st2" d="M127,2.6h-3.3c-0.3,0-0.5-0.2-0.5-0.5s0.2-0.5,0.5-0.5h3.3c0.3,0,0.5,0.2,0.5,0.5
					S127.3,2.6,127,2.6z M120.5,2.6h-3.3c-0.3,0-0.5-0.2-0.5-0.5s0.2-0.5,0.5-0.5h3.3c0.3,0,0.5,0.2,0.5,0.5S120.8,2.6,120.5,2.6z
					 M114,2.6h-3.3c-0.3,0-0.5-0.2-0.5-0.5s0.2-0.5,0.5-0.5h3.3c0.3,0,0.5,0.2,0.5,0.5S114.2,2.6,114,2.6z M107.5,2.6h-3.3
					c-0.3,0-0.5-0.2-0.5-0.5s0.2-0.5,0.5-0.5h3.3c0.3,0,0.5,0.2,0.5,0.5S107.7,2.6,107.5,2.6z M100.9,2.6h-3.3
					c-0.3,0-0.5-0.2-0.5-0.5s0.2-0.5,0.5-0.5h3.3c0.3,0,0.5,0.2,0.5,0.5S101.2,2.6,100.9,2.6z"/>
			</g>
			<g id="XMLID_654_">
				<path id="XMLID_655_" class="st2" d="M131,3.9c-0.1,0-0.2,0-0.2-0.1c-0.2-0.1-0.3-0.4-0.2-0.7l0.3-0.6h-0.7
					c-0.3,0-0.5-0.2-0.5-0.5s0.2-0.5,0.5-0.5h1.5c0.2,0,0.3,0.1,0.4,0.2c0.1,0.2,0.1,0.3,0,0.5l-0.7,1.3
					C131.4,3.8,131.2,3.9,131,3.9z"/>
			</g>
			<g id="XMLID_646_">
				<path id="XMLID_647_" class="st2" d="M114.5,33.8c-0.1,0-0.2,0-0.2-0.1c-0.2-0.1-0.3-0.4-0.2-0.7l1.4-2.5
					c0.1-0.2,0.4-0.3,0.7-0.2c0.2,0.1,0.3,0.4,0.2,0.7l-1.4,2.5C114.8,33.7,114.6,33.8,114.5,33.8z M117.2,28.8
					c-0.1,0-0.2,0-0.2-0.1c-0.2-0.1-0.3-0.4-0.2-0.7l1.4-2.5c0.1-0.2,0.4-0.3,0.7-0.2c0.2,0.1,0.3,0.4,0.2,0.7l-1.4,2.5
					C117.6,28.7,117.4,28.8,117.2,28.8z M120,23.8c-0.1,0-0.2,0-0.2-0.1c-0.2-0.1-0.3-0.4-0.2-0.7l1.4-2.5c0.1-0.2,0.4-0.3,0.7-0.2
					c0.2,0.1,0.3,0.4,0.2,0.7l-1.4,2.5C120.3,23.7,120.2,23.8,120,23.8z M122.7,18.9c-0.1,0-0.2,0-0.2-0.1c-0.2-0.1-0.3-0.4-0.2-0.7
					l1.4-2.5c0.1-0.2,0.4-0.3,0.7-0.2c0.2,0.1,0.3,0.4,0.2,0.7l-1.4,2.5C123.1,18.8,122.9,18.9,122.7,18.9z M125.5,13.9
					c-0.1,0-0.2,0-0.2-0.1c-0.2-0.1-0.3-0.4-0.2-0.7l1.4-2.5c0.1-0.2,0.4-0.3,0.7-0.2c0.2,0.1,0.3,0.4,0.2,0.7l-1.4,2.5
					C125.8,13.8,125.7,13.9,125.5,13.9z M128.3,8.9c-0.1,0-0.2,0-0.2-0.1c-0.2-0.1-0.3-0.4-0.2-0.7l1.4-2.5c0.1-0.2,0.4-0.3,0.7-0.2
					c0.2,0.1,0.3,0.4,0.2,0.7l-1.4,2.5C128.6,8.8,128.4,8.9,128.3,8.9z"/>
			</g>
			<g id="XMLID_644_">
				<path id="XMLID_645_" class="st2" d="M112.3,37.6c-0.2,0-0.3-0.1-0.4-0.3l-0.7-1.3c-0.1-0.2,0-0.5,0.2-0.7
					c0.2-0.1,0.5,0,0.7,0.2l0.3,0.5l0.3-0.5c0.1-0.2,0.4-0.3,0.7-0.2c0.2,0.1,0.3,0.4,0.2,0.7l-0.7,1.3
					C112.7,37.5,112.5,37.6,112.3,37.6z"/>
			</g>
			<g id="XMLID_636_">
				<path id="XMLID_637_" class="st2" d="M110.2,33.8c-0.2,0-0.3-0.1-0.4-0.3l-1.4-2.5c-0.1-0.2,0-0.5,0.2-0.7
					c0.2-0.1,0.5,0,0.7,0.2l1.4,2.5c0.1,0.2,0,0.5-0.2,0.7C110.4,33.8,110.3,33.8,110.2,33.8z M107.5,28.8c-0.2,0-0.3-0.1-0.4-0.3
					l-1.4-2.5c-0.1-0.2,0-0.5,0.2-0.7c0.2-0.1,0.5,0,0.7,0.2l1.4,2.5c0.1,0.2,0,0.5-0.2,0.7C107.6,28.8,107.6,28.8,107.5,28.8z
					 M104.7,23.8c-0.2,0-0.3-0.1-0.4-0.3l-1.4-2.5c-0.1-0.2,0-0.5,0.2-0.7c0.2-0.1,0.5,0,0.7,0.2l1.4,2.5c0.1,0.2,0,0.5-0.2,0.7
					C104.9,23.8,104.8,23.8,104.7,23.8z M101.9,18.9c-0.2,0-0.3-0.1-0.4-0.3l-1.4-2.5c-0.1-0.2,0-0.5,0.2-0.7c0.2-0.1,0.5,0,0.7,0.2
					l1.4,2.5c0.1,0.2,0,0.5-0.2,0.7C102.1,18.8,102,18.9,101.9,18.9z M99.2,13.9c-0.2,0-0.3-0.1-0.4-0.3l-1.4-2.5
					c-0.1-0.2,0-0.5,0.2-0.7c0.2-0.1,0.5,0,0.7,0.2l1.4,2.5c0.1,0.2,0,0.5-0.2,0.7C99.4,13.9,99.3,13.9,99.2,13.9z M96.4,8.9
					c-0.2,0-0.3-0.1-0.4-0.3l-1.4-2.5c-0.1-0.2,0-0.5,0.2-0.7c0.2-0.1,0.5,0,0.7,0.2l1.4,2.5c0.1,0.2,0,0.5-0.2,0.7
					C96.6,8.9,96.5,8.9,96.4,8.9z"/>
			</g>
		</g>
		<g id="XMLID_605_">
			<g id="XMLID_633_">
				<path id="XMLID_634_" class="st2" d="M6.1,3.9c-0.2,0-0.3-0.1-0.4-0.3L4.9,2.3C4.8,2.2,4.8,2,4.9,1.8C5,1.7,5.2,1.6,5.3,1.6h1.5
					c0.3,0,0.5,0.2,0.5,0.5S7.1,2.6,6.8,2.6H6.2l0.3,0.6c0.1,0.2,0,0.5-0.2,0.7C6.2,3.9,6.1,3.9,6.1,3.9z"/>
			</g>
			<g id="XMLID_626_">
				<path id="XMLID_627_" class="st2" d="M39.4,2.6h-3.3c-0.3,0-0.5-0.2-0.5-0.5s0.2-0.5,0.5-0.5h3.3c0.3,0,0.5,0.2,0.5,0.5
					S39.7,2.6,39.4,2.6z M32.9,2.6h-3.3c-0.3,0-0.5-0.2-0.5-0.5s0.2-0.5,0.5-0.5h3.3c0.3,0,0.5,0.2,0.5,0.5S33.2,2.6,32.9,2.6z
					 M26.4,2.6h-3.3c-0.3,0-0.5-0.2-0.5-0.5s0.2-0.5,0.5-0.5h3.3c0.3,0,0.5,0.2,0.5,0.5S26.7,2.6,26.4,2.6z M19.9,2.6h-3.3
					c-0.3,0-0.5-0.2-0.5-0.5s0.2-0.5,0.5-0.5h3.3c0.3,0,0.5,0.2,0.5,0.5S20.1,2.6,19.9,2.6z M13.3,2.6h-3.3c-0.3,0-0.5-0.2-0.5-0.5
					s0.2-0.5,0.5-0.5h3.3c0.3,0,0.5,0.2,0.5,0.5S13.6,2.6,13.3,2.6z"/>
			</g>
			<g id="XMLID_624_">
				<path id="XMLID_625_" class="st2" d="M43.4,3.9c-0.1,0-0.2,0-0.2-0.1c-0.2-0.1-0.3-0.4-0.2-0.7l0.3-0.6h-0.7
					c-0.3,0-0.5-0.2-0.5-0.5s0.2-0.5,0.5-0.5h1.5c0.2,0,0.3,0.1,0.4,0.2c0.1,0.2,0.1,0.3,0,0.5l-0.7,1.3C43.8,3.8,43.6,3.9,43.4,3.9
					z"/>
			</g>
			<g id="XMLID_616_">
				<path id="XMLID_617_" class="st2" d="M26.9,33.8c-0.1,0-0.2,0-0.2-0.1c-0.2-0.1-0.3-0.4-0.2-0.7l1.4-2.5
					c0.1-0.2,0.4-0.3,0.7-0.2c0.2,0.1,0.3,0.4,0.2,0.7l-1.4,2.5C27.2,33.7,27,33.8,26.9,33.8z M29.6,28.8c-0.1,0-0.2,0-0.2-0.1
					c-0.2-0.1-0.3-0.4-0.2-0.7l1.4-2.5c0.1-0.2,0.4-0.3,0.7-0.2c0.2,0.1,0.3,0.4,0.2,0.7l-1.4,2.5C30,28.7,29.8,28.8,29.6,28.8z
					 M32.4,23.8c-0.1,0-0.2,0-0.2-0.1c-0.2-0.1-0.3-0.4-0.2-0.7l1.4-2.5c0.1-0.2,0.4-0.3,0.7-0.2c0.2,0.1,0.3,0.4,0.2,0.7l-1.4,2.5
					C32.7,23.7,32.6,23.8,32.4,23.8z M35.1,18.9c-0.1,0-0.2,0-0.2-0.1c-0.2-0.1-0.3-0.4-0.2-0.7l1.4-2.5c0.1-0.2,0.4-0.3,0.7-0.2
					c0.2,0.1,0.3,0.4,0.2,0.7l-1.4,2.5C35.5,18.8,35.3,18.9,35.1,18.9z M37.9,13.9c-0.1,0-0.2,0-0.2-0.1c-0.2-0.1-0.3-0.4-0.2-0.7
					l1.4-2.5c0.1-0.2,0.4-0.3,0.7-0.2c0.2,0.1,0.3,0.4,0.2,0.7l-1.4,2.5C38.2,13.8,38.1,13.9,37.9,13.9z M40.7,8.9
					c-0.1,0-0.2,0-0.2-0.1c-0.2-0.1-0.3-0.4-0.2-0.7l1.4-2.5c0.1-0.2,0.4-0.3,0.7-0.2c0.2,0.1,0.3,0.4,0.2,0.7l-1.4,2.5
					C41,8.8,40.8,8.9,40.7,8.9z"/>
			</g>
			<g id="XMLID_614_">
				<path id="XMLID_615_" class="st2" d="M24.7,37.6c-0.2,0-0.3-0.1-0.4-0.3L23.6,36c-0.1-0.2,0-0.5,0.2-0.7c0.2-0.1,0.5,0,0.7,0.2
					l0.3,0.5l0.3-0.5c0.1-0.2,0.4-0.3,0.7-0.2c0.2,0.1,0.3,0.4,0.2,0.7l-0.7,1.3C25.1,37.5,24.9,37.6,24.7,37.6z"/>
			</g>
			<g id="XMLID_606_">
				<path id="XMLID_607_" class="st2" d="M22.6,33.8c-0.2,0-0.3-0.1-0.4-0.3l-1.4-2.5c-0.1-0.2,0-0.5,0.2-0.7c0.2-0.1,0.5,0,0.7,0.2
					l1.4,2.5c0.1,0.2,0,0.5-0.2,0.7C22.8,33.8,22.7,33.8,22.6,33.8z M19.9,28.8c-0.2,0-0.3-0.1-0.4-0.3l-1.4-2.5
					c-0.1-0.2,0-0.5,0.2-0.7c0.2-0.1,0.5,0,0.7,0.2l1.4,2.5c0.1,0.2,0,0.5-0.2,0.7C20,28.8,20,28.8,19.9,28.8z M17.1,23.8
					c-0.2,0-0.3-0.1-0.4-0.3l-1.4-2.5c-0.1-0.2,0-0.5,0.2-0.7c0.2-0.1,0.5,0,0.7,0.2l1.4,2.5c0.1,0.2,0,0.5-0.2,0.7
					C17.3,23.8,17.2,23.8,17.1,23.8z M14.4,18.9c-0.2,0-0.3-0.1-0.4-0.3l-1.4-2.5c-0.1-0.2,0-0.5,0.2-0.7c0.2-0.1,0.5,0,0.7,0.2
					l1.4,2.5c0.1,0.2,0,0.5-0.2,0.7C14.5,18.8,14.4,18.9,14.4,18.9z M11.6,13.9c-0.2,0-0.3-0.1-0.4-0.3l-1.4-2.5
					c-0.1-0.2,0-0.5,0.2-0.7c0.2-0.1,0.5,0,0.7,0.2l1.4,2.5c0.1,0.2,0,0.5-0.2,0.7C11.8,13.9,11.7,13.9,11.6,13.9z M8.8,8.9
					c-0.2,0-0.3-0.1-0.4-0.3L7,6.1C6.9,5.9,7,5.6,7.2,5.5c0.2-0.1,0.5,0,0.7,0.2l1.4,2.5c0.1,0.2,0,0.5-0.2,0.7
					C9,8.9,8.9,8.9,8.8,8.9z"/>
			</g>
		</g>
	</g>
</g>
</svg>
