<?xml version="1.0" encoding="UTF-8" standalone="no"?>
<svg
   xmlns:dc="http://purl.org/dc/elements/1.1/"
   xmlns:cc="http://creativecommons.org/ns#"
   xmlns:rdf="http://www.w3.org/1999/02/22-rdf-syntax-ns#"
   xmlns:svg="http://www.w3.org/2000/svg"
   xmlns="http://www.w3.org/2000/svg"
   width="186.53026"
   height="187"
   viewBox="0 0 186.53025 187"
   id="svg8486"
   version="1.1">
  <defs
     id="defs8488" />
  <metadata
     id="metadata8491">
    <rdf:RDF>
      <cc:Work
         rdf:about="">
        <dc:format>image/svg+xml</dc:format>
        <dc:type
           rdf:resource="http://purl.org/dc/dcmitype/StillImage" />
        <dc:title></dc:title>
      </cc:Work>
    </rdf:RDF>
  </metadata>
  <g
     id="layer1"
     transform="translate(-32.449161,-391.92409)">
    <g
       id="g7232"
       transform="matrix(1.25,0,0,-1.25,56.609411,539.19264)">
      <path
         d="M 0,0 110.039,0 55.02,103.725 0,0 Z M 116.688,-4 -6.649,-4 55.02,112.261 116.688,-4 Z"
         style="fill:#ffffff;fill-opacity:1;fill-rule:nonzero;stroke:none"
         id="path7234" />
    </g>
    <g
       id="g7236"
       transform="matrix(1.25,0,0,-1.25,56.609411,434.59784)">
      <path
         d="M 0,0 55.02,-103.725 110.039,0 0,0 Z M 55.02,-112.261 -6.649,4 116.688,4 55.02,-112.261 Z"
         style="fill:#ffffff;fill-opacity:1;fill-rule:nonzero;stroke:none"
         id="path7238" />
    </g>
    <g
       id="g7240"
       transform="matrix(1.25,0,0,-1.25,82.118411,445.92854)">
      <path
         d="M 0,0 34.612,-63.283 69.225,0 0,0 Z M 34.612,-69.535 -5.061,3 74.285,3 34.612,-69.535 Z"
         style="fill:#ffffff;fill-opacity:1;fill-rule:nonzero;stroke:none"
         id="path7242" />
    </g>
    <g
       id="g7244"
       transform="matrix(1.25,0,0,-1.25,82.118411,522.28224)">
      <path
         d="M 0,0 69.225,0 34.612,63.283 0,0 Z M 74.285,-3 -5.061,-3 34.612,69.535 74.285,-3 Z"
         style="fill:#ffffff;fill-opacity:1;fill-rule:nonzero;stroke:none"
         id="path7246" />
    </g>
    <g
       id="g7248"
       transform="matrix(1.25,0,0,-1.25,198.31404,533.73124)">
      <path
         d="m 0,0 c -3.512,0 -6.369,-2.857 -6.369,-6.369 0,-3.512 2.857,-6.369 6.369,-6.369 3.512,0 6.369,2.857 6.369,6.369 C 6.369,-2.857 3.512,0 0,0 m 0,-16.738 c -5.718,0 -10.369,4.651 -10.369,10.369 C -10.369,-0.651 -5.718,4 0,4 5.717,4 10.369,-0.651 10.369,-6.369 10.369,-12.087 5.717,-16.738 0,-16.738"
         style="fill:#ffffff;fill-opacity:1;fill-rule:nonzero;stroke:none"
         id="path7250" />
    </g>
    <g
       id="g7252"
       transform="matrix(1.25,0,0,-1.25,125.38379,410.88704)">
      <path
         d="m 0,0 c -31.244,0 -56.662,-25.418 -56.662,-56.662 0,-31.244 25.418,-56.662 56.662,-56.662 31.244,0 56.662,25.418 56.662,56.662 C 56.662,-25.418 31.244,0 0,0 m 0,-114.324 c -31.795,0 -57.662,25.867 -57.662,57.662 C -57.662,-24.867 -31.795,1 0,1 31.795,1 57.662,-24.867 57.662,-56.662 57.662,-88.457 31.795,-114.324 0,-114.324"
         style="fill:#ffffff;fill-opacity:1;fill-rule:nonzero;stroke:none"
         id="path7254" />
    </g>
    <g
       id="g7256"
       transform="matrix(1.25,0,0,-1.25,78.130411,484.50764)">
      <path
         d="m 0,0 c -19.6,0 -35.545,-15.946 -35.545,-35.546 0,-19.6 15.945,-35.545 35.545,-35.545 19.6,0 35.546,15.945 35.546,35.545 C 35.546,-15.946 19.6,0 0,0 m 0,-72.091 c -20.151,0 -36.545,16.394 -36.545,36.545 C -36.545,-15.395 -20.151,1 0,1 20.151,1 36.546,-15.395 36.546,-35.546 36.546,-55.697 20.151,-72.091 0,-72.091"
         style="fill:#ffffff;fill-opacity:1;fill-rule:nonzero;stroke:none"
         id="path7258" />
    </g>
    <g
       id="g7260"
       transform="matrix(1.25,0,0,-1.25,173.29816,484.50764)">
      <path
         d="m 0,0 c -19.6,0 -35.545,-15.946 -35.545,-35.546 0,-19.6 15.945,-35.545 35.545,-35.545 19.6,0 35.545,15.945 35.545,35.545 C 35.545,-15.946 19.6,0 0,0 m 0,-72.091 c -20.151,0 -36.545,16.394 -36.545,36.545 C -36.545,-15.395 -20.151,1 0,1 20.151,1 36.545,-15.395 36.545,-35.546 36.545,-55.697 20.151,-72.091 0,-72.091"
         style="fill:#ffffff;fill-opacity:1;fill-rule:nonzero;stroke:none"
         id="path7262" />
    </g>
    <g
       id="g7264"
       transform="matrix(1.25,0,0,-1.25,78.130411,399.62174)">
      <path
         d="m 0,0 c -19.6,0 -35.545,-15.946 -35.545,-35.545 0,-19.601 15.945,-35.546 35.545,-35.546 19.6,0 35.546,15.945 35.546,35.546 C 35.546,-15.946 19.6,0 0,0 m 0,-72.091 c -20.151,0 -36.545,16.394 -36.545,36.546 C -36.545,-15.394 -20.151,1 0,1 20.151,1 36.546,-15.394 36.546,-35.545 36.546,-55.697 20.151,-72.091 0,-72.091"
         style="fill:#ffffff;fill-opacity:1;fill-rule:nonzero;stroke:none"
         id="path7266" />
    </g>
    <g
       id="g7268"
       transform="matrix(1.25,0,0,-1.25,173.29816,399.62174)">
      <path
         d="m 0,0 c -19.6,0 -35.545,-15.946 -35.545,-35.545 0,-19.601 15.945,-35.546 35.545,-35.546 19.6,0 35.545,15.945 35.545,35.546 C 35.545,-15.946 19.6,0 0,0 m 0,-72.091 c -20.151,0 -36.545,16.394 -36.545,36.546 C -36.545,-15.394 -20.151,1 0,1 20.151,1 36.545,-15.394 36.545,-35.545 36.545,-55.697 20.151,-72.091 0,-72.091"
         style="fill:#ffffff;fill-opacity:1;fill-rule:nonzero;stroke:none"
         id="path7270" />
    </g>
    <g
       id="g7272"
       transform="matrix(1.25,0,0,-1.25,52.453541,533.73124)">
      <path
         d="m 0,0 c -3.512,0 -6.369,-2.857 -6.369,-6.369 0,-3.512 2.857,-6.369 6.369,-6.369 3.512,0 6.369,2.857 6.369,6.369 C 6.369,-2.857 3.512,0 0,0 m 0,-16.738 c -5.718,0 -10.369,4.651 -10.369,10.369 C -10.369,-0.651 -5.718,4 0,4 5.718,4 10.369,-0.651 10.369,-6.369 10.369,-12.087 5.718,-16.738 0,-16.738"
         style="fill:#ffffff;fill-opacity:1;fill-rule:nonzero;stroke:none"
         id="path7274" />
    </g>
    <g
       id="g7276"
       transform="matrix(1.25,0,0,-1.25,52.453541,424.13654)">
      <path
         d="m 0,0 c -3.512,0 -6.369,-2.857 -6.369,-6.369 0,-3.512 2.857,-6.369 6.369,-6.369 3.512,0 6.369,2.857 6.369,6.369 C 6.369,-2.857 3.512,0 0,0 m 0,-16.738 c -5.718,0 -10.369,4.651 -10.369,10.369 C -10.369,-0.651 -5.718,4 0,4 5.718,4 10.369,-0.651 10.369,-6.369 10.369,-12.087 5.718,-16.738 0,-16.738"
         style="fill:#ffffff;fill-opacity:1;fill-rule:nonzero;stroke:none"
         id="path7278" />
    </g>
    <g
       id="g7280"
       transform="matrix(1.25,0,0,-1.25,196.83641,424.13654)">
      <path
         d="m 0,0 c -3.512,0 -6.369,-2.857 -6.369,-6.369 0,-3.512 2.857,-6.369 6.369,-6.369 3.512,0 6.369,2.857 6.369,6.369 C 6.369,-2.857 3.512,0 0,0 m 0,-16.738 c -5.718,0 -10.369,4.651 -10.369,10.369 C -10.369,-0.651 -5.718,4 0,4 5.718,4 10.369,-0.651 10.369,-6.369 10.369,-12.087 5.718,-16.738 0,-16.738"
         style="fill:#ffffff;fill-opacity:1;fill-rule:nonzero;stroke:none"
         id="path7282" />
    </g>
    <g
       id="g7284"
       transform="matrix(1.25,0,0,-1.25,88.520031,449.93184)">
      <path
         d="M 0,0 10.085,0 5.043,-9.506"
         style="fill:#ffffff;fill-opacity:1;fill-rule:nonzero;stroke:none"
         id="path7286" />
    </g>
    <g
       id="g7288"
       transform="matrix(1.25,0,0,-1.25,162.49941,449.93184)">
      <path
         d="m 0,0 -10.085,0 5.042,-9.506"
         style="fill:#ffffff;fill-opacity:1;fill-rule:nonzero;stroke:none"
         id="path7290" />
    </g>
    <g
       id="g7292"
       transform="matrix(1.25,0,0,-1.25,98.868161,519.99974)">
      <path
         d="m 0,0 -10.085,0 5.042,9.506"
         style="fill:#ffffff;fill-opacity:1;fill-rule:nonzero;stroke:none"
         id="path7294" />
    </g>
    <g
       id="g7296"
       transform="matrix(1.25,0,0,-1.25,152.01841,519.50164)">
      <path
         d="M 0,0 10.085,0 5.043,9.506"
         style="fill:#ffffff;fill-opacity:1;fill-rule:nonzero;stroke:none"
         id="path7298" />
    </g>
  </g>
</svg>
